<svg width="197" height="240" viewBox="0 0 152 185" fill="none" xmlns="http://www.w3.org/2000/svg">
<path d="M134.714 163.798C134.73 169.347 130.229 173.796 124.681 173.782L19.5977 173.517C14.0308 173.503 9.54467 168.993 9.60944 163.426C9.92617 136.207 10.6696 59.8831 9.71878 10.6864C9.61002 5.05916 14.1279 0.440708 19.7562 0.430759C54.2866 0.36972 89.9438 0.0466088 125.425 0.359599C130.986 0.408657 135.421 4.97951 135.327 10.5401C134.508 58.513 134.637 136.308 134.714 163.798Z" fill="#6B967D"/>
<path d="M62.029 108.339C61.1193 108.339 60.397 107.627 60.397 106.73C60.397 105.806 61.1193 105.094 62.029 105.094C62.9654 105.094 63.6877 105.806 63.6877 106.73C63.6877 107.627 62.9654 108.339 62.029 108.339Z" fill="white"/>
<path fill-rule="evenodd" clip-rule="evenodd" d="M62.0285 108.604C60.985 108.604 60.1289 107.759 60.1289 106.73C60.1289 105.674 60.985 104.83 62.0285 104.83C63.0986 104.83 63.9548 105.674 63.9548 106.73C63.9548 107.759 63.0986 108.604 62.0285 108.604ZM62.0285 105.358C61.2793 105.358 60.664 105.965 60.664 106.73C60.664 107.469 61.2793 108.076 62.0285 108.076C62.8043 108.076 63.4197 107.469 63.4197 106.73C63.4197 105.965 62.8043 105.358 62.0285 105.358Z" fill="black"/>
<path d="M71.7408 108.339C70.8312 108.339 70.082 107.627 70.082 106.73C70.082 105.806 70.8312 105.094 71.7408 105.094C72.6504 105.094 73.3996 105.806 73.3996 106.73C73.3996 107.627 72.6504 108.339 71.7408 108.339Z" fill="white"/>
<path fill-rule="evenodd" clip-rule="evenodd" d="M71.7403 108.604C70.6969 108.604 69.814 107.759 69.814 106.73C69.814 105.674 70.6969 104.83 71.7403 104.83C72.7837 104.83 73.6666 105.674 73.6666 106.73C73.6666 107.759 72.7837 108.604 71.7403 108.604ZM71.7403 105.358C70.9644 105.358 70.349 105.965 70.349 106.73C70.349 107.469 70.9644 108.076 71.7403 108.076C72.5161 108.076 73.1315 107.469 73.1315 106.73C73.1315 105.965 72.5161 105.358 71.7403 105.358Z" fill="black"/>
<path d="M81.4498 108.339C80.5134 108.339 79.791 107.627 79.791 106.73C79.791 105.806 80.5134 105.094 81.4498 105.094C82.3594 105.094 83.0818 105.806 83.0818 106.73C83.0818 107.627 82.3594 108.339 81.4498 108.339Z" fill="white"/>
<path fill-rule="evenodd" clip-rule="evenodd" d="M81.4493 108.604C80.3791 108.604 79.5229 107.759 79.5229 106.73C79.5229 105.674 80.3791 104.83 81.4493 104.83C82.4927 104.83 83.3488 105.674 83.3488 106.73C83.3488 107.759 82.4927 108.604 81.4493 108.604ZM81.4493 105.358C80.6734 105.358 80.058 105.965 80.058 106.73C80.058 107.469 80.6734 108.076 81.4493 108.076C82.1984 108.076 82.8137 107.469 82.8137 106.73C82.8137 105.965 82.1984 105.358 81.4493 105.358Z" fill="black"/>
<path d="M57.1329 140.348C57.5342 139.108 58.0693 137.551 58.7114 136.338C58.7917 136.153 58.9522 135.968 59.1395 136.021C59.2465 136.047 59.3 136.126 59.3803 136.179C59.7013 136.628 60.4504 139.003 60.932 140.401C62.2875 140.524 63.6252 140.709 64.9451 140.955C65.1056 140.982 65.2929 141.035 65.3732 141.166C65.5337 141.404 65.2662 141.694 65.0254 141.853C64.0355 142.512 63.0188 143.119 61.9219 143.884C62.3321 145.098 62.7513 146.312 63.1794 147.526C63.2596 147.737 63.3399 148.001 63.1794 148.186C63.0723 148.318 62.8851 148.37 62.6978 148.344C62.5105 148.318 62.35 148.212 62.1894 148.133C61.039 147.5 59.9421 146.787 58.8184 146.075C57.0259 147.605 55.1531 149.004 54.618 148.608C54.1365 148.238 55.3136 145.336 56.036 143.884C54.8588 143.093 53.8422 142.591 52.7185 141.641C52.4242 141.378 52.4509 141.114 52.558 140.955C52.772 140.692 53.4676 140.639 53.9492 140.586C55.0728 140.454 55.9022 140.48 57.1329 140.348Z" fill="#006930"/>
<path fill-rule="evenodd" clip-rule="evenodd" d="M54.8602 148.95C54.6996 148.95 54.5659 148.898 54.4588 148.818C53.7632 148.264 55.1277 145.203 55.6895 143.989C55.3863 143.778 55.0831 143.585 54.7799 143.409C54.0308 142.934 53.3352 142.485 52.5325 141.826C52.1312 141.483 52.158 141.06 52.372 140.797C52.6128 140.453 53.2281 140.401 53.79 140.322H53.9238C54.4856 140.242 54.9939 140.216 55.5022 140.19C55.9571 140.19 56.4119 140.163 56.947 140.11C57.4553 138.501 57.9636 137.181 58.472 136.205C58.6592 135.862 58.9268 135.677 59.2211 135.756C59.4084 135.809 59.5154 135.941 59.5956 136.047C59.8632 136.416 60.3447 137.841 60.9601 139.662C61.0136 139.838 61.0671 140.005 61.1206 140.163C62.4316 140.295 63.7158 140.48 65 140.691C65.1605 140.744 65.4548 140.797 65.6153 141.034C65.8293 141.351 65.6688 141.746 65.1872 142.063C64.7324 142.38 64.2776 142.67 63.796 142.96C63.2877 143.277 62.7526 143.62 62.2175 143.989L63.4482 147.446C63.5017 147.631 63.6355 148.027 63.3947 148.343C63.2342 148.528 62.9666 148.634 62.6723 148.581C62.4316 148.555 62.2175 148.449 62.0838 148.37C61.0939 147.842 60.1575 147.235 59.2478 146.655C59.1051 146.567 58.9714 146.479 58.8465 146.391C56.4654 148.396 55.422 148.95 54.8602 148.95ZM54.7799 148.396C54.9136 148.475 55.529 148.528 58.6592 145.889C58.7395 145.81 58.8733 145.81 58.9803 145.863C59.1586 145.986 59.337 146.1 59.5154 146.206C60.425 146.787 61.3614 147.393 62.3245 147.921C62.4851 148 62.6188 148.053 62.7259 148.08C62.8329 148.08 62.9399 148.053 62.9934 148.027C63.0469 147.948 62.9934 147.763 62.9399 147.605L61.6557 143.963C61.6289 143.858 61.6557 143.726 61.7627 143.673C62.3781 143.251 62.9399 142.881 63.5017 142.538C63.9833 142.221 64.4381 141.931 64.893 141.641C65.0802 141.483 65.1873 141.351 65.1605 141.298C65.1337 141.245 64.9732 141.219 64.893 141.219C63.582 140.981 62.2443 140.797 60.9066 140.638C60.7996 140.638 60.7193 140.585 60.6926 140.48C60.6212 140.269 60.5409 140.049 60.4518 139.82C60.0504 138.58 59.4083 136.68 59.1676 136.337C59.1141 136.284 59.0873 136.258 59.0873 136.258C59.0605 136.258 59.007 136.311 58.9535 136.443C58.4452 137.419 57.9101 138.791 57.4018 140.427C57.375 140.533 57.268 140.585 57.161 140.612C56.5457 140.665 56.0373 140.691 55.529 140.717C55.0207 140.744 54.5391 140.77 53.9773 140.823L53.8435 140.849C53.5224 140.876 52.9071 140.955 52.7733 141.113C52.6931 141.219 52.8001 141.351 52.8803 141.43C53.6295 142.063 54.3251 142.512 55.0742 142.96C55.422 143.171 55.7965 143.409 56.1979 143.673C56.3049 143.752 56.3316 143.884 56.2781 143.989C55.315 145.969 54.6194 148.053 54.7799 148.396Z" fill="black"/>
<path d="M75.0026 140.348C75.3771 139.108 75.9389 137.551 76.581 136.338C76.6613 136.153 76.8218 135.968 77.0091 136.021C77.1161 136.047 77.1696 136.126 77.2231 136.179C77.5442 136.628 78.3201 139.003 78.8016 140.401C80.1394 140.524 81.4771 140.709 82.8148 140.955C82.9753 140.982 83.1626 141.035 83.2428 141.166C83.4033 141.404 83.1358 141.694 82.895 141.853C81.9051 142.512 80.8885 143.119 79.7648 143.884C80.1929 145.098 80.6209 146.312 81.049 147.526C81.1292 147.737 81.2095 148.001 81.049 148.186C80.942 148.318 80.7547 148.37 80.5674 148.344C80.3801 148.318 80.2196 148.212 80.0591 148.133C78.9086 147.5 77.8117 146.787 76.6881 146.075C74.8955 147.605 73.0227 149.004 72.4877 148.608C72.0061 148.238 73.1833 145.336 73.9056 143.884C72.7284 143.093 71.7118 142.591 70.5881 141.641C70.2938 141.378 70.3206 141.114 70.4276 140.955C70.6416 140.692 71.3372 140.639 71.8188 140.586C72.9157 140.454 73.7451 140.48 75.0026 140.348Z" fill="#006930"/>
<path fill-rule="evenodd" clip-rule="evenodd" d="M72.7282 148.95C72.5409 148.95 72.4339 148.898 72.3269 148.818C71.6045 148.264 72.9957 145.203 73.5576 143.989C73.2544 143.778 72.9512 143.585 72.6479 143.409C71.8988 142.934 71.1765 142.485 70.4006 141.826C69.9993 141.483 70.026 141.06 70.2133 140.797C70.4808 140.453 71.0962 140.401 71.658 140.322H71.765C72.3536 140.242 72.862 140.216 73.3703 140.19C73.8251 140.19 74.2799 140.163 74.815 140.11C75.3233 138.501 75.8317 137.181 76.34 136.205C76.5273 135.862 76.7948 135.677 77.0891 135.756C77.2496 135.809 77.3567 135.941 77.4369 136.047C77.7312 136.416 78.2128 137.841 78.8281 139.662C78.8817 139.838 78.9352 140.005 78.9887 140.163C80.2729 140.295 81.5838 140.48 82.868 140.691C83.0285 140.744 83.3228 140.797 83.4566 141.034C83.6706 141.351 83.5101 141.746 83.0553 142.063C82.6005 142.38 82.1456 142.67 81.6641 142.96C81.1557 143.277 80.6207 143.62 80.0856 143.989L81.2895 147.446C81.3698 147.631 81.5035 148.027 81.2628 148.343C81.1022 148.528 80.8347 148.634 80.5136 148.581C80.2996 148.555 80.0856 148.449 79.9251 148.37C78.9619 147.842 78.0255 147.235 77.0891 146.655C76.9643 146.567 76.8394 146.479 76.7146 146.391C74.3334 148.396 73.29 148.95 72.7282 148.95ZM72.6479 148.396C72.755 148.475 73.3971 148.528 76.5273 145.889C76.6076 145.81 76.7413 145.81 76.8216 145.863C77.0178 145.986 77.2051 146.1 77.3834 146.206C78.2931 146.787 79.2294 147.393 80.1926 147.921C80.3531 148 80.4601 148.053 80.5939 148.08C80.7009 148.08 80.8079 148.053 80.8347 148.027C80.915 147.948 80.8615 147.763 80.808 147.605L79.5237 143.963C79.497 143.858 79.5238 143.726 79.6308 143.673C80.2194 143.251 80.8079 142.881 81.3698 142.538C81.8514 142.221 82.3062 141.931 82.761 141.641C82.9483 141.483 83.0553 141.351 83.0285 141.298C83.0018 141.245 82.8145 141.219 82.761 141.219C81.4501 140.981 80.1123 140.797 78.7746 140.638C78.6676 140.638 78.5874 140.585 78.5606 140.48C78.4893 140.269 78.409 140.049 78.3198 139.82C77.9185 138.58 77.2764 136.68 77.0089 136.337C76.9821 136.284 76.9554 136.258 76.9554 136.258C76.9286 136.258 76.8751 136.311 76.7948 136.443C76.2865 137.419 75.7514 138.791 75.2698 140.427C75.2163 140.533 75.1361 140.585 75.0291 140.612C74.4137 140.665 73.9054 140.691 73.3971 140.717C72.8887 140.744 72.4072 140.77 71.8453 140.823L71.7115 140.849C71.3905 140.876 70.7752 140.955 70.6414 141.113C70.5611 141.219 70.6414 141.351 70.7484 141.43C71.4975 142.063 72.1931 142.512 72.9422 142.96C73.29 143.171 73.6646 143.409 74.0391 143.673C74.1462 143.752 74.1997 143.884 74.1462 143.989C73.183 145.969 72.4607 148.053 72.6479 148.396ZM72.6479 148.423H72.6747H72.6479Z" fill="black"/>
<path d="M94.6921 80.6066C78.9607 80.3163 63.0419 80.2899 47.3105 80.5274C47.15 80.5274 47.043 80.4219 47.043 80.2635C47.043 80.1316 47.15 79.9997 47.2837 79.9997C63.0419 79.7622 78.9874 79.7886 94.6921 80.0788C94.8526 80.0788 94.9596 80.2108 94.9596 80.3427C94.9596 80.501 94.8259 80.6066 94.6921 80.6066Z" fill="black"/>
<path d="M41.0761 88.127C40.9156 88.127 40.8086 87.9951 40.8086 87.8631C40.8086 87.7048 40.9156 87.5992 41.0761 87.5992L63.5229 87.4409C63.6834 87.4409 63.7904 87.5729 63.7904 87.7048C63.7904 87.8631 63.6834 87.9687 63.5229 87.9687L41.0761 88.127Z" fill="black"/>
<path d="M72.0322 88.0479C71.8717 88.0479 71.7646 87.9159 71.7646 87.784C71.7646 87.6257 71.8717 87.5201 72.0322 87.5201C80.9146 87.5201 100.713 87.3882 100.927 87.3882C101.06 87.3882 101.167 87.4937 101.194 87.6521C101.194 87.784 101.06 87.8896 100.927 87.8896C100.713 87.8896 80.9146 88.0479 72.0322 88.0479Z" fill="black"/>
<path d="M44.3422 95.7007C44.1817 95.7007 44.0747 95.5952 44.0747 95.4368C44.0747 95.3049 44.1817 95.173 44.3422 95.173C60.7425 95.173 97.2887 95.041 97.6633 95.041C97.797 95.041 97.904 95.1466 97.904 95.3049C97.904 95.4368 97.797 95.5688 97.6633 95.5688C97.2887 95.5688 60.7425 95.7007 44.3422 95.7007Z" fill="black"/>
<path d="M85.7347 117.655C65.3748 117.338 44.7206 117.312 24.3339 117.549C24.1734 117.549 24.0664 117.444 24.0664 117.312C24.0664 117.154 24.1734 117.048 24.3072 117.048C44.7206 116.811 65.3748 116.837 85.7347 117.127C85.8952 117.127 86.0022 117.259 86.0022 117.391C86.0022 117.523 85.8685 117.655 85.7347 117.655Z" fill="black"/>
<path d="M24.4629 125.149C24.3291 125.149 24.2221 125.043 24.1953 124.885C24.1953 124.753 24.3291 124.648 24.4629 124.648L46.9363 124.489C47.0701 124.489 47.2039 124.621 47.2039 124.753C47.2039 124.885 47.0701 125.017 46.9363 125.017L24.4629 125.149Z" fill="black"/>
<path d="M62.4319 156.682C49.8039 156.392 36.9887 156.366 24.3339 156.603C24.1734 156.603 24.0664 156.498 24.0664 156.366C24.0664 156.207 24.1734 156.102 24.3072 156.102C36.9619 155.838 49.8039 155.891 62.4319 156.181C62.5924 156.181 62.6994 156.287 62.6994 156.445C62.6994 156.577 62.5656 156.682 62.4319 156.682Z" fill="black"/>
<path d="M39.0683 164.203C38.9078 164.203 38.8008 164.097 38.8008 163.939C38.8008 163.807 38.9078 163.675 39.0416 163.675L69.568 163.543C69.7286 163.543 69.8356 163.649 69.8356 163.807C69.8356 163.939 69.7286 164.071 69.5948 164.071L39.0683 164.203Z" fill="black"/>
<path d="M55.0722 125.017C54.9385 125.017 54.8047 124.885 54.8047 124.753C54.8047 124.621 54.9385 124.489 55.0722 124.489L73.3186 124.357C73.4523 124.357 73.5861 124.463 73.5861 124.595C73.5861 124.753 73.4791 124.859 73.3186 124.859L55.0722 125.017Z" fill="black"/>
<path d="M100.075 69.8667H41.8579C41.8579 69.8667 43.0083 29.9684 42.286 9.75537C61.2279 9.75537 81.133 10.1248 100.717 10.3095C100.128 29.7309 100.075 69.8667 100.075 69.8667Z" fill="white"/>
<path fill-rule="evenodd" clip-rule="evenodd" d="M100.074 70.1308H41.8574C41.786 70.1308 41.7236 70.1044 41.6701 70.0516C41.6166 69.9988 41.5898 69.9373 41.5898 69.8669C41.6166 69.4711 42.7403 29.7311 42.0179 9.75558C42.0179 9.67641 42.0447 9.62364 42.0982 9.57086C42.1517 9.51809 42.2052 9.4917 42.2855 9.4917C54.5389 9.4917 67.4343 9.65003 79.9018 9.80835C86.7241 9.88752 93.8139 9.99307 100.716 10.0458C100.788 10.0458 100.85 10.0722 100.904 10.125C100.957 10.1778 100.984 10.2394 100.984 10.3097C100.395 29.4936 100.342 69.4711 100.342 69.8669C100.342 69.9988 100.235 70.1308 100.074 70.1308ZM42.1249 69.603H99.8069C99.8336 66.1462 99.9139 29.045 100.449 10.5736C93.6266 10.4944 86.6438 10.4153 79.9018 10.3361C67.5146 10.1778 54.7261 9.99307 42.553 9.99307C43.2219 29.2034 42.2319 66.0934 42.1249 69.603Z" fill="black"/>
<path d="M81.1615 28.1472C83.0343 31.5512 80.6799 36.8024 82.6329 39.5995C83.7031 41.1036 85.3084 42.1327 86.4855 43.5577C87.6627 44.9826 88.3583 47.1992 87.2882 48.7824C87.0206 49.1783 86.6461 49.5213 86.4588 49.9699C85.9505 51.1837 86.8869 52.3976 87.529 53.5058C90.9267 59.3375 84.3185 62.8471 77.8707 60.9736C74.9813 60.1292 73.8843 59.5486 71.7173 57.4376C69.5769 55.353 68.373 52.3712 67.9984 49.3366C67.5971 46.2756 67.9984 43.1618 68.694 40.1273C69.4967 36.6441 70.8076 33.0817 73.4028 30.6804C75.9979 28.2528 78.272 25.7195 81.1615 28.1472Z" fill="#006930"/>
<path fill-rule="evenodd" clip-rule="evenodd" d="M81.3469 61.7391C80.1697 61.7391 78.9658 61.5544 77.7886 61.2113C74.9527 60.3933 73.7755 59.8128 71.5281 57.6226C69.4948 55.6435 68.1571 52.7145 67.7291 49.3632C67.3813 46.6453 67.622 43.6107 68.4247 40.0747C69.4681 35.6152 70.9931 32.5806 73.2137 30.4696C73.392 30.3113 73.5704 30.1529 73.7487 29.9946C76.1566 27.6989 78.4575 25.5351 81.3202 27.9364C81.3558 27.954 81.3826 27.9803 81.4004 28.0155C82.3636 29.7835 82.2298 31.9473 82.1228 34.0847C82.0158 36.143 81.9088 38.0956 82.8451 39.4414C83.407 40.2594 84.1829 40.9719 84.932 41.6316C85.5206 42.1857 86.1359 42.7399 86.671 43.3996C87.8749 44.8509 88.6508 47.1994 87.5004 48.9146C87.3934 49.073 87.2863 49.2313 87.1793 49.3632C86.992 49.6007 86.8048 49.8382 86.6978 50.0757C86.3232 50.9993 86.9118 51.9756 87.4736 52.8992C87.5806 53.0575 87.6787 53.2158 87.7679 53.3742C89.0254 55.5643 89.0254 57.649 87.7412 59.2322C86.457 60.8419 84.0223 61.7391 81.3469 61.7391ZM78.8053 27.435C77.2268 27.435 75.7285 28.8335 74.0965 30.364C73.936 30.5224 73.7666 30.6895 73.5882 30.8654C71.4211 32.8709 69.9497 35.8263 68.933 40.1803C68.1304 43.6635 67.9163 46.6453 68.2374 49.3104C68.6655 52.5297 69.9496 55.3532 71.9027 57.2532C74.0965 59.3906 75.1667 59.9183 77.9491 60.71C81.668 61.8182 85.6276 61.053 87.3398 58.9156C88.4903 57.4906 88.4903 55.6435 87.3131 53.638C87.2239 53.4797 87.1258 53.3214 87.0188 53.1631C86.4302 52.1603 85.7346 51.0256 86.2162 49.891C86.3499 49.5479 86.564 49.3104 86.7512 49.0466C86.8761 48.9058 86.9831 48.7739 87.0723 48.6507C88.0622 47.1466 87.3666 45.0356 86.2697 43.7162C85.7613 43.1093 85.146 42.5552 84.5574 42.001C83.8083 41.315 83.0324 40.6025 82.4171 39.7317C81.3737 38.254 81.4807 36.2221 81.6145 34.0583C81.7215 32.0265 81.8285 29.9154 80.9456 28.3058C80.1965 27.6989 79.5009 27.435 78.8053 27.435Z" fill="black"/>
<path d="M68.876 32.1054C71.4711 34.5331 72.7821 38.069 73.5847 41.5522C74.2803 44.5868 74.6549 47.727 74.2803 50.7616C73.9058 53.8225 72.7018 56.778 70.5615 58.8626C68.3944 60.9736 67.2975 61.5541 64.408 62.3986C57.9603 64.2985 51.352 60.7625 54.7231 54.9572C55.3652 53.8489 56.3283 52.6351 55.82 51.4212C55.6059 50.9727 55.2581 50.6296 54.9906 50.2338C53.9204 48.6241 54.616 46.434 55.7932 45.009C56.9704 43.5841 58.5756 42.555 59.6458 41.0245C61.5989 38.2274 59.2177 32.9762 61.1173 29.5722C63.98 27.1709 66.2808 29.6777 68.876 32.1054Z" fill="#006930"/>
<path fill-rule="evenodd" clip-rule="evenodd" d="M60.9313 63.1639C58.2291 63.1639 55.7945 62.2667 54.5103 60.6834C53.2528 59.0738 53.2261 57.0155 54.5103 54.8253C54.5995 54.667 54.6976 54.5087 54.8046 54.3503C55.3664 53.4004 55.955 52.424 55.5804 51.5269C55.4734 51.263 55.2861 51.0519 55.0989 50.8144C54.9918 50.6561 54.8581 50.5241 54.7511 50.3658C53.6006 48.6506 54.3765 46.3021 55.5804 44.8244C56.1155 44.1911 56.7576 43.6105 57.3462 43.0828C58.0953 42.3967 58.8444 41.7106 59.433 40.8926C60.3694 39.5468 60.2624 37.5941 60.1286 35.5095C60.0216 33.3985 59.9146 31.2083 60.8778 29.4667C60.8956 29.4315 60.9134 29.4051 60.9313 29.3875C63.8207 26.9862 66.0948 29.15 68.5294 31.4458C68.7078 31.6041 68.8773 31.7624 69.0378 31.9208C71.2851 34.0054 72.8101 37.0664 73.8268 41.4995C74.6561 45.0355 74.8969 48.0965 74.5491 50.8144C74.1211 54.1392 72.7834 57.0683 70.75 59.0474C68.4759 61.2639 67.3255 61.8181 64.4896 62.6625C63.2856 63.0055 62.0817 63.1639 60.9313 63.1639ZM61.3326 29.757C60.4497 31.3666 60.5567 33.4512 60.6637 35.4831C60.7707 37.6469 60.9045 39.7051 59.8611 41.1829C59.2458 42.0537 58.4699 42.7661 57.7208 43.4522C57.1054 43.98 56.5168 44.5341 56.0085 45.1674C54.9116 46.4868 54.1892 48.5714 55.2059 50.0755C55.2951 50.2163 55.3932 50.357 55.5002 50.4977C55.7142 50.7352 55.9283 50.9991 56.062 51.3158C56.5436 52.4768 55.848 53.6115 55.2326 54.6142C55.1435 54.7726 55.0543 54.9309 54.9651 55.0892C53.7879 57.0947 53.7879 58.9154 54.9383 60.3668C56.6506 62.4778 60.6102 63.243 64.329 62.1611C67.1115 61.3431 68.1816 60.8153 70.3755 58.6779C72.3285 56.778 73.6127 53.9545 74.014 50.7352C74.3618 48.0964 74.1211 45.1146 73.3184 41.6314C72.3285 37.2775 70.857 34.322 68.69 32.2902C68.5116 32.1319 68.3332 31.9735 68.1549 31.8152C65.8273 29.5986 63.8207 27.6987 61.3326 29.757Z" fill="black"/>
<path d="M54.6977 66.4625C54.0021 57.8338 61.6537 51.9493 72.5427 52.1076C79.9536 52.2132 88.4614 55.3269 88.4614 66.6209C77.6795 66.5681 66.3625 66.6473 54.6977 66.4625Z" fill="white"/>
<path fill-rule="evenodd" clip-rule="evenodd" d="M88.4621 66.8583C88.4443 66.8583 88.4353 66.8583 88.4353 66.8583C85.2248 66.8583 82.0411 66.8583 78.6433 66.8583C70.8846 66.8583 62.8851 66.8583 54.6984 66.7264C54.5646 66.7264 54.4576 66.6208 54.4576 66.4889C54.1633 62.8738 55.287 59.6281 57.6948 57.0685C60.9321 53.6644 66.3632 51.7645 72.5434 51.8437C75.5933 51.8965 79.981 52.4506 83.4323 54.9574C86.9371 57.4907 88.7029 61.4224 88.7029 66.6208C88.7029 66.6912 88.6761 66.7528 88.6226 66.8055C88.5869 66.8407 88.5334 66.8583 88.4621 66.8583ZM54.9392 66.225C63.0457 66.3306 70.9649 66.3306 78.6433 66.3306C81.9341 66.3306 85.0376 66.3306 88.1945 66.357C88.034 53.9283 77.1986 52.4242 72.5434 52.3714C66.4969 52.2659 61.2264 54.113 58.0961 57.4379C55.822 59.8128 54.7251 62.8474 54.9392 66.225Z" fill="black"/>
<path d="M67.8911 53.1104C68.4797 50.6563 68.8008 48.1759 69.1218 45.2996C70.2187 44.9829 71.3959 44.8774 72.5463 44.9038C73.0547 44.9302 73.6165 45.0093 73.9643 45.4052C74.1516 45.6426 74.2319 45.9329 74.2854 46.2496C74.7134 48.2902 75.1326 50.3397 75.5428 52.3979C75.5963 52.5562 75.6231 52.7146 75.5696 52.8729C75.516 53.084 75.302 53.2423 75.1147 53.3743C73.0279 54.7992 69.9512 54.7728 67.8911 53.1104Z" fill="white"/>
<path fill-rule="evenodd" clip-rule="evenodd" d="M71.6897 54.6671C70.2717 54.6671 68.8537 54.2185 67.7301 53.3214C67.6498 53.2686 67.623 53.163 67.623 53.0575C68.2116 50.6562 68.5327 48.2021 68.8537 45.2731C68.8537 45.1412 68.934 45.062 69.041 45.0356C70.1915 44.7453 71.3686 44.6134 72.5458 44.6662C73.0809 44.6662 73.7498 44.7717 74.1511 45.2203C74.3919 45.5106 74.4721 45.88 74.5524 46.1967L75.8098 52.345C75.8366 52.5033 75.8901 52.7144 75.8366 52.9255C75.7563 53.2422 75.4888 53.4533 75.2747 53.6116C74.2046 54.3241 72.9471 54.6671 71.6897 54.6671ZM68.1849 53.0311C70.1112 54.456 72.9739 54.5352 74.9537 53.163C75.1142 53.0575 75.2747 52.9519 75.3283 52.7936C75.355 52.6881 75.3282 52.5561 75.3015 52.4506L74.0173 46.3022C73.9638 46.0383 73.9103 45.7481 73.7498 45.5634C73.4822 45.2467 72.9471 45.1939 72.5191 45.1675C71.4489 45.1412 70.3787 45.2467 69.3621 45.4842C69.0678 48.3077 68.7467 50.6826 68.1849 53.0311Z" fill="black"/>
<path d="M79.6874 28.2002C79.6874 28.2002 80.0887 32.132 80.0887 34.1111C81.1589 32.8708 83.4062 33.9527 82.6304 35.8527C81.9883 37.4623 80.1957 37.1193 80.1957 37.1193C80.1957 37.1193 79.5269 47.0939 72.1427 46.7508C62.7788 47.1466 62.324 36.6971 62.324 36.6971C61.1735 38.254 59.1402 36.9346 59.2472 35.3777C59.3542 33.6889 61.0665 32.3431 62.4577 34.1111C62.5647 31.9737 62.8323 30.2057 63.2603 28.0419C63.4476 26.7753 64.384 25.6934 65.5344 25.0601C66.6849 24.4532 68.0226 24.2157 69.3335 24.1629C70.8853 24.0837 72.4638 24.2157 73.9888 24.5587C76.0756 25.0073 78.2159 25.9573 79.6874 28.2002Z" fill="white"/>
<path fill-rule="evenodd" clip-rule="evenodd" d="M71.6365 47.0413C67.008 47.0413 64.6536 44.3233 63.5032 42.0012C62.5401 40.1013 62.219 38.2014 62.112 37.2778C61.6304 37.6472 61.0418 37.7528 60.4532 37.5417C59.5436 37.225 58.9282 36.3015 58.9818 35.3779C59.062 34.296 59.7041 33.346 60.5603 33.0822C60.9081 32.9766 61.5502 32.9238 62.219 33.478C62.3528 31.71 62.5936 30.074 63.0216 28.0157C63.1822 26.7491 64.065 25.5616 65.4027 24.8492C66.4194 24.2686 67.6769 23.9784 69.3089 23.8992C70.9141 23.8201 72.4926 23.952 74.0443 24.295C76.7197 24.8756 78.646 26.1158 79.9302 28.0685C79.9481 28.1037 79.957 28.1389 79.957 28.174C79.957 28.2004 80.278 31.4989 80.3316 33.5571C80.8934 33.2405 81.6158 33.2405 82.2043 33.5835C82.7929 33.953 83.3548 34.7974 82.8732 35.9584C82.3649 37.1986 81.1877 37.4625 80.4386 37.4097C80.3583 38.1222 80.064 40.1541 79.1811 42.1595C77.7097 45.4844 75.275 47.1468 72.1448 47.0149C71.9843 47.0325 71.8148 47.0413 71.6365 47.0413ZM62.326 36.4334C62.3617 36.4334 62.3884 36.4422 62.4063 36.4598C62.5133 36.4862 62.5936 36.5653 62.5936 36.6973C62.5936 36.6973 62.7273 39.2833 63.958 41.7901C65.6168 45.0622 68.3725 46.6719 72.1448 46.5135C72.1448 46.5135 72.1537 46.5135 72.1715 46.5135C79.1811 46.8302 79.9302 37.1986 79.9302 37.0931C79.9302 37.0403 79.957 36.9612 80.0373 36.9084C80.0908 36.882 80.171 36.8556 80.2513 36.8556C80.3048 36.882 81.8298 37.1459 82.3916 35.7737C82.7394 34.9029 82.3649 34.296 81.9368 34.0321C81.482 33.7682 80.7596 33.7155 80.2781 34.2696C80.1978 34.3488 80.0908 34.3752 79.9838 34.3488C79.8767 34.296 79.8232 34.2168 79.8232 34.1113C79.8232 32.2905 79.5022 28.8073 79.4487 28.2796C78.218 26.4588 76.4522 25.3505 73.9106 24.7964C72.4123 24.4798 70.8873 24.3478 69.3356 24.427C67.7839 24.4797 66.6067 24.77 65.6435 25.2978C64.4664 25.9311 63.6637 26.9866 63.53 28.0949C63.0484 30.3906 62.8076 32.1322 62.7273 34.1113C62.7006 34.2168 62.6471 34.3224 62.54 34.3488C62.433 34.3752 62.326 34.3488 62.2458 34.2696C61.7642 33.6627 61.2559 33.4252 60.7208 33.5835C60.0787 33.7682 59.5703 34.5335 59.5168 35.4043C59.4633 36.1168 59.9449 36.8292 60.6405 37.0667C60.9616 37.1723 61.5769 37.2514 62.112 36.539C62.1655 36.4862 62.2458 36.4334 62.326 36.4334Z" fill="black"/>
<path d="M78.9377 24.8224C75.6469 25.271 72.597 22.9752 72.1689 19.7295C71.7408 16.4575 74.0417 13.4757 77.3592 13.0534C80.65 12.6312 83.6732 14.9006 84.128 18.1727C84.5561 21.4184 82.2285 24.4002 78.9377 24.8224Z" fill="#006930"/>
<path fill-rule="evenodd" clip-rule="evenodd" d="M78.1352 25.1392C76.7439 25.1392 75.433 24.717 74.3093 23.8726C72.9716 22.8698 72.1155 21.3921 71.9014 19.7561C71.6874 18.12 72.1422 16.484 73.1589 15.1646C74.1755 13.8452 75.647 13.0008 77.3058 12.7897C78.9913 12.5786 80.6233 13.0008 81.961 14.0299C83.2987 15.0327 84.1548 16.484 84.3689 18.12C84.8237 21.5241 82.4158 24.6378 78.9645 25.0864C78.6791 25.1216 78.4027 25.1392 78.1352 25.1392ZM78.1619 13.2647C77.8944 13.2647 77.6357 13.2823 77.386 13.3175C75.861 13.5022 74.4966 14.2674 73.5602 15.4813C72.6238 16.6951 72.2225 18.1728 72.4365 19.6769C72.8378 22.7907 75.754 24.9809 78.911 24.585C82.0412 24.1628 84.2618 21.313 83.8605 18.1992C83.6465 16.6951 82.8706 15.3493 81.6399 14.4258C80.6233 13.6605 79.4193 13.2647 78.1619 13.2647Z" fill="black"/>
<path d="M75.65 25.0337C70.8878 29.4932 65.5102 30.9973 60.1861 31.9737C59.8651 31.1292 59.8383 28.9655 60.0256 28.0419C60.4804 25.7725 61.2028 23.7407 64.0655 21.6297C66.072 20.1256 68.5066 19.1492 71.0215 18.9645C73.5097 18.7534 75.864 20.5214 76.9074 22.131C78.7267 21.9199 80.653 23.424 81.5092 25.2976C82.2315 26.9336 82.7666 29.6251 80.9741 32.5278C80.6798 32.3431 76.8004 27.6988 75.65 25.0337Z" fill="#006930"/>
<path fill-rule="evenodd" clip-rule="evenodd" d="M80.9744 32.7916C80.9209 32.7916 80.8763 32.7828 80.8406 32.7652C80.4393 32.5013 76.8543 28.1474 75.5701 25.4822C70.7811 29.8098 65.3768 31.2875 60.24 32.2375C60.1062 32.2638 59.9992 32.1847 59.9457 32.0527C59.5979 31.1292 59.5979 28.8862 59.7851 27.989C60.2667 25.4558 61.1228 23.4767 63.9053 21.4185C65.9921 19.8616 68.5337 18.8852 70.9951 18.7005C73.4565 18.5158 75.8644 20.1255 77.0416 21.8407C78.8073 21.7351 80.8139 23.1601 81.7503 25.1919C82.3924 26.6169 83.1683 29.4667 81.1884 32.6597C81.1528 32.73 81.0993 32.774 81.0279 32.7916C81.0101 32.7916 80.9923 32.7916 80.9744 32.7916ZM75.6503 24.7697C75.6682 24.7697 75.686 24.7697 75.7038 24.7697C75.7841 24.7961 75.8644 24.8489 75.8911 24.928C76.9078 27.3029 80.038 31.1556 80.9209 32.1055C82.5529 29.2293 81.8305 26.696 81.2687 25.403C80.3858 23.5031 78.5398 22.1837 76.9345 22.3684C76.8275 22.3948 76.7205 22.342 76.667 22.2629C75.6503 20.6532 73.3227 19.0436 71.0486 19.2283C68.6675 19.413 66.2329 20.3366 64.2263 21.8407C61.2834 24.0045 60.668 26.1155 60.2935 28.0946C60.1329 28.939 60.1329 30.7861 60.3737 31.6833C65.457 30.7334 70.8078 29.2029 75.4631 24.8489C75.5166 24.7961 75.579 24.7697 75.6503 24.7697Z" fill="black"/>
<path d="M71.5266 43.2413C70.9647 43.2413 70.4831 43.0302 70.1353 42.6607C70.0551 42.5552 70.0551 42.3969 70.1621 42.2913C70.2959 42.2122 70.4564 42.2122 70.5367 42.3177C71.0182 42.8455 71.7673 42.7135 71.9814 42.6607C72.6502 42.5288 73.2656 42.1066 73.6669 41.4997C73.7472 41.3941 73.9077 41.3677 74.0414 41.4469C74.1485 41.5261 74.1752 41.6844 74.095 41.7899C73.6134 42.5024 72.891 43.0038 72.1152 43.1885C71.919 43.2237 71.7228 43.2413 71.5266 43.2413Z" fill="black"/>
<path d="M75.6215 35.5624C75.3272 35.536 75.0864 35.2985 75.0864 35.0082C75.0864 34.718 75.354 34.4805 75.675 34.4805C75.9961 34.5069 76.2369 34.7443 76.2101 35.0346C76.2101 35.3249 75.9426 35.5624 75.6215 35.5624Z" fill="black"/>
<path d="M67.2456 35.2196C66.9246 35.2196 66.6838 34.9821 66.7105 34.6654C66.7105 34.3752 66.9781 34.1641 67.2991 34.1641C67.5934 34.1641 67.8342 34.4279 67.8342 34.7182C67.8342 35.0085 67.5667 35.246 67.2456 35.2196Z" fill="black"/>
<path d="M71.0972 39.9697C71.0437 39.9697 70.9991 39.9521 70.9635 39.9169L70.2411 39.5211C70.1609 39.4683 69.9736 39.3627 69.9201 39.1516C69.8666 38.8878 70.0538 38.7294 70.1608 38.6239C70.8297 37.9906 71.1775 37.0406 71.0972 36.1434C71.0705 35.9851 71.1775 35.8796 71.3113 35.8532C71.4718 35.8268 71.6056 35.9323 71.6056 36.0907C71.7393 37.1462 71.3113 38.2281 70.5354 38.9933C70.5176 39.0109 70.4997 39.0285 70.4819 39.0461C70.4819 39.0461 70.4908 39.0549 70.5087 39.0725L71.231 39.4683C71.338 39.5474 71.3915 39.7058 71.3113 39.8377C71.2578 39.9169 71.1775 39.9697 71.0972 39.9697Z" fill="black"/>
<path fill-rule="evenodd" clip-rule="evenodd" d="M76.1277 39.4151C75.2448 39.4151 74.3886 39.0721 73.7465 38.4124C73.0777 37.7263 72.6764 36.8027 72.6496 35.8C72.5694 33.7154 74.0408 31.9738 75.9671 31.921C76.8768 31.8682 77.7864 32.2376 78.4553 32.9237C79.1241 33.6098 79.5254 34.5334 79.5789 35.5361C79.6592 37.6207 78.161 39.3623 76.2347 39.4151C76.199 39.4151 76.1633 39.4151 76.1277 39.4151ZM76.0741 32.4224C76.0385 32.4224 76.0028 32.4224 75.9671 32.4224C74.3619 32.4751 73.1044 33.9792 73.1579 35.7736C73.1847 36.6444 73.5325 37.4624 74.1211 38.0429C74.7097 38.6235 75.4588 38.9401 76.2347 38.9137C77.8399 38.8346 79.0974 37.3569 79.0438 35.5625C79.0171 34.6917 78.6693 33.8737 78.0807 33.2932C77.5189 32.739 76.8233 32.4224 76.0741 32.4224Z" fill="black"/>
<path fill-rule="evenodd" clip-rule="evenodd" d="M66.6574 39.0196C65.7746 39.0196 64.9184 38.6502 64.2763 37.9905C63.6075 37.3044 63.2062 36.3808 63.1794 35.3781C63.0991 33.2935 64.5706 31.5519 66.4969 31.4991C67.4333 31.4463 68.3162 31.8158 68.9851 32.5019C69.6539 33.1879 70.0552 34.1115 70.1087 35.1142C70.189 37.1989 68.6908 38.9405 66.7645 38.9932C66.7288 39.0108 66.6931 39.0196 66.6574 39.0196ZM66.6039 32.0005C66.5683 32.0005 66.5326 32.0005 66.4969 32.0005C64.8917 32.0796 63.6342 33.5574 63.6877 35.3517C63.7145 36.2225 64.0623 37.0405 64.6509 37.6211C65.2395 38.2016 65.9886 38.5183 66.7645 38.4919C68.3697 38.4391 69.6539 36.935 69.5736 35.1406C69.5469 34.2698 69.1991 33.4518 68.6105 32.8713C68.0754 32.3171 67.353 32.0005 66.6039 32.0005Z" fill="black"/>
<path d="M69.8157 34.7714C69.6552 34.7714 69.5481 34.6395 69.5749 34.5075C69.6017 33.9534 70.1635 33.6104 70.7253 33.5312C71.5815 33.3729 72.5446 33.6895 73.1332 34.2965C73.2402 34.402 73.2134 34.5603 73.1064 34.6659C73.0262 34.7714 72.8389 34.7714 72.7586 34.6659C72.2771 34.1645 71.5012 33.927 70.8056 34.0326C70.4578 34.0853 70.11 34.2701 70.0832 34.5339C70.0832 34.6659 69.9494 34.7714 69.8157 34.7714Z" fill="black"/>
<path d="M81.1553 22.4477C81.0751 22.4477 80.968 22.4213 80.9145 22.3158C80.5667 21.7089 80.0049 21.1811 79.2558 20.7325C78.5602 20.3103 77.7843 20.02 77.0619 19.7562C76.9014 19.7034 76.8479 19.5714 76.9014 19.4395C76.9282 19.3076 77.0887 19.2284 77.2225 19.2812C77.9983 19.5451 78.801 19.8617 79.5233 20.2839C80.3527 20.7853 80.968 21.3922 81.3694 22.0519C81.4496 22.1838 81.4229 22.3422 81.2891 22.4213C81.2534 22.4389 81.2088 22.4477 81.1553 22.4477Z" fill="black"/>
<g opacity="0.1">
<path d="M68.4525 49.6271C68.4882 49.416 68.5328 49.2137 68.5863 49.0201C68.6666 48.6507 68.7468 48.2813 68.7736 47.8855C68.8449 47.5336 68.9074 47.173 68.9609 46.8036C68.9787 46.7684 68.9787 46.7332 68.9609 46.698C68.9609 46.6804 68.9698 46.654 68.9876 46.6189C68.9876 46.5397 68.9609 46.4869 68.9074 46.4605C69.1214 46.2494 69.4692 46.4605 69.7635 46.5661C69.9508 46.6189 70.1648 46.698 70.5929 46.7508C70.9407 46.8036 72.0108 46.7508 72.3319 46.8036C72.4389 46.83 72.5192 46.8827 72.5727 46.9619C72.751 46.8563 72.9294 46.7596 73.1078 46.6716C73.2148 46.6013 73.3307 46.5397 73.4556 46.4869C73.741 46.4517 74.0263 46.4078 74.3117 46.355C74.3117 46.3902 74.3117 46.4253 74.3117 46.4605C74.3117 46.5133 74.3206 46.5573 74.3385 46.5925C74.3385 46.6277 74.3474 46.654 74.3652 46.6716C74.4187 46.7948 74.4633 46.9091 74.499 47.0147C74.4811 47.0323 74.4633 47.0499 74.4455 47.0674C73.4288 47.7008 72.3854 48.2813 71.3955 48.941C70.8961 49.2752 70.3967 49.6095 69.8973 49.9437C69.6565 50.0493 69.4692 50.2076 69.2017 50.2868C69.2195 50.2868 69.2284 50.2868 69.2284 50.2868C69.2106 50.2868 69.2017 50.2868 69.2017 50.2868C69.2017 50.2868 69.1927 50.2956 69.1749 50.3131C69.1571 50.3131 69.1392 50.3131 69.1214 50.3131C69.0857 50.3307 69.059 50.3395 69.0411 50.3395C69.0411 50.3395 69.0322 50.3395 69.0144 50.3395C69.0322 50.3395 69.0411 50.3395 69.0411 50.3395C68.9876 50.3395 68.9341 50.3395 68.8806 50.3395C68.6933 50.3131 68.5596 50.1812 68.5061 50.0229C68.4704 49.9877 68.4436 49.9525 68.4258 49.9173C68.4258 49.8118 68.4347 49.715 68.4525 49.6271Z" fill="black"/>
</g>
<path d="M62.3258 35.5362C62.308 35.5362 62.2991 35.5362 62.2991 35.5362C62.1386 35.5098 62.0315 35.3778 62.0583 35.2459L62.1653 34.0321C62.1921 33.8737 62.2991 33.7682 62.4596 33.7946C62.5934 33.7946 62.7004 33.9265 62.7004 34.0848L62.5666 35.2987C62.5666 35.4306 62.4329 35.5362 62.3258 35.5362Z" fill="black"/>
<path d="M80.0337 35.5626C79.8999 35.5626 79.7661 35.4307 79.7661 35.2987L79.8196 33.7946C79.8196 33.6363 79.9266 33.5308 80.0872 33.5308C80.2209 33.5308 80.3547 33.6627 80.3279 33.7946L80.3012 35.3251C80.3012 35.4571 80.1942 35.5626 80.0337 35.5626Z" fill="black"/>
<g opacity="0.1">
<path d="M79.4496 31.9477C79.2356 31.974 79.1018 31.8157 78.9948 31.6574C78.7808 31.4727 78.5935 31.288 78.4062 31.0769C77.8712 30.4963 77.4431 29.8366 77.015 29.1769C76.4799 28.2534 75.8646 27.752 75.3295 26.6965C74.9817 27.0659 74.6071 27.3826 74.2326 27.6992C72.9751 28.702 71.5572 29.3353 70.1392 30.0214C67.9721 31.1296 65.6713 31.9477 63.2901 32.449C62.648 32.6337 62.22 31.7629 62.7551 31.3671C62.8888 31.2352 63.1029 31.2352 63.2634 31.2088C63.5844 31.1384 63.9055 31.0593 64.2265 30.9713C65.1629 30.7602 66.0726 30.5227 66.9555 30.2325C68.2932 29.7575 68.9888 29.4408 70.3265 28.8075C71.8515 28.1478 73.1624 27.3562 74.1523 26.459C74.3664 26.2743 74.5804 26.0896 74.7409 25.8521C74.8212 25.7465 74.9014 25.6146 75.0085 25.5354C75.2225 25.0868 75.9716 25.0077 76.1589 25.6146C76.4264 26.5118 77.3093 27.6992 77.9514 28.8603C78.54 29.9422 79.1821 30.681 79.851 31.288C80.0382 31.5518 79.7974 31.974 79.4496 31.9477Z" fill="black"/>
</g>
<g opacity="0.1">
<path d="M80.9977 24.1105C80.6766 23.9522 80.8639 23.9786 80.5696 23.7147C80.4894 23.6355 80.1683 23.3717 80.0613 23.2925C80.0434 23.2749 80.0345 23.2661 80.0345 23.2661C78.8841 22.4217 78.242 22.2634 77.1718 22.1578C76.9846 22.1314 76.7705 22.0787 76.6368 21.9467C76.5832 21.8939 76.4762 21.762 76.4495 21.7092C76.4316 21.6916 76.4138 21.674 76.396 21.6564C75.1653 20.3634 74.0951 19.4927 72.4096 19.2024C71.9815 19.0968 71.928 18.4371 72.3561 18.3052C72.5166 18.226 72.7306 18.3052 72.8912 18.3052C73.3192 18.3844 73.7473 18.5427 74.1486 18.7274C75.5666 19.3871 76.3692 20.0204 77.2789 21.1287C77.6802 21.1551 78.0815 21.1815 78.4828 21.2606C79.7135 21.6037 80.7301 22.3689 81.5595 23.2925C81.9608 23.6619 81.506 24.348 80.9977 24.1105Z" fill="black"/>
</g>
<path d="M96.1139 136.734C96.756 134.623 97.6656 131.958 98.709 129.926C98.8428 129.636 99.1103 129.293 99.4314 129.372C99.5919 129.425 99.6989 129.557 99.7792 129.689C100.314 130.427 101.572 134.412 102.348 136.787C104.559 137.016 106.753 137.332 108.929 137.737C109.197 137.79 109.518 137.842 109.651 138.08C109.919 138.476 109.464 138.951 109.063 139.241C107.458 140.349 105.772 141.405 103.926 142.671C104.622 144.73 105.317 146.788 106.013 148.846C106.147 149.216 106.254 149.638 106.013 149.954C105.826 150.192 105.505 150.271 105.21 150.218C104.916 150.165 104.648 150.034 104.381 149.875C102.508 148.82 100.689 147.606 98.8696 146.418C95.8998 149.031 92.8231 151.406 91.9402 150.72C91.1644 150.086 93.1174 145.178 94.2946 142.724C92.3415 141.378 90.7095 140.534 88.8368 138.924C88.3552 138.502 88.4087 138.053 88.6227 137.763C88.9438 137.315 90.0674 137.209 90.8701 137.13C92.6893 136.892 94.0538 136.945 96.1139 136.734Z" fill="#006930"/>
<path fill-rule="evenodd" clip-rule="evenodd" d="M92.341 151.089C92.1091 151.089 91.9219 151.027 91.7792 150.904C91.4581 150.666 91.2173 150.033 92.127 147.315C92.6621 145.732 93.4112 143.99 93.9463 142.803C93.3844 142.433 92.8493 142.09 92.3143 141.747C91.0836 140.956 89.9331 140.217 88.6757 139.108C88.0603 138.581 88.1406 137.974 88.4081 137.604C88.7827 137.103 89.7459 136.997 90.6287 136.892L90.8428 136.866C91.7792 136.734 92.5818 136.707 93.4379 136.654C94.2138 136.628 94.9897 136.575 95.9261 136.496C96.7554 133.699 97.6116 131.456 98.4677 129.794C98.7353 129.266 99.1098 129.028 99.5111 129.134C99.7519 129.187 99.9124 129.371 100.019 129.53C100.474 130.216 101.464 133.198 102.24 135.599C102.347 135.933 102.445 136.25 102.534 136.549C104.701 136.76 106.869 137.077 108.982 137.472C109.223 137.525 109.651 137.604 109.865 137.921C110.159 138.396 109.918 138.95 109.223 139.452C108.474 139.953 107.725 140.454 106.922 140.982C106.066 141.536 105.183 142.143 104.247 142.776L106.253 148.766C106.36 149.057 106.574 149.664 106.226 150.112C106.012 150.402 105.611 150.534 105.183 150.482C104.808 150.429 104.487 150.244 104.273 150.112C102.668 149.215 101.116 148.212 99.6181 147.236C99.3684 147.078 99.1187 146.91 98.869 146.735C95.4712 149.716 93.4379 151.089 92.341 151.089ZM99.3506 129.635C99.2168 129.635 99.0563 129.82 98.9493 130.031C98.0932 131.667 97.2103 134.016 96.3809 136.786C96.3541 136.892 96.2471 136.971 96.1401 136.971C95.1234 137.103 94.2941 137.129 93.4647 137.182C92.6353 137.209 91.8327 137.261 90.8963 137.367L90.6822 137.393C90.0401 137.472 89.077 137.604 88.8095 137.921C88.7292 138.027 88.5954 138.343 89.0235 138.713C90.2542 139.795 91.4046 140.533 92.6086 141.299C93.1971 141.694 93.8125 142.064 94.4278 142.513C94.5348 142.592 94.5884 142.724 94.5349 142.829C93.973 143.99 93.1704 145.837 92.6353 147.5C91.7257 150.165 92.1002 150.482 92.1002 150.508C92.448 150.772 93.7322 150.561 98.6817 146.233C98.762 146.154 98.8958 146.128 99.0028 146.207C99.306 146.4 99.6092 146.594 99.9124 146.787C101.411 147.764 102.936 148.793 104.514 149.664C104.782 149.796 104.996 149.927 105.237 149.954C105.451 149.98 105.691 149.954 105.798 149.796C105.959 149.584 105.879 149.268 105.772 148.925L103.685 142.776C103.658 142.671 103.685 142.539 103.792 142.486C104.782 141.774 105.718 141.14 106.654 140.533C107.43 140.032 108.179 139.531 108.929 139.029C109.169 138.845 109.597 138.449 109.437 138.211C109.33 138.079 109.116 138.027 108.902 137.974C106.735 137.578 104.514 137.261 102.32 137.05C102.213 137.024 102.133 136.971 102.106 136.866C101.981 136.514 101.857 136.144 101.732 135.757C101.009 133.514 99.9927 130.427 99.5646 129.82C99.5111 129.741 99.4309 129.662 99.3773 129.635C99.3595 129.635 99.3506 129.635 99.3506 129.635Z" fill="black"/>
<path fill-rule="evenodd" clip-rule="evenodd" d="M32.8869 41.7373C32.5391 43.9538 31.5225 45.8802 30.5058 47.8065C29.5427 47.437 28.5795 47.094 27.5628 47.0412C26.5729 46.9884 25.5295 47.2259 24.7804 47.8592C24.2453 48.3078 23.8975 48.862 23.6032 49.4689C22.9879 50.7091 22.6936 52.0813 22.7471 53.4534C22.105 53.9548 21.4094 54.034 20.7138 54.1131C19.162 54.2539 17.6014 54.3682 16.0318 54.4562C15.9783 53.084 15.4432 51.7382 14.4265 50.8147C13.4366 49.8911 11.9384 49.4689 10.6542 49.8647C10.2797 49.9966 9.95861 50.155 9.6108 50.3397C8.80818 50.7355 7.97881 51.1577 7.49724 51.8966C7.41698 51.9493 3.02929 47.6217 3.02929 47.6217C4.20648 46.5662 5.03585 45.1149 5.30339 43.558C5.38366 43.1358 5.41041 42.6872 5.30339 42.265C5.14287 41.6317 4.66129 41.104 4.12621 40.7345C3.56437 40.3915 2.92227 40.1804 2.30693 39.9693C1.73617 39.811 1.16541 39.6614 0.594656 39.5207C0.380623 39.5207 2.14641 32.9765 2.14641 32.9765C3.0828 33.0557 4.0192 33.0821 4.95559 33.0029C5.49068 32.9502 6.0525 32.871 6.53408 32.6599C7.39021 32.2905 8.08582 31.5516 8.48713 30.7336C8.88844 29.8892 9.04897 28.9656 9.07572 28.042C9.07572 27.1712 8.96871 26.274 8.51389 25.5616C10.681 24.638 12.9818 23.9783 15.3362 23.6089C16.1656 25.9046 18.3594 27.6726 20.7673 27.9629C22.6401 27.9893 24.5129 27.2504 25.7703 25.9046C26.0646 26.0893 26.3589 26.1949 26.5997 26.3796C26.7335 26.4852 26.8672 26.6171 27.001 26.749C28.3655 28.2795 29.6497 29.8892 30.7733 31.578C29.8102 32.5016 28.9808 33.5571 28.6598 34.7709C28.2584 36.2222 28.5795 37.8055 29.3821 39.0457C30.1847 40.3123 31.4689 41.2359 32.8869 41.7373ZM19.5633 34.7709C19.5901 34.507 19.4831 34.2432 19.162 34.164C18.1454 33.8737 17.0485 34.032 16.1388 34.507C15.2559 34.9556 14.4533 35.5625 13.8647 36.3278C12.7678 37.7791 12.5003 39.9165 13.4099 41.4998C13.6507 41.922 14.052 42.2123 14.3998 42.5289C14.7476 42.8719 15.1222 43.1622 15.577 43.3205C16.0585 43.4789 16.5669 43.4789 17.0752 43.4789C17.5568 43.4789 18.0919 43.5316 18.5467 43.4261C18.9748 43.3205 19.4296 43.083 19.8041 42.8192C20.1519 42.5289 20.4997 42.2386 20.7673 41.8956C21.3559 41.1831 21.7572 40.3651 21.8642 39.4679C22.0782 37.6472 21.2221 35.6153 19.5633 34.7709Z" fill="white"/>
<path fill-rule="evenodd" clip-rule="evenodd" d="M24.7069 39.3885C24.5197 41.394 23.9043 43.2939 22.3793 44.6133C20.8543 45.9327 18.7675 46.6188 16.7877 46.3549C14.3798 46.091 12.2127 44.455 11.2228 42.2912C10.2329 40.101 10.4202 37.4358 11.6777 35.404C12.9351 33.3721 14.7276 32.1583 17.1087 31.9208C18.5 31.7625 20.346 32.1319 21.764 33.0555C24.4126 34.7707 24.8139 38.3858 24.7069 39.3885ZM22.2455 38.8608C22.192 37.1192 21.1754 35.3776 19.5701 34.5596C18.2592 33.8999 16.6272 34.0846 15.3965 34.8762C14.1658 35.6678 13.3632 37.0136 13.0154 38.4122C12.8816 38.9927 12.8013 39.5996 12.9083 40.1802C12.9886 40.7607 13.2562 41.3148 13.6307 41.7898C14.8346 43.3995 17.1088 44.1383 19.035 43.4786C20.9613 42.8453 22.3526 40.8662 22.2455 38.8608Z" fill="#006930"/>
<g opacity="0.1">
<path d="M25.5357 40.4703C25.5089 41.5258 25.1611 42.9243 24.4388 44.1382C23.9304 44.7979 23.2348 45.3256 22.6195 45.9062C21.7634 46.5923 20.8002 47.12 19.73 47.3839C19.1414 47.5686 18.4994 47.5686 17.884 47.595C16.8138 47.6478 15.7169 47.4367 14.7003 47.0408C14.3792 46.7242 14.0582 46.4075 13.7371 46.0909C13.5053 45.8446 13.2734 45.5895 13.0415 45.3256C13.3626 45.2729 13.6301 45.5895 13.8976 45.7478C14.7538 46.2228 14.9946 46.4075 16.0112 46.5922C16.6801 46.6714 17.3489 46.6714 18.0178 46.6714C18.8472 46.6186 19.5428 46.302 20.1046 46.0645C20.5594 45.8534 20.9875 45.6159 21.4156 45.352C21.9774 44.9298 21.9239 44.9562 22.4322 44.5604C22.4322 44.534 22.8068 44.1646 22.887 44.059C22.9049 44.0238 22.9227 43.9887 22.9405 43.9535C22.9584 43.9535 22.9762 43.9447 22.994 43.9271C23.0476 43.8479 23.2081 43.6104 23.2616 43.5313C23.2883 43.4785 23.3419 43.3993 23.3954 43.3466C23.984 42.5285 24.091 42.2119 24.3853 41.1564C24.4655 40.8925 24.5725 40.655 24.6528 40.4175C24.6528 40.3999 24.6528 40.3823 24.6528 40.3647C24.6885 39.9074 24.6796 39.4588 24.6261 39.019C24.5726 38.5704 24.4655 38.1218 24.412 37.6732C24.3853 37.1982 24.1177 36.8288 24.6261 36.6177C24.6439 36.6177 24.6706 36.6177 24.7063 36.6177C24.8668 37.0663 25.0541 37.5149 25.2146 37.9635C25.286 38.2097 25.3663 38.456 25.4554 38.7023C25.5357 39.3884 25.5624 40.0745 25.5357 40.4703Z" fill="black"/>
</g>
<g opacity="0.1">
<path d="M33.081 42.1592C32.7956 42.7222 32.5013 43.2851 32.1981 43.8481C31.6095 44.93 31.2617 46.1174 30.5661 47.1465C30.5126 47.2169 30.4502 47.2785 30.3788 47.3312C30.2986 47.4632 30.245 47.6215 30.1113 47.7007C29.71 47.9382 29.1749 47.5687 29.2551 47.1465C29.2819 46.9882 29.3622 46.8563 29.4424 46.7243C29.6565 46.223 30.031 45.8007 30.3253 45.3258C31.0477 44.1647 31.7433 42.9773 32.4389 41.7898C32.5994 41.4995 33.0542 41.5523 33.1345 41.869C33.1612 41.9745 33.1345 42.0801 33.081 42.1592Z" fill="black"/>
</g>
<g opacity="0.1">
<path d="M22.3785 53.3477C22.2447 53.5588 22.0574 53.6644 21.8434 53.7172C21.4956 53.7963 21.121 53.8755 20.7732 53.981C19.275 54.3505 17.7232 54.3241 16.1715 54.2977C15.2618 54.2713 15.2618 52.9255 16.1715 52.8991C18.2048 52.9783 19.382 52.9519 21.1478 52.4769C21.4153 52.4242 21.6829 52.2658 21.9504 52.345C22.3785 52.4506 22.5925 52.9783 22.3785 53.3477Z" fill="black"/>
</g>
<path fill-rule="evenodd" clip-rule="evenodd" d="M15.9276 54.6145C15.7939 54.6145 15.6601 54.5089 15.6601 54.377C15.5798 53.0576 14.9912 51.791 14.0281 50.8938C13.6268 50.5244 12.9847 50.0758 12.2088 49.9966C11.5667 49.9438 10.8979 50.1549 10.2558 50.3924C9.2926 50.7618 8.30269 51.2368 7.68735 52.1868C7.63384 52.2396 7.58034 52.2659 7.50008 52.2923C7.44657 52.2923 7.36631 52.2923 7.3128 52.2396C5.41325 50.7882 3.91502 49.3897 2.76459 47.8856C2.65758 47.78 2.68432 47.6217 2.79134 47.5162C3.94177 46.5926 4.77115 45.194 5.0387 43.7427C5.14571 43.1622 5.11895 42.74 5.01193 42.3442C4.7979 41.6845 4.18256 41.1303 3.19265 40.6289C2.25626 40.2067 1.26636 39.8901 0.22295 39.7318C0.151605 39.7142 0.0891756 39.679 0.0356673 39.6262C-4.83983e-06 39.5734 -0.00891635 39.5119 0.00891974 39.4415C0.383478 37.2249 0.998823 34.982 1.88171 32.7918C1.93522 32.6598 2.09574 32.5807 2.22951 32.6335C3.40669 33.0557 6.40315 33.1084 7.60709 31.6571C9.61365 29.2822 8.67725 26.5643 8.32945 25.799C8.27594 25.6671 8.32945 25.5088 8.46322 25.456C9.61365 24.9282 11.5132 24.3741 13.5465 23.7936C14.1619 23.6088 14.8039 23.4241 15.446 23.2394C15.5263 23.213 15.6333 23.213 15.6868 23.2922C15.7671 23.345 15.7939 23.4505 15.7671 23.5561C15.6333 24.031 16.8373 26.1157 18.496 26.9337C22.4556 28.9656 24.9705 26.4323 25.6394 25.6143C25.6929 25.5615 25.7464 25.5351 25.8267 25.5351C25.9069 25.5351 25.9872 25.5615 26.0407 25.6143C27.967 27.5406 29.6257 29.4669 31.0705 31.4988C31.1507 31.6043 31.124 31.789 30.9902 31.8682C29.3047 33.0557 28.4486 35.2986 28.8766 37.3041C29.3314 39.2832 31.0437 40.972 33.1573 41.5261C33.2108 41.5525 33.2643 41.5789 33.3178 41.6581C33.3446 41.7108 33.3446 41.79 33.3446 41.8428C32.6757 44.0857 31.7126 46.2759 30.5621 48.1758C30.4819 48.2814 30.3481 48.3342 30.2143 48.2814C28.7161 47.6481 27.2179 47.0939 25.8802 47.5425C24.8903 47.8856 24.0341 48.7828 23.5793 49.9702C23.2315 50.8938 23.1245 51.8701 23.0175 52.9256C22.9818 53.1543 22.955 53.3742 22.9372 53.5853C22.9105 53.7173 22.8302 53.7964 22.7232 53.8228C20.3688 54.2978 18.1482 54.5617 15.9276 54.6145ZM11.9948 49.4688C12.084 49.4688 12.1731 49.4688 12.2623 49.4688C12.9847 49.548 13.707 49.9174 14.3759 50.5244C15.3925 51.4479 16.0346 52.7409 16.1684 54.0867C18.2017 54.0339 20.2618 53.77 22.4289 53.3478C22.4467 53.1895 22.4646 53.0312 22.4824 52.8729C22.6162 51.791 22.7232 50.7618 23.0977 49.7855C23.6061 48.4397 24.5692 47.4634 25.6929 47.0676C27.1644 46.5662 28.7161 47.0939 30.2143 47.7273C31.2577 45.9857 32.1139 43.9802 32.756 41.9483C30.5621 41.2886 28.8231 39.4943 28.3683 37.4096C27.9135 35.2986 28.7696 32.9501 30.4819 31.6043C29.1442 29.7308 27.6192 27.9628 25.8534 26.1685C25.024 27.092 22.2951 29.4669 18.2552 27.4087C16.6767 26.617 15.4193 24.8227 15.2588 23.8199C14.7237 23.9783 14.1975 24.1278 13.6803 24.2685C11.8075 24.8227 10.0417 25.324 8.91805 25.8254C9.31936 26.9073 10.0417 29.5989 8.0084 32.0001C6.69745 33.5306 3.7545 33.6098 2.28302 33.214C1.50715 35.2195 0.918554 37.2513 0.57075 39.2568C1.56065 39.4415 2.5238 39.7582 3.40668 40.1804C4.55711 40.7081 5.25273 41.3942 5.52027 42.1858C5.65404 42.6608 5.68078 43.1886 5.54701 43.8483C5.27947 45.326 4.47685 46.7509 3.32642 47.7536C4.39659 49.0994 5.73429 50.366 7.4198 51.659C8.11541 50.7618 9.10532 50.2869 10.0685 49.9174C10.6571 49.6799 11.3259 49.4688 11.9948 49.4688Z" fill="black"/>
<path fill-rule="evenodd" clip-rule="evenodd" d="M17.3491 43.9802C15.7439 43.9802 14.1386 43.2413 13.1755 41.9483C12.7741 41.3942 12.5066 40.8136 12.3996 40.2331C12.3193 39.679 12.3461 39.0457 12.5334 38.3596C12.9347 36.7763 13.8176 35.4569 15.0215 34.6653C16.386 33.7681 18.125 33.6362 19.4627 34.3223C21.0947 35.1667 22.2184 36.9346 22.2986 38.861C22.3789 40.9456 20.9342 43.0566 18.9008 43.7427C18.3925 43.901 17.8574 43.9802 17.3491 43.9802ZM17.6167 34.4014C16.814 34.4014 16.0114 34.6389 15.3158 35.0875C14.2189 35.8 13.3895 37.0402 13.0417 38.4651C12.8812 39.0984 12.8544 39.6526 12.9347 40.1276C13.0149 40.6289 13.2557 41.1567 13.6035 41.6317C14.7272 43.1622 16.9478 43.8482 18.7136 43.2413C20.5328 42.6344 21.8438 40.7609 21.7635 38.8873C21.6833 37.1457 20.6934 35.5361 19.2219 34.7709C18.7403 34.5334 18.1785 34.4014 17.6167 34.4014Z" fill="black"/>
<path fill-rule="evenodd" clip-rule="evenodd" d="M17.3477 46.6719C17.0623 46.6719 16.7858 46.6543 16.5183 46.6191C14.0569 46.3288 11.7828 44.6664 10.7394 42.397C9.72276 40.1277 9.91003 37.4098 11.221 35.2723C12.5587 33.1349 14.4582 31.9211 16.8661 31.6572C18.4179 31.4725 20.3174 31.9475 21.6819 32.8183C24.5446 34.6918 24.8389 38.5708 24.7586 39.4152C24.5178 41.8429 23.7152 43.6109 22.324 44.8247C20.9327 46.0122 19.1402 46.6719 17.3477 46.6719ZM17.5082 32.1322C17.312 32.1322 17.1158 32.141 16.9196 32.1586C14.6455 32.3961 12.9333 33.5044 11.6758 35.5362C10.4451 37.5417 10.2846 40.0749 11.221 42.1859C12.1841 44.297 14.2977 45.8274 16.5718 46.1177C18.4714 46.3288 20.5047 45.6955 21.9762 44.4289C23.2604 43.3206 24.0095 41.6582 24.2235 39.3624C24.3305 38.3069 23.8489 34.8765 21.3876 33.2669C20.2906 32.5544 18.8459 32.1322 17.5082 32.1322Z" fill="black"/>
<path d="M143.676 92.5865C140.626 97.178 135.302 99.9223 129.737 99.9223C121.551 99.9223 112.775 93.3518 113.471 81.6356C113.953 73.4818 120.427 66.7793 129.737 66.7793C138.379 66.7793 143.543 72.611 145.094 76.4636C146.753 80.5537 146.726 87.995 143.676 92.5865Z" fill="white"/>
<path fill-rule="evenodd" clip-rule="evenodd" d="M129.738 100.186C125.27 100.186 120.91 98.3129 117.779 95.0408C115.478 92.6395 112.803 88.3383 113.204 81.6094C113.445 77.5193 115.184 73.7459 118.1 70.9752C121.124 68.0989 125.27 66.5156 129.738 66.5156C138.942 66.5156 143.972 72.9542 145.336 76.3583C147.048 80.6067 146.995 88.048 143.891 92.7187C140.868 97.3365 135.437 100.186 129.738 100.186ZM129.738 67.0434C120.963 67.0434 114.221 73.1917 113.713 81.6358C113.338 88.18 115.933 92.3492 118.181 94.6977C121.204 97.8643 125.404 99.6586 129.738 99.6586C135.25 99.6586 140.52 96.8879 143.463 92.4548C146.353 88.048 146.513 80.6858 144.854 76.5694C143.517 73.2709 138.648 67.0434 129.738 67.0434Z" fill="black"/>
<path d="M140.843 74.2469C140.762 72.5845 141.164 70.9748 141.458 69.4707C143.598 67.7027 145.284 66.3834 147.237 65.064C146.916 66.7264 146.595 68.3624 146.167 70.0249C147.852 70.1304 149.538 70.2624 151.277 70.4735C149.243 71.9512 147.29 73.5168 145.418 75.1705C143.973 74.7747 142.18 74.6955 140.843 74.2469Z" fill="white"/>
<path fill-rule="evenodd" clip-rule="evenodd" d="M145.417 75.4083C145.399 75.4083 145.372 75.4083 145.337 75.4083C144.695 75.25 143.972 75.118 143.277 75.0125C142.421 74.8805 141.511 74.7486 140.762 74.4847C140.655 74.4583 140.575 74.3792 140.575 74.2736C140.521 72.7959 140.789 71.3974 141.056 70.078C141.11 69.8493 141.154 69.6294 141.19 69.4183C141.208 69.3655 141.234 69.3215 141.27 69.2863C143.464 67.4656 145.123 66.1726 147.102 64.8532C147.183 64.8004 147.29 64.774 147.37 64.8532C147.477 64.906 147.531 65.0115 147.504 65.1171C147.21 66.6476 146.888 68.2308 146.514 69.7877C147.932 69.8669 149.591 69.9988 151.303 70.2099C151.41 70.2363 151.49 70.3155 151.517 70.421C151.544 70.5266 151.517 70.6321 151.437 70.6849C149.43 72.1362 147.45 73.7195 145.578 75.3555C145.542 75.3907 145.488 75.4083 145.417 75.4083ZM141.11 74.0625C141.778 74.2736 142.581 74.3792 143.357 74.5111C144.026 74.6167 144.721 74.7222 145.337 74.8805C147.022 73.4028 148.788 71.9779 150.581 70.6585C149.002 70.4738 147.477 70.3682 146.166 70.2891C146.086 70.2891 146.006 70.2627 145.952 70.1835C145.925 70.1307 145.899 70.0516 145.925 69.9724C146.3 68.5211 146.594 67.0698 146.862 65.6448C145.149 66.8059 143.624 68.0197 141.698 69.603C141.663 69.7965 141.627 69.99 141.591 70.1835C141.324 71.4237 141.056 72.7167 141.11 74.0625Z" fill="black"/>
<path d="M140.283 79.9201C141.541 83.2713 141.113 87.2295 138.972 90.1585C136.859 93.114 133.086 94.9083 129.368 94.6709C126.612 94.4861 124.311 93.5362 121.903 91.6099C119.95 90.053 118.612 87.5726 118.505 85.1185C118.425 83.3241 118.586 81.5298 119.174 79.8409C120.084 77.3077 121.983 75.0911 124.445 73.7981C126.879 72.4787 129.849 72.0829 132.578 72.6899C136.163 73.4815 138.999 76.5689 140.283 79.9201Z" fill="white"/>
<path fill-rule="evenodd" clip-rule="evenodd" d="M130.036 94.9614C129.804 94.9614 129.572 94.9526 129.34 94.935C126.558 94.7503 124.204 93.8003 121.716 91.8212C119.682 90.1852 118.344 87.6256 118.237 85.1187C118.157 83.0605 118.371 81.3189 118.933 79.762C119.843 77.1496 121.823 74.9067 124.311 73.5609C126.799 72.2415 129.849 71.8193 132.631 72.4262C136.002 73.1651 139.079 76.0677 140.524 79.8148C141.861 83.3244 141.353 87.3353 139.186 90.3171C137.126 93.1934 133.594 94.9614 130.036 94.9614ZM130.036 72.6637C128.137 72.6637 126.237 73.1387 124.551 74.0095C122.17 75.3025 120.298 77.4399 119.441 79.9203C118.906 81.4244 118.692 83.1133 118.773 85.0923C118.853 87.4672 120.11 89.8685 122.063 91.4254C124.444 93.3253 126.719 94.2489 129.394 94.4072C132.979 94.6447 136.671 92.9295 138.758 90.0005C140.818 87.177 141.3 83.3244 140.015 79.9995C138.651 76.4108 135.708 73.6401 132.524 72.9276C131.695 72.7693 130.865 72.6637 130.036 72.6637Z" fill="black"/>
<path d="M135.414 81.6357C136.11 83.4037 135.869 85.4883 134.719 87.0452C133.568 88.5757 131.535 89.552 129.528 89.4201C128.057 89.3145 126.799 88.8132 125.515 87.8104C124.472 86.9924 123.749 85.673 123.696 84.38C123.642 83.43 123.723 82.4801 124.044 81.6093C124.525 80.2635 125.569 79.1025 126.88 78.4164C128.191 77.7303 129.796 77.5192 131.267 77.8358C133.194 78.2317 134.719 79.8677 135.414 81.6357Z" fill="#006930"/>
<path fill-rule="evenodd" clip-rule="evenodd" d="M129.902 89.6839C129.777 89.6839 129.652 89.6839 129.528 89.6839C128.003 89.5784 126.692 89.0506 125.354 87.9951C124.203 87.1243 123.481 85.7257 123.428 84.38C123.374 83.2981 123.508 82.3481 123.802 81.5037C124.31 80.1051 125.381 78.8913 126.745 78.1788C128.136 77.4664 129.795 77.2553 131.32 77.5719C133.166 77.9677 134.878 79.5246 135.654 81.5301C136.377 83.43 136.109 85.5938 134.932 87.1771C133.781 88.7339 131.855 89.6839 129.902 89.6839ZM129.902 77.9414C128.885 77.9414 127.896 78.1788 127.013 78.6274C125.755 79.2871 124.765 80.3954 124.31 81.6884C124.016 82.4537 123.909 83.3245 123.936 84.38C123.989 85.5674 124.658 86.8076 125.675 87.5993C126.932 88.5756 128.136 89.077 129.554 89.1562C131.454 89.2881 133.407 88.3909 134.504 86.8868C135.574 85.4091 135.841 83.4564 135.173 81.7412C134.45 79.8677 132.899 78.4427 131.213 78.0733C130.785 77.9853 130.348 77.9414 129.902 77.9414Z" fill="black"/>
<path d="M130.172 83.2983C130.091 83.2983 130.038 83.2719 129.984 83.2191C129.877 83.1136 129.877 82.9552 129.984 82.8497C136.218 77.3874 142.773 72.1363 149.461 67.2545C149.595 67.1754 149.756 67.2018 149.836 67.3073C149.916 67.4392 149.889 67.5976 149.782 67.6767C143.094 72.5585 136.566 77.7832 130.359 83.2455C130.305 83.2807 130.243 83.2983 130.172 83.2983Z" fill="black"/>
<path d="M121.958 89.9482C121.923 89.9482 121.896 89.9306 121.878 89.8954C120.995 88.1802 120.246 86.4122 119.604 84.6179C119.577 84.5651 119.604 84.5123 119.657 84.5123C119.711 84.4859 119.738 84.5123 119.765 84.5651C120.407 86.3595 121.156 88.1274 122.039 89.8162C122.039 89.869 122.039 89.9218 121.985 89.9218C121.967 89.9394 121.958 89.9482 121.958 89.9482Z" fill="black"/>
<path d="M124.978 93.0087C124.942 93.0087 124.915 92.9911 124.898 92.9559C122.891 89.2353 121.206 85.3299 119.841 81.3453C119.841 81.2925 119.868 81.2398 119.895 81.2134C119.948 81.2134 120.002 81.2398 120.028 81.2662C121.366 85.2507 123.052 89.1561 125.058 92.8768C125.058 92.9295 125.058 92.9823 125.005 93.0087C125.005 93.0087 124.996 93.0087 124.978 93.0087Z" fill="black"/>
<path d="M126.501 93.4044C126.474 93.4044 126.448 93.378 126.421 93.3516C124.388 88.8393 122.488 84.2215 120.749 79.6036C120.749 79.5772 120.749 79.5244 120.803 79.498C120.856 79.498 120.91 79.4981 120.91 79.5508C122.649 84.1687 124.548 88.7865 126.581 93.2725C126.608 93.3252 126.581 93.378 126.528 93.4044C126.528 93.4044 126.519 93.4044 126.501 93.4044Z" fill="black"/>
<path d="M123.075 81.1343C123.039 81.1343 123.012 81.1167 122.994 81.0815C122.486 79.9468 121.978 78.7594 121.55 77.5983C121.55 77.5456 121.55 77.4928 121.603 77.4928C121.657 77.4664 121.71 77.4928 121.71 77.5456C122.138 78.7066 122.646 79.8677 123.155 81.0023C123.182 81.0551 123.155 81.1079 123.128 81.1079C123.11 81.1255 123.092 81.1343 123.075 81.1343Z" fill="black"/>
<path d="M124.122 79.5511C124.095 79.5511 124.069 79.551 124.042 79.4983L122.704 76.3054C122.677 76.2526 122.704 76.2262 122.731 76.1998C122.784 76.1734 122.838 76.1998 122.865 76.2526L124.229 79.4455C124.229 79.4719 124.202 79.5247 124.176 79.5511C124.158 79.5511 124.14 79.5511 124.122 79.5511Z" fill="black"/>
<path d="M125.224 77.9941C125.17 77.9941 125.143 77.9677 125.143 77.9413L123.966 75.1442C123.939 75.1178 123.966 75.0651 123.993 75.0387C124.046 75.0123 124.1 75.0387 124.127 75.0915L125.304 77.8622C125.304 77.9149 125.304 77.9677 125.25 77.9941C125.233 77.9941 125.224 77.9941 125.224 77.9941Z" fill="black"/>
<path d="M126.932 77.0703C126.906 77.0703 126.852 77.0439 126.852 77.0175C126.451 76.0939 126.076 75.144 125.755 74.194C125.755 74.1413 125.782 74.1149 125.835 74.0885C125.862 74.0621 125.916 74.0885 125.942 74.1413C126.237 75.0912 126.611 76.0148 127.013 76.9384C127.039 76.9911 127.013 77.0439 126.959 77.0439C126.959 77.0615 126.95 77.0703 126.932 77.0703Z" fill="black"/>
<path d="M128.565 76.4638C128.538 76.4638 128.511 76.4638 128.484 76.411C128.11 75.5402 127.789 74.6166 127.521 73.693C127.521 73.6403 127.548 73.5875 127.602 73.5875C127.628 73.5611 127.682 73.5875 127.709 73.6403C127.949 74.5639 128.27 75.4874 128.645 76.3582C128.672 76.3846 128.645 76.4374 128.618 76.4638C128.6 76.4638 128.582 76.4638 128.565 76.4638Z" fill="black"/>
<path d="M130.382 76.5166C130.355 76.5166 130.329 76.5166 130.302 76.4638L129.419 73.4556C129.419 73.4293 129.446 73.3765 129.472 73.3501C129.526 73.3501 129.579 73.3765 129.579 73.4293L130.462 76.4111C130.489 76.4639 130.462 76.5166 130.409 76.5166C130.409 76.5166 130.4 76.5166 130.382 76.5166Z" fill="black"/>
<path d="M132.387 77.4132C132.361 77.4132 132.307 77.3868 132.307 77.3604L131.157 73.7717C131.13 73.7189 131.157 73.6661 131.21 73.6661C131.237 73.6397 131.29 73.6661 131.317 73.7189L132.468 77.3076C132.494 77.3604 132.468 77.4132 132.414 77.4132C132.414 77.4132 132.405 77.4132 132.387 77.4132Z" fill="black"/>
<path d="M134.689 78.2847C134.662 78.2847 134.636 78.2583 134.609 78.2319L133.057 74.1154C133.03 74.0626 133.057 74.0099 133.084 74.0099C133.138 73.9835 133.191 74.0099 133.218 74.0626L134.769 78.1791C134.796 78.2319 134.77 78.2583 134.716 78.2847C134.716 78.2847 134.707 78.2847 134.689 78.2847Z" fill="black"/>
<path d="M128.561 94.0115C128.525 94.0115 128.498 93.9939 128.481 93.9587C127.785 92.7185 127.143 91.3991 126.635 90.0269C126.635 90.0005 126.661 89.9478 126.688 89.9214C126.742 89.9214 126.795 89.9214 126.822 89.9742C127.303 91.3199 127.919 92.6393 128.641 93.8796C128.668 93.9323 128.641 93.9851 128.614 94.0115C128.596 94.0115 128.579 94.0115 128.561 94.0115Z" fill="black"/>
<path d="M130.113 93.9322C130.078 93.9322 130.051 93.9234 130.033 93.9058C129.338 92.7975 128.749 91.61 128.294 90.3698C128.294 90.317 128.294 90.2906 128.348 90.2643C128.401 90.2379 128.455 90.2643 128.455 90.317C128.91 91.5309 129.498 92.6919 130.194 93.8002C130.22 93.853 130.194 93.9058 130.167 93.9322C130.149 93.9322 130.131 93.9322 130.113 93.9322Z" fill="black"/>
<path d="M131.642 93.7215C131.606 93.7215 131.579 93.7039 131.561 93.6687C131.026 92.6132 130.545 91.5313 130.09 90.4494C130.063 90.423 130.09 90.3702 130.143 90.3438C130.197 90.3175 130.25 90.3439 130.25 90.3966C130.705 91.4785 131.187 92.5604 131.722 93.5895C131.749 93.6423 131.722 93.6951 131.668 93.6951C131.668 93.7127 131.659 93.7215 131.642 93.7215Z" fill="black"/>
<path d="M135.599 76.7012C135.573 76.7012 135.546 76.6748 135.519 76.6484L134.904 74.9068C134.904 74.8804 134.931 74.8277 134.957 74.8013C135.011 74.8013 135.064 74.8277 135.064 74.854L135.68 76.5956C135.706 76.622 135.68 76.6748 135.626 76.7012C135.626 76.7012 135.617 76.7012 135.599 76.7012Z" fill="black"/>
<path d="M139.853 85.9896C139.817 85.9896 139.791 85.972 139.773 85.9368C138.676 83.6147 137.632 81.2398 136.669 78.8649C136.642 78.8122 136.669 78.7594 136.723 78.7594C136.749 78.733 136.803 78.7594 136.83 78.8121C137.793 81.1607 138.836 83.5356 139.933 85.8577C139.933 85.9105 139.933 85.9632 139.88 85.9896C139.862 85.9896 139.853 85.9896 139.853 85.9896Z" fill="black"/>
<path d="M140.04 82.6122C140.004 82.6122 139.977 82.6034 139.96 82.5858C139.157 81.0817 138.408 79.5248 137.712 77.968C137.685 77.9416 137.712 77.8888 137.766 77.8624C137.792 77.836 137.846 77.8624 137.873 77.9152C138.542 79.4721 139.317 81.0025 140.12 82.5066C140.147 82.533 140.12 82.5858 140.093 82.6122C140.075 82.6122 140.058 82.6122 140.04 82.6122Z" fill="black"/>
<path d="M139.208 88.1532C139.154 88.1532 139.128 88.1268 139.128 88.1004L135.543 79.9466C135.516 79.8938 135.543 79.841 135.569 79.841C135.623 79.8146 135.676 79.841 135.703 79.8674L139.288 88.0212C139.288 88.074 139.288 88.1268 139.235 88.1532C139.217 88.1532 139.208 88.1532 139.208 88.1532Z" fill="black"/>
<path d="M138.351 89.6576C138.315 89.6576 138.289 89.64 138.271 89.6049L136.478 85.7259C136.452 85.6731 136.478 85.6203 136.505 85.6203C136.559 85.5939 136.612 85.6203 136.639 85.6467L138.431 89.5257C138.458 89.5785 138.431 89.6312 138.378 89.6576C138.378 89.6576 138.369 89.6576 138.351 89.6576Z" fill="black"/>
<path d="M137.204 90.7923C137.169 90.7923 137.142 90.7747 137.124 90.7395L135.572 87.4147C135.546 87.3619 135.572 87.3091 135.626 87.2827C135.653 87.2827 135.706 87.2827 135.733 87.3355L137.285 90.6604C137.311 90.7131 137.285 90.7659 137.258 90.7659C137.24 90.7835 137.222 90.7923 137.204 90.7923Z" fill="black"/>
<path d="M136.025 91.7158C135.99 91.7158 135.963 91.6982 135.945 91.663L134.634 88.8395C134.607 88.8131 134.634 88.7604 134.688 88.734C134.714 88.7076 134.768 88.734 134.795 88.7868L136.106 91.5839C136.132 91.6366 136.106 91.6894 136.052 91.6894C136.052 91.707 136.043 91.7158 136.025 91.7158Z" fill="black"/>
<path d="M134.742 92.5601C134.707 92.5601 134.68 92.5425 134.662 92.5073L133.351 89.7102C133.324 89.6838 133.351 89.6311 133.378 89.6047C133.431 89.5783 133.485 89.6047 133.512 89.6311L134.823 92.4546C134.849 92.4809 134.823 92.5337 134.769 92.5601C134.769 92.5601 134.76 92.5601 134.742 92.5601Z" fill="black"/>
<path d="M133.189 93.5367C133.153 93.5367 133.126 93.5191 133.108 93.484L131.771 90.6077C131.744 90.5813 131.771 90.5285 131.824 90.5021C131.851 90.4758 131.905 90.5021 131.931 90.5285L133.269 93.4048C133.296 93.4576 133.269 93.5103 133.215 93.5103C133.215 93.5279 133.207 93.5367 133.189 93.5367Z" fill="black"/>
<g opacity="0.1">
<path d="M146.566 71.2125C146.245 71.4236 145.951 71.661 145.603 71.8721C144.399 72.7166 143.141 73.5346 141.964 74.4318C141.483 74.722 140.948 74.1151 141.295 73.6929C142.285 72.8485 143.623 72.0305 144.934 71.0541C145.255 70.843 145.549 70.6319 145.844 70.3944C146.165 70.1042 146.593 69.9722 146.887 70.3944C147.074 70.7111 146.887 71.0805 146.566 71.2125Z" fill="black"/>
</g>
<g opacity="0.1">
<path d="M134.849 82.9551C134.876 82.8496 134.849 82.8496 134.849 82.9551V82.9551Z" fill="black"/>
</g>
<g opacity="0.1">
<path d="M128.294 87.7842C128.329 87.802 128.356 87.8109 128.374 87.8109C128.356 87.8109 128.329 87.802 128.294 87.7842Z" fill="black"/>
</g>
<g opacity="0.1">
<path d="M135.841 85.0395C135.494 86.1478 134.878 87.1769 134.022 87.9685C133.353 88.6018 132.604 89.2351 131.668 89.3935C131.106 89.5254 131.293 89.4726 130.812 89.5782C130.464 89.631 130.17 89.8157 129.902 89.2879C129.902 89.2176 129.902 89.156 129.902 89.1032C129.634 89.1384 129.349 89.156 129.046 89.156C127.548 88.9977 126.023 88.4963 124.953 87.4144C124.471 86.8866 125.22 86.1742 125.728 86.6491C126.451 87.3352 127.013 87.6255 128.297 87.7838C128.297 87.7838 128.288 87.7838 128.27 87.7838C128.912 87.8894 129.634 87.9158 130.33 87.731C131.454 87.388 132.123 87.0714 132.952 86.438C133.621 85.8047 134.316 84.7492 134.557 84.0631C134.691 83.7201 134.771 83.3507 134.852 82.9812C134.852 82.9637 134.852 82.9549 134.852 82.9549C134.852 82.9549 134.852 82.9637 134.852 82.9812C134.932 82.6382 134.798 82.1632 135.119 81.9257C135.36 81.741 135.761 81.7674 135.922 82.0313C136.109 82.2688 136.055 82.6118 136.082 82.8757C136.082 83.6146 136.055 84.3534 135.841 85.0395Z" fill="black"/>
</g>
<g opacity="0.1">
<path d="M140.704 85.3035C140.704 85.2507 140.704 85.1979 140.704 85.1451C140.57 86.0951 140.222 86.9923 139.875 87.8895C139.893 87.8191 139.901 87.7575 139.901 87.7048C139.875 88.0214 139.687 88.3117 139.58 88.6019C139.313 89.1561 139.019 89.7102 138.644 90.2116C137.547 91.6893 136.102 92.9295 134.444 93.7212C134.149 93.8531 133.828 93.9586 133.534 93.985C133.561 93.985 133.721 93.9586 133.614 93.985C132.838 94.2225 132.089 94.5128 131.287 94.6711C130.511 94.8558 129.708 94.9614 128.905 94.8558C128.923 94.8558 128.932 94.8558 128.932 94.8558C128.914 94.8558 128.897 94.8558 128.879 94.8558C128.879 94.8558 128.87 94.8558 128.852 94.8558C128.852 94.8558 128.861 94.8558 128.879 94.8558C128.683 94.8207 128.486 94.7855 128.29 94.7503C127.942 94.6711 127.862 94.1961 128.183 94.0378C128.263 93.985 128.344 93.9586 128.451 93.985C128.576 94.0026 128.7 94.0114 128.825 94.0114C129.146 94.029 129.467 94.029 129.788 94.0114C129.824 94.0114 129.86 94.0114 129.895 94.0114C129.931 94.0114 129.967 94.0026 130.002 93.985C131.046 93.8267 132.062 93.5101 133.026 93.1142C133.15 93.0791 133.275 93.0439 133.4 93.0087C133.311 93.0439 133.231 93.0879 133.159 93.1406C133.882 92.7184 133.748 92.9559 134.524 92.4018C135.38 91.8212 136.825 90.4755 137.547 89.3936C137.868 88.8922 138.162 88.3644 138.403 87.8103C138.564 87.5728 138.483 87.5992 138.591 87.4145C138.662 87.2562 138.724 87.0978 138.778 86.9395C139.099 86.0951 139.447 85.2507 139.634 84.3799C139.768 83.773 139.768 82.9022 139.634 82.2425C139.5 81.8203 140.035 81.3981 140.437 81.662C140.597 81.7411 140.677 81.9522 140.704 82.1369C140.784 82.4536 140.811 82.7439 140.838 83.0605C140.918 83.8257 140.838 84.5646 140.704 85.3035Z" fill="black"/>
</g>
<g opacity="0.1">
<path d="M146.142 84.0899C146.061 85.4885 145.794 86.9662 145.259 88.4439C145.312 88.4791 145.348 88.5143 145.366 88.5494C145.526 88.8133 145.366 89.1036 145.312 89.3675C145.125 90.1063 144.831 90.7924 144.51 91.4785C143.814 92.877 142.985 94.2228 141.861 95.3311C141.647 95.5686 141.272 95.4366 141.165 95.1728C140.844 95.5686 140.47 95.938 140.068 96.281C139.159 97.1255 138.784 97.5213 137.634 98.1282C136.992 98.4976 136.269 98.7087 135.574 98.9462C134.557 99.342 133.487 99.6851 132.417 99.8962C131.801 100.002 131.186 100.054 130.571 100.081C130.223 100.081 130.036 99.6059 130.276 99.3684C130.357 99.3156 130.464 99.2629 130.571 99.2629C130.651 99.2365 130.785 99.2365 130.812 99.2365C130.838 99.2101 130.945 99.2101 130.999 99.2101C132.872 98.9726 134.29 98.3921 135.788 97.7852C137.42 97.2574 138.49 96.2283 139.961 94.7769C140.925 93.6687 141.005 93.5631 142.075 91.9798C142.53 91.1882 142.931 90.3438 143.386 89.5258C143.948 88.4175 144.215 87.705 144.643 86.3065C145.045 84.9871 145.205 84.2218 145.152 82.9288C145.152 82.5066 145.714 82.2691 146.008 82.5858C146.088 82.665 146.168 82.7969 146.168 82.9288C146.186 83.3159 146.177 83.7029 146.142 84.0899Z" fill="black"/>
</g>
<path d="M123.319 159.163C129.258 164.625 135.465 169.745 141.939 174.521C143.063 175.365 144.214 176.21 145.096 177.291C145.979 178.4 146.541 179.798 146.327 181.197C146.06 182.912 144.481 184.337 142.742 184.416C140.762 184.495 139.05 183.07 137.659 181.672C131.612 175.655 126.69 168.478 119.841 163.359C120.937 161.907 122.141 160.535 123.319 159.163Z" fill="white"/>
<path fill-rule="evenodd" clip-rule="evenodd" d="M142.556 184.68C140.576 184.68 138.891 183.255 137.473 181.857C135.252 179.667 133.165 177.265 131.132 174.943C127.627 170.932 124.016 166.789 119.708 163.57C119.574 163.491 119.548 163.333 119.655 163.227C120.725 161.749 121.956 160.351 123.133 159.005C123.186 158.952 123.24 158.926 123.32 158.926C123.373 158.926 123.454 158.926 123.507 158.979C129.393 164.414 135.654 169.56 142.101 174.336L142.182 174.389C143.305 175.207 144.429 176.051 145.312 177.133C146.329 178.426 146.783 179.904 146.596 181.223C146.302 183.097 144.616 184.601 142.743 184.68C142.69 184.68 142.628 184.68 142.556 184.68ZM120.216 163.306C124.497 166.552 128.082 170.642 131.533 174.6C133.567 176.922 135.654 179.324 137.847 181.514C139.212 182.859 140.871 184.232 142.717 184.152C144.349 184.1 145.82 182.78 146.061 181.171C146.248 179.983 145.82 178.637 144.884 177.45C144.054 176.421 142.957 175.603 141.887 174.811L141.78 174.732C135.386 170.035 129.206 164.916 123.347 159.559C122.277 160.773 121.206 162.013 120.216 163.306Z" fill="black"/>
<path d="M116.848 161.168C118.078 159.426 119.416 157.764 120.861 156.18C121.396 155.626 121.958 155.019 122.734 154.808C124.151 154.386 125.703 155.521 126.158 156.919C126.319 157.421 126.372 157.975 126.265 158.502C126.105 159.189 125.676 159.769 125.248 160.323C123.777 162.25 122.252 164.229 120.192 165.574C119.898 165.785 119.523 165.97 119.148 165.997C118.774 165.997 118.399 165.838 118.078 165.601C117.115 164.967 116.473 163.938 116.286 162.83C115.938 162.54 116.393 161.801 116.848 161.168Z" fill="#ACD4F7"/>
<path fill-rule="evenodd" clip-rule="evenodd" d="M119.093 166.261C118.719 166.261 118.344 166.103 117.916 165.812C116.953 165.153 116.23 164.097 116.043 162.936C115.615 162.435 116.257 161.511 116.632 161.01C117.863 159.268 119.2 157.579 120.672 156.023C121.234 155.416 121.849 154.809 122.652 154.545C124.284 154.07 125.942 155.389 126.397 156.841C126.611 157.448 126.638 158.028 126.504 158.556C126.344 159.295 125.862 159.928 125.461 160.482C124.043 162.329 122.464 164.414 120.351 165.786C120.003 166.024 119.602 166.235 119.173 166.235C119.138 166.252 119.111 166.261 119.093 166.261ZM123.347 154.967C123.169 154.967 122.99 154.993 122.812 155.046C122.116 155.257 121.555 155.811 121.046 156.366C119.628 157.922 118.264 159.585 117.06 161.3C116.311 162.382 116.391 162.593 116.445 162.62C116.498 162.672 116.525 162.725 116.525 162.778C116.712 163.833 117.327 164.81 118.21 165.39C118.558 165.628 118.852 165.733 119.147 165.733C119.468 165.707 119.762 165.549 120.056 165.364C122.09 164.018 123.588 162.065 125.033 160.165C125.407 159.664 125.862 159.084 125.996 158.45C126.103 158.002 126.076 157.5 125.916 156.999C125.568 155.943 124.471 154.967 123.347 154.967Z" fill="black"/>
<path fill-rule="evenodd" clip-rule="evenodd" d="M127.955 142.144C127.848 147.659 125.815 153.042 122.631 157.58C118.591 163.333 112.357 167.872 105.321 168.637C95.2346 169.745 87.5562 165.602 83.8374 160.747C78.1655 153.358 76.8278 142.935 80.4664 134.386C84.1317 125.836 92.5592 118.843 101.923 118.342C125.012 117.128 128.062 136.655 127.955 142.144ZM122.845 138.185C122.016 133.963 119.634 130.032 116.237 127.314C112.839 124.596 105.91 121.456 96.6526 124.411C89.0009 126.839 85.3891 134.676 84.1317 138.555C83.3558 140.877 82.9277 147.632 86.058 154.599C90.1781 163.834 103.635 168.162 114.177 160.694C120.945 155.865 124.397 146.286 122.845 138.185Z" fill="white"/>
<path fill-rule="evenodd" clip-rule="evenodd" d="M102.033 169.085C93.1772 169.085 86.8097 165.021 83.6259 160.905C77.8738 153.411 76.5361 142.961 80.2282 134.28C82.0742 130.005 85.1509 126.047 88.8965 123.144C92.8829 120.083 97.3776 118.315 101.926 118.078C109.925 117.655 116.293 119.661 120.894 124.041C126.861 129.741 128.305 138.106 128.225 142.17C128.118 147.421 126.219 152.962 122.848 157.738C118.38 164.098 111.985 168.162 105.35 168.9C104.209 169.024 103.103 169.085 102.033 169.085ZM80.7097 134.491C77.0979 142.988 78.4089 153.226 84.054 160.588C87.1307 164.599 93.3644 168.557 102.033 168.557C103.085 168.557 104.173 168.496 105.297 168.373C111.771 167.66 118.032 163.676 122.419 157.422C125.737 152.751 127.61 147.315 127.717 142.143C127.77 138.185 126.352 129.978 120.547 124.437C116.052 120.136 109.791 118.183 101.953 118.605C93.1237 119.08 84.5891 125.466 80.7097 134.491ZM102.434 164.758C100.722 164.758 99.0363 164.52 97.3508 164.071C92.1338 162.673 87.8263 159.163 85.8198 154.704C82.7698 147.869 83.0106 141.114 83.8667 138.475C85.0171 135.019 88.4952 126.706 96.5749 124.173C107.303 120.743 114.473 125.545 116.427 127.102C119.851 129.847 122.286 133.857 123.088 138.159C124.72 146.576 121.028 156.129 114.34 160.905C110.755 163.438 106.608 164.758 102.434 164.758ZM103.986 123.487C101.792 123.487 99.3841 123.804 96.7355 124.648C88.8965 127.129 85.472 135.256 84.3751 138.634C83.6527 140.797 83.1979 147.553 86.3014 154.493C88.2277 158.82 92.428 162.224 97.4846 163.57C103.103 165.074 109.123 163.939 114.019 160.483C120.573 155.812 124.158 146.471 122.58 138.238C121.777 134.095 119.423 130.163 116.079 127.498C114.661 126.39 110.407 123.487 103.986 123.487Z" fill="black"/>
<path d="M124.179 165.628C124.161 165.628 124.152 165.628 124.152 165.628C124.099 165.628 124.072 165.576 124.072 165.523L124.58 162.567C124.607 162.515 124.634 162.488 124.687 162.488C124.741 162.515 124.767 162.541 124.767 162.594L124.259 165.576C124.259 165.602 124.206 165.628 124.179 165.628Z" fill="black"/>
<path d="M125.837 167.501C125.783 167.501 125.757 167.449 125.757 167.396C125.837 166.024 125.944 164.625 126.078 163.253C126.078 163.2 126.104 163.174 126.158 163.174C126.211 163.174 126.238 163.2 126.238 163.253C126.104 164.625 125.997 166.024 125.944 167.422C125.944 167.449 125.89 167.501 125.837 167.501Z" fill="black"/>
<path d="M127.335 169.111C127.282 169.111 127.255 169.059 127.255 169.032C127.202 167.422 127.282 165.813 127.496 164.23C127.523 164.177 127.549 164.15 127.603 164.15C127.656 164.15 127.683 164.203 127.683 164.256C127.442 165.813 127.362 167.422 127.416 169.006C127.416 169.059 127.389 169.111 127.335 169.111Z" fill="black"/>
<path d="M128.81 170.431C128.756 170.431 128.729 170.378 128.729 170.351C128.676 168.742 128.756 167.132 128.997 165.549C128.997 165.496 129.051 165.47 129.077 165.47C129.131 165.47 129.158 165.522 129.158 165.549C128.943 167.132 128.836 168.742 128.89 170.325C128.89 170.378 128.863 170.431 128.81 170.431Z" fill="black"/>
<path d="M130.228 171.882C130.174 171.882 130.121 171.855 130.121 171.803C130.067 170.193 130.174 168.583 130.388 167C130.388 166.947 130.442 166.921 130.495 166.921C130.549 166.921 130.576 166.974 130.576 167.026C130.335 168.61 130.255 170.193 130.308 171.803C130.308 171.855 130.281 171.882 130.228 171.882Z" fill="black"/>
<path d="M131.668 173.729C131.614 173.729 131.561 173.676 131.561 173.65C131.561 171.829 131.641 170.008 131.775 168.214C131.801 168.161 131.828 168.135 131.882 168.135C131.935 168.135 131.962 168.188 131.962 168.24C131.828 170.035 131.748 171.829 131.748 173.623C131.748 173.676 131.721 173.729 131.668 173.729Z" fill="black"/>
<path d="M133.007 175.392C132.953 175.392 132.927 175.339 132.927 175.312C132.927 173.281 132.98 171.222 133.141 169.19C133.141 169.138 133.194 169.111 133.221 169.111C133.274 169.111 133.301 169.164 133.301 169.19C133.167 171.222 133.087 173.281 133.087 175.312C133.087 175.339 133.06 175.392 133.007 175.392Z" fill="black"/>
<path d="M134.562 177.212C134.508 177.212 134.455 177.186 134.455 177.133L134.401 170.589C134.401 170.536 134.455 170.51 134.508 170.51C134.535 170.51 134.588 170.536 134.588 170.589L134.642 177.133C134.642 177.186 134.615 177.212 134.562 177.212Z" fill="black"/>
<path d="M136.111 178.426C136.058 178.426 136.004 178.373 136.004 178.347L135.951 171.803C135.951 171.75 136.004 171.724 136.031 171.724C136.085 171.724 136.138 171.75 136.138 171.803L136.192 178.321C136.192 178.373 136.138 178.426 136.111 178.426Z" fill="black"/>
<path d="M137.553 180.142C137.499 180.142 137.446 180.115 137.446 180.062L137.312 172.806C137.312 172.753 137.365 172.727 137.419 172.7C137.446 172.7 137.499 172.753 137.499 172.806L137.633 180.062C137.633 180.115 137.606 180.142 137.553 180.142Z" fill="black"/>
<path d="M140.791 182.568C140.738 182.568 140.711 182.542 140.711 182.489L140.336 175.074C140.336 175.022 140.39 174.969 140.417 174.969C140.47 174.969 140.524 175.022 140.524 175.074L140.872 182.489C140.872 182.542 140.845 182.568 140.791 182.568Z" fill="black"/>
<path d="M139.242 182.067C139.215 182.067 139.162 182.014 139.162 181.962C139.188 180.642 139.108 179.296 139.055 178.003C138.974 176.579 138.921 175.101 138.948 173.676C138.948 173.623 139.001 173.597 139.055 173.57C139.081 173.57 139.135 173.623 139.135 173.676C139.081 175.101 139.162 176.579 139.242 177.977C139.295 179.296 139.376 180.642 139.349 181.962C139.349 182.014 139.295 182.067 139.242 182.067Z" fill="black"/>
<path d="M142.263 183.07C142.21 183.07 142.183 183.017 142.156 182.991C141.862 180.669 141.782 178.294 141.862 175.945C141.889 175.893 141.915 175.866 141.969 175.866C142.022 175.866 142.049 175.919 142.049 175.945C141.942 178.294 142.049 180.642 142.343 182.965C142.343 183.017 142.317 183.044 142.263 183.07Z" fill="black"/>
<path d="M144.779 182.331C144.752 182.331 144.699 182.279 144.699 182.252C144.592 181.012 144.512 179.772 144.458 178.531C144.458 178.479 144.511 178.452 144.565 178.452C144.592 178.426 144.645 178.479 144.645 178.531C144.699 179.745 144.779 181.012 144.886 182.226C144.886 182.279 144.859 182.331 144.806 182.331C144.806 182.331 144.797 182.331 144.779 182.331Z" fill="black"/>
<path d="M143.444 183.149C143.417 183.149 143.364 183.097 143.364 183.07L143.283 177.133C143.283 177.08 143.31 177.027 143.364 177.027C143.417 177.027 143.444 177.08 143.471 177.133L143.551 183.07C143.551 183.097 143.497 183.149 143.444 183.149Z" fill="black"/>
<g opacity="0.1">
<path d="M125.862 161.617C125.835 161.828 125.728 162.066 125.568 162.25C125.55 162.268 125.541 162.285 125.541 162.303C125.3 162.673 124.257 163.754 123.32 164.599C122.785 165.153 122.009 165.021 121.581 164.572C122.25 163.913 122.892 163.2 123.481 162.461C123.998 161.863 124.489 161.248 124.952 160.614C124.952 160.632 124.952 160.641 124.952 160.641C124.97 160.676 124.988 160.702 125.006 160.72C125.148 160.878 125.291 161.036 125.434 161.195C125.541 161.3 125.639 161.397 125.728 161.485C125.764 161.538 125.808 161.582 125.862 161.617Z" fill="black"/>
</g>
<g opacity="0.1">
<path d="M110.667 162.726C110.275 162.954 109.882 163.183 109.49 163.412C107.751 163.966 105.985 164.388 104.166 164.573C102.882 164.573 101.598 164.573 100.313 164.573C100.278 164.573 100.242 164.582 100.206 164.599C99.4216 164.494 98.6457 164.353 97.8787 164.177C96.1932 163.649 94.5612 162.963 93.0095 162.092C91.1367 161.037 89.4512 159.717 88.06 158.081C87.9529 157.923 87.8549 157.774 87.7657 157.633C86.7223 156.023 85.8661 154.308 85.2508 152.487C84.9832 151.696 84.7514 150.895 84.5552 150.086C84.6979 150.403 84.8495 150.719 85.01 151.036C85.2419 151.511 85.4916 151.977 85.7591 152.434C85.9375 152.804 86.1337 153.182 86.3477 153.569C86.6687 154.123 86.9898 154.677 87.3911 155.205C87.4089 155.258 87.4268 155.302 87.4446 155.337C87.7122 155.812 88.7021 157.448 89.5582 158.319C89.2639 158.002 89.692 158.451 89.8257 158.583C90.8959 159.665 92.2604 160.667 93.0897 161.142C94.909 162.198 97.4239 162.884 99.1897 163.174C100.42 163.333 102.48 163.517 103.979 163.28C106.387 163.148 107.109 163.016 109.838 162.409C110.186 162.303 110.533 162.488 110.667 162.726Z" fill="black"/>
</g>
</svg>
