<svg width="280" height="199" viewBox="0 0 280 199" fill="none" xmlns="http://www.w3.org/2000/svg">
<g filter="url(#filter0_d_273_1653)">
<path d="M142.834 192.606C151.07 192.606 157.746 185.928 157.746 177.69C157.746 169.453 151.07 162.774 142.834 162.774C134.599 162.774 127.923 169.453 127.923 177.69C127.923 185.928 134.599 192.606 142.834 192.606Z" fill="#378742"/>
<path d="M231.915 191.768C240.257 189.262 249.126 186.648 255.741 180.691C261.653 175.367 265.644 167.238 263.196 159.254C260.752 151.287 253.43 145.974 245.871 143.331C241.585 141.833 237.1 141.002 232.616 140.349C227.742 139.639 222.847 139.057 217.955 138.497C198.142 136.23 178.256 134.845 158.294 134.343C148.444 134.095 138.597 134.101 128.746 134.244C119.949 134.372 110.683 134.368 102.522 130.628C96.1748 127.72 90.415 122.428 88.6465 115.475C86.6049 107.448 90.3702 99.2739 95.7716 93.461C98.6182 90.3967 101.946 87.8172 105.378 85.4464C109.102 82.8736 112.956 80.4826 116.893 78.2517C124.647 73.8587 132.754 70.1203 141.129 67.0749C145.261 65.5722 149.454 64.2757 153.684 63.0797C157.254 62.0697 160.837 61.0583 164.289 59.6823C170.961 57.0223 177.308 52.5164 179.004 45.1294C180.612 38.1284 177.901 30.5281 173.148 25.3271C167.649 19.31 159.358 16.6723 151.409 16.2455C142.486 15.7664 133.768 18.0003 125.381 20.8356C116.435 23.8595 107.682 27.3366 98.5471 29.786C89.4881 32.2124 80.2548 33.9294 70.9295 34.921C66.3645 35.4072 61.6616 35.9563 57.0695 35.584C53.2209 35.272 49.3919 34.1399 46.5556 31.4078C44.1236 29.0651 42.6748 25.8455 43.1729 22.4479C43.2633 21.8308 44.2005 22.0931 44.1107 22.7065C43.5043 26.8424 46.3149 30.6534 49.7783 32.6056C53.7812 34.8619 58.6519 34.8651 63.1085 34.6069C72.7714 34.0232 82.369 32.6354 91.8013 30.4579C101.071 28.3404 110.008 25.3133 118.935 22.0796C127.414 19.0084 136.083 16.0109 145.141 15.3458C153.001 14.7685 161.268 15.9139 168.116 20.0225C174.133 23.6334 178.558 29.6551 179.968 36.5652C181.346 43.3177 179.438 50.1141 174.328 54.8262C169.037 59.705 161.783 61.7909 155.022 63.7119C146.447 66.1485 138.056 68.9966 129.934 72.6947C121.701 76.4323 113.806 80.8724 106.335 85.9656C99.1239 90.8949 92.007 97.0976 89.726 105.892C88.6637 109.988 88.8597 114.333 90.6372 118.201C92.218 121.642 94.8215 124.536 97.8536 126.768C105.089 132.093 114.209 133.187 122.949 133.295C132.765 133.418 142.581 133.087 152.401 133.248C172.412 133.576 192.382 134.795 212.312 136.903C217.305 137.432 222.293 138.016 227.274 138.656C231.754 139.232 236.25 139.804 240.655 140.827C248.488 142.645 256.109 146.142 260.977 152.785C263.138 155.664 264.476 159.076 264.851 162.657C265.191 166.394 264.277 170.137 262.587 173.461C258.849 180.819 251.847 185.498 244.41 188.573C240.427 190.22 236.296 191.467 232.173 192.706C231.573 192.886 231.315 191.948 231.915 191.768Z" fill="#F2F2F2"/>
<path d="M43.8009 30.318C48.0976 30.318 51.5808 26.8339 51.5808 22.536C51.5808 18.2381 48.0976 14.7539 43.8009 14.7539C39.5042 14.7539 36.021 18.2381 36.021 22.536C36.021 26.8339 39.5042 30.318 43.8009 30.318Z" fill="#F2F2F2"/>
<path d="M97.7741 45.071C102.071 45.071 105.554 41.5868 105.554 37.2889C105.554 32.991 102.071 29.5068 97.7741 29.5068C93.4769 29.5068 89.9937 32.991 89.9937 37.2889C89.9937 41.5868 93.4769 45.071 97.7741 45.071Z" fill="#F2F2F2"/>
<path d="M143.482 15.5641C147.779 15.5641 151.262 12.08 151.262 7.7821C151.262 3.48415 147.779 0 143.482 0C139.185 0 135.702 3.48415 135.702 7.7821C135.702 12.08 139.185 15.5641 143.482 15.5641Z" fill="#F2F2F2"/>
<path d="M172.008 48.6383C176.304 48.6383 179.787 45.1542 179.787 40.8563C179.787 36.5584 176.304 33.0742 172.008 33.0742C167.71 33.0742 164.227 36.5584 164.227 40.8563C164.227 45.1542 167.71 48.6383 172.008 48.6383Z" fill="#F2F2F2"/>
<path d="M133.432 86.8998C137.729 86.8998 141.212 83.4158 141.212 79.1179C141.212 74.8199 137.729 71.3359 133.432 71.3359C129.135 71.3359 125.652 74.8199 125.652 79.1179C125.652 83.4158 129.135 86.8998 133.432 86.8998Z" fill="#F2F2F2"/>
<path d="M84.4823 105.382C88.7788 105.382 92.262 101.898 92.262 97.6003C92.262 93.3024 88.7788 89.8184 84.4823 89.8184C80.1859 89.8184 76.7026 93.3024 76.7026 97.6003C76.7026 101.898 80.1859 105.382 84.4823 105.382Z" fill="#F2F2F2"/>
<path d="M136.349 134.241C140.645 134.241 144.129 130.757 144.129 126.459C144.129 122.161 140.645 118.677 136.349 118.677C132.052 118.677 128.568 122.161 128.568 126.459C128.568 130.757 132.052 134.241 136.349 134.241Z" fill="#F2F2F2"/>
<path d="M192.103 150.453C196.401 150.453 199.884 146.969 199.884 142.671C199.884 138.373 196.401 134.889 192.103 134.889C187.807 134.889 184.324 138.373 184.324 142.671C184.324 146.969 187.807 150.453 192.103 150.453Z" fill="#F2F2F2"/>
<path d="M257.263 188.033C261.56 188.033 265.043 184.549 265.043 180.251C265.043 175.953 261.56 172.469 257.263 172.469C252.967 172.469 249.483 175.953 249.483 180.251C249.483 184.549 252.967 188.033 257.263 188.033Z" fill="#F2F2F2"/>
<path d="M141.234 22.05C117.929 22.2146 98.8474 41.1581 98.5167 64.4675C98.5137 64.6826 98.5122 66.1959 98.5122 68.175C98.5122 71.0769 99.6651 73.8599 101.716 75.9122C103.768 77.9636 106.55 79.1172 109.45 79.1172C110.889 79.1172 112.313 78.8329 113.641 78.2823C114.97 77.7309 116.177 76.9237 117.193 75.9062C118.209 74.888 119.015 73.6802 119.564 72.3508C120.114 71.0214 120.396 69.5967 120.395 68.1583C120.394 66.8119 120.393 65.8801 120.393 65.8229C120.392 62.2204 121.329 58.6799 123.111 55.5494C124.893 52.419 127.459 49.8065 130.557 47.969C133.655 46.1314 137.177 45.1322 140.778 45.0695C144.379 45.0067 147.935 45.8827 151.095 47.6112C154.254 49.3397 156.91 51.8613 158.799 54.9277C160.689 57.9942 161.749 61.5 161.874 65.1003C161.998 68.7006 161.184 72.2713 159.51 75.4611C157.837 78.6511 155.363 81.3503 152.33 83.2932L152.333 83.2977C152.333 83.2977 136.764 93.324 132.018 107.077L132.022 107.078C131.187 109.896 130.764 112.819 130.767 115.758C130.767 116.966 130.838 127.535 130.975 136.113C131.023 139.074 132.232 141.896 134.342 143.972C136.452 146.048 139.293 147.211 142.253 147.21C143.739 147.21 145.211 146.916 146.585 146.345C147.958 145.773 149.204 144.936 150.252 143.881C151.3 142.826 152.13 141.574 152.693 140.197C153.255 138.82 153.54 137.346 153.531 135.858C153.483 128.002 153.458 118.854 153.458 118.19C153.458 109.744 161.603 101.33 168.292 95.8429C175.997 89.5243 181.54 80.9134 183.767 71.2001C184.26 69.2003 184.532 67.1525 184.577 65.0934C184.577 59.4144 183.454 53.7917 181.272 48.5491C179.09 43.3064 175.892 38.5475 171.863 34.5465C167.835 30.5455 163.054 27.3814 157.797 25.2367C152.54 23.0919 146.911 22.0089 141.234 22.05Z" fill="#378742"/>
<path d="M276.417 193.015H3.37705C3.27488 193.015 3.17699 192.974 3.10485 192.902C3.03271 192.829 2.99219 192.731 2.99219 192.629C2.99219 192.527 3.03271 192.429 3.10485 192.356C3.17699 192.284 3.27488 192.243 3.37705 192.243H276.417C276.52 192.243 276.618 192.284 276.69 192.356C276.763 192.429 276.803 192.527 276.803 192.629C276.803 192.732 276.763 192.83 276.69 192.902C276.618 192.975 276.52 193.015 276.417 193.015Z" fill="#3F3D56"/>
<path d="M206.711 88.5198C212.082 88.5198 216.436 84.1642 216.436 78.792C216.436 73.4196 212.082 69.0645 206.711 69.0645C201.34 69.0645 196.986 73.4196 196.986 78.792C196.986 84.1642 201.34 88.5198 206.711 88.5198Z" fill="#2F2E41"/>
<path d="M188.74 188.756H184.766L182.875 173.423H188.741L188.74 188.756Z" fill="#A0616A"/>
<path d="M181.929 187.621H189.594V192.448H177.103C177.103 191.814 177.228 191.187 177.47 190.601C177.713 190.015 178.069 189.483 178.517 189.034C178.965 188.586 179.497 188.231 180.082 187.988C180.668 187.745 181.295 187.621 181.929 187.621Z" fill="#2F2E41"/>
<path d="M219.534 188.756H215.56L213.67 173.423H219.535L219.534 188.756Z" fill="#A0616A"/>
<path d="M212.724 187.621H220.388V192.448H207.898C207.898 191.814 208.023 191.187 208.266 190.601C208.508 190.015 208.864 189.483 209.312 189.034C209.76 188.586 210.292 188.231 210.877 187.988C211.463 187.745 212.09 187.621 212.724 187.621Z" fill="#2F2E41"/>
<path d="M205.232 88.5767C209.629 88.5767 213.194 85.0104 213.194 80.6122C213.194 76.2141 209.629 72.6484 205.232 72.6484C200.835 72.6484 197.27 76.2141 197.27 80.6122C197.27 85.0104 200.835 88.5767 205.232 88.5767Z" fill="#A0616A"/>
<path d="M209.979 114.269L213.542 106.082C214.407 104.161 214.655 102.019 214.252 99.9516C213.848 97.8838 212.813 95.9926 211.289 94.5382C210.976 94.2285 210.643 93.9397 210.293 93.6726C208.536 92.2968 206.369 91.5472 204.138 91.542C202.637 91.548 201.156 91.8771 199.794 92.5086C199.678 92.5602 199.564 92.6155 199.447 92.6702C199.223 92.7771 199.003 92.8938 198.789 93.0143C197.394 93.8155 196.206 94.934 195.322 96.2791C194.438 97.6242 193.882 99.1579 193.7 100.757L192.127 113.935C191.732 114.969 177.624 152.323 182.558 180.841C182.611 181.146 182.76 181.426 182.982 181.64C183.205 181.854 183.49 181.991 183.796 182.031L188.798 182.712C189.163 182.762 189.535 182.672 189.835 182.46C190.137 182.247 190.347 181.928 190.423 181.568L198.815 141.552C198.867 141.303 199.001 141.079 199.196 140.916C199.39 140.752 199.634 140.658 199.888 140.65C200.142 140.641 200.391 140.718 200.596 140.868C200.801 141.018 200.95 141.232 201.02 141.477L212.877 183.559C212.962 183.864 213.144 184.134 213.397 184.326C213.649 184.518 213.957 184.622 214.274 184.622C214.369 184.622 214.463 184.613 214.556 184.596L220.667 183.419C221.022 183.353 221.339 183.156 221.557 182.867C221.775 182.578 221.877 182.219 221.844 181.86C220.946 171.843 216.174 121.672 209.979 114.269Z" fill="#2F2E41"/>
<path d="M174.29 87.2396C174.235 87.7132 174.284 88.1934 174.434 88.6453C174.585 89.0979 174.832 89.5116 175.159 89.858C175.487 90.2044 175.887 90.4752 176.329 90.6503C176.772 90.8253 177.249 90.9016 177.725 90.8725L182.175 101.571L185.541 96.5791L180.799 87.185C180.698 86.389 180.308 85.6581 179.703 85.1299C179.1 84.6017 178.322 84.3137 177.52 84.3204C176.718 84.3272 175.946 84.6287 175.351 85.1666C174.755 85.7045 174.378 86.4421 174.29 87.2396Z" fill="#A0616A"/>
<path d="M204.791 125.04C205.264 124.984 205.72 124.824 206.125 124.573C206.529 124.322 206.874 123.984 207.135 123.585C207.395 123.186 207.565 122.734 207.631 122.263C207.699 121.791 207.662 121.31 207.523 120.853L216.886 114.032L211.249 111.92L203.222 118.722C202.471 119.006 201.851 119.555 201.479 120.266C201.106 120.977 201.007 121.8 201.2 122.578C201.394 123.358 201.866 124.039 202.528 124.492C203.19 124.946 203.995 125.141 204.791 125.04Z" fill="#A0616A"/>
<path d="M189.529 108.703C189.17 108.703 188.811 108.667 188.459 108.597C187.608 108.435 186.809 108.066 186.134 107.522C185.458 106.978 184.927 106.277 184.587 105.479L178.351 97.8744C178.22 97.7135 178.124 97.5265 178.07 97.326C178.016 97.1247 178.006 96.9145 178.04 96.7095C178.074 96.5046 178.152 96.3093 178.267 96.1365C178.383 95.9637 178.535 95.8178 178.712 95.7086L183.147 92.9615C183.311 92.8605 183.494 92.7924 183.684 92.7617C183.874 92.731 184.068 92.7385 184.255 92.7834C184.443 92.8283 184.62 92.9098 184.775 93.0236C184.931 93.1365 185.063 93.2802 185.162 93.4447L189.557 100.687L197.972 94.4652C198.643 94.1136 199.417 94.0156 200.154 94.1876C200.89 94.3597 201.54 94.7914 201.985 95.4041C202.43 96.016 202.64 96.7679 202.576 97.522C202.513 98.2761 202.18 98.9823 201.639 99.5112L193.239 107.176C192.252 108.154 190.918 108.703 189.529 108.703Z" fill="#2F2E41"/>
<path d="M212.267 120.14C212.255 120.14 212.243 120.14 212.232 120.14C212.027 120.135 211.826 120.087 211.641 119.999C211.456 119.911 211.292 119.786 211.159 119.631L207.215 115.028C207.081 114.872 206.981 114.688 206.923 114.49C206.864 114.292 206.85 114.084 206.877 113.879C206.906 113.675 206.977 113.479 207.087 113.304C207.196 113.129 207.342 112.979 207.513 112.865L214.899 107.94L208.208 99.8945C207.819 99.2459 207.676 98.4783 207.806 97.7324C207.936 96.9873 208.329 96.3132 208.915 95.8337C209.5 95.3541 210.239 95.102 210.995 95.1222C211.751 95.1424 212.475 95.4342 213.034 95.9444L221.165 103.892C221.805 104.477 222.294 105.209 222.588 106.024C222.884 106.839 222.977 107.714 222.86 108.573C222.743 109.432 222.419 110.25 221.916 110.956C221.413 111.662 220.747 112.236 219.974 112.628L213.328 119.682C213.191 119.827 213.027 119.942 212.844 120.02C212.662 120.099 212.465 120.14 212.267 120.14Z" fill="#2F2E41"/>
<path d="M203.208 103.182C203.145 103.182 203.082 103.178 203.019 103.17C202.744 103.137 202.485 103.025 202.271 102.849C202.058 102.672 201.9 102.438 201.816 102.175L198.853 93.0865C198.778 92.8561 198.79 92.6077 198.885 92.3855C198.98 92.1633 199.152 91.9838 199.37 91.8783L199.465 91.8334C199.553 91.7915 199.639 91.7504 199.727 91.7115C201.109 91.0703 202.613 90.7359 204.137 90.7314C206.115 90.7344 208.048 91.3157 209.7 92.4035C209.921 92.5509 210.076 92.779 210.13 93.0394C210.185 93.2997 210.136 93.5713 209.992 93.7957L204.433 102.508C204.302 102.714 204.122 102.885 203.908 103.003C203.693 103.121 203.453 103.182 203.208 103.182Z" fill="#E6E6E6"/>
<path d="M214.377 74.4492C216.134 74.4492 217.559 73.024 217.559 71.2661C217.559 69.5081 216.134 68.083 214.377 68.083C212.619 68.083 211.195 69.5081 211.195 71.2661C211.195 73.024 212.619 74.4492 214.377 74.4492Z" fill="#2F2E41"/>
<path d="M203.468 67.7676C201.233 67.7676 199.09 68.6558 197.509 70.2368C195.928 71.8178 195.04 73.9622 195.04 76.1978V79.7648H199.426L201.524 76.1978L202.153 79.7648H215.463L211.897 76.1978C211.897 73.9622 211.009 71.8178 209.429 70.2368C207.848 68.6558 205.704 67.7676 203.468 67.7676Z" fill="#2F2E41"/>
<path d="M216.014 69.086C216.366 67.9853 217.094 67.044 218.072 66.4274C219.049 65.811 220.211 65.5587 221.356 65.7151C223.384 66.0543 224.987 67.6849 225.943 69.506C226.898 71.3272 227.339 73.3654 227.982 75.3194C228.624 77.2727 229.535 79.2373 231.156 80.5023C232.778 81.7667 235.266 82.1101 236.858 80.8091C236.676 82.1647 236.073 83.429 235.133 84.4232C234.194 85.4167 232.965 86.0908 231.622 86.3482C230.279 86.6055 228.889 86.4342 227.648 85.8574C226.407 85.2813 225.379 84.3297 224.71 83.1372C223.869 81.6417 223.653 79.8896 223.403 78.1921C223.154 76.4947 222.831 74.739 221.827 73.3477C220.824 71.9565 218.946 71.0478 217.352 71.6815L216.014 69.086Z" fill="#2F2E41"/>
<path d="M112.54 73.9415C109.639 73.9412 106.857 72.7882 104.806 70.7362C102.754 68.6842 101.602 65.9012 101.602 62.9993C101.601 61.0201 101.603 59.5069 101.606 59.2917C101.698 52.5127 103.405 45.8534 106.585 39.8662C101.361 47.0201 98.4877 55.6213 98.3643 64.4798C98.3613 64.695 98.3598 66.2082 98.3605 68.1873C98.3605 71.0892 99.5126 73.8722 101.564 75.924C103.615 77.9761 106.398 79.129 109.299 79.1297C111.682 79.129 114.001 78.3494 115.902 76.9101C117.803 75.4714 119.182 73.4508 119.83 71.156C117.827 72.9527 115.231 73.9448 112.54 73.9415Z" fill="#3F3D56"/>
<path d="M141.977 45.1065C145.331 45.2666 148.596 46.2387 151.491 47.9391C154.387 49.6395 156.827 52.0174 158.601 54.8687C160.376 57.72 161.431 60.9594 161.679 64.309C161.926 67.6585 161.357 71.0179 160.02 74.0988C161.954 71.8273 163.374 69.1655 164.187 66.2947C164.999 63.424 165.182 60.4119 164.725 57.4638C164.268 54.5157 163.18 51.7009 161.536 49.2113C159.893 46.7217 157.732 44.6158 155.201 43.0373C152.67 41.4588 149.829 40.4446 146.871 40.064C143.913 39.6835 140.907 39.9455 138.059 40.8321C135.211 41.7187 132.588 43.2091 130.369 45.2017C128.149 47.1943 126.384 49.6423 125.196 52.3787C127.25 49.9621 129.831 48.0497 132.74 46.7888C135.65 45.5279 138.81 44.9523 141.977 45.1065Z" fill="#3F3D56"/>
<path d="M145.342 142.035C142.382 142.036 139.542 140.873 137.432 138.797C135.321 136.721 134.112 133.899 134.065 130.939C133.927 122.36 133.856 111.79 133.856 110.583C133.854 107.644 134.277 104.721 135.112 101.903L135.107 101.903C135.6 100.488 136.196 99.1113 136.889 97.7842C134.762 100.62 133.069 103.756 131.866 107.09L131.87 107.092C131.035 109.909 130.613 112.833 130.614 115.771C130.614 116.979 130.685 127.548 130.823 136.127C130.871 139.086 132.08 141.909 134.19 143.985C136.3 146.061 139.141 147.224 142.1 147.224C144.541 147.223 146.915 146.431 148.867 144.967C150.82 143.503 152.244 141.444 152.928 139.101C150.855 140.993 148.148 142.039 145.342 142.035Z" fill="#3F3D56"/>
<path d="M44.0112 188.905L47.9852 188.904L49.876 173.571H44.0103L44.0112 188.905Z" fill="#FFB8B8"/>
<path d="M55.6506 192.595L43.1604 192.596L43.1602 187.769L50.8246 187.769C52.1045 187.769 53.332 188.277 54.2371 189.183C55.1421 190.088 55.6506 191.315 55.6506 192.595Z" fill="#2F2E41"/>
<path d="M29.7476 188.905L33.7214 188.904L35.6123 173.571H29.7466L29.7476 188.905Z" fill="#FFB8B8"/>
<path d="M41.3865 192.595L28.8962 192.596L28.896 187.769L36.5605 187.769C37.8403 187.769 39.0678 188.277 39.9728 189.183C40.8779 190.088 41.3864 191.315 41.3865 192.595Z" fill="#2F2E41"/>
<path d="M33.2196 184.189L29.3377 183.984C29.1376 183.974 28.9415 183.924 28.7609 183.837C28.5802 183.75 28.4186 183.628 28.2854 183.479C28.1521 183.328 28.05 183.154 27.9848 182.964C27.9195 182.775 27.8926 182.574 27.9055 182.374L32.5451 130.991L53.911 136.758L55.9695 136.196L49.5321 181.684C49.4773 182.026 49.3074 182.339 49.0506 182.572C48.7937 182.805 48.4652 182.942 48.1194 182.963L43.9348 183.158C43.7256 183.17 43.5162 183.137 43.3199 183.064C43.1237 182.991 42.9447 182.877 42.7945 182.731C42.6443 182.585 42.526 182.41 42.4471 182.215C42.3682 182.021 42.3304 181.813 42.3362 181.603L43.0944 154.302C43.098 154.175 43.0542 154.053 42.9715 153.957C42.8889 153.862 42.7735 153.801 42.6482 153.786C42.5227 153.771 42.3964 153.804 42.294 153.878C42.1916 153.952 42.1206 154.062 42.095 154.185L34.7829 182.983C34.7138 183.324 34.5285 183.632 34.2584 183.852C33.9883 184.073 33.6502 184.192 33.3017 184.191C33.2745 184.191 33.2471 184.19 33.2196 184.189Z" fill="#2F2E41"/>
<path d="M44.7249 88.9497C49.1221 88.9497 52.6867 85.3842 52.6867 80.9852C52.6867 76.587 49.1221 73.0215 44.7249 73.0215C40.3278 73.0215 36.7632 76.587 36.7632 80.9852C36.7632 85.3842 40.3278 88.9497 44.7249 88.9497Z" fill="#FFB8B8"/>
<path d="M31.47 104.383L32.3454 123.276L32.6619 130.149C32.6745 130.449 32.7761 130.737 32.9536 130.978C33.1311 131.22 33.3766 131.403 33.6585 131.504L54.1897 138.943C54.3554 139.004 54.5312 139.036 54.7081 139.033C54.9104 139.035 55.1107 138.995 55.2972 138.917C55.4838 138.838 55.6526 138.724 55.7937 138.579C55.9348 138.433 56.0453 138.262 56.1185 138.074C56.1917 137.885 56.2263 137.683 56.2199 137.481L55.3782 103.51C55.3229 100.723 54.2972 98.0424 52.478 95.9304C50.6588 93.8192 48.1599 92.4083 45.4123 91.9415C45.2136 91.9115 45.0116 91.8809 44.8096 91.8539C43.1058 91.643 41.3764 91.8068 39.743 92.3357C38.1096 92.8646 36.612 93.7452 35.3554 94.9152C34.0542 96.1122 33.0318 97.5808 32.3604 99.2169C31.689 100.852 31.3851 102.616 31.47 104.383Z" fill="#CCCCCC"/>
<path d="M63.9962 135.173C63.5106 135.022 63.067 134.76 62.7007 134.407C62.3343 134.054 62.0555 133.621 61.8865 133.141C61.7174 132.661 61.6627 132.149 61.7268 131.645C61.791 131.14 61.9721 130.657 62.2558 130.235L55.2935 120.974L61.3016 120.603L66.992 129.454C67.6012 129.925 68.0252 130.596 68.1895 131.348C68.3538 132.1 68.2479 132.887 67.8905 133.569C67.5331 134.251 66.9469 134.786 66.2348 135.079C65.5227 135.373 64.7302 135.406 63.9962 135.173Z" fill="#FFB8B8"/>
<path d="M59.0998 128.56C58.9154 128.485 58.7476 128.375 58.6062 128.234C58.4648 128.094 58.3526 127.927 58.2761 127.743L47.7868 102.746C47.581 102.256 47.4736 101.731 47.4708 101.2C47.468 100.669 47.5698 100.143 47.7705 99.6514C47.9711 99.1599 48.2666 98.7126 48.6401 98.3348C49.0137 97.9577 49.4578 97.6577 49.9473 97.4527C50.4368 97.247 50.9619 97.14 51.4927 97.1378C52.0235 97.1348 52.5497 97.2373 53.041 97.4385C53.5323 97.6398 53.9791 97.9353 54.3559 98.3093C54.7328 98.6834 55.0324 99.1278 55.2374 99.6178L65.7268 124.616C65.8818 124.987 65.8835 125.403 65.7316 125.776C65.5796 126.148 65.2863 126.444 64.9162 126.599L60.2594 128.555C60.0761 128.632 59.8792 128.673 59.6802 128.674C59.4812 128.675 59.2839 128.636 59.0998 128.56H59.0998Z" fill="#CCCCCC"/>
<path d="M42.1642 127.678L52.2389 108.382C52.4332 108.011 52.7667 107.732 53.1663 107.607C53.5659 107.481 53.9988 107.519 54.3702 107.713L68.9937 115.352C69.3647 115.547 69.6435 115.88 69.7689 116.28C69.8943 116.679 69.856 117.113 69.6626 117.484L59.5878 136.78C59.3936 137.151 59.0601 137.43 58.6605 137.556C58.2609 137.681 57.828 137.642 57.4565 137.449L42.8331 129.81C42.4621 129.615 42.1833 129.281 42.0579 128.882C41.9325 128.483 41.9707 128.049 42.1642 127.678Z" fill="#3F3D56"/>
<path d="M48.9202 118.862C48.7411 118.386 48.4532 117.959 48.0796 117.614C47.706 117.269 47.2569 117.017 46.7683 116.876C46.2797 116.735 45.7649 116.711 45.2652 116.805C44.7655 116.898 44.2946 117.108 43.8902 117.416L34.2372 111.011L34.2207 117.032L43.39 122.191C43.8961 122.772 44.5904 123.156 45.3511 123.275C46.1118 123.395 46.8903 123.243 47.5501 122.846C48.2099 122.449 48.7088 121.832 48.9593 121.104C49.2098 120.375 49.196 119.582 48.9202 118.862Z" fill="#FFB8B8"/>
<path d="M36.7174 120.216L28.8284 113.966C27.9749 113.679 27.2038 113.19 26.5811 112.539C25.9584 111.889 25.5028 111.097 25.2534 110.232C25.004 109.366 24.9682 108.454 25.1492 107.571C25.3302 106.689 25.7224 105.864 26.2923 105.167L33.4554 95.7766C33.9532 95.1684 34.6532 94.7592 35.4276 94.6245C36.2019 94.4899 36.9989 94.6387 37.6727 95.0435C38.3466 95.4482 38.8524 96.0819 39.0975 96.8285C39.3428 97.5759 39.311 98.3861 39.0081 99.1117L33.3405 108.385L41.6696 112.337C41.8633 112.429 42.0352 112.561 42.1742 112.724C42.3131 112.887 42.4157 113.078 42.4754 113.284C42.5351 113.49 42.5505 113.706 42.5204 113.919C42.4903 114.131 42.4156 114.334 42.3011 114.516L38.9389 119.838C38.8253 120.018 38.6751 120.171 38.4984 120.29C38.3215 120.407 38.1219 120.486 37.9124 120.522C37.9041 120.524 37.8958 120.525 37.8874 120.527C37.6815 120.557 37.4715 120.546 37.2702 120.493C37.069 120.439 36.8809 120.346 36.7174 120.216Z" fill="#CCCCCC"/>
<path d="M38.7078 86.3178C38.6736 86.2183 38.6628 86.1121 38.6761 86.0066C38.6894 85.9019 38.7266 85.8016 38.7847 85.7133C38.8427 85.6251 38.9202 85.5517 39.0113 85.4979C39.1022 85.444 39.2043 85.4118 39.3095 85.4044C39.5252 85.4156 39.7362 85.4709 39.9299 85.5667C40.1236 85.6625 40.2959 85.7964 40.4364 85.9602C40.7245 86.2924 41.06 86.5804 41.432 86.8153C41.8171 87.0098 42.3394 86.9821 42.559 86.6118C42.7652 86.264 42.6239 85.7986 42.4991 85.3946C42.1815 84.3667 42.0037 83.3014 41.9707 82.2263C41.9348 81.0264 42.104 79.7748 42.7681 78.8389C43.6251 77.6306 45.1576 77.1728 46.6079 77.2057C48.0582 77.2386 49.485 77.6868 50.9216 77.9695C51.4176 78.0675 52.0005 78.1177 52.3322 77.7331C52.6849 77.3239 52.5554 76.6626 52.4053 76.1105C52.0161 74.6783 51.603 73.1973 50.6985 72.0405C49.7205 70.8385 48.3236 70.0517 46.7889 69.8387C45.3155 69.6562 43.8199 69.826 42.4249 70.3344C40.1521 71.0508 38.1523 72.4444 36.6928 74.3287C35.1882 76.3327 34.5381 78.8508 34.8846 81.3323C35.223 83.4944 36.3681 85.447 38.0892 86.7981L38.7078 86.3178Z" fill="#2F2E41"/>
<path d="M139.548 188.968C137.43 188.045 135.555 186.642 134.072 184.87C132.588 183.099 131.536 181.006 131 178.759C130.463 176.511 130.456 174.168 130.979 171.917C131.503 169.667 132.542 167.568 134.014 165.787C132.307 167.034 130.884 168.631 129.84 170.47C128.796 172.309 128.156 174.35 127.96 176.456C127.765 178.562 128.019 180.685 128.708 182.686C129.395 184.685 130.501 186.516 131.95 188.056C133.4 189.596 135.159 190.81 137.114 191.617C139.068 192.425 141.172 192.808 143.285 192.74C145.399 192.672 147.473 192.155 149.372 191.224C151.27 190.293 152.949 188.968 154.297 187.338C152.195 188.875 149.728 189.834 147.14 190.12C144.552 190.406 141.934 190.008 139.548 188.968Z" fill="#3F3D56"/>
</g>
<defs>
<filter id="filter0_d_273_1653" x="-0.000293732" y="0" width="279.796" height="199.001" filterUnits="userSpaceOnUse" color-interpolation-filters="sRGB">
<feFlood flood-opacity="0" result="BackgroundImageFix"/>
<feColorMatrix in="SourceAlpha" type="matrix" values="0 0 0 0 0 0 0 0 0 0 0 0 0 0 0 0 0 0 127 0" result="hardAlpha"/>
<feOffset dy="2.99248"/>
<feGaussianBlur stdDeviation="1.49624"/>
<feColorMatrix type="matrix" values="0 0 0 0 0 0 0 0 0 0 0 0 0 0 0 0 0 0 0.25 0"/>
<feBlend mode="normal" in2="BackgroundImageFix" result="effect1_dropShadow_273_1653"/>
<feBlend mode="normal" in="SourceGraphic" in2="effect1_dropShadow_273_1653" result="shape"/>
</filter>
</defs>
</svg>
