<svg width="417" height="287" viewBox="0 0 417 287" fill="none" xmlns="http://www.w3.org/2000/svg">
<path d="M376.495 137.164L370.284 161.982L365.242 182.115L361.224 198.172L356.185 218.305L339.72 284.08L135.693 200.326L120.696 194.169L101.712 186.375L86.7097 180.217L68.6655 172.809L78.8951 159.587L87.4017 148.593L98.1632 134.683L106.667 123.696L202.365 0.00982666L303.742 79.8612L321.795 94.0801L336.189 105.418L354.245 119.637L376.495 137.164Z" fill="#F2F2F2"/>
<path d="M79.9317 210.178C66.2887 203.421 57.7955 194.197 54.6877 182.761C52.3802 174.27 53.0433 164.715 56.6583 154.362C59.3382 146.729 63.3562 139.518 68.5643 132.997C96.194 98.2536 98.6877 75.6147 95.9143 62.7409C92.8736 48.6251 82.9944 42.7627 82.8949 42.7052L83.3214 42.1226C83.4234 42.1814 93.5629 48.1801 96.6768 62.5823C98.4719 70.8852 97.6273 80.3527 94.1666 90.7217C89.8595 103.626 81.4606 117.985 69.2034 133.398C64.0427 139.86 60.0612 147.004 57.4055 154.567C51.4764 171.548 50.6376 194.874 80.3125 209.571L79.9317 210.178Z" fill="white"/>
<path d="M86.4921 210.178C100.135 203.421 108.628 194.197 111.736 182.761C114.044 174.27 113.381 164.715 109.766 154.362C107.086 146.729 103.068 139.518 97.8595 132.997C70.2299 98.2536 67.7361 75.6147 70.5095 62.7409C73.5502 48.6251 83.4294 42.7627 83.5289 42.7052L83.1025 42.1226C83.0005 42.1814 72.8609 48.1801 69.7471 62.5823C67.952 70.8852 68.7965 80.3527 72.2572 90.7217C76.5644 103.626 84.9633 117.985 97.2205 133.398C102.381 139.86 106.363 147.004 109.018 154.567C114.947 171.548 115.786 194.874 86.1113 209.571L86.4921 210.178Z" fill="white"/>
<path d="M383.85 180.989C370.207 174.233 361.713 165.008 358.606 153.572C356.298 145.081 356.961 135.526 360.576 125.173C363.256 117.54 367.274 110.33 372.482 103.809C400.112 69.0651 402.606 46.4262 399.832 33.5524C396.792 19.4367 386.912 13.5742 386.813 13.5167L387.239 12.9341C387.341 12.993 397.481 18.9916 400.595 33.3938C402.39 41.6967 401.545 51.1642 398.085 61.5332C393.777 74.4379 385.379 88.7963 373.121 104.21C367.961 110.671 363.979 117.816 361.323 125.379C355.394 142.359 354.556 165.686 384.231 180.383L383.85 180.989Z" fill="white"/>
<path d="M390.411 180.989C404.054 174.233 412.547 165.008 415.655 153.572C417.962 145.081 417.299 135.526 413.684 125.173C411.004 117.54 406.986 110.33 401.778 103.809C374.148 69.0651 371.655 46.4262 374.428 33.5524C377.469 19.4367 387.348 13.5742 387.447 13.5167L387.021 12.9341C386.919 12.993 376.779 18.9916 373.666 33.3938C371.87 41.6967 372.715 51.1642 376.176 61.5332C380.483 74.4379 388.882 88.7963 401.139 104.21C406.3 110.671 410.281 117.816 412.937 125.379C418.866 142.359 419.705 165.686 390.03 180.383L390.411 180.989Z" fill="white"/>
<path d="M182.983 104.235C172.732 88.8482 152.452 88.1311 152.452 88.1311C152.452 88.1311 132.69 85.8861 120.013 109.321C108.197 131.164 91.8894 152.254 117.388 157.367L121.993 144.632L124.846 158.315C128.476 158.547 132.118 158.602 135.755 158.481C163.062 157.697 189.067 158.71 188.23 150.005C187.117 138.433 192.846 119.041 182.983 104.235Z" fill="#2F2E41"/>
<path d="M140.908 136.439C144.44 143.38 146.668 151.654 147.998 160.844L176.355 159.269C169.836 151.062 167.671 141.642 170.152 130.928L140.908 136.439Z" fill="#FFB8B8"/>
<path opacity="0.2" d="M140.908 136.439C144.44 143.38 146.668 151.654 147.998 160.844L176.355 159.269C169.836 151.062 167.671 141.642 170.152 130.928L140.908 136.439Z" fill="black"/>
<path d="M9.33744 268.594C9.33744 268.594 -5.33936 275.578 2.10834 281.541C9.55605 287.503 19.3941 273.648 19.3941 273.648L9.33744 268.594Z" fill="#FFB8B8"/>
<path d="M188.762 248.228L188.533 257.769L188.044 278.385V278.389L187.901 284.359H94.0459L97.8603 265.543L97.8642 265.529L101.28 248.687L102.804 241.145V241.142L179.901 231.695L188.762 248.228Z" fill="#2F2E41"/>
<path d="M188.762 248.229L188.531 257.771C161.255 257.149 118.976 251.299 101.279 248.686L102.803 241.144L179.9 231.697L188.762 248.229Z" fill="#3F3D56"/>
<path d="M154.644 143.131C166.88 143.131 176.798 134.319 176.798 123.449C176.798 112.58 166.88 103.768 154.644 103.768C142.409 103.768 132.49 112.58 132.49 123.449C132.49 134.319 142.409 143.131 154.644 143.131Z" fill="#FFB8B8"/>
<path d="M197.18 258.857C197.18 258.857 199.838 280.113 183.887 278.538L181.229 257.283L167.05 244.686L127.172 243.899L97.9286 268.304C97.9286 268.304 97.0424 243.112 100.587 240.75C104.132 238.388 112.107 232.878 112.107 232.878V228.941L88.1807 185.642C88.1807 185.642 102.359 159.663 113.88 158.876L128.945 158.088C128.945 158.088 134.262 155.727 134.262 154.939C134.262 154.152 133.375 147.854 137.806 149.429C137.806 149.429 138.205 141.351 142.875 143.816C142.875 143.816 157.577 154.05 172.5 144.264C172.5 144.264 179.456 143.131 178.57 146.28C177.684 149.429 178.57 151.79 180.343 151.79C182.115 151.79 190.091 154.152 190.091 155.727C190.091 156.065 190.667 159.324 191.57 164.229V164.237C194.858 182.115 202.497 221.856 202.497 221.856C202.497 221.856 210.473 232.09 197.18 258.857Z" fill="#378742"/>
<path d="M94.3841 181.706L88.1809 185.642L31.4658 250.197L1.33594 271.453C1.33594 271.453 18.1732 269.091 14.6285 281.687L118.311 228.941L94.3841 181.706Z" fill="#378742"/>
<path d="M191.571 164.229V164.237C190.392 170.393 151.985 169.11 146.668 169.11C141.351 169.11 136.92 168.323 131.603 165.174C126.286 162.025 128.945 158.088 128.945 158.088C128.945 158.088 133.472 155.025 133.472 154.238C133.472 153.451 132.586 147.153 137.017 148.727C137.017 148.727 137.416 140.65 142.086 143.114C142.086 143.114 157.577 154.05 172.5 144.264C172.5 144.264 179.457 143.131 178.571 146.28C177.684 149.429 178.571 151.79 180.343 151.79C182.115 151.79 190.091 154.152 190.091 155.727C190.091 156.065 190.667 159.324 191.571 164.229Z" fill="#3F3D56"/>
<path d="M186.989 134.864C186.989 134.864 179.9 121.481 172.811 127.779C165.721 134.077 180.786 143.524 180.786 143.524L186.989 134.864Z" fill="#FFB8B8"/>
<path d="M186.989 131.715C186.989 131.715 176.042 144.006 172.654 144.946C172.654 144.946 182.558 179.738 194.965 189.185L202.054 221.462C202.054 221.462 232.184 210.441 225.094 192.334C225.024 192.153 224.953 191.973 224.883 191.794C218.963 176.715 210.794 162.409 200.594 149.259L186.989 131.715Z" fill="#378742"/>
<path opacity="0.2" d="M181.139 168.168L202.94 221.463L194.965 189.185L181.139 168.168Z" fill="black"/>
<path d="M178.451 102.752L158.415 93.4286L130.747 97.2426L125.022 119.703L139.272 119.217L143.253 110.965V119.081L149.828 118.856L153.645 105.718L156.03 119.703L179.405 119.28L178.451 102.752Z" fill="#2F2E41"/>
<path d="M367.725 223.905L379.093 259.929C379.093 259.929 376.75 291.838 387.682 285.595C398.868 279.206 394.709 252.299 394.709 252.299L388.157 219.981L367.725 223.905Z" fill="#A0616A"/>
<path d="M373.799 122.85L383.187 131.189V170.925C383.187 170.925 388.709 178.283 387.604 180.246C386.5 182.208 385.396 182.208 386.5 183.68C387.604 185.151 388.709 186.132 387.604 187.113C386.5 188.095 386.5 190.547 387.604 191.529C388.709 192.51 390.918 193.981 389.261 195.453C387.604 196.925 385.396 195.944 387.604 201.34C389.813 206.736 393.679 208.208 392.574 210.17C391.47 212.132 391.47 217.038 391.47 217.038L367.725 219.981L362.755 164.548L373.799 122.85Z" fill="#D0CDE1"/>
<path d="M392.574 216.547L364.964 217.528L366.068 227.83L390.365 223.906L392.574 216.547Z" fill="#3F3D56"/>
<path d="M316.646 71.5863L313.333 101.02L347.017 105.435L349.502 88.5107L351.987 71.5863H316.646Z" fill="#A0616A"/>
<path opacity="0.1" d="M316.646 71.4268L313.333 100.861L347.017 105.276L349.502 88.3512L351.987 71.4268H316.646Z" fill="black"/>
<path d="M243.48 211.641L262.255 247.452C262.255 247.452 265.568 264.132 270.538 264.622C275.508 265.113 280.477 247.452 280.477 247.452L273.851 238.132L266.12 211.641H243.48Z" fill="#A0616A"/>
<path d="M371.999 284.707H265.855C266.696 272.888 267.225 265.603 267.225 265.603L268.635 263.631L275.47 254.09L280.351 247.277L282.052 244.899L282.684 244.019L289.369 242.935L358.337 231.755C359.477 236.292 361.091 240.726 363.158 244.997C363.628 245.948 364.133 246.899 364.674 247.839C366.408 250.845 368.524 253.693 371.039 255.791C371.612 256.268 372.027 257.541 372.295 259.499C372.958 264.294 372.769 273.211 371.999 284.707Z" fill="#2F2E41"/>
<path d="M335.145 81.1521C349.784 81.1521 361.651 70.6098 361.651 57.6052C361.651 44.6006 349.784 34.0582 335.145 34.0582C320.507 34.0582 308.64 44.6006 308.64 57.6052C308.64 70.6098 320.507 81.1521 335.145 81.1521Z" fill="#A0616A"/>
<path d="M276.059 105.68L272.194 103.718C272.194 103.718 255.076 114.02 249.554 137.076C244.032 160.133 240.166 166.019 240.166 166.019C240.166 166.019 234.644 167 238.51 170.434C242.375 173.868 242.375 173.378 239.062 175.34C235.749 177.302 233.54 173.378 235.749 177.302C237.958 181.227 240.719 180.246 238.51 182.698C236.301 185.151 232.436 185.151 234.644 187.113C236.853 189.076 232.436 193.491 235.197 195.453C237.958 197.415 239.062 197.906 239.062 201.34C239.045 203.344 239.419 205.335 240.166 207.226H268.881C268.881 207.226 263.359 197.906 265.015 195.944C266.672 193.981 267.224 192.019 266.12 191.038C265.015 190.057 261.702 192.019 265.015 189.566C268.329 187.113 269.433 188.585 268.329 185.642C267.224 182.698 265.015 184.17 267.224 182.698C269.433 181.227 271.09 181.717 269.985 180.246C268.881 178.774 266.672 178.774 268.881 177.793C271.09 176.812 272.746 177.793 272.194 175.34C271.642 172.887 271.09 173.868 272.194 172.887C273.298 171.906 284.895 138.548 284.895 137.567C284.895 136.586 276.059 105.68 276.059 105.68Z" fill="#D0CDE1"/>
<path d="M270.538 205.264L235.749 207.227L244.584 214.585L268.881 215.075L270.538 205.264Z" fill="#3F3D56"/>
<path d="M280.477 242.056L273.299 253.83C273.299 253.83 294.835 256.283 302.565 258.735C310.296 261.188 330.175 264.622 330.175 264.622L335.145 247.453L280.477 242.056Z" fill="#3F3D56"/>
<path d="M343.428 247.452L349.502 263.641L373.799 259.226L371.038 244.019L343.428 247.452Z" fill="#3F3D56"/>
<path d="M353.368 89.0011C353.368 89.0011 351.711 88.02 347.846 89.9822C343.98 91.9445 331.28 92.9256 325.206 87.0389C319.131 81.1521 314.714 76.2465 313.057 77.2276C311.401 78.2087 310.296 89.4917 310.296 89.4917L304.774 93.4162L272.194 103.718L274.955 169.944L279.925 185.151C279.925 185.151 276.06 196.925 281.03 203.792C285.999 210.66 278.269 213.113 278.269 213.113C278.269 213.113 276.612 215.075 277.716 219.981C278.821 224.887 276.612 243.037 276.612 243.037C276.612 243.037 323.549 261.679 372.695 245.49L367.173 226.849L364.412 185.151C364.412 185.151 367.173 178.283 366.621 175.34C366.068 172.397 383.187 131.189 383.187 131.189C383.187 131.189 380.426 110.586 366.068 106.171C351.711 101.756 349.502 97.3407 349.502 97.3407C349.502 97.3407 356.129 90.9633 353.368 89.0011Z" fill="#D0CDE1"/>
<path d="M308.456 60.6215C308.456 60.6215 305.703 56.9537 306.762 53.0037C307.394 50.7611 307.644 48.4468 307.503 46.1383C307.503 46.1383 309.726 39.7431 311.949 36.1693C314.172 32.5955 313.114 31.0907 320.101 29.9622C327.088 28.8336 324.23 20.7455 342.65 29.4919C343.271 30.2628 344.136 30.8528 345.135 31.1876C346.133 31.5223 347.221 31.5868 348.261 31.3729C352.072 30.7145 353.448 35.4169 353.448 35.4169C353.448 35.4169 355.989 34.1002 356.942 35.9812C357.894 37.8621 364.688 34.8523 364.688 47.5486C364.688 60.245 356.957 71.5862 356.957 71.5862C356.957 71.5862 357.524 50.2293 344.926 48.0662C332.328 45.9032 318.777 39.602 315.496 47.6901C312.214 55.7781 308.456 60.6215 308.456 60.6215Z" fill="#2F2E41"/>
<path d="M357.233 65.6995C358.605 65.6995 359.718 64.3817 359.718 62.7561C359.718 61.1305 358.605 59.8127 357.233 59.8127C355.861 59.8127 354.748 61.1305 354.748 62.7561C354.748 64.3817 355.861 65.6995 357.233 65.6995Z" fill="#A0616A"/>
</svg>
