<svg width="351" height="291" viewBox="0 0 351 291" fill="none" xmlns="http://www.w3.org/2000/svg">
<g clip-path="url(#clip0_82_663)">
<path opacity="0.1" d="M327.824 160.797C314.342 182.6 316.868 212.302 322.789 235.722C324.77 243.564 327.053 251.842 325.359 260.618C323.287 271.348 315.734 279.775 308.09 284.601C294.154 293.377 278.24 293.133 266.652 283.958C256.645 276.032 250.055 262.209 239.837 254.709C222.753 242.154 199.294 249.764 178.924 261.497C164.519 269.779 148.663 280.317 135.349 274.35C125.982 270.16 120.14 258.339 117.414 245.476C116.098 239.265 115.302 232.481 112.285 227.75C110.49 224.937 108.022 223.055 105.463 221.511C82.1079 207.433 50.5098 219.203 27.988 203.262C12.7759 192.498 4.12855 170.266 1.28606 146.494C-1.55643 122.722 0.780806 97.2847 3.7069 72.2404C5.78969 54.4347 8.60674 35.3862 17.9557 20.9054C27.8462 5.5889 43.4363 -1.26085 56.9872 0.192679C70.5381 1.64621 82.3042 10.2293 92.4456 20.7201C105.121 33.8309 116.553 50.5756 132.957 54.8053C144.131 57.687 156.333 54.3511 168.215 52.4652C188.055 49.311 207.618 50.2158 227.043 51.4004C245.639 52.5342 264.348 53.9441 281.674 60.485C293.935 65.1181 303.346 74.7623 314.789 81.0342C322.248 85.1223 330.663 85.6419 337.613 91.0927C346.173 97.808 353.581 110.203 350.153 125.872C346.885 140.778 334.977 149.227 327.824 160.797Z" fill="#378742"/>
<path d="M241.535 111.515C241.535 111.515 278.248 80.7615 286.412 65.2559C294.576 49.7504 304.968 36.3889 304.968 36.3889" stroke="#535461" stroke-width="2" stroke-miterlimit="10"/>
<path d="M300.141 71.052L284.26 67.4727C284.26 67.4727 288.007 84.2174 300.141 71.052Z" fill="#378742"/>
<path d="M275.874 53.9585L285.012 67.6398C285.012 67.6398 267.147 68.9298 275.874 53.9585Z" fill="#378742"/>
<path d="M306.389 58.1918L291.875 55.6482C291.875 55.6482 300.991 69.5112 306.389 58.1918Z" fill="#378742"/>
<path d="M284.909 45.964L292.059 55.3247C292.059 55.3247 279.403 56.5238 284.909 45.964Z" fill="#378742"/>
<path d="M299.381 44.1001C299.381 44.1001 311.74 44.6888 313.194 45.8698C314.648 47.0508 311.351 53.9732 306.651 52.8431C301.951 51.713 299.381 44.1001 299.381 44.1001Z" fill="#378742"/>
<path d="M294.441 33.0568C294.441 33.0568 299.49 42.254 299.301 44.0055C299.112 45.757 291.606 47.7229 290.09 41.0984C288.574 34.474 294.441 33.0568 294.441 33.0568Z" fill="#378742"/>
<path d="M310.142 40.0811C310.713 38.2718 309.709 36.3418 307.9 35.7705C306.09 35.1991 304.159 36.2027 303.588 38.012C303.016 39.8213 304.02 41.7512 305.83 42.3226C307.64 42.894 309.57 41.8904 310.142 40.0811Z" fill="#FFD037"/>
<path d="M304.762 36.5456C305.333 34.7363 304.329 32.8063 302.519 32.2349C300.709 31.6636 298.779 32.6672 298.208 34.4765C297.636 36.2859 298.64 38.2158 300.45 38.7872C302.26 39.3585 304.19 38.355 304.762 36.5456Z" fill="#FFD037"/>
<path d="M127.025 232.067C127.025 232.067 132.917 214.544 95.5648 193.421C95.5648 193.421 57.6383 182.363 61.5167 144.39C61.5167 144.39 17.7962 176.411 47.3806 217.201C76.965 257.99 102.5 249.087 102.5 249.087L127.025 232.067Z" fill="#378742"/>
<path d="M115.637 239.981C115.637 239.981 97.4113 220.289 79.942 212.677C76.4523 211.106 73.2457 208.971 70.4513 206.357C59.314 196.183 54.4578 180.83 57.3293 166.022L61.5276 144.39" stroke="#535461" stroke-width="2" stroke-miterlimit="10"/>
<path d="M277.589 12.0641H70.1777V252.816H277.589V12.0641Z" fill="url(#paint0_linear_82_663)"/>
<path d="M275.176 14.8657H72.5957V250.007H275.176V14.8657Z" fill="#F7F7FD"/>
<path d="M136.042 41.371H84.8301V45.4481H136.042V41.371Z" fill="#E2E2EC"/>
<path d="M172.297 51.3386H84.8301V55.4158H172.297V51.3386Z" fill="#E2E2EC"/>
<path d="M265.475 37.4756H229.129V68.8282H265.475V37.4756Z" fill="#FCFCFC"/>
<path d="M265.281 37.6572V68.6465H229.295V37.6572H265.281ZM265.644 37.2938H228.932V69.0098H265.644V37.2938Z" fill="#E2E2EC"/>
<path d="M228.766 37.4756H192.42V68.8282H228.766V37.4756Z" fill="#FCFCFC"/>
<path d="M228.568 37.6572V68.6465H192.583V37.6572H228.568ZM228.932 37.2938H192.219V69.0098H228.932V37.2938Z" fill="#E2E2EC"/>
<path d="M265.475 69.1914H229.129V100.544H265.475V69.1914Z" fill="#FCFCFC"/>
<path d="M265.281 69.3732V100.362H229.295V69.3732H265.281ZM265.644 69.0098H228.932V100.726H265.644V69.0098Z" fill="#E2E2EC"/>
<path d="M228.766 69.1914H192.42V100.544H228.766V69.1914Z" fill="#FCFCFC"/>
<path d="M228.568 69.3732V100.362H192.583V69.3732H228.568ZM228.932 69.0098H192.219V100.726H228.932V69.0098Z" fill="#E2E2EC"/>
<path d="M192.056 69.1914H155.711V100.544H192.056V69.1914Z" fill="#FCFCFC"/>
<path d="M191.874 69.3732V100.362H155.889V69.3732H191.874ZM192.238 69.0098H155.525V100.726H192.238V69.0098Z" fill="#E2E2EC"/>
<path d="M155.347 69.1914H119.002V100.544H155.347V69.1914Z" fill="#FCFCFC"/>
<path d="M155.166 69.3732V100.362H119.181V69.3732H155.166ZM155.53 69.0098H118.818V100.726H155.53V69.0098Z" fill="#E2E2EC"/>
<path d="M118.638 69.1914H82.293V100.544H118.638V69.1914Z" fill="#FCFCFC"/>
<path d="M118.457 69.3732V100.362H82.4709V69.3732H118.457ZM118.82 69.0098H82.1074V100.726H118.82V69.0098Z" fill="#E2E2EC"/>
<path d="M265.475 100.904H229.129V132.256H265.475V100.904Z" fill="#FCFCFC"/>
<path d="M265.281 101.089V132.079H229.295V101.089H265.281ZM265.644 100.726H228.932V132.442H265.644V100.726Z" fill="#E2E2EC"/>
<path d="M228.766 100.904H192.42V132.256H228.766V100.904Z" fill="#FCFCFC"/>
<path d="M228.568 101.089V132.079H192.583V101.089H228.568ZM228.932 100.726H192.219V132.442H228.932V100.726Z" fill="#E2E2EC"/>
<path d="M192.056 100.904H155.711V132.256H192.056V100.904Z" fill="#FCFCFC"/>
<path d="M191.874 101.089V132.079H155.889V101.089H191.874ZM192.238 100.726H155.525V132.442H192.238V100.726Z" fill="#E2E2EC"/>
<path d="M155.347 100.904H119.002V132.256H155.347V100.904Z" fill="#FCFCFC"/>
<path d="M155.166 101.089V132.079H119.181V101.089H155.166ZM155.53 100.726H118.818V132.442H155.53V100.726Z" fill="#E2E2EC"/>
<path d="M118.638 100.904H82.293V132.256H118.638V100.904Z" fill="#FCFCFC"/>
<path d="M118.457 101.089V132.079H82.4709V101.089H118.457ZM118.82 100.726H82.1074V132.442H118.82V100.726Z" fill="#E2E2EC"/>
<path d="M265.475 132.62H229.129V163.973H265.475V132.62Z" fill="#FCFCFC"/>
<path d="M265.281 132.802V163.791H229.295V132.802H265.281ZM265.644 132.438H228.932V164.154H265.644V132.438Z" fill="#E2E2EC"/>
<path d="M228.766 132.62H192.42V163.973H228.766V132.62Z" fill="#FCFCFC"/>
<path d="M228.568 132.802V163.791H192.583V132.802H228.568ZM228.932 132.438H192.219V164.154H228.932V132.438Z" fill="#E2E2EC"/>
<path d="M192.056 132.62H155.711V163.973H192.056V132.62Z" fill="#FCFCFC"/>
<path d="M191.874 132.802V163.791H155.889V132.802H191.874ZM192.238 132.438H155.525V164.154H192.238V132.438Z" fill="#E2E2EC"/>
<path d="M155.347 132.62H119.002V163.973H155.347V132.62Z" fill="#FCFCFC"/>
<path d="M155.166 132.802V163.791H119.181V132.802H155.166ZM155.53 132.438H118.818V164.154H155.53V132.438Z" fill="#E2E2EC"/>
<path d="M118.638 132.62H82.293V163.973H118.638V132.62Z" fill="#FCFCFC"/>
<path d="M118.457 132.802V163.791H82.4709V132.802H118.457ZM118.82 132.438H82.1074V164.154H118.82V132.438Z" fill="#E2E2EC"/>
<path d="M265.475 164.332H229.129V195.685H265.475V164.332Z" fill="#FCFCFC"/>
<path d="M265.281 164.517V195.503H229.295V164.517H265.281ZM265.644 164.154H228.932V195.866H265.644V164.154Z" fill="#E2E2EC"/>
<path d="M228.766 164.332H192.42V195.685H228.766V164.332Z" fill="#FCFCFC"/>
<path d="M228.568 164.517V195.503H192.583V164.517H228.568ZM228.932 164.154H192.219V195.866H228.932V164.154Z" fill="#E2E2EC"/>
<path d="M192.056 164.332H155.711V195.685H192.056V164.332Z" fill="#FCFCFC"/>
<path d="M191.874 164.517V195.503H155.889V164.517H191.874ZM192.238 164.154H155.525V195.866H192.238V164.154Z" fill="#E2E2EC"/>
<path d="M155.347 164.332H119.002V195.685H155.347V164.332Z" fill="#FCFCFC"/>
<path d="M155.166 164.517V195.503H119.181V164.517H155.166ZM155.53 164.154H118.818V195.866H155.53V164.154Z" fill="#E2E2EC"/>
<path d="M118.638 164.332H82.293V195.685H118.638V164.332Z" fill="#FCFCFC"/>
<path d="M118.457 164.517V195.503H82.4709V164.517H118.457ZM118.82 164.154H82.1074V195.866H118.82V164.154Z" fill="#E2E2EC"/>
<path d="M265.475 196.048H229.129V227.401H265.475V196.048Z" fill="#FCFCFC"/>
<path d="M265.281 196.23V227.219H229.295V196.23H265.281ZM265.644 195.867H228.932V227.583H265.644V195.867Z" fill="#E2E2EC"/>
<path d="M228.766 196.048H192.42V227.401H228.766V196.048Z" fill="#FCFCFC"/>
<path d="M228.568 196.23V227.219H192.583V196.23H228.568ZM228.932 195.867H192.219V227.583H228.932V195.867Z" fill="#E2E2EC"/>
<path d="M192.056 196.048H155.711V227.401H192.056V196.048Z" fill="#FCFCFC"/>
<path d="M191.874 196.23V227.219H155.889V196.23H191.874ZM192.238 195.867H155.525V227.583H192.238V195.867Z" fill="#E2E2EC"/>
<path d="M155.347 196.048H119.002V227.401H155.347V196.048Z" fill="#FCFCFC"/>
<path d="M155.166 196.23V227.219H119.181V196.23H155.166ZM155.53 195.867H118.818V227.583H155.53V195.867Z" fill="#E2E2EC"/>
<path d="M118.638 196.048H82.293V227.401H118.638V196.048Z" fill="#FCFCFC"/>
<path d="M118.457 196.23V227.219H82.4709V196.23H118.457ZM118.82 195.867H82.1074V227.583H118.82V195.867Z" fill="#E2E2EC"/>
<path d="M158.634 256.144C159.674 255.356 160.652 254.425 160.953 253.292C161.108 252.692 161.026 252.055 160.724 251.514C160.422 250.973 159.924 250.568 159.332 250.385C157.845 249.92 156.257 250.748 155.05 251.609C153.843 252.471 152.466 253.426 150.888 253.248C152.52 252.067 153.298 250.152 152.847 248.412C152.77 248.037 152.58 247.694 152.302 247.43C151.477 246.704 149.979 247.02 148.991 247.587C145.847 249.404 144.971 252.874 144.952 256.01C144.636 254.88 144.902 253.702 144.894 252.54C144.887 251.377 144.498 250.094 143.299 249.469C142.531 249.136 141.7 248.976 140.863 249C139.449 248.957 137.875 249.073 136.912 249.916C135.713 250.962 136.025 252.721 137.068 253.873C138.112 255.025 139.7 255.748 141.158 256.544C142.27 257.151 143.397 257.859 144.066 258.819C144.153 258.946 144.226 259.082 144.284 259.226H153.142C155.093 258.43 156.938 257.395 158.634 256.144Z" fill="#378742"/>
<path d="M87.0875 76.0303C88.2318 76.0303 89.1594 75.1029 89.1594 73.959C89.1594 72.8151 88.2318 71.8877 87.0875 71.8877C85.9432 71.8877 85.0156 72.8151 85.0156 73.959C85.0156 75.1029 85.9432 76.0303 87.0875 76.0303Z" fill="#FC6681"/>
<path d="M92.2633 76.0303C93.4076 76.0303 94.3352 75.1029 94.3352 73.959C94.3352 72.8151 93.4076 71.8877 92.2633 71.8877C91.119 71.8877 90.1914 72.8151 90.1914 73.959C90.1914 75.1029 91.119 76.0303 92.2633 76.0303Z" fill="#FFD037"/>
<path d="M160.252 106.736C161.396 106.736 162.324 105.809 162.324 104.665C162.324 103.521 161.396 102.594 160.252 102.594C159.107 102.594 158.18 103.521 158.18 104.665C158.18 105.809 159.107 106.736 160.252 106.736Z" fill="#378742"/>
<path d="M165.431 106.736C166.576 106.736 167.503 105.809 167.503 104.665C167.503 103.521 166.576 102.594 165.431 102.594C164.287 102.594 163.359 103.521 163.359 104.665C163.359 105.809 164.287 106.736 165.431 106.736Z" fill="#378742"/>
<path d="M271.031 166.077C272.176 166.077 273.103 165.149 273.103 164.005C273.103 162.861 272.176 161.934 271.031 161.934C269.887 161.934 268.959 162.861 268.959 164.005C268.959 165.149 269.887 166.077 271.031 166.077Z" fill="#378742"/>
<path d="M272.068 163.663C273.213 163.663 274.14 162.736 274.14 161.592C274.14 160.448 273.213 159.521 272.068 159.521C270.924 159.521 269.996 160.448 269.996 161.592C269.996 162.736 270.924 163.663 272.068 163.663Z" fill="#378742"/>
<path d="M273.103 161.592C274.247 161.592 275.175 160.665 275.175 159.521C275.175 158.377 274.247 157.45 273.103 157.45C271.959 157.45 271.031 158.377 271.031 159.521C271.031 160.665 271.959 161.592 273.103 161.592Z" fill="#378742"/>
<path d="M234.451 76.0303C235.595 76.0303 236.523 75.1029 236.523 73.959C236.523 72.8151 235.595 71.8877 234.451 71.8877C233.306 71.8877 232.379 72.8151 232.379 73.959C232.379 75.1029 233.306 76.0303 234.451 76.0303Z" fill="#378742"/>
<path d="M239.627 76.0303C240.771 76.0303 241.699 75.1029 241.699 73.959C241.699 72.8151 240.771 71.8877 239.627 71.8877C238.482 71.8877 237.555 72.8151 237.555 73.959C237.555 75.1029 238.482 76.0303 239.627 76.0303Z" fill="#378742"/>
<path d="M244.805 76.0303C245.95 76.0303 246.877 75.1029 246.877 73.959C246.877 72.8151 245.95 71.8877 244.805 71.8877C243.661 71.8877 242.734 72.8151 242.734 73.959C242.734 75.1029 243.661 76.0303 244.805 76.0303Z" fill="#378742"/>
<path d="M249.982 76.0303C251.126 76.0303 252.054 75.1029 252.054 73.959C252.054 72.8151 251.126 71.8877 249.982 71.8877C248.837 71.8877 247.91 72.8151 247.91 73.959C247.91 75.1029 248.837 76.0303 249.982 76.0303Z" fill="#378742"/>
<path d="M234.451 140.2C235.595 140.2 236.523 139.273 236.523 138.129C236.523 136.985 235.595 136.058 234.451 136.058C233.306 136.058 232.379 136.985 232.379 138.129C232.379 139.273 233.306 140.2 234.451 140.2Z" fill="#378742"/>
<path d="M239.627 140.2C240.771 140.2 241.699 139.273 241.699 138.129C241.699 136.985 240.771 136.058 239.627 136.058C238.482 136.058 237.555 136.985 237.555 138.129C237.555 139.273 238.482 140.2 239.627 140.2Z" fill="#378742"/>
<path d="M244.805 140.2C245.95 140.2 246.877 139.273 246.877 138.129C246.877 136.985 245.95 136.058 244.805 136.058C243.661 136.058 242.734 136.985 242.734 138.129C242.734 139.273 243.661 140.2 244.805 140.2Z" fill="#378742"/>
<path d="M249.982 140.2C251.126 140.2 252.054 139.273 252.054 138.129C252.054 136.985 251.126 136.058 249.982 136.058C248.837 136.058 247.91 136.985 247.91 138.129C247.91 139.273 248.837 140.2 249.982 140.2Z" fill="#378742"/>
<path d="M123.67 106.736C124.814 106.736 125.742 105.809 125.742 104.665C125.742 103.521 124.814 102.594 123.67 102.594C122.526 102.594 121.598 103.521 121.598 104.665C121.598 105.809 122.526 106.736 123.67 106.736Z" fill="#FFD037"/>
<path d="M87.0875 138.132C88.2318 138.132 89.1594 137.205 89.1594 136.061C89.1594 134.917 88.2318 133.99 87.0875 133.99C85.9432 133.99 85.0156 134.917 85.0156 136.061C85.0156 137.205 85.9432 138.132 87.0875 138.132Z" fill="#FC6681"/>
<path d="M269.243 169.202C271.515 170.542 275.059 171.415 279.548 168.533L279.504 174.914C279.824 179.275 285.236 195.231 285.236 195.231L289.053 208.349C291.788 217.616 293.2 227.223 293.248 236.885C293.248 240.086 293.546 243.386 294.465 245.868C296.497 251.359 293.666 258.434 292.437 261.068C290.369 261.767 288.267 262.358 286.138 262.841C285.946 262.885 285.758 262.943 285.574 263.012L285.549 262.976C285.549 262.976 279.82 265.247 277.276 264.935C275.379 264.702 274.19 267.068 275.677 268.808C274.274 269.172 272.834 269.43 271.864 269.31C269.319 268.997 268.043 273.372 272.82 274.622C277.596 275.872 304.658 274.622 304.658 274.622C305.419 274.242 306.032 273.619 306.4 272.852C306.769 272.085 306.872 271.217 306.693 270.385C308.772 270.305 310.07 270.244 310.07 270.244C310.07 270.244 314.846 268.063 310.07 262.115L309.816 262.307L308.794 259.302V255.243C308.794 255.243 314.843 226.173 312.934 222.735C311.026 219.297 310.07 201.793 310.07 201.793L310.717 182.727C312.444 179.165 313.327 173.584 313.774 169.22C314.424 167.138 314.833 164.988 314.995 162.813C315.072 161.789 315.133 160.713 315.173 159.597C315.189 157.15 314.789 154.719 313.988 152.406C315.806 149.79 318.761 145.745 321.2 143.354C325.02 139.604 324.064 135.225 324.064 135.225L322.472 124.596L318.652 106.467C319.132 101.438 318.081 98.5418 316.922 96.9066C317.198 95.2823 317.456 93.658 317.649 92.0264C318.496 84.9312 318.118 77.7433 316.533 70.7758C315.98 68.3448 315.228 65.852 313.523 64.0096C311.593 61.9238 308.46 60.652 307.74 57.9193C307.562 57.2398 307.555 56.5167 307.297 55.8626C306.599 54.0748 304.389 53.4243 302.455 53.1917C299.009 52.7738 294.026 52.465 290.714 53.8095C288.402 54.7543 285.218 57.3561 283.953 60.1469C283.226 61.4296 282.888 62.7778 283.197 64.046C283.319 64.5132 283.504 64.9619 283.746 65.3796C283.253 66.7162 283.002 68.1301 283.005 69.5548C283.016 72.0039 283.765 74.3928 285.154 76.4105C286.542 78.4281 288.507 79.981 290.791 80.8669C290.867 81.1067 290.936 81.3429 290.994 81.5755C291.139 82.1354 291.243 82.705 291.307 83.2798C291.245 84.3699 291.176 85.4928 291.125 86.6011C291.089 86.7537 291.05 86.9039 291.009 87.0517C288.271 88.2636 285.601 89.6247 283.012 91.1288C284.924 93.9414 282.692 105.82 282.692 105.82C277.916 108.633 273.139 115.824 278.236 123.325C283.332 130.825 280.464 138.95 280.464 138.95L279.668 151.171V151.192L279.508 153.638H279.57L279.508 154.565L279.646 154.59V155.586C277.41 156.407 274.143 158.064 272.194 161.127C271.273 162.634 270.152 164.009 268.861 165.215C268.565 165.472 268.334 165.795 268.188 166.159C268.042 166.523 267.986 166.917 268.023 167.307C268.06 167.697 268.191 168.073 268.403 168.402C268.615 168.732 268.903 169.006 269.243 169.202ZM307.686 136.73C307.494 134.616 307.885 132.489 308.816 130.581C309.565 130.596 310.315 130.604 311.066 130.607C311.142 131.134 311.233 131.635 311.342 132.093C311.989 134.847 309.405 136.166 307.682 136.726L307.686 136.73Z" fill="url(#paint1_linear_82_663)"/>
<path d="M308.315 257.878L309.54 261.551L305.542 265.549L292.369 268.612L282.871 267.693L283.486 264.324C283.667 263.6 284.045 262.94 284.577 262.416C285.109 261.892 285.775 261.525 286.502 261.355C290.406 260.44 297.851 258.346 299.414 255.443L308.315 257.878Z" fill="#DB8B8B"/>
<path opacity="0.1" d="M308.315 257.878L309.54 261.551L305.542 265.549L292.369 268.612L282.871 267.693L283.486 264.324C283.667 263.6 284.045 262.94 284.577 262.416C285.109 261.892 285.775 261.525 286.502 261.355C290.406 260.44 297.851 258.346 299.414 255.443L308.315 257.878Z" fill="black"/>
<path d="M285.95 266.759L287.789 264.31L285.95 261.472C285.95 261.472 280.436 263.695 277.986 263.39C275.536 263.085 274.311 267.387 278.905 268.597C283.5 269.808 309.54 268.597 309.54 268.597C309.54 268.597 314.135 266.453 309.54 260.636L305.542 263.699C305.542 263.699 298.803 267.373 295.433 266.762L285.95 266.759Z" fill="#2E3037"/>
<path d="M277.676 271.959L287.174 272.878L300.347 269.815L304.345 265.818L304.022 264.844L303.564 263.477L303.106 262.147L294.222 259.698C293.768 260.439 293.145 261.061 292.405 261.515C289.518 263.488 284.335 264.913 281.293 265.625C281.169 265.655 281.048 265.693 280.929 265.738C280.285 265.954 279.705 266.329 279.244 266.828C278.783 267.327 278.455 267.935 278.29 268.594L277.676 271.959Z" fill="#DB8B8B"/>
<path opacity="0.1" d="M277.676 271.959L287.174 272.878L300.347 269.815L304.345 265.818L304.022 264.844L300.365 267.656C300.365 267.656 293.626 271.33 290.256 270.72H280.74L282.579 268.27L280.929 265.727C280.285 265.943 279.705 266.318 279.244 266.817C278.783 267.317 278.455 267.924 278.29 268.583L277.676 271.959Z" fill="black"/>
<path d="M280.741 271.047L282.58 268.598L280.741 265.76C280.741 265.76 275.227 267.984 272.777 267.678C270.327 267.373 269.102 271.675 273.697 272.886C278.291 274.096 304.332 272.886 304.332 272.886C304.332 272.886 308.926 270.742 304.332 264.924L300.333 267.987C300.333 267.987 293.594 271.661 290.225 271.05L280.741 271.047Z" fill="#2E3037"/>
<path d="M288.4 93.4145C288.4 93.4145 303.107 94.9443 300.962 88.8213C300.362 87.0849 300.206 85.2263 300.508 83.4142C300.889 81.1676 301.778 79.0375 303.107 77.1858L289.319 79.3298C290.146 80.7108 290.774 82.2006 291.188 83.7558C292.831 90.2494 288.4 93.4145 288.4 93.4145Z" fill="#DB8B8B"/>
<path d="M313.52 163.242C313.52 163.242 313.214 176.411 310.15 182.843L309.536 201.524C309.536 201.524 310.455 218.676 312.295 222.045C314.134 225.413 308.296 253.895 308.296 253.895V258.797C308.296 258.797 298.482 262.471 295.734 258.183L298.493 221.736L297.268 171.204L313.52 163.242Z" fill="#474463"/>
<path opacity="0.1" d="M313.52 163.242C313.52 163.242 313.214 176.411 310.15 182.843L309.536 201.524C309.536 201.524 310.455 218.676 312.295 222.045C314.134 225.413 308.296 253.895 308.296 253.895V258.797C308.296 258.797 298.482 262.471 295.734 258.183L298.493 221.736L297.268 171.204L313.52 163.242Z" fill="black"/>
<path d="M319.648 120.977L321.487 125.879L323.018 136.294C323.224 137.745 323.082 139.224 322.602 140.608C322.122 141.993 321.319 143.243 320.259 144.255C316.584 147.929 311.68 155.586 311.68 155.586L305.865 138.143C305.865 138.143 311.68 137.224 310.768 133.241C309.856 129.259 310.15 121.882 310.15 121.882L319.648 120.977Z" fill="#FC6681"/>
<path opacity="0.05" d="M319.648 120.977L321.487 125.879L323.018 136.294C323.224 137.745 323.082 139.224 322.602 140.608C322.122 141.993 321.319 143.243 320.259 144.255C316.584 147.929 311.68 155.586 311.68 155.586L305.865 138.143C305.865 138.143 311.68 137.224 310.768 133.241C309.856 129.259 310.15 121.882 310.15 121.882L319.648 120.977Z" fill="black"/>
<path opacity="0.1" d="M292.42 261.519C296.349 267.696 302.467 264.197 303.55 263.499L303.107 262.147L294.223 259.698C293.774 260.438 293.156 261.062 292.42 261.519Z" fill="black"/>
<path d="M280.129 175.187C280.435 179.475 285.644 195.093 285.644 195.093L289.319 207.946C291.952 217.034 293.311 226.443 293.357 235.904C293.357 239.04 293.644 242.274 294.531 244.705C296.981 251.442 292.081 260.632 292.081 260.632C296.37 268.289 303.713 263.082 303.713 263.082V258.183C303.713 258.183 309.529 231.536 308.002 226.333C306.475 221.129 305.857 207.037 305.857 207.037V181.6C310.765 176.712 313.749 170.221 314.265 163.315C314.338 162.312 314.396 161.258 314.436 160.164C314.683 153.26 309.957 145.153 308.111 142.268C307.668 141.57 307.384 141.178 307.384 141.178L280.333 151.905L280.271 151.93V152.977V155.291L280.129 175.187Z" fill="#474463"/>
<path opacity="0.1" d="M289.32 79.3261C290.146 80.7072 290.774 82.1969 291.188 83.7521C292.685 84.3201 294.282 84.5826 295.882 84.5239C297.483 84.4652 299.056 84.0867 300.508 83.4105C300.89 81.1652 301.779 79.0364 303.107 77.1858L289.32 79.3261Z" fill="black"/>
<path d="M295.448 83.9158C302.047 83.9158 307.396 78.5682 307.396 71.9715C307.396 65.3748 302.047 60.0271 295.448 60.0271C288.849 60.0271 283.5 65.3748 283.5 71.9715C283.5 78.5682 288.849 83.9158 295.448 83.9158Z" fill="#DB8B8B"/>
<path opacity="0.1" d="M280.129 155.281L280.26 155.306C293.106 157.948 309.234 144.561 309.234 144.561C308.802 143.832 308.429 143.07 308.118 142.282C307.675 141.585 307.391 141.192 307.391 141.192L280.34 151.919L280.271 152.991L280.129 155.281Z" fill="black"/>
<path d="M283.5 93.1057C283.5 93.1057 300.657 82.6911 306.171 86.9791L313.83 96.7904C313.83 96.7904 318.733 98.3202 317.828 108.121L321.488 125.879L310.46 128.637C310.46 128.637 304.026 134.764 309.235 143.645C309.235 143.645 292.998 157.119 280.13 154.365L281.05 139.971C281.05 139.971 283.809 132.009 278.905 124.658C274.002 117.307 278.6 110.265 283.195 107.507C283.195 107.503 285.336 95.8637 283.5 93.1057Z" fill="#FC6681"/>
<path d="M282.58 155.586C282.58 155.586 276.147 156.81 273.082 161.712C272.198 163.183 271.12 164.527 269.876 165.709C269.597 165.963 269.38 166.278 269.243 166.63C269.107 166.982 269.054 167.361 269.089 167.737C269.124 168.113 269.247 168.476 269.446 168.796C269.646 169.116 269.918 169.386 270.24 169.583C272.672 171.037 276.637 171.941 281.646 167.828C290.239 160.793 282.58 155.586 282.58 155.586Z" fill="#DB8B8B"/>
<path opacity="0.1" d="M292.077 98.927C292.077 98.927 298.206 98.3128 299.736 114.24C301.266 130.167 303.735 133.841 303.735 133.841C303.735 133.841 305.265 142.111 301.59 147.01C297.915 151.908 290.867 162.323 290.867 162.323C290.867 162.323 283.208 164.467 281.678 156.81L291.176 139.048C291.176 139.048 292.706 132.921 289.031 128.634C285.356 124.346 282.579 95.8637 292.077 98.927Z" fill="black"/>
<path d="M291.452 98.0078C291.452 98.0078 297.581 97.3937 299.111 113.321C300.641 129.248 303.109 132.922 303.109 132.922C303.109 132.922 304.64 141.192 300.965 146.091C297.29 150.989 290.242 161.403 290.242 161.403C290.242 161.403 282.583 163.547 281.053 155.891L290.551 138.129C290.551 138.129 292.081 132.002 288.406 127.714C284.731 123.426 281.965 94.9445 291.452 98.0078Z" fill="#FC6681"/>
<path opacity="0.1" d="M286.407 109.491C286.407 109.491 285.797 118.975 288.545 124.193C291.293 129.411 291.304 136.137 288.545 139.818" fill="black"/>
<path opacity="0.1" d="M284.877 97.8551C284.877 97.8551 287.326 95.4059 294.375 95.097C301.423 94.7881 304.483 92.6478 304.483 92.6478" fill="black"/>
<path opacity="0.1" d="M301.917 56.5385C303.778 56.7675 305.915 57.407 306.577 59.1549C306.824 59.7981 306.831 60.5067 307.002 61.1717C307.697 63.8462 310.71 65.0926 312.567 67.1384C314.207 68.9553 314.93 71.3863 315.475 73.7665C317.005 80.5918 317.373 87.626 316.566 94.5737C315.97 99.6611 314.748 104.654 314.407 109.756C314.065 114.858 314.69 120.225 317.478 124.513C318.678 126.355 320.262 127.976 321.113 130.004C319.357 131.428 316.933 131.632 314.668 131.708C312.034 131.797 309.399 131.797 306.762 131.708C305.381 131.661 303.938 131.57 302.746 130.872C301.863 130.308 301.138 129.529 300.638 128.608C299.129 126.065 298.751 122.976 298.82 120.011C298.889 117.045 299.354 114.095 299.409 111.126C299.438 109.509 299.311 107.79 298.38 106.467C297.708 105.512 296.686 104.868 295.814 104.094C292.543 101.187 291.409 96.5287 291.3 92.15C291.191 87.7712 291.914 83.3852 291.543 79.021C291.398 77.3131 290.758 75.26 289.079 74.9293C288.548 74.8239 287.988 74.9293 287.479 74.7258C286.131 74.2062 286.262 72.3057 285.876 70.9139C285.444 69.3514 284.11 68.145 283.735 66.5534C282.852 62.8469 287.57 58.4245 290.663 57.1345C293.808 55.819 298.602 56.1316 301.917 56.5385Z" fill="black"/>
<path d="M302.223 55.9281C304.084 56.157 306.222 56.7966 306.883 58.5444C307.13 59.1876 307.138 59.8962 307.308 60.5612C308.003 63.2357 311.016 64.4821 312.874 66.5279C314.513 68.3449 315.236 70.7759 315.781 73.156C317.311 79.9814 317.68 87.0155 316.872 93.9633C316.276 99.0506 315.054 104.044 314.713 109.145C314.371 114.247 314.996 119.615 317.784 123.902C318.984 125.745 320.569 127.365 321.419 129.393C319.664 130.818 317.239 131.021 314.974 131.097C312.34 131.187 309.705 131.187 307.069 131.097C305.687 131.05 304.244 130.959 303.052 130.262C302.169 129.697 301.444 128.918 300.944 127.998C299.435 125.454 299.057 122.365 299.126 119.4C299.195 116.435 299.661 113.484 299.715 110.515C299.744 108.898 299.617 107.18 298.687 105.857C298.014 104.901 296.993 104.258 296.12 103.484C292.849 100.577 291.715 95.9183 291.606 91.5395C291.497 87.1608 292.22 82.7748 291.849 78.4105C291.704 76.7026 291.064 74.6495 289.385 74.3189C288.854 74.2135 288.294 74.3189 287.785 74.1154C286.437 73.5957 286.568 71.6952 286.182 70.3035C285.75 68.7409 284.416 67.5345 284.042 65.9429C283.158 62.2364 287.876 57.814 290.97 56.524C294.114 55.205 298.908 55.5175 302.223 55.9281Z" fill="#472727"/>
</g>
<defs>
<linearGradient id="paint0_linear_82_663" x1="173.885" y1="252.812" x2="173.885" y2="12.0641" gradientUnits="userSpaceOnUse">
<stop stop-color="#808080" stop-opacity="0.25"/>
<stop offset="0.54" stop-color="#808080" stop-opacity="0.12"/>
<stop offset="1" stop-color="#808080" stop-opacity="0.1"/>
</linearGradient>
<linearGradient id="paint1_linear_82_663" x1="-102355" y1="179455" x2="-102355" y2="43405.3" gradientUnits="userSpaceOnUse">
<stop stop-color="#808080" stop-opacity="0.25"/>
<stop offset="0.54" stop-color="#808080" stop-opacity="0.12"/>
<stop offset="1" stop-color="#808080" stop-opacity="0.1"/>
</linearGradient>
<clipPath id="clip0_82_663">
<rect width="351" height="291" fill="white"/>
</clipPath>
</defs>
</svg>
