<svg width="390" height="269" viewBox="0 0 390 269" fill="none" xmlns="http://www.w3.org/2000/svg">
<g filter="url(#filter0_d_509_164)">
<path d="M350.489 254.808C341.877 261.01 330.716 261.321 319.928 260.559C318.421 260.453 316.925 260.328 315.444 260.194C315.435 260.191 315.423 260.192 315.414 260.19C315.343 260.183 315.271 260.176 315.203 260.172C314.897 260.144 314.591 260.115 314.288 260.086L314.36 260.223L314.584 260.646C314.504 260.505 314.423 260.366 314.342 260.224C314.319 260.181 314.292 260.139 314.268 260.096C311.474 255.235 308.702 250.195 307.995 244.643C307.264 238.881 309.318 232.357 314.391 229.524C315.056 229.154 315.761 228.859 316.492 228.645C316.795 228.553 317.102 228.478 317.413 228.412C319.316 227.99 321.297 228.081 323.152 228.678C325.008 229.275 326.671 230.355 327.97 231.807C329.269 233.259 330.159 235.03 330.546 236.94C330.933 238.849 330.805 240.827 330.174 242.671C334.475 238.262 333.673 231.11 332.189 225.132C330.703 219.155 328.903 212.504 331.926 207.135C333.607 204.146 336.563 202.292 339.88 201.546C339.981 201.524 340.083 201.502 340.185 201.483C344.137 200.683 348.246 201.402 351.69 203.498C358.032 207.493 361.29 215.068 362.347 222.489C364.05 234.429 360.281 247.755 350.489 254.808Z" fill="#FDC83B"/>
<path d="M347.709 235.666C347.459 238.3 346.826 240.883 345.83 243.335C344.912 245.504 343.675 247.524 342.16 249.327C339.009 253.013 335.02 255.889 330.526 257.712C327.128 259.104 323.566 260.06 319.928 260.559C318.421 260.453 316.925 260.328 315.444 260.194C315.435 260.191 315.423 260.192 315.414 260.19C315.343 260.183 315.271 260.176 315.203 260.172C314.897 260.144 314.591 260.115 314.288 260.086L314.36 260.223L314.584 260.647C314.504 260.505 314.423 260.366 314.342 260.224C314.318 260.182 314.292 260.139 314.268 260.097C316.996 257.38 319.033 254.049 320.208 250.383C321.383 246.717 321.662 242.823 321.021 239.027C320.351 235.258 318.799 231.701 316.491 228.645C316.795 228.553 317.102 228.478 317.413 228.412C318.29 229.61 319.059 230.884 319.712 232.217C322.053 236.973 322.799 242.357 321.842 247.57C320.951 252.288 318.733 256.654 315.447 260.155C315.734 260.135 316.025 260.111 316.309 260.085C321.694 259.629 327.069 258.472 331.953 256.102C336.128 254.125 339.753 251.152 342.508 247.444C345.466 243.366 346.77 238.461 346.993 233.475C347.166 228.103 346.603 222.734 345.319 217.515C344.075 212.193 342.184 207.044 339.688 202.181C339.633 202.071 339.621 201.944 339.657 201.825C339.693 201.707 339.772 201.607 339.88 201.546C339.969 201.485 340.079 201.463 340.185 201.483C340.237 201.496 340.285 201.522 340.326 201.557C340.367 201.592 340.399 201.635 340.421 201.684C340.728 202.285 341.031 202.886 341.321 203.494C343.742 208.556 345.524 213.9 346.627 219.402C347.697 224.709 348.269 230.261 347.709 235.666Z" fill="#5F8D71"/>
<path d="M22.021 82.9579C21.7646 82.9577 21.5105 82.9097 21.2716 82.8165C20.8854 82.6681 20.5534 82.4058 20.3198 82.0644C20.0863 81.723 19.9621 81.3187 19.9639 80.9051V59.4816C19.9631 58.7564 19.6745 58.0612 19.1616 57.5484C18.6487 57.0356 17.9532 56.7472 17.2278 56.7464H12.8391C11.0259 56.7443 9.28755 56.0234 8.00539 54.7417C6.72324 53.46 6.00204 51.7222 6 49.9097V6.83669C6.00204 5.02411 6.72324 3.28635 8.00539 2.00467C9.28755 0.722978 11.0259 0.00203145 12.8391 0H167.639C169.452 0.00203386 171.191 0.722978 172.473 2.00467C173.755 3.28635 174.476 5.02411 174.478 6.83669V49.9097C174.476 51.7222 173.755 53.46 172.473 54.7417C171.191 56.0234 169.452 56.7443 167.639 56.7463H48.1555C47.7763 56.7468 47.4012 56.8258 47.0541 56.9785C46.7069 57.1312 46.3952 57.3541 46.1386 57.6333L23.5278 82.2909C23.3368 82.5007 23.1042 82.6684 22.8448 82.7833C22.5853 82.8982 22.3047 82.9576 22.021 82.9579ZM12.8391 0.910995C11.2675 0.912768 9.76081 1.53765 8.64951 2.64855C7.53821 3.75945 6.9131 5.26564 6.91133 6.83669V49.9097C6.91311 51.4807 7.53821 52.9869 8.64951 54.0978C9.76081 55.2087 11.2675 55.8336 12.8391 55.8354H17.2278C18.1948 55.8364 19.1219 56.2209 19.8057 56.9045C20.4895 57.5881 20.8741 58.5149 20.8752 59.4816V80.9051C20.8752 81.1347 20.9446 81.359 21.0743 81.5486C21.204 81.7381 21.388 81.8841 21.6021 81.9673C21.8162 82.0506 22.0505 82.0672 22.2743 82.0151C22.498 81.963 22.7008 81.8446 22.856 81.6753L45.4668 57.0177C45.8089 56.6455 46.2244 56.3483 46.6872 56.1448C47.15 55.9413 47.65 55.8359 48.1556 55.8354H167.639C169.211 55.8336 170.717 55.2087 171.829 54.0978C172.94 52.9869 173.565 51.4807 173.567 49.9097V6.83669C173.565 5.26564 172.94 3.75945 171.829 2.64855C170.717 1.53765 169.211 0.912769 167.639 0.910995H12.8391Z" fill="#FCFCFC"/>
<path d="M22.7755 19.3998C26.0807 19.3998 28.76 16.7214 28.76 13.4174C28.76 10.1135 26.0807 7.43506 22.7755 7.43506C19.4703 7.43506 16.791 10.1135 16.791 13.4174C16.791 16.7214 19.4703 19.3998 22.7755 19.3998Z" fill="#FCFCFC"/>
<path d="M160.657 46.5199H19.8215C19.4021 46.5204 18.9866 46.4382 18.5989 46.2781C18.2113 46.118 17.8589 45.883 17.5622 45.5867C17.2654 45.2904 17.0299 44.9385 16.8693 44.5511C16.7086 44.1638 16.626 43.7486 16.626 43.3293C16.626 42.91 16.7086 42.4948 16.8693 42.1074C17.0299 41.7201 17.2654 41.3682 17.5622 41.0718C17.8589 40.7755 18.2113 40.5406 18.5989 40.3804C18.9866 40.2203 19.4021 40.1382 19.8215 40.1387H160.657C161.077 40.1382 161.492 40.2203 161.88 40.3804C162.267 40.5406 162.62 40.7755 162.916 41.0718C163.213 41.3682 163.449 41.7201 163.609 42.1074C163.77 42.4948 163.853 42.91 163.853 43.3293C163.853 43.7486 163.77 44.1638 163.609 44.5511C163.449 44.9385 163.213 45.2904 162.916 45.5867C162.62 45.883 162.267 46.118 161.88 46.2781C161.492 46.4382 161.077 46.5204 160.657 46.5199Z" fill="#FCFCFC"/>
<path d="M114.776 32.9598H19.8215C19.4021 32.9603 18.9866 32.8781 18.5989 32.718C18.2113 32.5579 17.8589 32.323 17.5622 32.0267C17.2654 31.7303 17.0299 31.3784 16.8693 30.9911C16.7086 30.6037 16.626 30.1885 16.626 29.7692C16.626 29.3499 16.7086 28.9347 16.8693 28.5473C17.0299 28.16 17.2654 27.8081 17.5622 27.5118C17.8589 27.2154 18.2113 26.9805 18.5989 26.8204C18.9866 26.6603 19.4021 26.5781 19.8215 26.5786H114.776C115.195 26.5781 115.611 26.6603 115.998 26.8204C116.386 26.9805 116.738 27.2154 117.035 27.5118C117.332 27.8081 117.567 28.16 117.728 28.5473C117.889 28.9347 117.971 29.3499 117.971 29.7692C117.971 30.1885 117.889 30.6037 117.728 30.9911C117.567 31.3784 117.332 31.7303 117.035 32.0267C116.738 32.323 116.386 32.5579 115.998 32.718C115.611 32.8781 115.195 32.9603 114.776 32.9598Z" fill="#FCFCFC"/>
<path d="M250.619 155.943C250.335 155.943 250.055 155.883 249.795 155.768C249.536 155.653 249.303 155.486 249.112 155.276L226.501 130.618C226.245 130.339 225.933 130.116 225.586 129.963C225.239 129.811 224.864 129.732 224.484 129.731H105.001C103.188 129.729 101.449 129.008 100.167 127.727C98.8853 126.445 98.1641 124.707 98.1621 122.895V79.8216C98.1641 78.009 98.8854 76.2712 100.167 74.9895C101.449 73.7078 103.188 72.9869 105.001 72.9849H259.801C261.614 72.9869 263.352 73.7078 264.635 74.9895C265.917 76.2712 266.638 78.009 266.64 79.8216V122.895C266.638 124.707 265.917 126.445 264.635 127.727C263.352 129.008 261.614 129.729 259.801 129.731H255.412C254.687 129.732 253.991 130.021 253.478 130.533C252.965 131.046 252.677 131.741 252.676 132.466V153.89C252.678 154.304 252.554 154.708 252.32 155.049C252.087 155.391 251.755 155.653 251.368 155.801C251.13 155.895 250.875 155.943 250.619 155.943ZM105.001 73.8958C103.429 73.8976 101.923 74.5225 100.811 75.6334C99.7003 76.7443 99.0752 78.2505 99.0734 79.8215V122.895C99.0752 124.466 99.7003 125.972 100.811 127.083C101.923 128.194 103.429 128.818 105.001 128.82H224.484C224.99 128.821 225.49 128.926 225.953 129.13C226.415 129.333 226.831 129.63 227.173 130.003L249.784 154.66C249.939 154.829 250.142 154.948 250.366 155C250.589 155.052 250.824 155.035 251.038 154.952C251.252 154.869 251.436 154.723 251.566 154.533C251.695 154.344 251.765 154.12 251.765 153.89V132.466C251.766 131.5 252.15 130.573 252.834 129.889C253.518 129.206 254.445 128.821 255.412 128.82H259.801C261.372 128.818 262.879 128.194 263.99 127.083C265.102 125.972 265.727 124.466 265.729 122.895V79.8216C265.727 78.2505 265.102 76.7443 263.99 75.6334C262.879 74.5225 261.372 73.8976 259.801 73.8959L105.001 73.8958Z" fill="#FCFCFC"/>
<path d="M114.937 91.9857C118.243 91.9857 120.922 89.3073 120.922 86.0034C120.922 82.6994 118.243 80.021 114.937 80.021C111.632 80.021 108.953 82.6994 108.953 86.0034C108.953 89.3073 111.632 91.9857 114.937 91.9857Z" fill="#FCFCFC"/>
<path d="M252.819 119.106H111.983C111.136 119.106 110.325 118.77 109.726 118.171C109.127 117.573 108.791 116.761 108.791 115.915C108.791 115.069 109.127 114.257 109.726 113.659C110.325 113.061 111.136 112.725 111.983 112.725H252.819C253.665 112.725 254.477 113.061 255.076 113.659C255.674 114.257 256.011 115.069 256.011 115.915C256.011 116.761 255.674 117.573 255.076 118.171C254.477 118.77 253.665 119.106 252.819 119.106Z" fill="#99E164"/>
<path d="M206.937 105.546H111.983C111.563 105.546 111.148 105.464 110.76 105.304C110.373 105.144 110.02 104.909 109.724 104.613C109.427 104.316 109.191 103.964 109.031 103.577C108.87 103.19 108.787 102.774 108.787 102.355C108.787 101.936 108.87 101.521 109.031 101.133C109.191 100.746 109.427 100.394 109.724 100.098C110.02 99.8014 110.373 99.5664 110.76 99.4063C111.148 99.2462 111.563 99.1641 111.983 99.1646H206.937C207.357 99.1641 207.772 99.2462 208.16 99.4063C208.548 99.5664 208.9 99.8014 209.197 100.098C209.494 100.394 209.729 100.746 209.89 101.133C210.05 101.521 210.133 101.936 210.133 102.355C210.133 102.774 210.05 103.19 209.89 103.577C209.729 103.964 209.494 104.316 209.197 104.613C208.9 104.909 208.548 105.144 208.16 105.304C207.772 105.464 207.357 105.546 206.937 105.546Z" fill="#99E164"/>
<path d="M252.758 164.143C252.894 163.487 253.173 162.87 253.575 162.333C253.976 161.797 254.49 161.356 255.081 161.04C255.671 160.724 256.324 160.541 256.993 160.504C257.661 160.468 258.33 160.578 258.952 160.828L269.641 148.549L271.912 156.698L261.413 167.108C260.924 168.124 260.079 168.926 259.039 169.361C257.998 169.796 256.834 169.834 255.767 169.468C254.701 169.103 253.805 168.359 253.25 167.377C252.695 166.396 252.52 165.245 252.758 164.143Z" fill="#FFB8B8"/>
<path d="M311.426 106.523C317.607 106.523 322.617 101.515 322.617 95.3359C322.617 89.1572 317.607 84.1484 311.426 84.1484C305.245 84.1484 300.234 89.1572 300.234 95.3359C300.234 101.515 305.245 106.523 311.426 106.523Z" fill="#FFB8B8"/>
<path d="M298.278 249.327H292.692L290.034 227.787L298.279 227.788L298.278 249.327Z" fill="#FFB8B8"/>
<path d="M299.703 254.74H281.69V254.512C281.69 253.591 281.872 252.68 282.224 251.83C282.576 250.979 283.093 250.207 283.744 249.556C284.395 248.905 285.168 248.389 286.018 248.037C286.869 247.685 287.781 247.503 288.701 247.503H288.702L299.703 247.504V254.74Z" fill="#2F2E41"/>
<path d="M315.137 255.249L309.552 255.248L308.778 234.223L315.139 233.709L315.137 255.249Z" fill="#FFB8B8"/>
<path d="M316.562 260.662L298.55 260.661V260.433C298.55 259.513 298.731 258.601 299.083 257.751C299.436 256.901 299.952 256.128 300.603 255.477C301.254 254.827 302.027 254.31 302.878 253.958C303.728 253.606 304.64 253.425 305.561 253.425H316.563L316.562 260.662Z" fill="#2F2E41"/>
<path d="M313.549 251.318L309.199 250.806C308.705 250.747 308.25 250.511 307.917 250.142C307.584 249.773 307.396 249.296 307.388 248.8L306.573 192.164C306.57 192.003 306.512 191.849 306.407 191.728C306.302 191.606 306.158 191.526 306 191.5C305.842 191.474 305.68 191.504 305.542 191.586C305.404 191.667 305.299 191.795 305.245 191.946L299.21 208.981L299.641 240.912C299.648 241.439 299.452 241.949 299.093 242.335C298.735 242.721 298.241 242.954 297.714 242.986L292.035 243.227C291.516 243.257 291.004 243.089 290.603 242.757C290.202 242.426 289.942 241.955 289.873 241.439L286.907 205.318L286.905 205.295L291.406 167.571L325.208 170.016L315.825 249.523C315.765 250.021 315.525 250.48 315.15 250.813C314.776 251.147 314.291 251.331 313.79 251.332C313.709 251.332 313.629 251.327 313.549 251.318Z" fill="#2F2E41"/>
<path d="M291.55 170.915C291.247 170.753 290.989 170.517 290.801 170.229C290.614 169.941 290.502 169.61 290.477 169.267C290.477 169.267 293.517 150.371 294.631 150.017L292.193 129.809C291.901 127.345 292.105 124.847 292.792 122.462C293.479 120.077 294.636 117.853 296.194 115.921C297.695 114.047 299.56 112.496 301.677 111.362C303.794 110.228 306.119 109.535 308.512 109.324C308.852 109.294 309.191 109.27 309.528 109.254C312.412 109.1 315.291 109.644 317.919 110.84C320.548 112.036 322.848 113.849 324.626 116.124C326.47 118.419 327.732 121.125 328.304 124.012C328.877 126.9 328.744 129.882 327.916 132.707L326.549 137.462V170.693C326.547 171.018 326.47 171.337 326.322 171.626C326.175 171.915 325.962 172.166 325.7 172.357C321.444 175.48 316.634 176.584 311.96 176.584C303.115 176.584 294.755 172.631 291.55 170.915Z" fill="#378742"/>
<path d="M265.309 164.834L259.43 160.439C259.199 160.267 259.007 160.048 258.867 159.797C258.727 159.545 258.641 159.267 258.615 158.98C258.589 158.694 258.624 158.405 258.718 158.133C258.811 157.86 258.961 157.611 259.158 157.4L294.181 119.833C295.305 118.638 296.821 117.885 298.453 117.712C300.085 117.538 301.726 117.956 303.076 118.888C303.899 119.462 304.586 120.209 305.086 121.078C305.587 121.947 305.89 122.916 305.974 123.915C306.058 124.914 305.92 125.92 305.571 126.86C305.222 127.8 304.67 128.651 303.954 129.354L267.973 164.656C267.657 164.969 267.247 165.17 266.805 165.228C266.364 165.286 265.916 165.199 265.529 164.978C265.453 164.935 265.379 164.887 265.309 164.834Z" fill="#378742"/>
<path d="M310.305 159.86C310.562 159.242 310.951 158.687 311.446 158.236C311.94 157.784 312.528 157.446 313.167 157.246C313.806 157.046 314.482 156.989 315.146 157.078C315.81 157.167 316.446 157.4 317.01 157.762L329.808 147.698L330.514 156.127L318.252 164.392C317.582 165.298 316.602 165.928 315.499 166.16C314.395 166.393 313.245 166.213 312.265 165.655C311.286 165.096 310.545 164.198 310.184 163.13C309.822 162.062 309.865 160.899 310.305 159.86Z" fill="#FFB8B8"/>
<path d="M321.76 163.789C321.421 163.684 321.116 163.492 320.874 163.232C320.632 162.973 320.463 162.654 320.382 162.309L319.089 156.881C318.995 156.496 319.015 156.091 319.149 155.718C319.283 155.344 319.524 155.018 319.841 154.78L328.539 145.377L315.745 125.656C314.777 124.464 314.231 122.985 314.193 121.45C314.155 119.915 314.627 118.41 315.535 117.172C316.258 116.185 317.23 115.407 318.352 114.916C319.474 114.426 320.705 114.241 321.921 114.379C323.137 114.518 324.296 114.975 325.278 115.705C326.261 116.435 327.033 117.411 327.516 118.535L339.411 141.68C340.593 143.979 340.888 146.633 340.239 149.136C339.591 151.638 338.043 153.815 335.893 155.251L323.737 163.368C323.365 163.701 322.883 163.885 322.383 163.886C322.172 163.886 321.961 163.853 321.76 163.789Z" fill="#378742"/>
<path d="M319.718 105.337C319.455 105.496 319.158 105.591 318.852 105.616C318.545 105.641 318.237 105.596 317.951 105.483C317.665 105.37 317.409 105.193 317.202 104.965C316.995 104.737 316.844 104.465 316.76 104.169L316.753 104.141C316.525 103.21 316.705 102.236 316.764 101.279C316.823 100.323 316.723 99.2731 316.068 98.5735C314.847 97.2695 312.69 97.9758 310.932 97.6538C309.902 97.4298 308.989 96.8384 308.364 95.9901C307.739 95.1419 307.445 94.0951 307.536 93.0455C307.56 92.8467 307.598 92.6475 307.641 92.4484C307.748 91.944 307.737 91.4216 307.608 90.9223C307.479 90.423 307.237 89.9604 306.899 89.5707C306.561 89.1809 306.137 88.8748 305.661 88.6763C305.185 88.4777 304.67 88.3922 304.155 88.4264C302.381 88.5373 300.468 89.0851 298.993 87.779C298.452 87.2636 298.075 86.6003 297.908 85.872C297.742 85.1436 297.794 84.3824 298.057 83.6833C298.883 81.2597 301.246 79.9807 303.587 79.2719C306.482 78.4188 309.532 78.2214 312.513 78.6941C315.495 79.1667 318.333 80.2976 320.823 82.0045C322.309 83.0402 323.7 84.344 324.34 86.0386C324.98 87.7331 324.687 89.8768 323.27 91.0053C324.379 92.1672 325.164 93.6002 325.545 95.1608C325.926 96.7213 325.89 98.3545 325.441 99.8969C324.75 102.165 321.406 104.354 319.718 105.337Z" fill="#2F2E41"/>
</g>
<defs>
<filter id="filter0_d_509_164" x="0" y="0" width="364.742" height="268.856" filterUnits="userSpaceOnUse" color-interpolation-filters="sRGB">
<feFlood flood-opacity="0" result="BackgroundImageFix"/>
<feColorMatrix in="SourceAlpha" type="matrix" values="0 0 0 0 0 0 0 0 0 0 0 0 0 0 0 0 0 0 127 0" result="hardAlpha"/>
<feOffset dx="-2" dy="4"/>
<feGaussianBlur stdDeviation="2"/>
<feColorMatrix type="matrix" values="0 0 0 0 0 0 0 0 0 0 0 0 0 0 0 0 0 0 0.1 0"/>
<feBlend mode="normal" in2="BackgroundImageFix" result="effect1_dropShadow_509_164"/>
<feBlend mode="normal" in="SourceGraphic" in2="effect1_dropShadow_509_164" result="shape"/>
</filter>
</defs>
</svg>
