<svg width="354" height="256" viewBox="0 0 505 366" fill="none" xmlns="http://www.w3.org/2000/svg">
<g clip-path="url(#clip0)">
<path d="M321.77 274.379V362.607H100.726C75.541 362.607 55.0503 342.817 55.0503 318.493C55.0503 294.169 75.541 274.379 100.726 274.379H321.77Z" fill="#F2F2F2"/>
<path d="M327.199 361.928C327.199 362.828 326.841 363.691 326.205 364.327C325.568 364.963 324.706 365.321 323.806 365.321H96.7888C84.4591 365.321 72.6344 360.424 63.916 351.705C55.1975 342.987 50.2996 331.162 50.2996 318.832C50.2996 306.502 55.1975 294.678 63.916 285.959C72.6344 277.241 84.4591 272.343 96.7888 272.343H323.806C324.706 272.343 325.569 272.7 326.205 273.337C326.842 273.973 327.199 274.836 327.199 275.736C327.199 276.636 326.842 277.499 326.205 278.136C325.569 278.772 324.706 279.13 323.806 279.13H96.7888C86.2591 279.13 76.1606 283.313 68.7149 290.758C61.2692 298.204 57.0863 308.302 57.0863 318.832C57.0863 329.362 61.2692 339.46 68.7149 346.906C76.1606 354.352 86.2591 358.535 96.7888 358.535H323.806C324.706 358.535 325.568 358.893 326.205 359.529C326.841 360.165 327.199 361.028 327.199 361.928Z" fill="#99E164"/>
<path d="M321.77 294.739H84.2334C84.0534 294.739 83.8808 294.668 83.7535 294.54C83.6262 294.413 83.5547 294.241 83.5547 294.061C83.5547 293.881 83.6262 293.708 83.7535 293.581C83.8808 293.453 84.0534 293.382 84.2334 293.382H321.77C321.95 293.382 322.122 293.453 322.25 293.581C322.377 293.708 322.448 293.881 322.448 294.061C322.448 294.241 322.377 294.413 322.25 294.54C322.122 294.668 321.95 294.739 321.77 294.739Z" fill="#CCCCCC"/>
<path d="M321.77 311.027H84.2334C84.0534 311.027 83.8808 310.956 83.7535 310.829C83.6262 310.701 83.5547 310.529 83.5547 310.349C83.5547 310.169 83.6262 309.996 83.7535 309.869C83.8808 309.742 84.0534 309.67 84.2334 309.67H321.77C321.95 309.67 322.122 309.742 322.25 309.869C322.377 309.996 322.448 310.169 322.448 310.349C322.448 310.529 322.377 310.701 322.25 310.829C322.122 310.956 321.95 311.027 321.77 311.027Z" fill="#CCCCCC"/>
<path d="M321.77 327.316H84.2334C84.0534 327.316 83.8808 327.244 83.7535 327.117C83.6262 326.99 83.5547 326.817 83.5547 326.637C83.5547 326.457 83.6262 326.284 83.7535 326.157C83.8808 326.03 84.0534 325.958 84.2334 325.958H321.77C321.95 325.958 322.122 326.03 322.25 326.157C322.377 326.284 322.448 326.457 322.448 326.637C322.448 326.817 322.377 326.99 322.25 327.117C322.122 327.244 321.95 327.316 321.77 327.316Z" fill="#CCCCCC"/>
<path d="M321.77 343.604H84.2334C84.0534 343.604 83.8808 343.532 83.7535 343.405C83.6262 343.278 83.5547 343.105 83.5547 342.925C83.5547 342.745 83.6262 342.573 83.7535 342.445C83.8808 342.318 84.0534 342.246 84.2334 342.246H321.77C321.95 342.246 322.122 342.318 322.25 342.445C322.377 342.573 322.448 342.745 322.448 342.925C322.448 343.105 322.377 343.278 322.25 343.405C322.122 343.532 321.95 343.604 321.77 343.604Z" fill="#CCCCCC"/>
<path d="M492.604 290.987L437.248 359.688L265.126 221.001C245.515 205.199 241.976 176.932 257.237 157.992C272.498 139.052 300.871 136.498 320.482 152.299L492.604 290.987Z" fill="#F2F2F2"/>
<path d="M441.901 362.566C441.337 363.266 440.517 363.714 439.622 363.81C438.727 363.906 437.831 363.643 437.13 363.079L260.357 220.644C250.756 212.908 244.621 201.675 243.302 189.416C241.983 177.157 245.589 164.876 253.325 155.275C261.06 145.675 272.294 139.54 284.552 138.221C296.811 136.902 309.092 140.508 318.693 148.244L495.467 290.679C495.814 290.958 496.103 291.303 496.317 291.694C496.53 292.086 496.665 292.515 496.713 292.958C496.761 293.402 496.721 293.85 496.595 294.278C496.47 294.705 496.261 295.104 495.982 295.451C495.702 295.798 495.356 296.087 494.965 296.301C494.574 296.514 494.144 296.649 493.701 296.696C493.258 296.744 492.81 296.704 492.382 296.578C491.954 296.452 491.556 296.243 491.209 295.963L314.435 153.528C310.375 150.255 305.711 147.813 300.707 146.342C295.704 144.872 290.459 144.402 285.274 144.958C280.089 145.515 275.064 147.088 270.487 149.587C265.909 152.086 261.869 155.463 258.597 159.524C255.325 163.585 252.885 168.25 251.417 173.255C249.948 178.259 249.48 183.503 250.039 188.688C250.598 193.873 252.172 198.897 254.673 203.474C257.174 208.05 260.552 212.089 264.615 215.359L441.388 357.794C442.089 358.359 442.536 359.179 442.632 360.074C442.729 360.969 442.466 361.865 441.901 362.566Z" fill="#378742"/>
<path d="M479.829 306.841L294.864 157.805C294.795 157.75 294.737 157.681 294.695 157.602C294.652 157.524 294.625 157.438 294.615 157.35C294.606 157.261 294.614 157.171 294.639 157.086C294.664 157 294.706 156.921 294.762 156.851C294.818 156.782 294.887 156.724 294.965 156.681C295.043 156.639 295.129 156.612 295.218 156.602C295.306 156.593 295.396 156.601 295.481 156.626C295.567 156.651 295.647 156.693 295.716 156.749L480.681 305.784C480.75 305.84 480.808 305.909 480.851 305.987C480.894 306.065 480.921 306.151 480.93 306.24C480.94 306.328 480.932 306.418 480.907 306.504C480.882 306.589 480.84 306.669 480.784 306.739C480.728 306.808 480.659 306.866 480.581 306.909C480.503 306.951 480.417 306.978 480.328 306.988C480.239 306.997 480.15 306.989 480.064 306.964C479.978 306.939 479.899 306.897 479.829 306.841V306.841Z" fill="#CCCCCC"/>
<path d="M469.61 319.524L284.645 170.489C284.505 170.376 284.416 170.212 284.397 170.033C284.378 169.854 284.43 169.675 284.543 169.535C284.656 169.395 284.82 169.305 284.999 169.286C285.177 169.267 285.356 169.319 285.497 169.432L470.462 318.467C470.531 318.523 470.589 318.592 470.632 318.67C470.674 318.748 470.701 318.834 470.711 318.923C470.721 319.012 470.713 319.101 470.688 319.187C470.663 319.273 470.621 319.352 470.565 319.422C470.509 319.491 470.44 319.549 470.361 319.592C470.283 319.635 470.197 319.661 470.109 319.671C470.02 319.68 469.93 319.672 469.845 319.647C469.759 319.622 469.679 319.58 469.61 319.524Z" fill="#CCCCCC"/>
<path d="M459.39 332.208L274.425 183.172C274.285 183.059 274.196 182.895 274.177 182.716C274.157 182.537 274.21 182.358 274.323 182.218C274.436 182.078 274.6 181.988 274.779 181.969C274.958 181.95 275.137 182.002 275.277 182.115L460.242 331.151C460.311 331.207 460.369 331.276 460.412 331.354C460.454 331.432 460.481 331.518 460.491 331.607C460.5 331.695 460.492 331.785 460.467 331.87C460.442 331.956 460.401 332.036 460.345 332.105C460.289 332.174 460.22 332.232 460.141 332.275C460.063 332.317 459.977 332.344 459.889 332.354C459.8 332.363 459.71 332.355 459.625 332.33C459.539 332.305 459.46 332.263 459.39 332.208V332.208Z" fill="#CCCCCC"/>
<path d="M449.171 344.891L264.206 195.855C264.136 195.799 264.079 195.73 264.036 195.652C263.993 195.574 263.966 195.488 263.957 195.399C263.947 195.311 263.955 195.221 263.98 195.136C264.005 195.05 264.047 194.97 264.103 194.901C264.159 194.832 264.228 194.774 264.306 194.731C264.385 194.689 264.47 194.662 264.559 194.652C264.648 194.643 264.737 194.651 264.823 194.676C264.908 194.701 264.988 194.742 265.057 194.798L450.022 343.834C450.092 343.89 450.15 343.959 450.192 344.037C450.235 344.115 450.262 344.201 450.272 344.29C450.281 344.378 450.273 344.468 450.248 344.554C450.223 344.639 450.182 344.719 450.126 344.788C450.07 344.858 450 344.916 449.922 344.958C449.844 345.001 449.758 345.028 449.669 345.037C449.581 345.047 449.491 345.039 449.405 345.014C449.32 344.988 449.24 344.947 449.171 344.891Z" fill="#CCCCCC"/>
<path d="M504.256 366H0.678675C0.498679 366 0.326055 365.929 0.198779 365.801C0.0715026 365.674 0 365.501 0 365.321C0 365.142 0.0715026 364.969 0.198779 364.842C0.326055 364.714 0.498679 364.643 0.678675 364.643H504.256C504.436 364.643 504.608 364.714 504.736 364.842C504.863 364.969 504.934 365.142 504.934 365.321C504.934 365.501 504.863 365.674 504.736 365.801C504.608 365.929 504.436 366 504.256 366Z" fill="#CCCCCC"/>
<path d="M229.447 265.105L221.688 265.105L217.999 235.178L229.45 235.179L229.447 265.105Z" fill="#FFB8B8"/>
<path d="M216.146 262.888H231.109V272.309H206.725C206.725 271.072 206.969 269.847 207.442 268.704C207.915 267.561 208.609 266.522 209.484 265.647C210.359 264.772 211.398 264.079 212.541 263.605C213.684 263.132 214.909 262.888 216.146 262.888Z" fill="#2F2E41"/>
<path d="M150.181 265.105L142.423 265.105L138.733 235.178L150.184 235.179L150.181 265.105Z" fill="#FFB8B8"/>
<path d="M136.881 262.888H151.844V272.309H127.459C127.459 271.072 127.703 269.847 128.177 268.704C128.65 267.561 129.344 266.522 130.219 265.647C131.094 264.772 132.132 264.079 133.275 263.605C134.418 263.132 135.644 262.888 136.881 262.888Z" fill="#2F2E41"/>
<path d="M176.096 43.1185V39.725C176.096 33.9202 178.402 28.3531 182.507 24.2484C186.612 20.1437 192.179 17.8378 197.984 17.8378H197.984C203.789 17.8378 209.356 20.1437 213.46 24.2484C217.565 28.3531 219.871 33.9202 219.871 39.725V43.1185C219.871 47.3034 218.209 51.3169 215.249 54.276C212.29 57.2352 208.277 58.8977 204.092 58.8977H191.876C189.804 58.8977 187.752 58.4895 185.837 57.6966C183.923 56.9036 182.183 55.7413 180.718 54.276C179.253 52.8108 178.091 51.0713 177.298 49.1569C176.505 47.2425 176.096 45.1906 176.096 43.1185Z" fill="#2F2E41"/>
<path d="M197.984 60.0651C207.19 60.0651 214.653 52.6021 214.653 43.3961C214.653 34.1901 207.19 26.7272 197.984 26.7272C188.778 26.7272 181.315 34.1901 181.315 43.3961C181.315 52.6021 188.778 60.0651 197.984 60.0651Z" fill="#FFB8B8"/>
<path d="M107.315 100.685C107.992 100.046 108.8 99.5638 109.683 99.2712C110.566 98.9787 111.503 98.8833 112.427 98.9918C113.351 99.1004 114.24 99.4102 115.031 99.8994C115.823 100.389 116.497 101.046 117.007 101.824L131.296 99.1207L135.057 107.404L114.824 110.937C113.46 111.707 111.861 111.95 110.33 111.62C108.798 111.29 107.441 110.41 106.516 109.146C105.59 107.883 105.161 106.323 105.308 104.764C105.455 103.204 106.169 101.753 107.315 100.685V100.685Z" fill="#FFB8B8"/>
<path d="M184.988 70.5628L185.175 70.8459L161.743 86.282L122.205 98.9076C121.681 99.076 121.231 99.4208 120.933 99.8834C120.634 100.346 120.505 100.898 120.568 101.445L121.43 108.874C121.468 109.203 121.575 109.52 121.743 109.805C121.911 110.09 122.137 110.337 122.406 110.53C122.675 110.723 122.981 110.858 123.305 110.925C123.629 110.993 123.964 110.992 124.288 110.922L161.499 102.946C163.3 102.562 165.003 101.813 166.502 100.743L192.826 82.0141C193.781 81.3315 194.542 80.4134 195.037 79.3494C195.531 78.2853 195.742 77.1114 195.649 75.9417C195.552 74.7705 195.152 73.6445 194.489 72.6746C193.825 71.7047 192.92 70.9244 191.863 70.4102C190.807 69.896 189.634 69.6658 188.461 69.7422C187.289 69.8186 186.156 70.199 185.175 70.8459L184.988 70.5628Z" fill="#CCCCCC"/>
<path d="M221.827 256.613C221.231 256.613 220.649 256.44 220.15 256.114C219.651 255.789 219.258 255.325 219.019 254.78L183.449 166.891C183.366 166.7 183.227 166.54 183.05 166.431C182.873 166.322 182.667 166.269 182.459 166.281C182.251 166.293 182.052 166.368 181.889 166.496C181.725 166.624 181.604 166.799 181.543 166.998L152.524 252.561C152.402 252.959 152.199 253.328 151.929 253.645C151.658 253.962 151.326 254.221 150.952 254.404C150.578 254.588 150.171 254.694 149.755 254.714C149.339 254.735 148.923 254.67 148.533 254.523L138.802 250.874C138.273 250.678 137.81 250.339 137.463 249.895C137.116 249.451 136.899 248.92 136.835 248.36C132.458 210.224 170.633 113.962 171.02 112.994L171.127 112.726L205.927 120.424L205.999 120.503C219.884 135.65 231.296 231.183 233.443 250.18C233.523 250.867 233.367 251.559 233 252.145C232.634 252.731 232.079 253.174 231.426 253.402L222.837 256.44C222.513 256.554 222.171 256.613 221.827 256.613Z" fill="#FCFCFC"/>
<path d="M191.843 123.523C183.411 123.523 174.011 121.842 171.118 114.903L171.051 114.744L171.141 114.596C173.425 110.849 176.443 104.456 174.821 103.256C171.625 100.893 170.074 97.0056 170.212 91.7015C170.511 80.1872 178.356 69.9643 189.734 66.2631H189.735C192.911 65.2467 196.143 64.4145 199.415 63.7707C201.8 63.2894 204.262 63.3424 206.625 63.9258C208.987 64.5092 211.191 65.6085 213.078 67.1449C214.989 68.6914 216.533 70.6418 217.601 72.8562C218.668 75.0705 219.232 77.4938 219.251 79.9519C219.37 92.2569 217.476 109.395 207.773 121.161C207.319 121.707 206.686 122.075 205.986 122.2C201.318 123.045 196.587 123.487 191.843 123.523Z" fill="#CCCCCC"/>
<path d="M188.707 123.062C189.165 121.416 190.255 120.018 191.739 119.171C193.224 118.324 194.982 118.097 196.632 118.539C196.969 118.633 197.298 118.755 197.615 118.903L208.465 109.029L216.01 114.113L200.495 127.843C199.794 129.106 198.691 130.099 197.361 130.663C196.031 131.227 194.551 131.33 193.156 130.956C192.343 130.733 191.583 130.352 190.918 129.834C190.254 129.316 189.699 128.671 189.285 127.937C188.871 127.203 188.607 126.394 188.508 125.557C188.409 124.721 188.476 123.872 188.707 123.062Z" fill="#FFB8B8"/>
<path d="M206.746 123.187C206.042 123.188 205.36 122.944 204.815 122.498L200.536 119.002C200.18 118.71 199.893 118.342 199.699 117.924C199.505 117.507 199.408 117.05 199.415 116.59C199.422 116.129 199.533 115.676 199.74 115.265C199.947 114.853 200.245 114.494 200.61 114.214L218.556 100.45C218.768 100.286 218.908 100.045 218.944 99.7791C218.98 99.5129 218.909 99.2433 218.748 99.0287L207.672 84.3855C206.385 82.6899 205.739 80.5937 205.85 78.4679C205.96 76.3421 206.819 74.3239 208.274 72.7705C209.807 71.1151 211.906 70.0964 214.155 69.9166C216.403 69.7367 218.638 70.4088 220.414 71.7995L220.484 71.8734L232.05 88.4347C233.301 89.4153 234.308 90.6718 234.993 92.106C235.677 93.5402 236.021 95.1133 235.998 96.7024C235.974 98.2915 235.583 99.8536 234.856 101.267C234.129 102.68 233.085 103.906 231.806 104.849L208.564 122.588C208.038 122.977 207.4 123.187 206.746 123.187Z" fill="#CCCCCC"/>
<path d="M183.219 38.7067V30.4363L197.984 23.9889L212.062 30.4363V38.7067C212.062 39.0667 211.919 39.412 211.665 39.6665C211.41 39.9211 211.065 40.0641 210.705 40.0641H184.576C184.216 40.0641 183.871 39.9211 183.616 39.6665C183.362 39.412 183.219 39.0667 183.219 38.7067Z" fill="#2F2E41"/>
<path d="M197.306 18.9348C195.135 11.9862 199.694 4.0227 206.435 1.27225C213.175 -1.47819 221.239 0.444452 226.926 4.9886C232.614 9.53275 236.142 16.339 238.012 23.3747C239.882 30.4104 240.237 37.7469 240.582 45.0186C248.863 46.5398 254.497 56.3621 251.628 64.2782C248.759 72.1944 238.141 76.1271 230.808 71.9896C223.474 67.852 221.351 56.7298 226.643 50.1812C229.147 47.0826 230.546 43.237 230.618 39.2536C230.69 35.2701 229.431 31.3765 227.04 28.1895C224.65 25.0024 221.264 22.704 217.419 21.6584C213.575 20.6128 209.492 20.8797 205.816 22.4168C201.735 24.1236 196.613 19.689 197.306 18.9348Z" fill="#2F2E41"/>
<path d="M104.254 68.6025C94.3393 68.5374 84.5482 66.393 75.5136 62.3078C74.9758 62.0682 74.5194 61.6772 74.1998 61.1827C73.8803 60.6881 73.7114 60.1113 73.7139 59.5226V34.8066C73.7148 33.9969 74.0368 33.2206 74.6094 32.6481C75.1819 32.0755 75.9582 31.7535 76.7679 31.7526H131.741C132.55 31.7535 133.327 32.0755 133.899 32.6481C134.472 33.2206 134.794 33.9969 134.795 34.8066V59.5226C134.797 60.1114 134.628 60.6882 134.309 61.1827C133.989 61.6772 133.533 62.0682 132.995 62.3079C123.96 66.393 114.169 68.5374 104.254 68.6025Z" fill="#99E164"/>
<path d="M104.247 48.5793C103.839 48.5797 103.436 48.4986 103.06 48.3408L59.4672 29.9489C58.905 29.7118 58.4268 29.3117 58.0941 28.8002C57.7615 28.2887 57.5897 27.6893 57.6009 27.0793C57.612 26.4692 57.8057 25.8765 58.1569 25.3776C58.508 24.8787 59.0006 24.4963 59.5711 24.2799L103.164 7.74216C103.866 7.47457 104.643 7.47622 105.344 7.7468L148.353 24.2845C148.92 24.5027 149.409 24.8851 149.758 25.3829C150.107 25.8806 150.299 26.4711 150.31 27.0787C150.321 27.6863 150.151 28.2835 149.821 28.7938C149.491 29.3041 149.016 29.7043 148.457 29.9433L105.448 48.3348C105.068 48.4965 104.659 48.5797 104.247 48.5793Z" fill="#99E164"/>
<path d="M78.804 63.9897C81.0529 63.9897 82.876 62.1666 82.876 59.9176C82.876 57.6687 81.0529 55.8456 78.804 55.8456C76.5551 55.8456 74.7319 57.6687 74.7319 59.9176C74.7319 62.1666 76.5551 63.9897 78.804 63.9897Z" fill="#3F3D56"/>
<path opacity="0.2" d="M148.606 27.3328L105.596 45.7244C105.261 45.8678 104.9 45.9421 104.535 45.943C104.171 45.9439 103.81 45.8713 103.474 45.7295L59.881 27.3382C59.3335 27.1128 58.8768 26.7113 58.583 26.1973C58.3908 26.5306 58.2716 26.901 58.2335 27.2839C58.1954 27.6668 58.2392 28.0534 58.362 28.418C58.4848 28.7827 58.6837 29.117 58.9456 29.3989C59.2075 29.6808 59.5263 29.9037 59.881 30.0529L103.474 48.4442C103.81 48.586 104.171 48.6586 104.535 48.6577C104.9 48.6568 105.261 48.5825 105.596 48.4391L148.606 30.0475C148.959 29.897 149.276 29.6734 149.536 29.3914C149.796 29.1094 149.993 28.7754 150.115 28.4116C150.236 28.0477 150.279 27.6622 150.241 27.2805C150.202 26.8988 150.083 26.5296 149.892 26.1973C149.6 26.7072 149.148 27.1064 148.606 27.3328Z" fill="black"/>
<path d="M79.146 59.9017C79.326 59.9017 79.4986 59.8302 79.6259 59.7029C79.7531 59.5756 79.8246 59.403 79.8246 59.223V36.5136L102.208 28.3592C102.388 28.3619 102.562 28.2929 102.691 28.1675C102.82 28.0422 102.894 27.8706 102.897 27.6906C102.9 27.5106 102.831 27.3369 102.705 27.2078C102.58 27.0786 102.408 27.0045 102.228 27.0018L79.8449 35.1562C79.6647 35.1521 79.4856 35.1845 79.3184 35.2516C79.1512 35.3187 78.9994 35.4191 78.8721 35.5466C78.7434 35.6725 78.6413 35.823 78.5718 35.9891C78.5023 36.1552 78.4667 36.3335 78.4673 36.5136V59.223C78.4673 59.403 78.5388 59.5756 78.6661 59.7029C78.7934 59.8301 78.966 59.9016 79.146 59.9017Z" fill="#3F3D56"/>
</g>
<defs>
<clipPath id="clip0">
<rect width="504.934" height="366" fill="white"/>
</clipPath>
</defs>
</svg>
