<svg width="337" height="255" viewBox="0 0 337 255" fill="none" xmlns="http://www.w3.org/2000/svg">
<g clip-path="url(#clip0)">
<path opacity="0.5" d="M3.63721 120.576C8.96911 141.383 20.2579 159.369 38.0991 168.087C75.1913 186.207 158.793 176.861 221.197 166.135C253.484 160.585 281.844 145.283 302.458 123.72L3.63721 120.576Z" fill="#BBBBBB" fill-opacity="0.45"/>
<path opacity="0.5" d="M330.889 22.6373H296.649C295.02 22.6373 293.687 21.4212 293.687 19.9352C293.687 18.4492 295.017 17.2331 296.649 17.2331H302.574C300.944 17.2331 299.611 16.017 299.611 14.531C299.611 13.0449 300.941 11.8318 302.574 11.8318H298.347C296.717 11.8318 295.384 10.6157 295.384 9.12965C295.384 7.64363 296.714 6.42752 298.347 6.42752H316.217C312.251 4.74277 307.627 3.54742 302.277 2.92157C253.547 -2.79413 236.147 0.9847 230 4.87328C222.36 9.7701 213.862 13.1711 204.955 14.8958C174.889 20.5581 118.661 27.3713 67.6973 12.7127C42.3678 5.43091 23.5432 17.7551 12.2573 38.3133H336.834C336.41 32.3336 335.143 26.8107 332.814 21.9789C332.265 22.4087 331.586 22.6407 330.889 22.6373Z" fill="#BBBBBB" fill-opacity="0.45"/>
<path opacity="0.5" d="M0.731589 77.1458C-0.582185 89.2472 -0.134173 101.476 2.0616 113.448L302.686 123.485C310.969 114.82 318 105.036 323.572 94.4174L0.731589 77.1458ZM119.624 103.043H113.7C115.326 103.043 116.662 104.259 116.662 105.745C116.662 107.231 115.329 108.444 113.7 108.444H79.4749C77.8487 108.444 76.5127 107.231 76.5127 105.745C76.5127 104.259 77.8457 103.043 79.4749 103.043H85.3992C83.773 103.043 82.4371 101.827 82.4371 100.341C82.4371 98.8548 83.7701 97.6387 85.3992 97.6387H81.1663C79.5401 97.6387 78.2041 96.4255 78.2041 94.9395C78.2041 93.4535 79.5371 92.2373 81.1663 92.2373H115.406C117.035 92.2373 118.368 93.4535 118.368 94.9395C118.368 96.4255 117.038 97.6387 115.406 97.6387H119.624C121.253 97.6387 122.586 98.8548 122.586 100.341C122.586 101.827 121.262 103.043 119.624 103.043Z" fill="#BBBBBB" fill-opacity="0.45"/>
<path opacity="0.5" d="M336.849 38.5002L8.64044 45.7879C4.64151 55.1579 1.99629 65.7499 0.775879 76.7305H331.096C333.247 70.3054 334.842 63.7072 335.865 57.0087C336.849 50.5545 337.243 44.3138 336.849 38.5002ZM67.4158 62.3804H61.4914C63.1177 62.3804 64.4536 63.5965 64.4536 65.0825C64.4536 66.5685 63.1206 67.7846 61.4914 67.7846H27.2547C25.6285 67.7846 24.2925 66.5685 24.2925 65.0825C24.2925 63.5965 25.6255 62.3804 27.2547 62.3804H33.179C31.5528 62.3804 30.2169 61.1672 30.2169 59.6812C30.2169 58.1952 31.5498 56.9791 33.179 56.9791H28.9461C27.3199 56.9791 25.9839 55.763 25.9839 54.277C25.9839 52.7909 27.3169 51.5748 28.9461 51.5748H63.1858C64.815 51.5748 66.148 52.7909 66.148 54.277C66.148 55.763 64.818 56.9791 63.1858 56.9791H67.4158C69.042 56.9791 70.378 58.1952 70.378 59.6812C70.378 61.1672 69.042 62.3804 67.4158 62.3804Z" fill="#BBBBBB" fill-opacity="0.45"/>
<path opacity="0.1" d="M196.788 227.451C209.096 227.451 219.073 225.208 219.073 222.441C219.073 219.674 209.096 217.431 196.788 217.431C184.481 217.431 174.504 219.674 174.504 222.441C174.504 225.208 184.481 227.451 196.788 227.451Z" fill="#378742"/>
<path opacity="0.1" d="M248.571 241.656C270.774 241.656 288.773 240.176 288.773 238.351C288.773 236.526 270.774 235.047 248.571 235.047C226.367 235.047 208.368 236.526 208.368 238.351C208.368 240.176 226.367 241.656 248.571 241.656Z" fill="#378742"/>
<path opacity="0.1" d="M87.1527 238.351C109.356 238.351 127.355 236.108 127.355 233.341C127.355 230.575 109.356 228.332 87.1527 228.332C64.9495 228.332 46.9502 230.575 46.9502 233.341C46.9502 236.108 64.9495 238.351 87.1527 238.351Z" fill="#378742"/>
<path opacity="0.1" d="M148.449 213.273C165.155 213.273 178.699 211.03 178.699 208.263C178.699 205.496 165.155 203.253 148.449 203.253C131.742 203.253 118.199 205.496 118.199 208.263C118.199 211.03 131.742 213.273 148.449 213.273Z" fill="#378742"/>
<path d="M171.053 89.0814C170.413 84.7687 166.5 74.7047 166.5 74.7047C166.432 74.4081 166.355 74.1114 166.269 73.8148C163.494 64.2639 159.652 63.4334 159.652 63.4334L145.89 60.4673C146.005 60.5395 146.105 60.6331 146.186 60.7432C146.113 60.7499 146.041 60.7608 145.97 60.7758C145.339 60.0309 144.923 59.1288 144.764 58.1656C144.737 58.0232 144.714 57.869 144.696 57.7236C145.684 56.7589 146.455 55.5937 146.957 54.3061C147.459 53.0185 147.68 51.6384 147.605 50.2583C147.53 48.8782 147.162 47.53 146.524 46.3042C145.887 45.0784 144.995 44.0033 143.908 43.1511C143.763 43.0384 143.612 42.9287 143.466 42.8248C144.115 42.1337 144.136 41.1727 143.65 40.2117C142.566 37.9574 140.208 36.5307 137.785 35.8337C135.934 35.3028 133.934 35.1307 132.092 35.7121C131.046 36.0443 130.092 36.6019 129.112 37.0973C127.284 38.0108 125.261 38.7346 123.895 40.2384C123.576 40.5884 123.279 41.0363 123.374 41.499C123.445 41.8431 123.718 42.11 123.892 42.4155C124.286 43.1007 124.189 43.9638 123.919 44.7113C123.65 45.4588 123.256 46.1528 123.069 46.9181C122.882 47.6833 122.953 48.585 123.528 49.1338C123.804 49.3467 124.09 49.5448 124.387 49.727C124.702 49.9954 124.978 50.3058 125.208 50.6495C125.753 51.3811 126.296 52.1157 126.837 52.8533C127.601 53.8309 128.283 54.8695 128.878 55.9588C129.284 56.7597 129.598 57.6139 130.14 58.3317C130.299 58.5412 130.48 58.7323 130.682 58.9012L130.522 58.8389C130.757 59.0789 131.039 59.2683 131.351 59.3953C131.662 59.5223 131.996 59.5843 132.332 59.5775C132.361 59.5775 132.388 59.5775 132.415 59.5775C132.538 59.5749 132.657 59.5262 132.746 59.441C132.746 59.5419 132.746 59.6427 132.746 59.7376C132.779 60.7965 132.773 61.9237 132.699 62.9826L132.572 62.9173C132.383 62.8233 132.171 62.785 131.961 62.8071C131.751 62.8292 131.552 62.9106 131.387 63.0419L118.718 73.2216C118.718 73.2216 115.963 76.9945 116.348 83.5081L114.126 93.2755C114.126 93.2755 111.351 101.563 113.486 107.48C115.622 113.398 116.86 116.782 116.86 116.782C116.86 116.782 117.713 123.506 118.996 124.055C120.279 124.604 120.833 124.9 120.833 124.9L121.087 126.508C121.087 126.508 121.173 126.665 121.324 126.929C122.257 128.555 125.714 134.291 127.723 133.677C127.975 135.235 128.084 136.812 128.048 138.39L130.036 151.753C130.036 151.753 131.422 155.386 131.336 157.29C131.251 159.194 132.954 161.909 132.954 161.909C131.919 163.805 131.615 166.016 132.101 168.123C132.912 171.682 133.937 188.079 133.937 188.079L135.418 192.053L135.377 196.713C135.255 197.473 134.939 198.188 134.459 198.789C133.499 199.833 133.57 201.04 131.256 202.467C128.943 203.894 127.477 204.434 127.477 206.323C127.474 206.587 127.45 206.849 127.406 207.109C127.192 208.497 126.778 209.251 131.031 209.654C136.028 210.129 139.361 206.866 139.361 206.866C139.361 206.866 140.096 205.531 143.555 204.991C143.555 204.991 144.74 204.929 144.802 203.882C144.826 203.52 144.82 202.829 144.802 202.067C144.746 200.616 144.607 198.923 144.423 198.84C144.192 198.736 143.789 197.276 143.65 196.749H144.613C144.613 196.749 145.501 190.024 144.613 185.67C143.724 181.316 144.527 178.228 144.527 178.228L144.355 166.728C144.355 166.728 143.17 165.459 144.1 163.217C145.031 160.974 144.1 149.899 144.1 149.899C144.1 149.899 144.444 145.924 145.424 144.993C146.405 144.061 145.472 139.17 145.424 138.915L147.172 144.785C147.172 144.785 147.939 156.454 149.566 158.566L150.034 163.851C150.034 163.851 153.363 168.716 152.723 171.335C152.083 173.954 153.408 183.428 153.408 183.428V193.112C153.408 193.112 151.912 197.001 154 198.398L154.889 198.362C154.592 198.638 154.364 199.053 154.018 199.412C153.618 199.824 153.39 201.393 153.262 202.743C153.156 203.885 153.12 204.867 153.12 204.867C153.12 204.867 154.009 206.29 155.682 206.388C157.356 206.486 162.872 210.686 162.872 210.686C162.872 210.686 168.319 210.686 169.729 210.39L169.812 210.369C170.265 210.226 170.645 209.915 170.875 209.5C171.158 209.018 171.249 208.447 171.13 207.901C170.955 207.068 170.295 206.154 168.832 205.377C165.191 203.455 164.649 201.654 164.649 201.654L162.258 198.062H162.599C162.599 198.062 162.389 194.257 164.99 189.986L164.821 171.172C164.821 171.172 165.887 164.703 164.054 161.191C164.054 161.191 163.902 157.471 165.129 156.329C166.355 155.187 163.497 143.646 163.497 143.646C163.497 143.646 162.904 137.45 162.208 131.796C165.09 134.534 168.079 124.678 168.583 122.925H168.657L168.624 122.797C168.645 122.714 168.657 122.673 168.657 122.673C168.657 122.673 168.017 120.395 168.485 120.857C168.953 121.32 170.108 119.588 170.108 119.588C170.108 119.588 169.936 110.159 171.945 105.407C173.953 100.655 171.053 89.0814 171.053 89.0814ZM162.463 95.0819L162.478 95.0552C162.774 100.812 162.421 113.098 162.421 113.098C162.421 113.098 162.024 114.673 161.601 116.527L161.305 104.855L161.008 93.8598L162.463 95.0819ZM125.699 91.1132C125.699 91.1132 127.151 109.293 125.699 111.915C125.288 112.662 124.941 113.991 124.654 115.507C124.174 114.246 123.158 111.286 123.522 109.717C123.993 107.688 122.583 102.358 122.583 102.233C122.583 102.109 122.456 99.2671 123.472 97.0959C124.488 94.9247 123.821 93.9844 123.821 93.9844C123.821 93.9844 124.674 90.4251 125.699 91.1132Z" fill="url(#paint0_linear)"/>
<path d="M129.236 132.057C127.972 137.625 122.942 129.207 121.796 127.187C121.647 126.923 121.564 126.769 121.564 126.769L122.11 124.209L124.992 123.023C125.448 123.261 125.881 123.543 126.283 123.865C127.862 125.108 130.211 127.745 129.236 132.057Z" fill="#D38884"/>
<path d="M168.257 122.948C168.257 122.948 168.257 122.99 168.224 123.073C168.224 123.109 168.201 123.156 168.186 123.207C167.691 124.945 164.759 134.73 161.927 132.013C158.828 129.047 160.333 122.189 160.333 122.189H160.354L166.871 121.522L168.162 122.851L168.257 122.948Z" fill="#D38884"/>
<path d="M164.486 171.103L164.652 189.79C162.096 194.032 162.306 197.798 162.306 197.798L153.882 198.131C151.826 196.745 153.289 192.887 153.289 192.887V183.264C153.289 183.264 151.989 173.865 152.617 171.261C153.245 168.656 149.978 163.845 149.978 163.845L149.516 158.598C147.922 156.501 147.167 144.919 147.167 144.919L145.457 139.069C145.505 139.321 146.394 144.204 145.457 145.102C144.521 146.001 144.157 149.97 144.157 149.97C144.157 149.97 145.078 160.968 144.157 163.19C143.236 165.411 144.406 166.675 144.406 166.675L144.575 178.092C144.575 178.092 143.778 181.156 144.658 185.477C145.537 189.799 144.658 196.476 144.658 196.476H135.62L135.662 191.816L134.198 187.871C134.198 187.871 133.191 171.587 132.394 168.06C131.917 165.97 132.214 163.778 133.23 161.891C133.23 161.891 131.556 159.206 131.639 157.317C131.722 155.427 130.347 151.824 130.347 151.824L128.398 138.562C128.452 136.01 128.127 133.464 127.433 131.007C126.301 127.229 124.625 122.275 124.625 122.275L126.517 122.444L136.067 123.296C136.067 123.296 159.288 121.732 160.328 123.032C160.547 123.456 160.695 123.914 160.766 124.387C161.809 129.077 163.186 143.768 163.186 143.768C163.186 143.768 165.994 155.226 164.789 156.359C163.583 157.492 163.731 161.182 163.731 161.182C165.538 164.667 164.486 171.103 164.486 171.103Z" fill="#444053"/>
<path d="M144.856 203.562C144.791 204.603 143.633 204.665 143.633 204.665C140.238 205.199 139.516 206.522 139.516 206.522C139.516 206.522 136.257 209.764 131.343 209.292C127.166 208.889 127.572 208.144 127.788 206.765C127.83 206.508 127.853 206.248 127.856 205.988C127.856 204.098 129.302 203.562 131.565 202.132C133.828 200.702 133.766 199.519 134.708 198.481C135.65 197.443 135.748 195.429 135.748 195.429C136.814 193.569 139.519 195.725 139.519 195.725C139.646 196.384 143.666 196.292 143.666 196.292C143.666 196.292 144.199 198.433 144.474 198.558C144.655 198.641 144.791 200.32 144.845 201.761C144.874 202.518 144.88 203.203 144.856 203.562Z" fill="#B07473"/>
<path opacity="0.1" d="M144.856 203.562C144.791 204.603 143.633 204.665 143.633 204.665C140.238 205.199 139.516 206.522 139.516 206.522C139.516 206.522 136.257 209.764 131.343 209.292C127.166 208.889 127.572 208.144 127.788 206.765C129.654 207.228 133.221 207.874 135.303 206.741C138.197 205.169 140.274 204.072 140.274 204.072L144.847 201.767C144.874 202.518 144.88 203.203 144.856 203.562Z" fill="black"/>
<path d="M170.44 209.165C170.218 209.577 169.844 209.886 169.398 210.028L169.318 210.049C167.934 210.345 162.588 210.345 162.588 210.345C162.588 210.345 157.182 206.16 155.547 206.065C153.911 205.97 153.032 204.552 153.032 204.552C153.032 204.552 153.064 203.579 153.168 202.446C153.295 201.106 153.518 199.549 153.911 199.139C154.634 198.383 154.8 197.36 156.426 198.006C156.426 198.006 158.749 193.907 161.486 197.075L164.318 201.376C164.318 201.376 164.851 203.155 168.438 205.086C169.872 205.857 170.511 206.765 170.692 207.593C170.806 208.13 170.716 208.69 170.44 209.165Z" fill="#B07473"/>
<path opacity="0.1" d="M170.44 209.165C170.12 209.434 169.768 209.725 169.398 210.028L169.318 210.048C167.934 210.345 162.588 210.345 162.588 210.345C162.588 210.345 157.182 206.16 155.547 206.065C153.911 205.97 153.032 204.552 153.032 204.552C153.032 204.552 153.064 203.579 153.168 202.446C154.833 202.945 157.354 203.826 158.029 204.775C159.066 206.219 162.214 208.236 162.214 208.236C162.214 208.236 168.085 207.67 170.692 207.593C170.806 208.13 170.716 208.69 170.44 209.165Z" fill="black"/>
<path d="M147.593 62.7007L139.862 70.8842C139.862 70.8842 130.492 70.1931 132.128 67.4228C132.96 66.0109 133.09 63.0567 133.016 60.488C132.948 58.0113 132.693 55.9024 132.693 55.9024C132.693 55.9024 145.834 49.3532 144.838 55.4604C144.624 56.6112 144.612 57.7907 144.803 58.9456C145.363 62.0304 147.593 62.7007 147.593 62.7007Z" fill="#D38884"/>
<path opacity="0.1" d="M144.826 55.4604C144.612 56.6112 144.6 57.7907 144.791 58.9456C143.892 59.8576 142.821 60.5814 141.64 61.0749C140.459 61.5683 139.192 61.8215 137.913 61.8198C136.135 61.8198 134.213 60.3575 132.776 59.5122C132.708 57.0325 132.693 55.9024 132.693 55.9024C132.693 55.9024 145.834 49.3532 144.826 55.4604Z" fill="black"/>
<path d="M147.593 51.6194C147.594 53.8163 146.85 55.9483 145.482 57.6663C144.115 59.3842 142.205 60.5863 140.066 61.0755C137.928 61.5648 135.686 61.3122 133.709 60.3592C131.733 59.4063 130.138 57.8093 129.186 55.83C128.234 53.8507 127.981 51.6064 128.469 49.4646C128.958 47.3228 130.158 45.4106 131.874 44.0411C133.589 42.6716 135.718 41.9261 137.912 41.9266C140.106 41.9271 142.235 42.6736 143.95 44.0439C145.086 44.9518 146.003 46.1042 146.634 47.4156C147.265 48.727 147.593 50.1638 147.593 51.6194Z" fill="#D38884"/>
<path opacity="0.1" d="M160.766 124.387C158.355 130.132 142.845 130.251 142.845 130.251V123.987L141.906 123.924C142.312 125.719 141.337 130.094 141.337 130.094C129.08 131.826 126.091 124.832 126.091 124.832L126.517 122.438L136.067 123.29C136.067 123.29 159.288 121.726 160.328 123.026C160.548 123.452 160.696 123.912 160.766 124.387Z" fill="black"/>
<path d="M142.845 129.495V123.23L141.906 123.171C142.312 124.951 141.337 129.341 141.337 129.341C132.113 130.643 128.138 127.006 126.737 125.126C126.485 124.802 126.268 124.452 126.091 124.082L129.835 102.993L130.724 71.9551L132.066 66.5093L132.377 63.8961V63.8665H132.409L133.363 64.2758L139.071 66.7466L145.555 61.8436L145.65 61.7754L145.973 61.5292L146.509 61.9593L147.842 63.03L152.116 90.6713C152.116 90.6713 159.522 111.953 160.908 120.543C160.964 120.887 161.009 121.207 161.044 121.507C161.96 129.349 142.845 129.495 142.845 129.495Z" fill="#378742"/>
<path d="M139.764 67.9093C140.069 67.9093 140.315 67.6622 140.315 67.3576C140.315 67.0529 140.069 66.8058 139.764 66.8058C139.46 66.8058 139.213 67.0529 139.213 67.3576C139.213 67.6622 139.46 67.9093 139.764 67.9093Z" fill="#67647E"/>
<path d="M140.019 72.9458C140.323 72.9458 140.57 72.6988 140.57 72.3941C140.57 72.0894 140.323 71.8423 140.019 71.8423C139.714 71.8423 139.468 72.0894 139.468 72.3941C139.468 72.6988 139.714 72.9458 140.019 72.9458Z" fill="#67647E"/>
<path d="M140.57 81.0996C140.874 81.0996 141.12 80.8526 141.12 80.5479C141.12 80.2432 140.874 79.9962 140.57 79.9962C140.265 79.9962 140.019 80.2432 140.019 80.5479C140.019 80.8526 140.265 81.0996 140.57 81.0996Z" fill="#67647E"/>
<path d="M141.479 89.8822C141.783 89.8822 142.03 89.6352 142.03 89.3305C142.03 89.0258 141.783 88.7788 141.479 88.7788C141.175 88.7788 140.928 89.0258 140.928 89.3305C140.928 89.6352 141.175 89.8822 141.479 89.8822Z" fill="#67647E"/>
<path d="M142.03 98.128C142.334 98.128 142.581 97.881 142.581 97.5764C142.581 97.2717 142.334 97.0247 142.03 97.0247C141.726 97.0247 141.479 97.2717 141.479 97.5764C141.479 97.881 141.726 98.128 142.03 98.128Z" fill="#67647E"/>
<path d="M142.581 106.911C142.885 106.911 143.132 106.664 143.132 106.359C143.132 106.054 142.885 105.807 142.581 105.807C142.276 105.807 142.03 106.054 142.03 106.359C142.03 106.664 142.276 106.911 142.581 106.911Z" fill="#67647E"/>
<path d="M142.362 115.598C142.666 115.598 142.912 115.351 142.912 115.047C142.912 114.742 142.666 114.495 142.362 114.495C142.057 114.495 141.811 114.742 141.811 115.047C141.811 115.351 142.057 115.598 142.362 115.598Z" fill="#67647E"/>
<path opacity="0.1" d="M132.743 106.059C132.743 106.059 132.127 114.136 130.996 116.485C129.864 118.835 129.361 125.425 129.361 125.425L126.733 125.129C126.481 124.805 126.265 124.455 126.087 124.085L129.832 102.995L130.72 71.958L132.065 66.5093L132.376 63.8961L132.412 63.8813C132.558 63.8119 132.719 63.7771 132.881 63.7797C133.044 63.7822 133.203 63.8221 133.348 63.8961L133.472 63.9614C133.435 64.0682 133.399 64.1779 133.365 64.2906C132.341 67.5029 131.958 73.4233 131.958 73.4233C131.958 73.4233 133.44 84.2526 133.594 89.289C133.748 94.3255 132.743 106.059 132.743 106.059Z" fill="black"/>
<path opacity="0.1" d="M126.283 123.874C126.254 123.941 126.221 124.007 126.182 124.07C125.163 125.793 122.58 126.887 121.796 127.187C121.647 126.923 121.564 126.769 121.564 126.769L122.11 124.209L124.992 123.023C125.448 123.264 125.881 123.549 126.283 123.874Z" fill="black"/>
<path d="M119.301 82.6568L116.911 84.0835L114.734 93.7797C114.734 93.7797 112.009 102.005 114.103 107.881C116.197 113.757 117.415 117.12 117.415 117.12C117.415 117.12 118.253 123.794 119.512 124.34C120.771 124.885 121.313 125.179 121.313 125.179L121.565 126.775C121.565 126.775 124.977 125.615 126.183 123.571C127.388 121.528 125.294 116.453 125.294 116.453C125.294 116.453 123.493 112.128 123.955 110.114C124.417 108.1 123.031 102.812 123.031 102.699C123.031 102.586 122.906 99.7594 123.919 97.5971C124.933 95.4348 124.257 94.5124 124.257 94.5124L123.626 88.3428L119.301 82.6568Z" fill="#67647E"/>
<path opacity="0.1" d="M160.964 122.572C160.964 122.572 154.634 124.962 152.623 122.868C150.611 120.774 150.819 110.948 150.819 110.948C150.819 110.948 148.893 92.8157 147.676 89.8377C146.458 86.8597 147.083 65.3672 147.083 65.3672C147.083 65.3672 146.266 62.588 145.552 61.8613C145.507 61.8146 145.456 61.7737 145.401 61.7397L145.647 61.7931L146.506 61.977L147.839 63.0477L152.113 90.689C152.113 90.689 159.519 111.971 160.905 120.561L160.964 122.572Z" fill="black"/>
<path opacity="0.1" d="M168.257 123.201H168.186C167.389 123.304 160.357 124.156 160.327 122.69C160.326 122.521 160.335 122.352 160.354 122.183L166.871 121.516L168.162 122.845C168.186 122.931 168.204 123.005 168.221 123.064L168.257 123.201Z" fill="black"/>
<path d="M161.509 72.9457L166.13 75.3601C166.13 75.3601 169.981 85.344 170.597 89.6242C170.597 89.6242 173.45 101.091 171.486 105.807C169.522 110.523 169.685 119.884 169.685 119.884C169.685 119.884 168.554 121.605 168.091 121.145C167.629 120.685 168.26 122.948 168.26 122.948C168.26 122.948 160.36 123.998 160.328 122.444C160.295 120.89 162.14 113.463 162.14 113.463C162.14 113.463 162.644 95.7937 161.93 93.0233C161.216 90.253 161.509 72.9457 161.509 72.9457Z" fill="#67647E"/>
<path opacity="0.1" d="M147.72 91.7657C147.72 91.7657 145.119 98.1428 144.281 98.564C143.443 98.9852 144.45 100.661 144.45 100.661C144.45 100.661 149.186 94.0318 147.72 91.7657Z" fill="black"/>
<path opacity="0.1" d="M146.168 69.3952C146.198 69.2736 143.067 72.4711 142.229 72.9546C141.39 73.438 145.289 72.9249 146.168 69.3952Z" fill="black"/>
<path opacity="0.1" d="M137.451 91.2615C137.451 91.2615 132.673 94.3552 133.304 95.5802C133.934 96.8052 137.451 91.2615 137.451 91.2615Z" fill="black"/>
<path opacity="0.1" d="M146.127 136.421C146.127 136.421 150.194 139.04 156.521 139.683L146.127 136.421Z" fill="black"/>
<path opacity="0.1" d="M136.36 142.718C136.36 142.718 140.131 147.463 141.852 147.585C143.573 147.707 136.36 142.718 136.36 142.718Z" fill="black"/>
<path opacity="0.1" d="M141.642 161.315C141.473 161.398 139.503 165.595 137.495 165.723C135.486 165.85 141.642 161.315 141.642 161.315Z" fill="black"/>
<path opacity="0.1" d="M159.119 170.51C159.119 170.51 162.857 169.671 163.69 172.355C163.69 172.346 163.438 171.507 159.119 170.51Z" fill="black"/>
<path opacity="0.1" d="M156.604 185.863C156.604 185.863 161.133 184.937 162.096 186.198C163.059 187.459 156.604 185.863 156.604 185.863Z" fill="black"/>
<path opacity="0.1" d="M143.793 188.01C143.793 188.052 139.184 188.936 139.35 189.523C139.515 190.11 144.267 190.027 144.436 189.102C144.466 188.988 144.473 188.869 144.457 188.752C144.441 188.635 144.402 188.523 144.342 188.421C144.282 188.32 144.203 188.231 144.109 188.161C144.014 188.09 143.907 188.039 143.793 188.01Z" fill="black"/>
<path opacity="0.1" d="M155.096 191.991C155.096 191.991 162.67 191.065 162.205 192.661C161.74 194.257 155.096 191.991 155.096 191.991Z" fill="black"/>
<path opacity="0.1" d="M115.444 98.564C115.486 98.6886 120.433 99.3619 121.102 100.958C121.102 100.958 116.241 98.6886 115.474 98.6886" fill="black"/>
<path opacity="0.1" d="M122.403 111.532C122.403 111.532 118.294 112.834 118.588 114.795C118.881 116.755 118.17 113.887 122.403 111.532Z" fill="black"/>
<path opacity="0.1" d="M120.489 121.522C120.489 121.522 121.985 119.466 123.41 119.843C124.835 120.22 120.489 121.522 120.489 121.522Z" fill="black"/>
<path opacity="0.1" d="M143.95 44.0439C143.806 44.1837 143.645 44.3043 143.47 44.4028C142.285 45.0939 141.959 46.1587 141.396 47.3867C140.872 48.5108 140.294 49.7003 139.237 50.338C137.871 51.1626 136.073 50.86 134.654 51.5778C134.025 51.9062 133.507 52.4159 133.169 53.0413C132.832 53.6667 132.688 54.3791 132.759 55.0867C132.849 55.6327 132.984 56.1704 133.162 56.6944C133.484 57.8289 133.63 59.0064 133.594 60.1855C133.597 60.22 133.597 60.2548 133.594 60.2893C132.38 59.682 131.307 58.8258 130.445 57.7765C129.583 56.7271 128.951 55.5079 128.589 54.1981C128.228 52.8882 128.146 51.517 128.348 50.1733C128.551 48.8296 129.033 47.5435 129.764 46.3985C130.494 45.2534 131.457 44.275 132.59 43.5268C133.723 42.7785 135 42.2771 136.339 42.0551C137.678 41.833 139.048 41.8954 140.361 42.238C141.675 42.5806 142.901 43.1959 143.962 44.0439H143.95Z" fill="black"/>
<path d="M143.698 41.1252C142.634 38.8888 140.321 37.471 137.942 36.7798C136.126 36.2548 134.153 36.0828 132.352 36.6612C131.325 36.9875 130.392 37.551 129.429 38.0345C127.634 38.9421 125.661 39.6599 124.31 41.1519C123.993 41.4989 123.718 41.9439 123.798 42.4036C123.866 42.7447 124.132 42.9968 124.304 43.3112C124.692 43.9934 124.6 44.8507 124.331 45.5922C124.061 46.3337 123.679 47.0219 123.496 47.7841C123.312 48.5464 123.383 49.4392 123.946 49.982C124.198 50.2223 124.521 50.3736 124.793 50.5753C125.101 50.8417 125.371 51.149 125.596 51.4888L127.195 53.6778C127.947 54.6479 128.617 55.6787 129.198 56.7596C129.595 57.5545 129.903 58.4028 130.436 59.1117C130.969 59.8207 131.799 60.3901 132.681 60.313C132.75 60.3148 132.817 60.3004 132.879 60.271C132.941 60.2416 132.995 60.1981 133.037 60.144C133.07 60.0746 133.085 59.9982 133.081 59.9215C133.12 58.7468 132.977 57.5731 132.658 56.4422C132.479 55.9184 132.345 55.3807 132.255 54.8346C132.187 54.1273 132.331 53.4157 132.668 52.7906C133.006 52.1656 133.522 51.6556 134.151 51.3257C135.572 50.6079 137.37 50.9104 138.733 50.0888C139.793 49.4481 140.371 48.2587 140.892 47.1227C141.464 45.8947 141.781 44.8299 142.966 44.1388C144.151 43.4477 144.287 42.3028 143.698 41.1252Z" fill="#585268"/>
<path opacity="0.1" d="M139.361 199.596C139.361 199.596 140.842 201.485 140.457 202.562C140.072 203.639 139.361 199.596 139.361 199.596Z" fill="black"/>
<path opacity="0.1" d="M159.4 204.324C159.4 204.324 159.729 201.791 161.047 201.767C162.366 201.743 162.431 201.631 163.438 202.019C164.445 202.408 165.39 203.01 165.088 203.099C164.786 203.188 163.355 201.651 161.886 202.437C160.969 202.94 160.131 203.576 159.4 204.324Z" fill="black"/>
<path opacity="0.1" d="M134.942 69.9232L139.089 67.0135C139.089 67.0135 133.022 63.4244 132.3 63.9287C131.577 64.4329 131.079 68.9711 131.079 68.9711L134.942 69.9232Z" fill="black"/>
<path d="M134.924 69.7364L139.071 66.7703C139.071 66.7703 133.004 63.1813 132.281 63.6855C131.559 64.1898 131.061 68.9771 131.061 68.9771L134.924 69.7364Z" fill="#E1E7EF"/>
<path d="M134.924 69.7364L139.071 66.7703C139.071 66.7703 133.004 63.1813 132.281 63.6855C131.559 64.1898 131.061 68.9771 131.061 68.9771L134.924 69.7364Z" fill="#378742"/>
<path d="M132.969 63.7092L132.844 63.6469C132.659 63.5524 132.451 63.5137 132.244 63.5352C132.038 63.5568 131.842 63.6378 131.68 63.7685L119.239 73.8741C119.239 73.8741 116.535 77.6203 116.911 84.0835L124.248 94.4916C124.248 94.4916 125.086 90.9678 126.091 91.6382C126.091 91.6382 127.515 109.687 126.091 112.288C124.666 114.89 124.038 124.627 124.038 124.627L128.857 125.173C128.857 125.173 129.361 118.582 130.492 116.233C131.624 113.884 132.24 105.807 132.24 105.807C132.24 105.807 133.259 94.0734 133.09 89.0369C132.921 84.0004 131.455 73.1711 131.455 73.1711C131.455 73.1711 131.867 66.8236 132.969 63.7092Z" fill="#67647E"/>
<path opacity="0.1" d="M145.362 68.0843L140.193 66.1682C140.193 66.1682 146.775 58.9487 147.599 62.9529L145.362 68.0843Z" fill="black"/>
<path d="M145.362 67.8321L140.193 65.916C140.193 65.916 146.775 58.6965 147.599 62.7008L145.362 67.8321Z" fill="#E1E7EF"/>
<path d="M145.362 67.8321L140.193 65.916C140.193 65.916 146.775 58.6965 147.599 62.7008L145.362 67.8321Z" fill="#378742"/>
<path opacity="0.1" d="M145.193 61.6893C145.268 61.6773 145.344 61.6943 145.407 61.7368L145.193 61.6893Z" fill="black"/>
<path d="M145.691 61.188L159.406 64.1542C159.406 64.1542 163.18 64.9936 165.905 74.4792C168.63 83.9648 162.173 95.5861 162.173 95.5861L160.748 94.373L161.462 122.074C161.462 122.074 155.132 124.464 153.121 122.37C151.109 120.276 151.32 110.44 151.32 110.44C151.32 110.44 149.391 92.3115 148.174 89.3306C146.956 86.3496 147.581 64.8631 147.581 64.8631C147.581 64.8631 146.462 61.0219 145.691 61.188Z" fill="#67647E"/>
<path opacity="0.1" d="M158.239 78.8393C158.046 79.0173 157.821 87.3995 158.66 93.7797C159.172 97.665 159.964 101.508 161.029 105.279L159.785 79.7202C159.785 79.7202 158.825 78.2935 158.239 78.8393Z" fill="black"/>
<path opacity="0.1" d="M156.562 71.6199C156.897 71.8305 158.366 75.3127 157.694 76.7394C157.022 78.1661 156.562 71.6199 156.562 71.6199Z" fill="black"/>
<path opacity="0.1" d="M143.618 41.1252C142.945 39.7976 141.896 38.6979 140.602 37.9633C141.564 38.6529 142.341 39.57 142.863 40.6328C143.455 41.8193 143.28 43.0057 142.128 43.6553C140.976 44.3049 140.617 45.4112 140.054 46.6392C139.53 47.7634 138.952 48.9528 137.892 49.6053C136.529 50.4299 134.731 50.1244 133.31 50.8422C132.681 51.1732 132.166 51.6839 131.828 52.3093C131.49 52.9346 131.346 53.6464 131.414 54.3541C131.505 54.8992 131.641 55.4359 131.82 55.9588C132.142 57.0933 132.288 58.2708 132.252 59.4499C132.255 59.5268 132.238 59.6032 132.205 59.6723C132.164 59.7268 132.11 59.7706 132.049 59.8C131.988 59.8294 131.92 59.8436 131.852 59.8414C131.497 59.8687 131.14 59.8022 130.818 59.6486C131.051 59.8801 131.329 60.0613 131.635 60.1812C131.941 60.3011 132.268 60.357 132.596 60.3456C132.649 60.3534 132.704 60.3487 132.755 60.3319C132.806 60.315 132.853 60.2865 132.891 60.2486C132.93 60.2107 132.959 60.1644 132.976 60.1133C132.994 60.0622 133 60.0077 132.993 59.9541C133.031 58.7751 132.886 57.5974 132.563 56.463C132.382 55.9396 132.247 55.4018 132.157 54.8554C132.089 54.148 132.233 53.4364 132.571 52.8114C132.908 52.1864 133.424 51.6763 134.053 51.3464C135.475 50.6286 137.273 50.9312 138.636 50.1096C139.696 49.4689 140.274 48.2795 140.795 47.1434C141.367 45.9155 141.684 44.8506 142.868 44.1595C144.053 43.4684 144.21 42.3027 143.618 41.1252Z" fill="black"/>
<path d="M228.001 78.3737C223.919 78.2936 220.317 75.4076 218.276 71.8809C217.741 71.0417 217.404 70.0911 217.293 69.1016C217.307 68.8768 217.344 68.6541 217.405 68.4372C217.53 68.1062 217.629 67.7661 217.701 67.4198C217.718 67.2819 217.718 67.1425 217.701 67.0046C217.701 67.0046 217.701 67.0046 217.701 66.9809C217.799 66.2304 217.358 65.4978 216.813 64.9847C216.268 64.4715 215.583 64.0948 215.015 63.5847C213.261 62.0423 212.728 59.5685 212.695 57.2134V57.0889C212.716 56.0804 212.796 55.0689 212.787 54.0605C212.801 53.488 212.776 52.9152 212.713 52.346C212.544 50.9193 212.002 49.4659 210.882 48.5553C207.962 46.1825 203.05 48.6532 200.026 46.4108C199.291 45.8621 198.696 45.0524 197.804 44.8388C197.132 44.6757 196.433 44.8952 195.775 45.1147C193.548 45.8502 191.063 46.8172 190.192 48.9706C189.694 50.2075 189.833 51.6193 189.377 52.871C189.081 53.7105 188.515 54.4312 188.103 55.2261C187.765 55.8246 187.601 56.5057 187.629 57.1927C187.593 57.5483 187.643 57.9075 187.775 58.2397C187.929 58.6401 188.178 58.9973 188.5 59.2808C188.384 59.5285 188.239 59.7615 188.068 59.9749C187.499 60.6719 186.625 61.1613 186.033 61.8554C184.937 63.1279 184.978 64.8571 185.517 66.352C186.057 67.847 187.031 69.2084 187.703 70.6648C188 71.2966 188.225 72.0025 187.926 72.6313C187.715 73.0673 187.28 73.3995 186.942 73.7762C186.448 74.3309 186.138 75.0251 186.054 75.7635C179.386 77.2881 179.38 82.6538 179.38 82.6538L175.778 91.7242C175.778 91.7242 175.2 93.2518 174.522 95.2687L170.259 94.5035L173.221 99.4687C172.662 101.492 172.265 103.366 172.395 104.309C172.395 104.309 171.071 110.538 173.426 111.627L178.621 113.967C178.847 114.105 179.088 114.214 179.341 114.29L179.552 114.385C179.627 114.422 179.71 114.441 179.794 114.441C179.879 114.441 179.962 114.422 180.037 114.385H180.052H180.108C180.209 114.392 180.31 114.377 180.405 114.341C180.52 114.278 180.612 114.179 180.665 114.059C180.664 114.049 180.664 114.039 180.665 114.029L182.221 113.579L183.539 115.142C184.131 115.56 184.724 115.922 185.283 116.248L183.242 136.542C183.242 136.542 182.914 163.534 181.918 169.686C181.551 171.964 181.548 173.518 181.687 174.574L181.649 174.639C181.895 176.374 182.537 176.715 182.537 176.715V176.692C182.549 176.701 182.562 176.709 182.576 176.715C182.876 175.927 183.232 175.162 183.642 174.425C183.642 174.571 183.642 174.722 183.642 174.87C183.622 177.16 183.551 180.367 183.314 182.452C182.911 186.011 184.344 197.742 184.344 197.742L184.839 208.42C184.92 210.233 184.499 212.033 183.625 213.623C182.44 215.755 180.926 218.757 180.816 220.089C180.811 220.161 180.811 220.233 180.816 220.305L178.275 223.366C178.275 223.366 177.283 224.903 179.525 225.523C180.731 225.858 182.81 225.523 184.481 225.128C185.21 224.96 185.861 224.549 186.327 223.963C186.793 223.377 187.048 222.65 187.049 221.901C187.471 220.43 188.184 219.06 189.146 217.87L189.564 220.329L192.36 221.023L192.718 214.284C192.863 213.906 192.928 213.502 192.911 213.098C193.462 208.304 191.614 208.735 191.614 208.735C191.663 208.777 191.695 208.836 191.702 208.901L191.614 208.738C190.479 206.495 191.021 202.805 191.021 202.805C191.021 202.805 192.502 192.127 193.009 189.306C193.373 187.313 193.222 180.788 193.101 177.145C193.101 176.994 193.101 176.849 193.086 176.703C197.422 176.647 202.736 176.502 206.466 176.14V176.579L205.779 201.806C205.731 203.414 205.405 205.002 204.813 206.498C204.813 206.528 204.792 206.554 204.78 206.584C203.963 208.697 203.501 210.931 203.415 213.196L203.095 221.204V221.427C202.538 221.64 201.658 222.26 201.635 224.058C201.596 226.691 206.232 225.813 206.232 225.813C210.865 225.813 210.903 220.985 210.903 220.985C210.903 220.985 211.048 216.556 211.271 213.593C211.493 210.63 210.571 211.282 210.571 211.282L210.5 219.712C210.5 219.733 210.5 219.754 210.5 219.777V212.389L210.571 211.318V211.288V211.06L211.155 202.366C211.155 202.366 215.423 187.88 216.084 185.101C216.555 183.125 216.36 177.175 216.205 173.886C216.205 173.734 216.205 173.589 216.182 173.45C217.506 173.331 218.676 173.319 219.144 173.319H219.36C219.36 173.319 219.141 150.053 218.587 141.285C218.033 132.517 217.153 124.494 214.947 122.079C213.614 120.62 211.756 116.115 210.503 112.778C213.137 113.918 215.871 114.812 218.67 115.447C225.658 116.912 224.701 110.838 224.701 110.838L223.993 99.3501H224.04C224.014 96.3409 223.757 93.3382 223.27 90.3687C222.9 88.0907 222.334 85.7356 221.469 83.8432C222.228 83.5466 222.977 83.2293 223.712 82.903C225.61 82.0636 227.749 80.8742 228.022 78.8246H227.93C227.966 78.6766 227.99 78.5258 228.001 78.3737ZM184.685 94.984C184.7 96.1704 184.655 98.2289 184.584 100.504L182.366 97.5378L184.59 93.9251L184.685 94.984ZM215.338 105.496L211.641 104.309C212.296 103.285 213.062 102.336 213.925 101.48L214.245 101.183L214.129 101.207L214.307 101.044L214.413 101.02L214.245 101.183L214.446 101.142C214.668 102.072 215.099 102.939 215.705 103.678C217.032 105.128 215.341 105.496 215.341 105.496H215.338Z" fill="url(#paint1_linear)"/>
<path d="M192.882 212.273L192.449 220.483L189.691 219.792L189.111 216.378L192.882 212.273Z" fill="#A27772"/>
<path opacity="0.1" d="M192.882 212.273L192.449 220.483L189.691 219.792L189.111 216.378L192.882 212.273Z" fill="black"/>
<path d="M203.003 221.572L207.209 222.444L210.328 219.685V211.911L210.399 210.849V210.817V210.591L210.98 201.951C210.98 201.951 215.189 187.568 215.844 184.807C216.306 182.849 216.113 176.941 215.959 173.675C215.897 172.337 215.844 171.442 215.844 171.442L206.558 169.19L206.362 176.339L205.684 201.385C205.637 202.981 205.315 204.557 204.733 206.044L204.7 206.13C203.893 208.228 203.437 210.445 203.352 212.691L203.038 220.655V220.875L203.003 221.572Z" fill="#CC818C"/>
<path opacity="0.1" d="M203.003 221.572L207.209 222.444L210.328 219.685V219.024C210.318 219.17 210.272 219.312 210.194 219.436C210.116 219.56 210.009 219.663 209.881 219.736L209.837 219.763C208.388 220.529 206.746 220.854 205.115 220.697L203.474 220.557C203.324 220.572 203.178 220.608 203.038 220.664V220.884L203.003 221.572Z" fill="black"/>
<path d="M209.837 219.979L209.882 219.955C210.018 219.878 210.132 219.766 210.212 219.631C210.292 219.495 210.334 219.341 210.335 219.184L210.403 210.817C210.403 210.817 211.309 210.167 211.09 213.11C210.871 216.052 210.729 220.448 210.729 220.448C210.729 220.448 210.693 225.241 206.123 225.241C206.123 225.241 201.552 226.113 201.588 223.497C201.623 220.881 203.475 220.774 203.475 220.774L205.116 220.916C206.747 221.074 208.389 220.748 209.837 219.979Z" fill="#B07473"/>
<path d="M181.095 219.792C181.201 221.682 186.752 220.59 186.752 220.59L190.488 213.329C190.488 213.329 193.607 210.929 192.046 208.824C191.962 208.709 191.886 208.589 191.818 208.465C191.818 208.465 191.818 208.465 191.803 208.447C191.77 208.393 191.741 208.337 191.711 208.278C190.591 206.053 191.142 202.405 191.142 202.405C191.142 202.405 192.591 191.798 193.1 189.001C193.459 187.026 193.311 180.545 193.192 176.92C193.145 175.413 193.1 174.402 193.1 174.402L183.885 171.931C183.885 171.931 183.885 173.082 183.885 174.684C183.864 176.959 183.793 180.141 183.559 182.212C183.162 185.732 184.575 197.392 184.575 197.392L185.064 208.002C185.149 209.799 184.739 211.586 183.879 213.166C182.724 215.284 181.213 218.268 181.11 219.588C181.099 219.655 181.094 219.724 181.095 219.792Z" fill="#CC818C"/>
<path opacity="0.1" d="M181.095 219.792C181.201 221.682 186.753 220.59 186.753 220.59L190.488 213.329C190.488 213.329 193.607 210.929 192.046 208.823C191.962 208.709 191.886 208.589 191.818 208.465C191.768 209.565 190.562 212.32 190.562 212.32C190.562 212.32 187.478 218.499 186.498 219.914C185.517 221.329 181.258 219.65 181.098 219.59C181.092 219.657 181.091 219.725 181.095 219.792Z" fill="black"/>
<path d="M191.711 208.269C191.711 208.269 193.536 207.845 192.991 212.602C193.012 213.143 192.889 213.679 192.636 214.157C192.382 214.635 192.007 215.037 191.548 215.322C190.242 216.144 188.228 217.912 187.209 221.349C187.21 222.091 186.96 222.811 186.5 223.393C186.04 223.975 185.397 224.383 184.676 224.553C183.029 224.938 180.976 225.277 179.789 224.944C177.576 224.327 178.556 222.803 178.556 222.803L181.095 219.786C181.095 219.786 185.52 221.53 186.498 220.113C187.475 218.695 190.562 212.522 190.562 212.522C190.562 212.522 192.253 208.669 191.711 208.269Z" fill="#B07473"/>
<path opacity="0.1" d="M206.558 170.071L206.362 177.219C208.836 176.979 210.607 176.644 210.909 176.172C211.564 175.158 213.94 174.731 215.96 174.556C215.898 173.218 215.844 172.322 215.844 172.322L206.558 170.071Z" fill="black"/>
<path opacity="0.1" d="M183.885 175.553C184.122 175.068 184.47 174.647 184.901 174.325C185.879 173.782 185.772 177.813 185.772 177.813C185.772 177.813 189.031 177.842 193.192 177.789C193.145 176.282 193.101 175.268 193.101 175.268L183.885 172.8C183.885 172.8 183.903 173.945 183.885 175.553Z" fill="black"/>
<path d="M182.834 176.508C182.834 176.508 183.924 173.542 184.908 173.014C185.891 172.486 185.779 176.499 185.779 176.499C185.779 176.499 209.719 176.718 210.916 174.864C212.112 173.011 219.076 173.12 219.076 173.12C219.076 173.12 218.86 150.02 218.315 141.306C217.77 132.591 216.902 124.633 214.725 122.237C213.318 120.685 211.315 115.667 210.077 112.321C209.405 110.494 208.958 109.162 208.958 109.162L186.107 110.467L185.921 112.321L183.495 136.619C183.495 136.619 183.169 163.424 182.188 169.525C181.208 175.627 182.834 176.508 182.834 176.508Z" fill="#444053"/>
<g opacity="0.1">
<path opacity="0.1" d="M209.055 174.864C210.24 173.014 217.216 173.12 217.216 173.12C217.216 173.12 217 150.02 216.455 141.306C215.91 132.591 215.042 124.633 212.864 122.237C211.451 120.679 209.455 115.667 208.217 112.321C207.651 110.784 207.245 109.601 207.133 109.263L208.91 109.162C208.91 109.162 209.357 110.494 210.033 112.321C211.271 115.667 213.27 120.685 214.677 122.237C216.854 124.633 217.725 132.588 218.267 141.306C218.809 150.023 219.032 173.12 219.032 173.12C219.032 173.12 212.068 173.014 210.868 174.864C209.846 176.445 192.23 176.52 187.117 176.505C193.678 176.49 208.131 176.294 209.055 174.864Z" fill="black"/>
<path opacity="0.1" d="M183.047 173.014C183.489 172.767 183.708 173.45 183.817 174.277C183.422 174.995 183.078 175.74 182.79 176.508C182.79 176.508 182.159 176.167 181.901 174.431C182.262 173.811 182.662 173.227 183.047 173.014Z" fill="black"/>
</g>
<path d="M189.895 53.2714C188.314 55.4307 189.913 58.5007 188.216 60.6007C187.656 61.2947 186.794 61.7871 186.21 62.4693C185.129 63.7329 185.171 65.4503 185.701 66.9333C186.231 68.4164 187.182 69.7689 187.857 71.2164C188.154 71.8422 188.373 72.5452 188.077 73.1681C187.869 73.6012 187.44 73.9304 187.105 74.3041C186.015 75.5232 185.985 77.2168 186.572 78.6524C187.158 80.088 188.278 81.322 189.383 82.5381C189.818 83.0156 190.369 83.5436 191.095 83.5287C191.477 83.4998 191.846 83.3786 192.17 83.1758C194.683 81.8904 196.604 79.6841 197.534 77.016C198.463 74.3479 198.328 71.4238 197.159 68.8524C196.24 66.6486 194.709 64.5367 194.694 62.2083C194.694 60.3604 195.642 58.5956 195.811 56.7566C196.015 54.5201 194.694 50.9697 191.998 49.9938C192.176 51.4294 190.698 52.1621 189.895 53.2714Z" fill="#585268"/>
<path opacity="0.1" d="M189.895 53.2714C188.314 55.4307 189.913 58.5007 188.216 60.6007C187.656 61.2947 186.794 61.7871 186.21 62.4693C185.129 63.7329 185.171 65.4503 185.701 66.9333C186.231 68.4164 187.182 69.7689 187.857 71.2164C188.154 71.8422 188.373 72.5452 188.077 73.1681C187.869 73.6012 187.44 73.9304 187.105 74.3041C186.015 75.5232 185.985 77.2168 186.572 78.6524C187.158 80.088 188.278 81.322 189.383 82.5381C189.818 83.0156 190.369 83.5436 191.095 83.5287C191.477 83.4998 191.846 83.3786 192.17 83.1758C194.683 81.8904 196.604 79.6841 197.534 77.016C198.463 74.3479 198.328 71.4238 197.159 68.8524C196.24 66.6486 194.709 64.5367 194.694 62.2083C194.694 60.3604 195.642 58.5956 195.811 56.7566C196.015 54.5201 194.694 50.9697 191.998 49.9938C192.176 51.4294 190.698 52.1621 189.895 53.2714Z" fill="black"/>
<path opacity="0.1" d="M207.437 131.817C204.271 131.983 201.291 133.348 198.518 134.89C195.746 136.433 193.062 138.18 190.079 139.274" fill="black"/>
<path opacity="0.1" d="M205.471 139.289C202.339 139.588 199.42 141.01 197.251 143.293C196.481 144.109 195.817 145.022 195.015 145.805C193.786 147.006 192.267 147.868 190.607 148.306" fill="black"/>
<path opacity="0.1" d="M206.119 144.975C203.593 145.677 201.307 147.058 199.508 148.967C199.022 149.492 198.581 150.053 198.095 150.578C195.473 153.396 191.771 154.891 188.195 156.305" fill="black"/>
<path d="M205.85 66.1207C205.92 68.6544 206.138 71.1819 206.502 73.6902C206.798 75.4699 207.213 77.0716 207.808 77.7805C209.55 79.8568 199.322 82.6301 199.322 82.6301L193.282 77.9436C193.282 77.9436 198.069 73.5301 195.838 69.2262C193.608 64.9224 205.85 66.1207 205.85 66.1207Z" fill="#CC818C"/>
<path opacity="0.1" d="M185.915 112.321H210.071C209.399 110.494 208.951 109.162 208.951 109.162L186.101 110.467L185.915 112.321Z" fill="black"/>
<path d="M184.359 111.885H210.186C209.461 109.284 210.186 106.878 211.22 105.027C211.945 103.73 212.856 102.547 213.925 101.515L214.102 101.352L223.119 99.3531L223.605 99.2463C223.605 99.2463 223.679 82.8288 217.873 80.5746C212.067 78.3203 208.587 75.2741 208.587 75.2741L200.61 77.7419L194.733 74.7758C192.846 76.8076 187.84 76.0097 187.84 76.0097C179.644 76.9529 179.644 83.1284 179.644 83.1284C179.644 83.1284 184.43 94.3136 184.795 94.3136C185.159 94.3136 184.359 111.885 184.359 111.885Z" fill="#378742"/>
<path opacity="0.1" d="M193.275 101.447C193.275 101.447 188.008 100.278 186.216 98.2348L193.275 101.447Z" fill="black"/>
<path opacity="0.1" d="M219.832 95.3221L213.724 100.335C213.768 100.734 213.835 101.13 213.925 101.521L214.103 101.358L223.12 99.359L219.832 95.3221Z" fill="black"/>
<path opacity="0.1" d="M203.294 110.141C203.294 110.141 204.63 110.894 206.677 111.885H210.187C209.461 109.284 210.187 106.878 211.221 105.027L205.033 103.022C207.139 104.983 203.294 110.141 203.294 110.141Z" fill="black"/>
<path d="M183.269 81.1589L179.644 83.1195L176.089 92.1276C176.089 92.1276 172.389 102.005 172.751 104.621C172.751 104.621 171.447 110.796 173.767 111.885L179.81 114.626C179.916 114.673 180.035 114.686 180.149 114.662C180.264 114.639 180.368 114.58 180.448 114.495C180.528 114.41 180.579 114.301 180.594 114.186C180.61 114.07 180.589 113.952 180.535 113.848C179.673 112.214 178.725 109.657 180.239 108.251L178.497 104.621L184.792 94.3047L186.895 90.7454L183.269 81.1589Z" fill="#378742"/>
<path opacity="0.1" d="M191.336 99.3856C191.65 100.667 192.71 102.648 196.22 103.387L200.071 106.546L204.168 108.406L205.839 109.162L206.546 104.039L204.938 103.15L203.063 102.123C203.063 102.123 198.833 94.45 192.135 97.6742C191.824 97.8218 191.574 98.0735 191.428 98.3858C191.282 98.6982 191.25 99.0517 191.336 99.3856Z" fill="black"/>
<path d="M191.554 98.9497C191.868 100.234 192.926 102.212 196.436 102.951L200.287 106.11L204.386 107.97L206.054 108.726L206.762 103.603L205.153 102.714L203.293 101.696C203.293 101.696 199.06 94.0229 192.363 97.2619C192.055 97.4073 191.806 97.6545 191.659 97.9619C191.512 98.2693 191.475 98.6181 191.554 98.9497Z" fill="#CC818C"/>
<path opacity="0.1" d="M199.103 72.7648C204.271 72.7648 208.46 68.5697 208.46 63.3948C208.46 58.2199 204.271 54.0248 199.103 54.0248C193.935 54.0248 189.745 58.2199 189.745 63.3948C189.745 68.5697 193.935 72.7648 199.103 72.7648Z" fill="black"/>
<path d="M199.103 72.5482C204.271 72.5482 208.46 68.3531 208.46 63.1783C208.46 58.0034 204.271 53.8083 199.103 53.8083C193.935 53.8083 189.745 58.0034 189.745 63.1783C189.745 68.3531 193.935 72.5482 199.103 72.5482Z" fill="#CC818C"/>
<path opacity="0.1" d="M204.9 83.1996L202.085 77.7241C202.085 77.7241 206.203 76.0572 206.502 74.1262C206.801 72.1953 210.448 76.3894 209.66 77.7805C208.872 79.1716 204.9 83.1996 204.9 83.1996Z" fill="black"/>
<path d="M204.9 82.7635L202.085 77.288C202.085 77.288 206.203 75.6211 206.502 73.6901C206.801 71.7592 210.448 75.9563 209.66 77.3444C208.872 78.7326 204.9 82.7635 204.9 82.7635Z" fill="#378742"/>
<path d="M181.868 96.909L197.417 117.841C197.417 117.841 191.685 120.964 183.791 115.373L180.381 111.304L170.647 94.8742L181.868 96.909Z" fill="#F6F8FB"/>
<path d="M178.808 108.29L180.224 108.251C180.224 108.251 188.874 99.8453 190.998 104.099C193.121 108.352 185.609 112.327 185.609 112.327L183.326 113.561L180.349 114.451L178.444 111.891L178.808 108.29Z" fill="#CC818C"/>
<path opacity="0.1" d="M180.897 112.831C181.027 113.315 181.151 113.848 180.932 114.296C180.88 114.416 180.789 114.515 180.674 114.578C180.58 114.614 180.479 114.629 180.378 114.62C179.629 114.556 178.932 114.21 178.426 113.653C177.93 113.097 177.505 112.481 177.161 111.82C176.776 111.146 176.376 110.402 176.513 109.637C176.667 108.803 177.401 108.225 178.121 107.756C179.555 106.807 179.602 107.913 179.916 109.135C180.23 110.357 180.568 111.597 180.897 112.831Z" fill="black"/>
<path d="M180.68 112.831C180.808 113.315 180.935 113.848 180.716 114.296C180.663 114.416 180.573 114.515 180.458 114.578C180.364 114.614 180.263 114.628 180.162 114.62C179.412 114.557 178.714 114.212 178.21 113.653C177.712 113.098 177.286 112.482 176.942 111.82C176.557 111.146 176.157 110.402 176.296 109.637C176.447 108.803 177.185 108.225 177.902 107.756C179.339 106.807 179.383 107.913 179.7 109.135C180.017 110.357 180.349 111.597 180.68 112.831Z" fill="#378742"/>
<path opacity="0.1" d="M184.795 94.3047L185.518 93.0797L184.887 95.3547L184.795 94.3047Z" fill="black"/>
<path opacity="0.1" d="M204.398 107.97L206.066 108.726L206.774 103.603L205.166 102.714C206.276 103.989 205.305 106.347 204.398 107.97Z" fill="black"/>
<path opacity="0.1" d="M211.093 102.023C211.093 102.023 205.708 102.352 203.421 100.881L211.093 102.023Z" fill="black"/>
<g opacity="0.1">
<path opacity="0.1" d="M210.424 105.463C211.148 104.165 212.06 102.981 213.128 101.948C213.385 101.787 213.651 101.643 213.925 101.515L222.32 99.7891L222.806 99.6823C222.806 99.6823 222.88 83.2648 217.077 81.0106C213.822 79.7712 210.77 78.0505 208.024 75.9059L208.661 75.7101C208.661 75.7101 212.142 78.7593 217.948 81.0106C223.754 83.2619 223.677 99.6823 223.677 99.6823H222.806L214.215 101.329C214.215 101.329 213.845 101.687 213.733 101.791C212.655 102.872 211.731 104.095 210.987 105.428C209.85 107.541 209.591 110.018 210.267 112.321H209.378C208.661 109.72 209.402 107.314 210.424 105.463Z" fill="black"/>
<path opacity="0.1" d="M187.497 76.4842C187.636 76.4635 187.769 76.4427 187.914 76.4279C188.503 76.5115 189.097 76.56 189.692 76.5732C188.959 76.5935 188.225 76.5637 187.497 76.4842Z" fill="black"/>
<path opacity="0.1" d="M199.81 78.1779L194.496 75.4847C194.602 75.3981 194.701 75.3039 194.792 75.2029L200.337 78.0118L199.81 78.1779Z" fill="black"/>
</g>
<path d="M220.042 94.8742L223.596 99.2344L224.322 111.075C224.322 111.075 225.264 117.102 218.374 115.649C211.484 114.195 203.51 109.705 203.51 109.705C203.51 109.705 207.361 104.547 205.252 102.586L215.119 105.784C215.119 105.784 216.786 105.419 215.48 103.968C214.174 102.518 213.943 99.8988 213.943 99.8988L220.042 94.8742Z" fill="#378742"/>
<path opacity="0.1" d="M221.647 107.382L223.605 109.634C223.102 109.479 222.651 109.186 222.305 108.788C221.959 108.39 221.731 107.903 221.647 107.382Z" fill="black"/>
<path opacity="0.1" d="M218.309 107.017L221.357 110.939L219.834 111.303L218.309 107.017Z" fill="black"/>
<path opacity="0.1" d="M187.925 58.8774C187.591 58.0558 187.848 57.0978 188.251 56.3236C188.654 55.5495 189.208 54.8168 189.51 53.9833C189.958 52.7435 189.821 51.3405 190.31 50.1274C191.172 47.977 193.622 47.0159 195.817 46.2714C196.465 46.0549 197.156 45.8384 197.819 45.9986C198.708 46.2091 199.285 47.0159 200.011 47.5587C202.991 49.7833 207.837 47.3333 210.719 49.6884C211.821 50.5782 212.357 52.0346 212.523 53.4494C212.689 54.8643 212.523 56.2999 212.506 57.7266C212.458 60.2241 212.926 62.9558 214.792 64.6109C215.355 65.1092 216.019 65.483 216.57 65.9991C217.121 66.5152 217.553 67.236 217.458 67.9834C217.385 68.3267 217.286 68.6638 217.162 68.9919C216.792 70.294 217.346 71.6614 218.021 72.8478C220.035 76.339 223.587 79.2161 227.613 79.2962C227.343 81.331 225.243 82.5115 223.362 83.3449C220.992 84.4098 218.468 85.4538 215.859 85.3204C213.249 85.1869 210.527 83.514 210.071 80.9394C209.914 80.0496 209.934 78.9788 209.182 78.5161C208.72 78.2343 208.122 78.3055 207.624 78.0949C206.904 77.7983 206.549 76.9886 206.312 76.2441C205.826 74.7079 205.566 73.1093 205.539 71.4983C205.506 69.5881 205.758 67.5029 204.677 65.9309C203.675 64.4745 201.898 63.7359 200.743 62.3982C199.676 61.1584 198.518 59.6635 196.771 59.4321C194.353 59.091 189.353 62.3804 187.925 58.8774Z" fill="black"/>
<path d="M187.925 58.4414C187.591 57.6198 187.848 56.6617 188.251 55.8876C188.654 55.1134 189.208 54.3808 189.51 53.5473C189.958 52.3075 189.821 50.9045 190.31 49.6914C191.172 47.538 193.622 46.5769 195.817 45.8354C196.465 45.6189 197.156 45.4023 197.819 45.5625C198.708 45.7731 199.285 46.5799 200.011 47.1227C202.991 49.3473 207.837 46.8973 210.719 49.2524C211.821 50.1422 212.357 51.5986 212.523 53.0164C212.689 54.4342 212.523 55.8638 212.506 57.2905C212.458 59.788 212.926 62.5198 214.792 64.1749C215.355 64.6732 216.019 65.0469 216.57 65.563C217.121 66.0791 217.553 66.7999 217.458 67.5474C217.385 67.8906 217.286 68.2277 217.162 68.5558C216.792 69.858 217.346 71.2253 218.021 72.4118C220.041 75.891 223.578 78.7771 227.604 78.8572C227.334 80.8919 225.234 82.0724 223.353 82.9089C220.983 83.9707 218.46 85.0148 215.85 84.8813C213.24 84.7479 210.518 83.075 210.062 80.5004C209.905 79.6106 209.926 78.5398 209.173 78.0771C208.711 77.7953 208.113 77.8665 207.615 77.6559C206.895 77.3593 206.54 76.5495 206.303 75.805C205.817 74.2689 205.557 72.6703 205.53 71.0592C205.497 69.1491 205.749 67.0639 204.668 65.4918C203.666 64.0355 201.889 63.2969 200.734 61.9592C199.668 60.7194 198.509 59.2244 196.762 58.9931C194.353 58.655 189.353 61.9503 187.925 58.4414Z" fill="#585268"/>
<path opacity="0.1" d="M194.567 82.5203L199.931 78.1601C199.931 78.1601 196.258 76.1669 195.82 74.4673C195.381 72.7677 192.443 75.2741 192.742 76.7987C193.041 78.3232 194.567 82.5203 194.567 82.5203Z" fill="black"/>
<path d="M194.778 81.8648L200.142 77.5076C200.142 77.5076 196.469 75.5144 196.049 73.8148C195.628 72.1152 192.672 74.6216 192.971 76.1461C193.27 77.6707 194.778 81.8648 194.778 81.8648Z" fill="#378742"/>
<path opacity="0.1" d="M200.352 81.583C200.588 81.583 200.779 81.3918 200.779 81.1559C200.779 80.92 200.588 80.7288 200.352 80.7288C200.117 80.7288 199.926 80.92 199.926 81.1559C199.926 81.3918 200.117 81.583 200.352 81.583Z" fill="black"/>
<path opacity="0.1" d="M200.352 83.9559C200.588 83.9559 200.779 83.7647 200.779 83.5288C200.779 83.2929 200.588 83.1017 200.352 83.1017C200.117 83.1017 199.926 83.2929 199.926 83.5288C199.926 83.7647 200.117 83.9559 200.352 83.9559Z" fill="black"/>
<path opacity="0.1" d="M200.352 86.3258C200.588 86.3258 200.779 86.1346 200.779 85.8987C200.779 85.6628 200.588 85.4716 200.352 85.4716C200.117 85.4716 199.926 85.6628 199.926 85.8987C199.926 86.1346 200.117 86.3258 200.352 86.3258Z" fill="black"/>
<g opacity="0.1">
<path opacity="0.1" d="M190.091 52.3845C190.515 51.2188 190.423 49.9108 190.82 48.7362C190.636 48.9959 190.484 49.2767 190.367 49.5727C189.875 50.7977 190.014 52.2006 189.564 53.4286L189.534 53.4998C189.754 53.146 189.94 52.7726 190.091 52.3845Z" fill="black"/>
<path opacity="0.1" d="M223.934 81.7461C221.564 82.808 219.041 83.8521 216.431 83.7186C213.821 83.5851 211.099 81.9122 210.643 79.3406C210.486 78.4508 210.507 77.377 209.754 76.9143C209.292 76.6325 208.694 76.7037 208.196 76.4931C207.476 76.1965 207.121 75.3868 206.884 74.6423C206.398 73.1062 206.138 71.5076 206.111 69.8965C206.078 67.9893 206.333 65.9041 205.252 64.3291C204.248 62.8727 202.47 62.1371 201.315 60.7965C200.249 59.5596 199.09 58.0617 197.343 57.8303C194.946 57.5041 189.937 60.7964 188.521 57.2905C188.294 56.628 188.327 55.9038 188.613 55.2646C188.51 55.4396 188.409 55.6146 188.317 55.7926C187.914 56.5816 187.659 57.5278 187.994 58.3494C189.419 61.8494 194.419 58.56 196.815 58.8892C198.563 59.1265 199.721 60.6244 200.788 61.8554C201.943 63.196 203.72 63.9316 204.721 65.391C205.806 66.963 205.551 69.0482 205.583 70.9554C205.61 72.5665 205.871 74.1651 206.357 75.7012C206.594 76.4486 206.949 77.2495 207.669 77.552C208.166 77.7626 208.765 77.6944 209.227 77.9732C209.991 78.4359 209.97 79.5186 210.116 80.3995C210.578 82.9711 213.297 84.644 215.904 84.7775C218.51 84.911 221.022 83.8699 223.407 82.805C225.125 82.0398 227.038 80.9809 227.554 79.2457C226.73 80.3728 225.273 81.1499 223.934 81.7461Z" fill="black"/>
</g>
<path d="M276.284 98.4869C270.013 94.8742 267.644 93.9843 267.632 93.9843L267.501 93.8924C266.818 93.3668 266.276 92.6799 265.923 91.8932C265.915 91.75 265.915 91.6064 265.923 91.4631C265.921 91.4769 265.921 91.4909 265.923 91.5047C266.02 89.5915 267.38 87.8504 268.669 86.3318L271.965 82.4491C272.34 82.0649 272.63 81.6061 272.816 81.1025C272.882 80.8319 272.912 80.5535 272.904 80.2749C272.904 80.1622 272.904 80.0495 272.904 79.9368C272.887 78.9728 272.86 78.0059 272.824 77.0419C272.795 76.1995 272.579 75.1376 271.737 74.9656C271.299 74.8766 270.718 75.0338 270.487 74.669C270.409 74.5141 270.389 74.3361 270.431 74.1677C270.429 74.1815 270.429 74.1954 270.431 74.2092V74.1618C270.594 73.511 270.698 72.8469 270.742 72.1774C270.76 71.8367 270.714 71.4955 270.606 71.1719C270.12 69.7749 268.44 69.1995 266.956 68.9355C265.472 68.6715 263.808 68.4461 262.877 67.2833C262.628 66.8954 262.357 66.5221 262.066 66.1651C261.637 65.7834 261.113 65.5242 260.549 65.4147C258.707 64.9603 256.767 65.1293 255.031 65.8952C254.314 66.2155 253.594 66.6486 252.806 66.6011C252.018 66.5537 251.29 65.9842 250.484 65.8478C249.18 65.6253 247.933 66.5833 247.291 67.7194C246.91 68.393 246.706 69.1522 246.698 69.9262V70.0567C246.679 70.8894 246.983 71.6971 247.545 72.3109C248.108 72.9041 248.943 73.2957 249.177 74.0639C249.272 74.3753 249.249 74.7135 249.334 75.0308C249.344 75.0702 249.355 75.1088 249.37 75.1465L249.329 75.2029C247.984 76.9256 247.254 79.0495 247.255 81.236C247.27 83.3597 247.958 85.4238 249.221 87.1299C250.484 88.8361 252.256 90.096 254.281 90.7275C254.281 90.8254 254.281 90.9233 254.281 91.0241C254.281 92.2106 253.941 93.4475 252.919 94.3462L244.035 97.8996C244.035 97.8996 238.68 97.2619 236.748 105.098C236.44 106.399 236.328 107.739 236.416 109.073C236.488 110.259 236.325 112.336 234.935 115.026C232.74 119.333 233.241 129.219 237.732 130.198C241.971 131.123 243.629 130.737 243.804 130.693V130.865C243.733 132.722 243.061 148.721 240.617 150.655C239.941 151.192 240.066 151.545 240.617 151.797C240.617 151.797 240.617 151.901 240.602 152.094C240.528 153.28 240.152 157.729 238.528 160.256C236.63 163.193 236.828 180.129 236.828 180.129L235.534 190.113C235.534 190.113 236.331 196.28 235.534 197.356C234.82 198.315 233.872 221.127 233.674 226.074H233.591C233.198 226.1 232.818 226.221 232.483 226.428C232.149 226.635 231.87 226.921 231.671 227.261C230.622 228.966 226.949 232.119 226.949 232.119C226.153 233.252 223.205 234.338 221.647 234.848C221.442 234.915 221.243 235.003 221.055 235.109C220.471 235.427 220.003 235.921 219.716 236.521C219.613 236.699 219.547 236.896 219.523 237.1C219.499 237.304 219.516 237.51 219.574 237.708C219.971 238.683 228.256 239.371 230.353 238.39C232 237.621 238.528 236.61 241.239 236.213C241.731 236.151 242.189 235.926 242.539 235.575C242.89 235.224 243.114 234.766 243.176 234.273C243.202 234.103 243.193 233.929 243.151 233.762C243.108 233.596 243.032 233.439 242.927 233.303C242.409 232.659 242.145 230.9 242.039 229.743C242.259 229.654 242.464 229.532 242.649 229.382C242.422 225.826 242.926 222.261 244.13 218.908C246.126 213.623 246.725 203.834 246.227 197.472C246.227 197.472 252.314 171.24 257.107 168.793C257.181 168.888 259.507 171.875 259.803 181.126C260.099 190.523 263.494 196.689 263.494 196.689C263.494 196.689 261.995 212.644 263.494 218.615L261.536 228.032C261.39 227.91 261.299 227.816 261.299 227.816C261.299 227.816 261.358 228.077 261.438 228.495L261.396 228.696L261.482 228.714C261.704 229.901 262.033 231.944 261.897 233.163C261.82 233.849 261.627 234.789 261.497 235.711C261.29 237.162 261.233 238.568 261.995 238.876C263.245 239.38 270.585 240.063 271.829 238.449C272.109 238.12 272.291 237.719 272.355 237.292C272.419 236.865 272.362 236.428 272.191 236.032C272.101 235.809 271.979 235.602 271.829 235.415C271.829 235.415 269.88 232.226 270.431 229.978C270.482 229.758 270.487 229.53 270.447 229.308C270.407 229.087 270.322 228.875 270.197 228.688C270.283 227.584 270.727 222.477 271.877 218.14C273.127 213.43 275.76 203.102 273.823 196.312C273.75 196.045 273.667 195.784 273.574 195.529C272.456 191.822 272.082 187.93 272.475 184.077C271.756 180.788 271.756 177.382 272.475 174.093C273.675 168.612 274.513 163.228 274.513 163.228C274.513 163.228 275.173 155.985 274.596 151.545C274.596 151.45 274.569 151.355 274.557 151.248L274.871 151.177C274.871 151.177 273.174 143.64 272.576 138.844C272.433 137.711 272.25 136.278 272.048 134.748C272.6 134.656 273.144 134.52 273.675 134.341C279.063 132.482 280.76 115.655 280.76 115.655V110.316C280.76 110.316 282.573 102.109 276.284 98.4869ZM236.129 228.474C235.963 228.391 235.866 228.335 235.866 228.335L236.129 228.474Z" fill="url(#paint2_linear)"/>
<path d="M273.032 195.636C275.37 202.366 272.641 213.29 271.374 218.179C270.106 223.067 269.718 228.91 269.718 228.91C264.75 229.69 261.145 228.714 261.145 228.714L263.192 218.668C261.729 212.718 263.192 196.817 263.192 196.817C263.192 196.817 259.88 190.671 259.587 181.307C259.291 172.091 257.031 169.11 256.96 169.018C252.285 171.456 246.343 197.6 246.343 197.6C246.829 203.938 246.243 213.694 244.296 218.956C243.114 222.3 242.618 225.849 242.836 229.391C242.155 229.984 241.207 230.067 240.17 229.901C237.389 229.45 234.053 227.05 234.053 227.05C234.053 227.05 235.123 198.576 235.905 197.496C236.687 196.416 235.905 190.276 235.905 190.276L237.169 180.328C237.169 180.328 236.974 163.451 238.825 160.526C240.425 157.999 240.792 153.556 240.863 152.39C240.863 152.206 240.863 152.094 240.863 152.094L243.683 148.712C243.683 148.712 270.959 146.663 273.009 148.712C273.509 149.213 273.82 150.358 274.004 151.797C274.567 156.222 273.921 163.439 273.921 163.439C273.921 163.439 273.104 168.805 271.933 174.265C271.232 177.545 271.232 180.937 271.933 184.217C271.557 188.058 271.931 191.937 273.032 195.636Z" fill="#65617D"/>
<path d="M271.326 238.408C270.108 240.018 262.949 239.336 261.728 238.835C260.985 238.538 261.041 237.123 261.242 235.679C261.37 234.762 261.556 233.825 261.633 233.143C261.826 231.387 261.041 227.824 261.041 227.824C261.041 227.824 262.647 229.533 263.035 227.824C263.206 227.077 263.805 226.694 264.427 226.502C265.262 226.249 266.159 226.304 266.956 226.659C268.221 227.21 270.33 228.382 269.954 229.966C269.418 232.205 271.317 235.385 271.317 235.385C271.464 235.571 271.584 235.776 271.672 235.996C271.841 236.391 271.898 236.825 271.837 237.251C271.776 237.676 271.599 238.076 271.326 238.408Z" fill="#A27772"/>
<path opacity="0.1" d="M271.326 238.408C270.108 240.018 262.949 239.336 261.728 238.835C260.985 238.538 261.041 237.123 261.243 235.679C262.013 236.041 263.316 236.34 265.499 236.138C266.008 236.09 266.52 236.074 267.031 236.091C268.581 236.161 270.135 236.129 271.681 235.996C271.849 236.392 271.905 236.826 271.842 237.252C271.779 237.677 271.601 238.077 271.326 238.408Z" fill="black"/>
<path opacity="0.1" d="M246.34 197.588C246.825 203.926 246.239 213.682 244.293 218.944C243.111 222.289 242.614 225.837 242.832 229.379C242.151 229.972 241.203 230.055 240.167 229.889C240.759 225.775 243.259 208.049 244.862 194.043C246.689 178.095 255.229 167.123 255.229 167.123L256.932 169C252.282 171.445 246.34 197.588 246.34 197.588Z" fill="black"/>
<path d="M268.402 95.067L267.217 100.919L261.39 110.722L254.207 107.649C254.207 107.649 244.432 97.4072 250.578 95.9449C251.313 95.7866 252.007 95.4776 252.616 95.0373C253.822 94.1267 254.201 92.8038 254.207 91.5076C254.161 90.0573 253.825 88.631 253.218 87.3135L265.783 83.3627C265.27 85.0161 264.971 86.7287 264.894 88.4585C264.797 91.8873 266.079 93.575 267.113 94.3907C267.495 94.6977 267.932 94.9274 268.402 95.067Z" fill="#FBBEBE"/>
<path opacity="0.1" d="M265.772 83.3627C265.259 85.0161 264.96 86.7287 264.883 88.4585C264.654 88.7319 264.41 88.9924 264.152 89.2385C262.854 90.4792 261.246 91.3453 259.497 91.7447C257.747 92.1442 255.923 92.0623 254.217 91.5076C254.168 90.0567 253.829 88.6304 253.218 87.3135L265.772 83.3627Z" fill="black"/>
<path d="M267.214 81.7521C267.215 83.7204 266.632 85.6447 265.541 87.2816C264.449 88.9185 262.897 90.1944 261.081 90.9481C259.265 91.7017 257.267 91.8992 255.339 91.5156C253.411 91.1319 251.64 90.1844 250.25 88.7928C248.86 87.4012 247.913 85.628 247.529 83.6976C247.145 81.7671 247.342 79.7661 248.094 77.9476C248.846 76.129 250.12 74.5747 251.754 73.4811C253.389 72.3875 255.31 71.8038 257.276 71.8038C258.583 71.7975 259.877 72.0505 261.086 72.5482C262.294 73.0459 263.392 73.7784 264.316 74.7034C265.24 75.6284 265.972 76.7276 266.469 77.9374C266.967 79.1472 267.22 80.4438 267.214 81.7521Z" fill="#FBBEBE"/>
<path opacity="0.1" d="M268.402 95.067L267.217 100.919L261.39 110.722L254.207 107.649C254.207 107.649 244.432 97.4073 250.578 95.945C251.313 95.7867 252.007 95.4776 252.616 95.0373C251.508 98.0865 256.082 104.431 256.082 104.431C256.615 105.217 257.836 104.728 257.836 104.728C260.783 104.28 266.207 95.7937 267.092 94.3818C267.479 94.6944 267.924 94.9272 268.402 95.067Z" fill="black"/>
<path opacity="0.1" d="M274.027 151.803C272.297 152.197 262.726 154.318 259.098 153.787C255.105 153.194 247.341 152.814 247.341 152.814C247.341 152.814 242.397 153.081 240.875 152.384C240.875 152.2 240.875 152.088 240.875 152.088L243.694 148.706C243.694 148.706 270.97 146.657 273.02 148.706C273.532 149.219 273.843 150.364 274.027 151.803Z" fill="black"/>
<path d="M256.079 104.725C256.079 104.725 250.94 97.606 252.877 94.8178L244.195 98.3772C244.195 98.3772 238.97 97.7424 237.086 105.552C236.785 106.85 236.676 108.185 236.763 109.515C236.834 110.701 236.674 112.778 235.332 115.447C233.19 119.739 233.676 129.593 238.06 130.574C242.444 131.556 243.999 131.061 243.999 131.061C243.999 131.061 243.407 148.911 240.883 150.961C238.359 153.01 247.341 152.521 247.341 152.521C247.341 152.521 255.105 152.912 259.1 153.497C263.096 154.081 274.296 151.447 274.296 151.447C274.296 151.447 272.641 143.937 272.054 139.158C271.468 134.38 270.102 124.2 270.102 124.2L280.037 110.722C280.037 110.722 281.791 102.577 275.653 98.9674C269.515 95.3577 267.208 94.4738 267.208 94.4738C267.208 94.4738 261.041 104.529 257.827 105.015C257.833 105.015 256.612 105.508 256.079 104.725Z" fill="#378742"/>
<path opacity="0.1" d="M244.681 107.551C244.681 107.551 244.586 110.773 245.17 112.039C245.754 113.306 247.898 120.344 247.898 120.344H243.025C243.025 120.344 245.656 117.515 245.463 116.147C245.271 114.78 244.681 107.551 244.681 107.551Z" fill="black"/>
<path d="M259.101 131.841C259.101 131.841 248.342 129.207 247.341 126.965C246.34 124.722 243.576 119.701 243.576 119.701L244.711 118.17L249.942 122.281C249.942 122.281 256.162 127.255 259.101 127.745C262.039 128.234 259.101 131.841 259.101 131.841Z" fill="#FBBEBE"/>
<path opacity="0.05" d="M259.101 131.841C259.101 131.841 248.342 129.207 247.341 126.965C246.34 124.722 243.576 119.701 243.576 119.701L244.711 118.17L249.942 122.281C249.942 122.281 256.162 127.255 259.101 127.745C262.039 128.234 259.101 131.841 259.101 131.841Z" fill="black"/>
<path d="M268.402 119.161V125.004H267.466C262.831 125.003 258.272 126.185 254.219 128.439L252.46 129.415L251.989 129.679L248.967 122.857L251.793 120.321H251.938C252.629 120.389 255.617 120.638 256.885 120.211C258.088 119.802 259.581 118.505 263.123 119.41C264.868 119.858 266.361 121.815 268.053 121.204L268.402 119.161Z" fill="#FBBEBE"/>
<path opacity="0.1" d="M277.804 108.518L279.75 110.713V116.031C279.75 116.031 278.094 132.808 272.836 134.662C267.578 136.515 258.185 133.588 258.185 133.588C258.185 133.588 255.759 127.151 256.894 126.766C258.028 126.38 266.921 124.025 266.921 124.025C266.921 124.025 266.796 114.184 268.743 111.256C268.743 111.256 267.478 102.088 271.862 101.892C276.246 101.696 277.804 108.518 277.804 108.518Z" fill="black"/>
<path d="M278.1 108.518L280.049 110.713V116.031C280.049 116.031 278.393 132.808 273.133 134.662C267.872 136.515 258.482 133.588 258.482 133.588C258.482 133.588 256.056 127.151 257.193 126.766C258.331 126.38 267.22 124.025 267.22 124.025C267.22 124.025 267.093 114.184 269.042 111.256C269.042 111.256 267.774 102.088 272.158 101.892C276.542 101.696 278.1 108.518 278.1 108.518Z" fill="#378742"/>
<path opacity="0.1" d="M264.489 85.9758C264.573 85.3334 264.497 84.6802 264.267 84.0745C263.992 83.4813 263.349 83.0334 262.721 83.1847C261.889 83.3804 261.536 84.4661 260.713 84.7271C260.023 84.9466 259.27 84.4571 258.935 83.8135C258.601 83.1699 258.598 82.4135 258.598 81.6898C258.598 80.877 258.598 80.0614 258.598 79.2457C258.598 78.3558 258.568 77.4008 258.023 76.7037C257.345 75.8376 255.748 75.458 254.682 75.4935C253.972 75.5015 253.292 75.7757 252.774 76.2618C252.205 76.7482 251.545 77.1041 250.769 76.9766C250.445 76.9282 250.142 76.7888 249.894 76.5745C249.647 76.3603 249.465 76.08 249.371 75.7664V75.7368C250.197 74.6365 251.243 73.7199 252.441 73.0452C253.64 72.3704 254.965 71.952 256.333 71.8166C257.702 71.6812 259.083 71.8316 260.39 72.2584C261.697 72.6852 262.902 73.379 263.928 74.296C264.953 75.213 265.778 76.3332 266.349 77.5857C266.919 78.8381 267.225 80.1957 267.245 81.5723C267.265 82.9489 266.999 84.3147 266.464 85.5833C265.93 86.8518 265.139 87.9955 264.14 88.9419C264.311 87.9605 264.428 86.9702 264.489 85.9758Z" fill="black"/>
<path d="M250.769 76.689C250.445 76.6392 250.142 76.4989 249.894 76.2843C249.646 76.0698 249.464 75.7895 249.368 75.4758C249.288 75.1614 249.308 74.8262 249.217 74.5148C248.989 73.7466 248.171 73.3491 247.623 72.7648C246.527 71.5991 246.598 69.683 247.374 68.28C248.002 67.1499 249.217 66.2037 250.49 66.4173C251.278 66.5537 251.971 67.1143 252.759 67.1677C253.547 67.2211 254.24 66.7851 254.931 66.4648C256.623 65.6954 258.526 65.5259 260.328 65.9842C260.88 66.0954 261.392 66.3548 261.809 66.7347C262.092 67.0913 262.356 67.4626 262.6 67.847C263.506 69.0038 265.132 69.2321 266.581 69.4932C268.029 69.7542 269.667 70.3296 270.135 71.7237C270.452 72.6491 270.135 73.6517 269.964 74.6127C269.907 74.8088 269.92 75.0188 270.002 75.2059C270.23 75.5796 270.796 75.4224 271.223 75.5025C272.043 75.6775 272.253 76.7364 272.286 77.5788C272.32 78.5398 272.345 79.5018 272.363 80.4648C272.387 80.8231 272.358 81.1828 272.277 81.5326C272.099 82.0339 271.818 82.4918 271.451 82.8763L268.234 86.7471C266.806 88.4615 265.292 90.4607 265.568 92.6793C264.892 92.9759 264.087 92.3975 263.867 91.6886C263.648 90.9797 263.823 90.2056 263.974 89.4907C264.236 88.2342 264.409 86.9604 264.49 85.6793C264.573 85.0378 264.497 84.3856 264.267 83.781C263.992 83.1877 263.349 82.7398 262.721 82.8911C261.886 83.0869 261.536 84.1725 260.713 84.4335C260.023 84.653 259.27 84.1636 258.935 83.5199C258.601 82.8763 258.598 82.1229 258.598 81.3992V78.9521C258.598 78.0623 258.568 77.1072 258.023 76.4102C257.345 75.544 255.748 75.1644 254.682 75.2C253.973 75.2087 253.294 75.4828 252.777 75.9682C252.205 76.4576 251.545 76.8165 250.769 76.689Z" fill="#7C5C5C"/>
<path opacity="0.1" d="M253.011 107.308L256.062 119.858C256.062 119.858 258.467 119.843 253.011 107.308Z" fill="black"/>
<path opacity="0.1" d="M263.434 105.211C263.434 105.211 259.441 111.76 260.999 118.535L261.743 118.588C261.743 118.588 260.416 115.453 263.434 105.211Z" fill="black"/>
<path opacity="0.1" d="M265.956 142.279C265.956 142.279 270.861 140.653 271.216 144.423C271.228 144.423 270.304 141.84 265.956 142.279Z" fill="black"/>
<path opacity="0.1" d="M251.794 120.623C251.794 120.623 250.819 127.445 252.573 130.183C252.573 130.183 249.018 131.645 244 131.355L243.408 120.623H251.794Z" fill="black"/>
<path opacity="0.1" d="M252.46 129.415L251.989 129.679L248.967 122.857L251.793 120.32H251.938C251.894 120.659 251.106 126.523 252.46 129.415Z" fill="black"/>
<path d="M251.793 120.332C251.793 120.332 250.819 127.154 252.572 129.889C252.572 129.889 249.018 131.354 244 131.061L240.59 120.332H251.793Z" fill="#378742"/>
<path d="M243.369 234.255C243.312 234.742 243.095 235.196 242.753 235.546C242.41 235.896 241.961 236.122 241.476 236.189C238.831 236.583 232.459 237.592 230.85 238.36C228.804 239.336 220.72 238.657 220.329 237.678C220.272 237.481 220.256 237.274 220.28 237.071C220.304 236.867 220.368 236.67 220.468 236.491C220.745 235.897 221.202 235.405 221.774 235.085C221.963 234.98 222.162 234.893 222.367 234.824C223.889 234.317 226.766 233.238 227.542 232.104C227.542 232.104 231.129 228.963 232.151 227.267C232.343 226.933 232.614 226.651 232.941 226.448C233.267 226.244 233.639 226.124 234.023 226.098C234.876 226.06 235.827 226.49 236.218 228.361C236.218 228.361 240.889 231.031 242.142 228.69C242.142 228.69 242.338 232.285 243.114 233.27C243.22 233.409 243.297 233.568 243.341 233.737C243.385 233.906 243.394 234.082 243.369 234.255Z" fill="#A27772"/>
<path opacity="0.1" d="M243.369 234.255C243.312 234.742 243.095 235.196 242.753 235.546C242.41 235.896 241.961 236.122 241.476 236.189C238.831 236.583 232.459 237.592 230.85 238.36C228.804 239.336 220.72 238.657 220.329 237.678C220.272 237.481 220.256 237.274 220.28 237.071C220.304 236.867 220.368 236.67 220.468 236.491C220.745 235.897 221.202 235.405 221.774 235.086C223.093 235.975 226.019 236.818 232.456 235.812C238.597 234.851 241.639 233.911 243.12 233.27C243.225 233.409 243.301 233.568 243.344 233.737C243.387 233.907 243.395 234.083 243.369 234.255Z" fill="black"/>
<g opacity="0.1">
<path opacity="0.1" d="M269.949 74.7491V74.7016C270.088 73.972 270.298 73.2186 270.245 72.486C270.183 73.0847 270.084 73.6791 269.949 74.2656C269.912 74.4247 269.912 74.59 269.949 74.7491Z" fill="black"/>
<path opacity="0.1" d="M264.264 83.8788C264.419 84.2303 264.501 84.6098 264.504 84.994C264.548 84.4642 264.466 83.9316 264.264 83.4398C263.992 82.8466 263.349 82.3987 262.721 82.5499C261.886 82.7457 261.536 83.8313 260.71 84.0923C260.023 84.3118 259.27 83.8224 258.932 83.1788C258.595 82.5351 258.595 81.7787 258.595 81.055C258.595 80.2393 258.595 79.4266 258.595 78.6109C258.595 77.7211 258.565 76.766 258.02 76.069C257.339 75.1999 255.745 74.8232 254.679 74.8558C253.969 74.8649 253.288 75.1401 252.771 75.627C252.199 76.1135 251.542 76.4694 250.763 76.3418C250.44 76.2925 250.137 76.1527 249.89 75.9386C249.642 75.7245 249.46 75.4448 249.365 75.1317C249.285 74.8173 249.305 74.4791 249.214 74.1677C248.985 73.4024 248.168 73.002 247.62 72.4206C247.106 71.8499 246.815 71.1128 246.799 70.3444C246.759 70.7951 246.811 71.2494 246.952 71.6793C247.093 72.1093 247.32 72.5059 247.62 72.8448C248.168 73.438 248.985 73.8266 249.214 74.5918C249.305 74.8885 249.285 75.2414 249.365 75.5558C249.46 75.8689 249.642 76.1486 249.89 76.3627C250.137 76.5768 250.44 76.7166 250.763 76.766C251.542 76.8936 252.199 76.5376 252.771 76.0512C253.288 75.5642 253.969 75.2891 254.679 75.28C255.745 75.2474 257.345 75.6241 258.02 76.4931C258.565 77.1902 258.592 78.1482 258.595 79.0351C258.595 79.8508 258.595 80.6635 258.595 81.4792C258.595 82.2029 258.595 82.9622 258.932 83.5999C259.27 84.2377 260.014 84.736 260.71 84.5165C261.527 84.2555 261.895 83.1699 262.721 82.9741C263.349 82.8377 263.992 83.3063 264.264 83.8788Z" fill="black"/>
<path opacity="0.1" d="M272.271 81.1945C272.093 81.6952 271.81 82.1522 271.442 82.5351L268.225 86.4059C266.871 88.0343 265.44 89.9208 265.559 92C265.656 90.0928 266.983 88.3576 268.225 86.8449L271.442 82.9741C271.81 82.5912 272.093 82.1342 272.271 81.6334C272.351 81.2826 272.38 80.9219 272.357 80.5627C272.352 80.7759 272.323 80.9878 272.271 81.1945Z" fill="black"/>
<path opacity="0.1" d="M263.882 91.3474C263.829 91.1778 263.796 91.0026 263.784 90.8254C263.757 91.149 263.79 91.4748 263.882 91.7864C264.101 92.4923 264.904 93.0766 265.582 92.7741C265.563 92.6324 265.551 92.4899 265.546 92.347C264.871 92.6169 264.089 92.0415 263.882 91.3474Z" fill="black"/>
</g>
<path opacity="0.1" d="M231.502 228.16C231.502 228.16 232.521 229.939 236.212 228.373L231.502 228.16Z" fill="black"/>
<path opacity="0.1" d="M262.697 228.593C262.697 228.593 265.879 232.345 269.889 229.824L262.697 228.593Z" fill="black"/>
<path opacity="0.1" d="M271.957 184.223C271.957 184.223 269.709 185.628 269.638 186.432C269.567 187.236 270.799 185.839 270.799 185.839L271.957 184.223Z" fill="black"/>
<path opacity="0.1" d="M272.845 195.007C272.064 195.659 271.092 196.039 270.076 196.09C268.393 196.164 268.536 198.359 269.634 197.701C270.733 197.042 272.845 195.007 272.845 195.007Z" fill="black"/>
<path opacity="0.1" d="M273.271 196.416C273.271 196.416 272.193 201.723 271.316 200.699L273.271 196.416Z" fill="black"/>
<path d="M64.9658 236.186C64.9658 236.186 71.7344 238.046 74.9928 235.572C78.2511 233.098 79.6641 233.893 79.6641 233.893C79.6641 233.893 87.4339 233.463 88.0737 231.624C88.7135 229.785 85.0938 223.105 85.0938 223.105C84.836 222.512 84.4599 221.759 84.291 221.759L84.3266 218.941L85.4522 207.151C88.05 200.48 85.4996 191.86 85.4996 191.86L85.0345 189.722C84.7732 188.52 84.9289 187.264 85.4759 186.162L90.1946 176.671C90.4471 176.043 90.7441 175.435 91.0833 174.85C91.3795 174.307 91.7734 173.636 92.2681 172.833C92.4133 172.601 92.5643 172.361 92.7302 172.109C93.3019 171.219 93.9951 170.211 94.8334 169.048C96.9217 166.15 98.0207 162.522 98.5894 159.853L98.8412 160.689H98.856H98.8975L98.9656 160.704H99.0604H99.0782L99.1996 160.725H99.244L100.695 179.222C100.784 186.435 103.43 190.428 103.43 190.428L103.065 206.353C103.563 210.188 102.473 215.301 101.972 217.342L100.829 219.926C100.379 220.151 99.9899 220.482 99.6962 220.892C99.4026 221.301 99.2128 221.776 99.1433 222.275C98.9182 224.182 96.9128 228.293 96.9128 228.293C96.1367 229.278 94.4512 231.938 94.4512 231.938C94.4512 231.938 93.6574 234.507 94.1491 235.468C94.6408 236.429 98.7523 236.331 98.7523 236.331C103.447 237.372 107.046 234.848 106.818 233.11C106.59 231.372 107.55 230.93 107.55 230.93C109.416 230.337 109.235 229.07 109.235 229.07C109.637 226.458 109.139 223.786 107.822 221.495L107.526 222.18C107.446 220.808 107.637 219.434 108.089 218.137L107.917 218.256L107.864 218.288H107.846C108.142 215.687 110.871 210.873 110.871 210.873C115.883 202.07 114.061 190.14 114.061 190.14L113.285 186.42L113.24 185.017C113.134 181.668 113.387 178.317 113.996 175.022C114.265 173.562 114.544 171.8 114.757 169.858C115.207 165.753 116.659 161.517 117.328 159.722L117.527 159.687H117.55C117.823 159.639 118.098 159.592 118.377 159.539H118.43C118.43 159.539 118.59 158.672 118.726 157.198C118.806 156.258 118.871 155.066 118.871 153.695C118.891 149.558 118.261 145.443 117.002 141.502L117.153 141.285C117.153 141.285 117.512 140.799 118.166 139.956C119.369 138.426 121.241 136.1 123.549 133.478C127.681 128.759 126.466 123.987 126.466 123.987C126.466 123.987 123.475 113.009 122.142 106.418C121.38 102.663 119.953 100.109 118.86 98.6026C119.106 97.5637 119.245 96.5022 119.274 95.4348C119.363 93.4831 119.295 91.4483 118.418 89.6954C117.541 87.9424 115.675 86.5572 113.726 86.7915C113.45 86.8583 113.161 86.8583 112.885 86.7915C112.657 86.6881 112.464 86.52 112.331 86.3081C111.19 84.7331 111.116 82.6153 111.472 80.7051C111.827 78.7949 112.556 76.9678 112.882 75.0517C113.208 73.1355 113.06 71.0088 111.842 69.4902C110.411 67.7105 107.917 67.2092 106.057 65.8715C104.751 64.9313 103.77 63.5817 102.393 62.7482C101.015 61.9147 99.7269 62.2321 98.231 62.5465C95.7161 63.0774 93.3256 63.3207 90.947 64.4033C88.5384 65.4954 86.3782 67.069 84.5991 69.0275C83.9675 69.6588 83.4839 70.4226 83.1832 71.2639C82.5907 73.2245 83.7489 75.3127 83.506 77.3415C83.3342 78.7801 82.487 80.0318 81.8146 81.3161C81.1422 82.6004 80.6298 84.125 81.157 85.4687C81.9864 87.5687 84.6909 88.0136 86.6578 89.1318C86.9206 89.2606 87.1452 89.4559 87.3095 89.6983C87.7953 90.5466 86.8029 91.4276 86.1779 92.181C85.8202 92.6205 85.567 93.1358 85.4374 93.6878C84.6232 94.0224 83.9036 94.5523 83.3422 95.2309C82.7807 95.9096 82.3944 96.716 82.2175 97.5793C81.551 100.566 82.5759 104.336 83.4794 106.828C82.493 112.377 83.7756 114.566 84.7205 115.406C85.6771 116.226 86.2694 117.393 86.3675 118.651V118.754C86.4297 119.763 86.5363 120.768 86.6785 121.771C86.6459 121.537 86.6133 121.287 86.5956 121.178C85.8224 122.61 84.3502 126.271 83.5208 132.428C83.3483 133.748 83.098 135.056 82.7714 136.346C82.1781 138.631 81.9659 140.998 82.1434 143.352L82.2915 145.349C82.1459 145.352 82.0034 145.305 81.8887 145.215L82.9284 147.122V150.341C82.9272 151.792 82.6601 153.23 82.1405 154.585C82.0664 154.781 81.9864 154.977 81.9005 155.178C81.6334 155.72 81.5129 156.322 81.551 156.925C79.3146 160.357 74.187 179.589 74.187 179.589C71.4056 185.895 74.4151 189.971 74.4151 189.971C74.4151 189.971 75.8725 207.527 76.145 208.435C76.4176 209.343 77.0218 220.044 77.0218 220.044C77.0218 220.326 77.0218 220.62 77.0218 220.896C76.8602 220.825 76.6898 220.776 76.5153 220.75C74.0774 220.614 73.4169 224.47 73.4169 224.47L68.4286 229.239C68.4286 229.239 66.1507 228.854 62.8005 231.372C59.4503 233.89 64.9658 236.186 64.9658 236.186ZM114.775 134.718L114.76 134.665L114.624 134.745L114.567 134.777L114.541 134.795L112.242 126.671C111.627 124.493 111.569 122.195 112.073 119.988L113.85 112.193V110.319L119.499 125.393C119.861 127.424 116.505 132.345 114.775 134.718Z" fill="url(#paint3_linear)"/>
<path d="M117.254 159.239C117.254 159.239 114.974 164.794 114.393 170.125C114.183 172.047 113.91 173.785 113.644 175.226C113.052 178.48 112.808 181.789 112.915 185.095L112.959 186.48L113.7 190.149C113.7 190.149 115.477 201.933 110.569 210.615C110.569 210.615 107.66 215.815 107.571 218.276L105.601 219.039L101.62 217.921C101.62 217.921 103.543 211.018 102.918 206.181L103.276 190.46C103.276 190.46 100.69 186.527 100.601 179.408L99.0815 159.874L117.254 159.239Z" fill="#FDC2CC"/>
<path d="M99.0819 156.457C99.0819 156.457 98.5932 164.074 94.8312 169.324C91.0693 174.574 90.2695 176.852 90.2695 176.852L85.6367 186.231C85.1002 187.317 84.9467 188.554 85.2012 189.739L85.6574 191.851C85.6574 191.851 88.1634 200.364 85.613 206.952L84.4044 219.676H77.3367C77.3367 219.676 76.7442 209.102 76.4865 208.207C76.2288 207.311 74.7862 189.971 74.7862 189.971C74.7862 189.971 71.8241 185.937 74.5611 179.711C74.5611 179.711 80.7372 156.412 82.3901 156.816C84.043 157.219 99.0819 156.457 99.0819 156.457Z" fill="#FDC2CC"/>
<g opacity="0.1">
<path opacity="0.1" d="M84.9405 191.866L84.4873 189.754C84.2258 188.565 84.3784 187.321 84.9198 186.231L89.5526 176.843C89.5526 176.843 90.3553 174.559 94.1143 169.315C97.7252 164.272 98.3206 157.047 98.3621 156.492L99.0819 156.457C99.0819 156.457 98.5931 164.074 94.8312 169.324C91.0692 174.574 90.2694 176.852 90.2694 176.852L85.6366 186.231C85.1002 187.317 84.9467 188.554 85.2012 189.739L85.6573 191.851C85.6573 191.851 88.1633 200.364 85.6129 206.952L84.4043 219.676H83.6875L84.8961 206.952C87.4465 200.364 84.9405 191.866 84.9405 191.866Z" fill="black"/>
</g>
<path opacity="0.1" d="M106.867 218.285C106.955 215.823 109.864 210.624 109.864 210.624C114.787 201.933 112.995 190.158 112.995 190.158L112.237 186.486L112.193 185.1C112.085 181.794 112.329 178.486 112.921 175.232C113.185 173.791 113.457 172.053 113.668 170.13C114.228 164.999 116.363 159.66 116.52 159.269L117.255 159.239C117.255 159.239 114.974 164.794 114.393 170.125C114.183 172.047 113.911 173.785 113.644 175.226C113.052 178.48 112.808 181.789 112.915 185.095L112.96 186.48L113.7 190.149C113.7 190.149 115.478 201.933 110.569 210.615C110.569 210.615 107.66 215.815 107.572 218.276L105.602 219.039L105.187 218.923L106.867 218.285Z" fill="black"/>
<path d="M104.585 218.196C105.119 218.408 105.697 218.482 106.266 218.411C106.835 218.341 107.378 218.128 107.844 217.793C107.192 219.698 107.099 221.751 107.577 223.707C108.383 226.935 100.059 221.109 100.059 221.109L101.836 217.043C101.836 217.043 102.527 218.33 104.585 218.196Z" fill="#D39999"/>
<path opacity="0.1" d="M105.205 218.377C105.663 218.47 106.135 218.465 106.59 218.363C107.046 218.261 107.475 218.063 107.85 217.784C107.198 219.69 107.106 221.742 107.583 223.699C108.389 226.926 100.065 221.1 100.065 221.1L101.843 217.034C101.843 217.034 102.358 218.024 103.872 218.179C104.331 218.232 104.769 218.294 105.205 218.377Z" fill="black"/>
<path d="M85.7012 142.818H89.1787V123.061L86.5691 122.593L85.7012 142.818Z" fill="#FDC2CC"/>
<path opacity="0.05" d="M85.7012 142.818H89.1787V123.061L86.5691 122.593L85.7012 142.818Z" fill="black"/>
<path d="M102.616 219.721C102.616 219.721 104.808 219.585 105.791 221.557L107 222.497L107.592 221.109C108.878 223.378 109.36 226.015 108.961 228.593C108.961 228.593 109.138 229.844 107.305 230.429C107.305 230.429 106.366 230.877 106.588 232.579C106.81 234.282 103.279 236.791 98.67 235.759C98.67 235.759 94.6415 235.851 94.1497 234.907C93.658 233.964 94.4637 231.458 94.4637 231.458C94.4637 231.458 96.1196 228.83 96.8779 227.86C96.8779 227.86 98.8477 223.796 99.0728 221.928C99.298 220.059 101.451 218.689 102.616 219.721Z" fill="#7E5659"/>
<path d="M84.4722 221.379L84.5078 218.594C84.5078 218.594 80.5059 219.748 77.2653 218.443C77.2653 218.443 77.5378 221.243 77.0875 221.625C76.6373 222.008 78.5864 225.612 78.5864 225.612L80.7636 227.896L84.5078 226.531L85.5238 223.328C85.5238 223.328 84.7388 221.379 84.4722 221.379Z" fill="#D39999"/>
<path opacity="0.1" d="M84.4722 221.379L84.5078 218.594C84.5078 218.594 80.5059 219.748 77.2653 218.443C77.2653 218.443 77.5378 221.243 77.0875 221.625C76.6373 222.008 78.5864 225.612 78.5864 225.612L80.7636 227.896L84.5078 226.531L85.5238 223.328C85.5238 223.328 84.7388 221.379 84.4722 221.379Z" fill="black"/>
<path d="M76.8411 220.371C76.8411 220.371 78.9679 220.617 78.6984 223.337C78.4288 226.057 78.8109 223.337 78.8109 223.337C78.8109 223.337 81.0711 224.253 81.8768 225.532C82.6825 226.81 84.1369 224.39 84.2465 223.696C84.3561 223.002 85.2626 222.714 85.2626 222.714C85.2626 222.714 88.8172 229.313 88.1892 231.129C87.5612 232.944 79.9306 233.362 79.9306 233.362C79.9306 233.362 78.5414 232.579 75.3423 235.02C72.1431 237.461 65.499 235.613 65.499 235.613C65.499 235.613 60.0841 233.35 63.3751 230.868C66.6661 228.385 68.8995 228.762 68.8995 228.762L73.799 224.034C73.799 224.034 74.4477 220.234 76.8411 220.371Z" fill="#7E5659"/>
<path d="M102.242 64.3499C103.596 65.1715 104.558 66.5063 105.841 67.4347C107.666 68.7546 110.116 69.247 111.52 71.0089C112.704 72.5097 112.858 74.6068 112.539 76.4991C112.219 78.3915 111.502 80.1979 111.155 82.0843C110.809 83.9708 110.88 86.0619 111.999 87.6161C112.129 87.8251 112.318 87.9912 112.542 88.0937C112.813 88.1587 113.096 88.1587 113.368 88.0937C115.282 87.8623 117.118 89.2327 117.977 90.9619C118.836 92.6912 118.904 94.7022 118.815 96.6302C118.741 98.2111 118.564 99.8247 117.87 101.248C116.686 103.669 114.221 105.164 111.789 106.309C110.208 107.053 108.588 107.708 106.934 108.272C105.797 108.658 104.597 109.005 103.415 108.803C101.392 108.453 99.9582 106.611 98.0388 105.89C96.4658 105.297 94.7211 105.511 93.0475 105.659C91.6197 105.784 89.9876 105.781 89.0041 104.737C87.7423 103.396 88.311 101.234 88.9568 99.5073C88.2728 99.4639 87.6142 99.2321 87.0536 98.8374C86.493 98.4426 86.0523 97.9005 85.7801 97.2707C85.5079 96.6409 85.4149 95.9481 85.5113 95.2687C85.6077 94.5893 85.8898 93.9498 86.3263 93.4208C86.9366 92.6763 87.9111 91.8073 87.4342 90.9679C87.274 90.7285 87.0532 90.536 86.7944 90.4102C84.866 89.3068 82.2089 88.8649 81.3973 86.7945C80.876 85.4628 81.3795 83.956 82.0401 82.6894C82.7007 81.4229 83.5212 80.1831 83.7019 78.7653C83.9388 76.7602 82.8132 74.6987 83.3849 72.7648C83.6804 71.9342 84.1547 71.1788 84.7742 70.5521C86.5155 68.622 88.6323 67.0686 90.9947 65.9872C93.3319 64.9165 95.6749 64.6762 98.1454 64.1542C99.6265 63.8398 100.853 63.5076 102.242 64.3499Z" fill="#865A61"/>
<path d="M89.1757 94.2098C89.1757 94.2098 83.5091 93.9132 82.4368 98.751C81.3645 103.589 84.7621 110.518 84.7621 110.518L89.1757 94.2098Z" fill="#FDC2CC"/>
<path opacity="0.05" d="M89.1757 94.2098C89.1757 94.2098 83.5091 93.9132 82.4368 98.751C81.3645 103.589 84.7621 110.518 84.7621 110.518L89.1757 94.2098Z" fill="black"/>
<path d="M85.5596 108.607L87.7071 110.31L97.7282 110.758L103.984 106.457L110.347 95.5238C106.458 94.5302 104.885 91.8399 104.298 89.3246C103.925 87.6224 103.883 85.8641 104.174 84.1458C104.174 84.1458 93.9721 78.8572 95.2251 87.1119C95.3969 88.125 95.4288 89.157 95.3199 90.1789C94.7275 95.0136 90.0413 94.103 90.0413 94.103L88.2433 96.8793L86.1846 103.701L85.5596 108.607Z" fill="#FDC2CC"/>
<path opacity="0.1" d="M95.2341 87.1C95.4059 88.1131 95.4378 89.1451 95.3289 90.167C96.7682 90.8254 98.3549 91.0941 99.9304 90.9463C101.506 90.7985 103.015 90.2393 104.307 89.3246C103.934 87.6223 103.892 85.864 104.183 84.1457C104.183 84.1457 93.9811 78.8572 95.2341 87.1Z" fill="black"/>
<path d="M99.0874 90.6267C104.079 90.6267 108.125 86.5751 108.125 81.5771C108.125 76.5791 104.079 72.5275 99.0874 72.5275C94.0961 72.5275 90.0498 76.5791 90.0498 81.5771C90.0498 86.5751 94.0961 90.6267 99.0874 90.6267Z" fill="#FDC2CC"/>
<path d="M92.6953 106.881C92.9145 106.881 93.1307 106.914 93.3469 106.934C94.5318 107.053 99.4816 107.32 102.302 103.948C105.456 100.175 109.657 95.5149 109.828 95.3251L114.103 96.6183C114.103 96.6183 110.72 95.4141 108.475 101.714C107.982 103.036 107.93 104.481 108.327 105.835C108.724 107.188 109.548 108.376 110.676 109.221C111.506 109.824 112.462 110.229 113.472 110.408C113.473 110.41 113.474 110.413 113.474 110.415C113.474 110.418 113.473 110.42 113.472 110.423V113.187L111.724 120.899C111.228 123.078 111.285 125.347 111.89 127.499L114.556 136.934C114.153 137.213 97.6125 148.478 86.5636 140.698C86.605 140.36 87.9706 129.287 87.0227 123.868C86.7793 122.482 86.6142 121.084 86.528 119.68C86.528 119.644 86.528 119.612 86.528 119.576C86.4303 118.336 85.848 117.185 84.9077 116.373C83.9124 115.483 82.5646 113.11 83.8976 106.84C84.2344 105.287 84.7307 103.773 85.3787 102.322L89.0844 93.937L92.4997 94.0052V94.0289C92.2035 94.3967 88.2431 99.3501 87.8136 102.542C87.393 105.576 86.8746 106.507 92.6953 106.881Z" fill="#378742"/>
<path d="M116.979 98.0925C116.979 98.0925 120.321 100.961 121.633 107.471C122.945 113.982 125.869 124.796 125.869 124.796C125.869 124.796 127.054 129.516 123.004 134.175C118.955 138.835 116.262 142.48 116.262 142.48L113.596 146.413C113.142 147.084 112.46 147.567 111.677 147.772C110.462 148.092 108.596 148.324 106.979 147.437C106.39 147.107 105.944 146.572 105.725 145.933C105.506 145.294 105.531 144.597 105.794 143.975L106.387 142.602C106.387 142.602 100.898 146.066 100.421 144.153C99.9438 142.24 106.804 140.33 106.804 140.33C106.804 140.33 112.471 139.375 113.617 136.688C113.617 136.688 119.701 128.86 119.225 126.173L113.348 110.402C113.348 110.402 105.998 109.429 108.504 101.162C111.01 92.8958 116.979 98.0925 116.979 98.0925Z" fill="#FDC2CC"/>
<path d="M81.839 157.593C81.839 157.593 95.2635 160.28 98.4271 159.921L98.7678 161.057C98.7678 161.057 103.863 162.199 115.383 160.369C116.135 160.25 116.916 160.117 117.726 159.969L117.995 159.921C117.995 159.921 118.152 159.067 118.277 157.61C118.552 154.303 118.65 147.899 116.325 141.344L114.387 135.371C114.387 135.371 102.414 142.557 94.4875 141.896C93.7795 141.837 93.0775 141.78 92.3695 141.757C90.7433 141.694 88.2225 141.757 86.5844 140.443L83.1483 141.036V150.824C83.147 152.256 82.884 153.675 82.3722 155.012C82.2981 155.208 82.2211 155.401 82.1352 155.605C81.8199 156.217 81.7158 156.916 81.839 157.593Z" fill="#65617D"/>
<path opacity="0.1" d="M98.7646 158.011V161.057C98.7646 161.057 104.63 162.371 117.992 159.921C117.992 159.921 118.149 159.067 118.273 157.611C114.174 158.269 102.867 159.853 98.7646 158.011Z" fill="black"/>
<path opacity="0.1" d="M81.8389 157.593C81.8389 157.593 95.2634 160.28 98.427 159.921L98.7677 161.057V158.011C97.2392 158.646 86.3266 156.012 82.3721 155.024C82.298 155.22 82.221 155.413 82.1351 155.617C81.8224 156.225 81.7183 156.92 81.8389 157.593Z" fill="black"/>
<path d="M114.384 154.197L115.379 160.378C116.131 160.259 116.912 160.126 117.722 159.978C117.411 158.171 116.733 154.045 116.919 153.36L115.666 152.286L114.384 154.197Z" fill="#65617D"/>
<path opacity="0.1" d="M114.523 154.063L115.519 160.247C116.271 160.127 117.052 159.993 117.862 159.847C117.551 158.041 116.872 153.915 117.059 153.23L115.806 152.153L114.523 154.063Z" fill="black"/>
<g opacity="0.05">
<path opacity="0.05" d="M93.7677 141.893C93.0627 141.834 92.3577 141.777 91.6498 141.754C90.068 141.694 87.6538 141.754 86.0068 140.541L86.5815 140.44C88.2285 141.748 90.7285 141.691 92.3666 141.754C93.0746 141.777 93.7766 141.834 94.4846 141.893C94.7156 141.914 94.9526 141.926 95.1925 141.932C94.7172 141.944 94.2416 141.931 93.7677 141.893Z" fill="black"/>
<path opacity="0.05" d="M114.663 160.369C115.415 160.25 116.196 160.118 117.006 159.972L117.278 159.921C117.278 159.921 117.435 159.067 117.557 157.611C117.835 154.303 117.933 147.899 115.605 141.344L113.78 135.709C114.168 135.489 114.372 135.362 114.372 135.362L116.31 141.335C118.635 147.891 118.537 154.294 118.262 157.602C118.137 159.058 117.98 159.912 117.98 159.912L117.711 159.963C116.903 160.109 116.122 160.241 115.368 160.36C109.985 161.214 106.01 161.422 103.297 161.398C107.106 161.34 110.905 160.996 114.663 160.369Z" fill="black"/>
<path opacity="0.05" d="M97.7039 159.921V159.954H97.3188C97.465 159.944 97.5933 159.933 97.7039 159.921Z" fill="black"/>
</g>
<path d="M116.051 155.35C116.331 155.35 116.558 154.883 116.558 154.306C116.558 153.73 116.331 153.262 116.051 153.262C115.772 153.262 115.545 153.73 115.545 154.306C115.545 154.883 115.772 155.35 116.051 155.35Z" fill="#D39999"/>
<path d="M83.7227 133.164C84.5403 127.083 85.9829 123.471 86.7442 122.056C86.7738 122.248 86.8508 122.874 86.8863 123.067C87.0404 123.957 86.9041 125.078 86.9515 126.208L86.1932 139.959L87.2092 144.26C88.163 147.665 84.6292 144.975 84.6292 144.975C83.8975 146.588 82.5556 146.41 82.5556 146.41L82.372 143.943C82.198 141.618 82.4062 139.28 82.9881 137.023C83.3094 135.752 83.5547 134.464 83.7227 133.164Z" fill="#FDC2CC"/>
<path opacity="0.05" d="M83.7227 133.164C84.5403 127.083 85.9829 123.471 86.7442 122.056C86.7738 122.248 86.8508 122.874 86.8863 123.067C87.0404 123.957 86.9041 125.078 86.9515 126.208L86.1932 139.959L87.2092 144.26C88.163 147.665 84.6292 144.975 84.6292 144.975C83.8975 146.588 82.5556 146.41 82.5556 146.41L82.372 143.943C82.198 141.618 82.4062 139.28 82.9881 137.023C83.3094 135.752 83.5547 134.464 83.7227 133.164Z" fill="black"/>
<path d="M117.723 140.582C117.08 141.416 116.727 141.893 116.727 141.893L114.061 145.823C113.608 146.495 112.925 146.978 112.142 147.182C110.927 147.502 109.061 147.736 107.444 146.847C106.855 146.518 106.408 145.983 106.189 145.345C105.971 144.706 105.995 144.009 106.259 143.388L106.851 142.012C106.851 142.012 101.362 145.476 100.886 143.566C100.409 141.656 107.269 139.743 107.269 139.743C107.269 139.743 112.936 138.788 114.082 136.097C114.082 136.097 114.577 135.463 115.267 134.49" fill="#FDC2CC"/>
<path d="M114.384 147.17C114.384 147.17 107.894 146.538 105.838 142.821L104.896 145.891C104.896 145.891 111.709 150.602 113.264 149.991L114.384 147.17Z" fill="#65617D"/>
<path opacity="0.1" d="M114.153 147.14C114.153 147.14 107.666 146.508 105.607 142.789L104.668 145.85C104.668 145.85 111.481 150.56 113.034 149.949L114.153 147.14Z" fill="black"/>
<path d="M84.8423 145.435C84.8423 145.435 82.5703 146.241 82.123 145.794L83.145 147.677L85.0763 146.194L84.8423 145.435Z" fill="#65617D"/>
<path opacity="0.1" d="M84.8423 145.435C84.8423 145.435 82.5703 146.241 82.123 145.794L83.145 147.677L85.0763 146.194L84.8423 145.435Z" fill="black"/>
<path opacity="0.1" d="M98.7651 158.011V154.081L97.832 158.106L98.7651 158.011Z" fill="black"/>
<path opacity="0.1" d="M107.968 76.7987C107.42 77.5698 106.469 77.9614 105.533 78.083C104.597 78.2046 103.649 78.1008 102.704 78.083C101.223 78.0593 99.6473 78.2876 98.4358 79.1597C97.6626 79.7143 97.0821 80.4944 96.4778 81.236C94.6472 83.4754 92.1056 85.5724 89.2205 85.3381C88.9692 85.3381 88.7205 85.2877 88.489 85.1899C88.2575 85.0921 88.048 84.9488 87.8727 84.7686C87.6376 84.4031 87.5179 83.9752 87.5291 83.5406C87.405 81.6945 87.4635 79.8405 87.7038 78.0059C87.8195 76.8705 88.101 75.7582 88.5392 74.7046C89.055 73.6485 89.7326 72.6797 90.5475 71.8334C91.5331 70.6884 92.7211 69.7352 94.0518 69.0215C95.3964 68.3074 96.9541 68.1061 98.4358 68.455C100.163 68.9266 101.508 70.2791 103.155 70.9762C105.035 71.7681 110.03 73.883 107.968 76.7987Z" fill="black"/>
<path d="M107.968 76.4397C107.42 77.2109 106.469 77.6025 105.533 77.7241C104.597 77.8457 103.649 77.7419 102.704 77.7241C101.223 77.6974 99.6473 77.9258 98.4358 78.7978C97.6626 79.3525 97.0821 80.1326 96.4778 80.8741C94.6472 83.1135 92.1056 85.2105 89.2205 84.9762C88.9691 84.9769 88.7202 84.9268 88.4886 84.829C88.257 84.7311 88.0476 84.5875 87.8727 84.4067C87.6371 84.0414 87.5173 83.6134 87.5291 83.1788C87.405 81.3326 87.4635 79.4786 87.7038 77.644C87.8195 76.5086 88.101 75.3963 88.5392 74.3427C89.0542 73.287 89.7319 72.3191 90.5475 71.4745C91.5322 70.3278 92.7203 69.3734 94.0518 68.6596C95.3964 67.9455 96.9541 67.7442 98.4358 68.0931C100.163 68.5647 101.508 69.9173 103.155 70.6143C105.035 71.4092 110.03 73.5181 107.968 76.4397Z" fill="#865A61"/>
<path d="M86.584 140.437L86.5603 141.519L86.3174 140.484L86.584 140.437Z" fill="#FDC2CC"/>
<path opacity="0.05" d="M86.584 140.437L86.5603 141.519L86.3174 140.484L86.584 140.437Z" fill="black"/>
<g opacity="0.05">
<path opacity="0.05" d="M109.429 100.596C106.92 108.862 114.233 109.832 114.233 109.832L120.11 125.603C120.587 128.29 114.5 136.118 114.5 136.118C114.076 137.121 113.019 137.883 111.863 138.446C112.538 138.035 113.081 137.438 113.427 136.726C113.427 136.726 119.512 128.901 119.035 126.214L113.158 110.44C113.158 110.44 105.847 109.47 108.353 101.204C109.192 98.4424 110.427 97.1848 111.677 96.7339C110.815 97.428 110.024 98.6293 109.429 100.596Z" fill="black"/>
</g>
<g opacity="0.1">
<path opacity="0.1" d="M109.553 108.106C109.896 108.532 110.295 108.91 110.738 109.23C111.567 109.834 112.524 110.24 113.534 110.417C113.534 110.417 113.534 110.417 113.534 110.432V110.728C112.62 110.534 111.756 110.151 110.998 109.604C110.435 109.191 109.946 108.684 109.553 108.106Z" fill="black"/>
<path opacity="0.1" d="M86.827 119.932C86.827 119.965 86.827 120 86.827 120.036C86.9194 121.445 87.0894 122.848 87.3365 124.239C88.2252 129.352 87.061 139.505 86.8952 140.908C86.8004 140.846 86.7056 140.787 86.5989 140.719C86.6434 140.38 88.0089 129.308 87.061 123.892C86.818 122.506 86.6528 121.108 86.5664 119.704C86.5664 119.668 86.5664 119.632 86.5664 119.6C86.5075 118.786 86.2324 118.002 85.7695 117.331C86.3835 118.067 86.7532 118.976 86.827 119.932Z" fill="black"/>
<path opacity="0.1" d="M92.2807 94.3403L89.3837 94.284C89.3815 94.2827 89.3789 94.282 89.3763 94.282C89.3737 94.282 89.3711 94.2827 89.3689 94.284L85.6662 102.666C85.0187 104.117 84.5224 105.631 84.1851 107.184C83.1069 112.256 83.7852 114.783 84.6087 116.032C83.6815 114.937 82.7247 112.443 83.9185 106.837C84.2491 105.283 84.7405 103.768 85.3848 102.316L89.1141 93.934L92.5295 94.0022V94.0229C92.5029 94.0585 92.411 94.1713 92.2807 94.3403Z" fill="black"/>
<path opacity="0.1" d="M114.112 96.6153L114.162 96.6301L114.112 96.6153Z" fill="black"/>
<path opacity="0.1" d="M113.048 96.5679L110.145 95.6929H110.131C109.959 95.8827 105.761 100.542 102.607 104.315C99.7868 107.688 94.8429 107.424 93.6521 107.305C93.4359 107.282 93.2167 107.264 93.0004 107.249C89.7628 107.041 88.4891 106.656 88.0625 105.837C88.6697 106.43 90.0057 106.727 92.7309 106.893C92.9501 106.893 93.1663 106.926 93.3826 106.946C94.5674 107.065 99.5172 107.329 102.337 103.959C105.492 100.184 109.692 95.5238 109.864 95.334L114.088 96.6153C113.748 96.5306 113.395 96.5144 113.048 96.5679Z" fill="black"/>
</g>
<path opacity="0.1" d="M78.6785 224.68C78.6785 224.68 74.5907 225.799 73.7998 224.043L78.6785 224.68Z" fill="black"/>
<path opacity="0.1" d="M104.63 223.841C104.63 223.841 99.8904 225.066 98.7944 223.171L104.63 223.841Z" fill="black"/>
<path opacity="0.1" d="M57.0513 213.741C61.457 213.741 65.0285 213.137 65.0285 212.392C65.0285 211.646 61.457 211.042 57.0513 211.042C52.6457 211.042 49.0742 211.646 49.0742 212.392C49.0742 213.137 52.6457 213.741 57.0513 213.741Z" fill="#378742"/>
<path opacity="0.1" d="M25.6256 232.882C30.0312 232.882 33.6027 232.277 33.6027 231.532C33.6027 230.787 30.0312 230.182 25.6256 230.182C21.2199 230.182 17.6484 230.787 17.6484 231.532C17.6484 232.277 21.2199 232.882 25.6256 232.882Z" fill="#378742"/>
<path d="M17.3201 216.426C23.8983 216.426 29.2309 215.523 29.2309 214.409C29.2309 213.295 23.8983 212.392 17.3201 212.392C10.7419 212.392 5.40918 213.295 5.40918 214.409C5.40918 215.523 10.7419 216.426 17.3201 216.426Z" fill="#378742"/>
<path d="M12.3938 211.11C11.8493 210.668 11.4525 210.07 11.2564 209.396C11.1112 208.714 11.4015 207.898 12.0502 207.649C12.7789 207.37 13.558 207.874 14.1475 208.384C14.7369 208.895 15.4153 209.479 16.1884 209.372C15.7908 209.011 15.4934 208.553 15.3252 208.042C15.157 207.532 15.1237 206.987 15.2286 206.459C15.2606 206.241 15.3529 206.035 15.4952 205.866C15.8981 205.433 16.6327 205.62 17.1185 205.961C18.6559 207.047 19.0884 209.141 19.0943 211.027C19.2513 210.345 19.1209 209.639 19.1239 208.951C19.1269 208.263 19.3194 207.468 19.9059 207.106C20.2682 206.905 20.6767 206.803 21.0908 206.809C21.7839 206.786 22.5541 206.854 23.028 207.361C23.6205 207.99 23.4635 209.049 22.951 209.734C22.4386 210.419 21.6625 210.861 20.9486 211.342C20.3736 211.683 19.8834 212.151 19.5149 212.709C19.4717 212.787 19.436 212.868 19.4083 212.952H15.0805C14.1054 212.464 13.2015 211.844 12.3938 211.11Z" fill="#378742"/>
<path opacity="0.1" d="M305.053 225.03C309.458 225.03 313.03 224.426 313.03 223.681C313.03 222.935 309.458 222.331 305.053 222.331C300.647 222.331 297.076 222.935 297.076 223.681C297.076 224.426 300.647 225.03 305.053 225.03Z" fill="#378742"/>
<path d="M299.697 217.407C299.697 217.407 304.247 217.268 305.622 216.289C306.996 215.31 312.618 214.145 312.959 215.714C313.3 217.283 319.799 223.512 314.659 223.553C309.52 223.595 302.725 222.752 301.356 221.916C299.988 221.079 299.697 217.407 299.697 217.407Z" fill="#A8A8A8"/>
<path opacity="0.2" d="M314.748 223.01C309.612 223.052 302.813 222.21 301.445 221.373C300.402 220.738 299.988 218.457 299.848 217.404H299.697C299.697 217.404 299.993 221.079 301.353 221.913C302.713 222.746 309.52 223.592 314.656 223.55C316.137 223.55 316.653 223.01 316.623 222.227C316.419 222.714 315.853 223.01 314.748 223.01Z" fill="black"/>
</g>
<defs>
<linearGradient id="paint0_linear" x1="142.667" y1="210.686" x2="142.667" y2="35.3621" gradientUnits="userSpaceOnUse">
<stop stop-color="#808080" stop-opacity="0.25"/>
<stop offset="0.54" stop-color="#808080" stop-opacity="0.12"/>
<stop offset="1" stop-color="#808080" stop-opacity="0.1"/>
</linearGradient>
<linearGradient id="paint1_linear" x1="40799.7" y1="141708" x2="40799.7" y2="31046.9" gradientUnits="userSpaceOnUse">
<stop stop-color="#808080" stop-opacity="0.25"/>
<stop offset="0.54" stop-color="#808080" stop-opacity="0.12"/>
<stop offset="1" stop-color="#808080" stop-opacity="0.1"/>
</linearGradient>
<linearGradient id="paint2_linear" x1="54088.1" y1="144261" x2="54088.1" y2="41850.5" gradientUnits="userSpaceOnUse">
<stop stop-color="#808080" stop-opacity="0.25"/>
<stop offset="0.54" stop-color="#808080" stop-opacity="0.12"/>
<stop offset="1" stop-color="#808080" stop-opacity="0.1"/>
</linearGradient>
<linearGradient id="paint3_linear" x1="-30979.5" y1="143037" x2="-30979.5" y2="40208.7" gradientUnits="userSpaceOnUse">
<stop stop-color="#808080" stop-opacity="0.25"/>
<stop offset="0.54" stop-color="#808080" stop-opacity="0.12"/>
<stop offset="1" stop-color="#808080" stop-opacity="0.1"/>
</linearGradient>
<clipPath id="clip0">
<rect width="337" height="255" fill="white"/>
</clipPath>
</defs>
</svg>
