<svg width="485" height="303" viewBox="0 0 485 303" fill="none" xmlns="http://www.w3.org/2000/svg">
<g clip-path="url(#clip0_234_149)">
<g opacity="0.1">
<path opacity="0.1" d="M210.218 173.324C214.31 173.324 217.628 168.978 217.628 163.617C217.628 158.255 214.31 153.909 210.218 153.909C206.125 153.909 202.808 158.255 202.808 163.617C202.808 168.978 206.125 173.324 210.218 173.324Z" fill="#3B5B46"/>
<path opacity="0.1" d="M216.084 122.082C217.118 120.276 217.653 118.227 217.634 116.146C217.634 110.784 214.313 106.438 210.217 106.438C206.122 106.438 202.782 110.797 202.782 116.159C202.763 118.24 203.298 120.289 204.331 122.095C203.316 123.907 202.782 125.949 202.782 128.027C202.782 130.105 203.316 132.147 204.331 133.959C203.316 135.771 202.782 137.813 202.782 139.891C202.782 141.968 203.316 144.011 204.331 145.823C203.296 147.628 202.761 149.678 202.782 151.759C202.782 157.115 206.102 161.467 210.191 161.467C214.281 161.467 217.608 157.115 217.608 151.759C217.629 149.678 217.093 147.628 216.058 145.823C217.074 144.011 217.607 141.968 217.607 139.891C217.607 137.813 217.074 135.771 216.058 133.959C217.074 132.147 217.607 130.105 217.607 128.027C217.607 125.949 217.074 123.907 216.058 122.095L216.084 122.082Z" fill="#3B5B46"/>
<path opacity="0.1" d="M210.218 114.002C214.31 114.002 217.628 109.656 217.628 104.294C217.628 98.9333 214.31 94.5865 210.218 94.5865C206.125 94.5865 202.808 98.9333 202.808 104.294C202.808 109.656 206.125 114.002 210.218 114.002Z" fill="#3B5B46"/>
<path opacity="0.1" d="M210.218 102.138C214.31 102.138 217.628 97.7918 217.628 92.4298C217.628 87.0687 214.31 82.7223 210.218 82.7223C206.125 82.7223 202.808 87.0687 202.808 92.4298C202.808 97.7918 206.125 102.138 210.218 102.138Z" fill="#3B5B46"/>
<path opacity="0.1" d="M182.479 11.2297C181.464 9.94174 180.541 8.58312 179.718 7.16413L199.188 3.9651L178.13 4.12148C176.113 -0.279049 175.016 -5.0449 174.904 -9.88449C174.792 -14.724 175.668 -19.5356 177.479 -24.0247L205.731 -9.35873L179.686 -28.5269C182.107 -32.7862 185.383 -36.4984 189.308 -39.43C193.232 -42.3615 197.72 -44.449 202.49 -45.5612C207.259 -46.6735 212.206 -46.7865 217.022 -45.8931C221.837 -44.9997 226.416 -43.1193 230.47 -40.3699C234.523 -37.6206 237.965 -34.0619 240.578 -29.9174C243.191 -25.773 244.919 -21.1325 245.654 -16.2875C246.388 -11.4427 246.113 -6.49812 244.845 -1.7648C243.577 2.96851 241.345 7.38828 238.288 11.2167C239.867 13.2235 241.224 15.3948 242.338 17.6929L217.054 30.8669L244.005 21.8171C245.899 27.415 246.368 33.3974 245.368 39.2222C244.369 45.047 241.933 50.5304 238.281 55.1756C242.401 60.4151 244.963 66.7087 245.676 73.3367C246.39 79.9649 245.224 86.6599 242.314 92.657C239.403 98.6529 234.865 103.709 229.218 107.246C223.57 110.784 217.043 112.66 210.38 112.66C203.718 112.66 197.19 110.784 191.544 107.246C185.896 103.709 181.358 98.6529 178.448 92.657C175.537 86.6599 174.372 79.9649 175.084 73.3367C175.797 66.7087 178.36 60.4151 182.479 55.1756C177.557 48.9144 174.88 41.1791 174.88 33.2124C174.88 25.2458 177.557 17.5105 182.479 11.2492V11.2297Z" fill="#8BA996"/>
<path opacity="0.1" d="M245.88 33.193C245.893 41.1617 243.216 48.9011 238.282 55.1562C242.401 60.3956 244.963 66.6892 245.677 73.3173C246.39 79.9454 245.225 86.6405 242.314 92.637C239.403 98.6338 234.865 103.69 229.218 107.227C223.571 110.765 217.043 112.64 210.38 112.64C203.718 112.64 197.19 110.765 191.544 107.227C185.896 103.69 181.358 98.6338 178.448 92.637C175.537 86.6405 174.372 79.9454 175.085 73.3173C175.797 66.6892 178.36 60.3956 182.479 55.1562C177.72 49.1099 245.88 29.2056 245.88 33.193Z" fill="black"/>
</g>
<g opacity="0.1">
<path opacity="0.1" d="M296.728 150.11C299.787 150.11 302.269 146.864 302.269 142.858C302.269 138.854 299.787 135.607 296.728 135.607C293.667 135.607 291.186 138.854 291.186 142.858C291.186 146.864 293.667 150.11 296.728 150.11Z" fill="#3B5B46"/>
<path opacity="0.1" d="M301.103 111.826C301.874 110.478 302.271 108.949 302.256 107.396C302.256 103.389 299.774 100.137 296.721 100.137C293.667 100.137 291.179 103.396 291.179 107.396C291.163 108.95 291.563 110.48 292.339 111.826C291.579 113.18 291.18 114.707 291.18 116.26C291.18 117.813 291.579 119.34 292.339 120.694C291.579 122.048 291.18 123.574 291.18 125.128C291.18 126.68 291.579 128.207 292.339 129.561C291.563 130.908 291.163 132.437 291.179 133.992C291.179 137.999 293.661 141.249 296.721 141.249C299.781 141.249 302.256 137.992 302.256 133.992C302.271 132.438 301.874 130.909 301.103 129.561C301.857 128.205 302.253 126.679 302.253 125.128C302.253 123.576 301.857 122.05 301.103 120.694C301.857 119.338 302.253 117.812 302.253 116.26C302.253 114.708 301.857 113.182 301.103 111.826Z" fill="#3B5B46"/>
<path opacity="0.1" d="M296.728 105.78C299.787 105.78 302.269 102.534 302.269 98.5286C302.269 94.5241 299.787 91.2771 296.728 91.2771C293.667 91.2771 291.186 94.5241 291.186 98.5286C291.186 102.534 293.667 105.78 296.728 105.78Z" fill="#3B5B46"/>
<path opacity="0.1" d="M296.728 96.9131C299.787 96.9131 302.269 93.6661 302.269 89.6616C302.269 85.6564 299.787 82.4098 296.728 82.4098C293.667 82.4098 291.186 85.6564 291.186 89.6616C291.186 93.6661 293.667 96.9131 296.728 96.9131Z" fill="#3B5B46"/>
<path opacity="0.1" d="M275.996 28.9839C275.235 28.023 274.546 27.0083 273.931 25.9478L288.485 23.5566L272.746 23.6739C271.237 20.386 270.413 16.8245 270.325 13.2073C270.238 9.59004 270.89 5.99293 272.238 2.63593L293.355 13.6013L273.88 -0.732507C275.7 -3.89363 278.154 -6.64516 281.085 -8.81532C284.017 -10.9855 287.364 -12.5278 290.917 -13.3458C294.472 -14.1639 298.156 -14.2403 301.74 -13.57C305.325 -12.8998 308.733 -11.4974 311.751 -9.45052C314.77 -7.40353 317.335 -4.75591 319.285 -1.6729C321.236 1.4101 322.53 4.86231 323.088 8.46823C323.646 12.0742 323.454 15.7564 322.527 19.2852C321.599 22.8138 319.954 26.1132 317.694 28.9774C318.872 30.4787 319.888 32.1015 320.722 33.8183L301.839 43.6369L321.978 36.874C323.393 41.0573 323.743 45.5276 322.996 49.8801C322.249 54.2328 320.429 58.3302 317.7 61.8016C320.783 65.7159 322.702 70.419 323.237 75.3734C323.774 80.3277 322.905 85.3328 320.731 89.8166C318.557 94.2992 315.166 98.0799 310.945 100.725C306.724 103.37 301.844 104.773 296.865 104.773C291.884 104.773 287.004 103.37 282.784 100.725C278.563 98.0799 275.172 94.2992 272.998 89.8166C270.824 85.3328 269.955 80.3277 270.491 75.3734C271.027 70.419 272.946 65.7159 276.028 61.8016C272.35 57.1229 270.35 51.3426 270.35 45.3896C270.35 39.4364 272.35 33.6561 276.028 28.9774L275.996 28.9839Z" fill="#8BA996"/>
<path opacity="0.1" d="M323.372 45.3963C323.381 51.3507 321.38 57.1338 317.694 61.8085C320.777 65.7226 322.695 70.4259 323.231 75.3802C323.767 80.3345 322.899 85.3397 320.724 89.8228C318.55 94.3062 315.159 98.087 310.938 100.732C306.718 103.377 301.838 104.779 296.858 104.779C291.878 104.779 286.998 103.377 282.778 100.732C278.556 98.087 275.166 94.3062 272.992 89.8228C270.817 85.3397 269.949 80.3345 270.485 75.3802C271.02 70.4259 272.939 65.7226 276.022 61.8085C272.453 57.2933 323.372 42.4188 323.372 45.3963Z" fill="black"/>
</g>
<g opacity="0.1">
<path opacity="0.1" d="M523.504 25.0745C524.265 24.1136 524.955 23.0989 525.568 22.0384L511.016 19.6473L526.754 19.7645C528.263 16.4766 529.087 12.9152 529.174 9.29788C529.261 5.6806 528.611 2.08352 527.261 -1.27349L506.145 9.6918L525.621 -4.64192C523.799 -7.80304 521.346 -10.5546 518.414 -12.7248C515.483 -14.8949 512.136 -16.4373 508.582 -17.2553C505.029 -18.0734 501.345 -18.1496 497.76 -17.4794C494.175 -16.8092 490.767 -15.4068 487.748 -13.3599C484.729 -11.313 482.165 -8.66532 480.214 -5.58231C478.264 -2.49932 476.969 0.952881 476.412 4.55882C475.854 8.16475 476.045 11.847 476.974 15.3757C477.902 18.9044 479.547 22.2038 481.805 25.068C480.627 26.5693 479.612 28.1922 478.778 29.9089L497.66 39.7275L477.56 32.9711C476.145 37.1544 475.796 41.6247 476.543 45.9773C477.29 50.3298 479.109 54.4273 481.838 57.8987C478.756 61.8129 476.837 66.5162 476.301 71.4704C475.765 76.4247 476.634 81.4299 478.808 85.9132C480.982 90.3965 484.373 94.1772 488.594 96.8225C492.815 99.4669 497.694 100.87 502.674 100.87C507.655 100.87 512.534 99.4669 516.755 96.8225C520.975 94.1772 524.367 90.3965 526.541 85.9132C528.714 81.4299 529.583 76.4247 529.048 71.4704C528.512 66.5162 526.593 61.8129 523.511 57.8987C527.19 53.22 529.189 47.4397 529.189 41.4866C529.189 35.5335 527.19 29.7532 523.511 25.0745H523.504Z" fill="#8BA996"/>
<path opacity="0.1" d="M476.128 41.4867C476.119 47.4411 478.119 53.2241 481.806 57.8987C478.724 61.8129 476.805 66.5162 476.269 71.4704C475.733 76.4248 476.602 81.4299 478.776 85.9133C480.949 90.3963 484.341 94.1771 488.561 96.8224C492.783 99.4668 497.662 100.87 502.642 100.87C507.623 100.87 512.502 99.4668 516.723 96.8224C520.943 94.1771 524.335 90.3963 526.508 85.9133C528.682 81.4299 529.551 76.4248 529.015 71.4704C528.479 66.5162 526.56 61.8129 523.479 57.8987C527.046 53.3836 476.128 38.5091 476.128 41.4867Z" fill="black"/>
</g>
<g opacity="0.1">
<path opacity="0.1" d="M9.68129 146.201C12.7416 146.201 15.2225 142.954 15.2225 138.949C15.2225 134.944 12.7416 131.698 9.68129 131.698C6.621 131.698 4.14014 134.944 4.14014 138.949C4.14014 142.954 6.621 146.201 9.68129 146.201Z" fill="#3B5B46"/>
<path opacity="0.1" d="M14.0633 107.917C14.8336 106.569 15.2314 105.04 15.2158 103.486C15.2158 99.4792 12.7415 96.2288 9.6811 96.2288C6.62081 96.2288 4.13998 99.4862 4.13998 103.486C4.12638 105.04 4.52643 106.57 5.29901 107.917C4.53924 109.271 4.14019 110.798 4.14019 112.35C4.14019 113.904 4.53924 115.43 5.29901 116.784C4.53924 118.138 4.14019 119.665 4.14019 121.218C4.14019 122.771 4.53924 124.298 5.29901 125.652C4.52643 127 4.12638 128.529 4.13998 130.082C4.13998 134.089 6.62081 137.341 9.6811 137.341C12.7415 137.341 15.2158 134.082 15.2158 130.082C15.2314 128.53 14.8336 127 14.0633 125.652C14.8171 124.296 15.2126 122.77 15.2126 121.218C15.2126 119.666 14.8171 118.14 14.0633 116.784C14.8171 115.428 15.2126 113.902 15.2126 112.35C15.2126 110.799 14.8171 109.273 14.0633 107.917Z" fill="#3B5B46"/>
<path opacity="0.1" d="M9.68129 101.871C12.7416 101.871 15.2225 98.6239 15.2225 94.6186C15.2225 90.614 12.7416 87.3671 9.68129 87.3671C6.621 87.3671 4.14014 90.614 4.14014 94.6186C4.14014 98.6239 6.621 101.871 9.68129 101.871Z" fill="#3B5B46"/>
<path opacity="0.1" d="M9.68129 93.0034C12.7416 93.0034 15.2225 89.7564 15.2225 85.7518C15.2225 81.7469 12.7416 78.5002 9.68129 78.5002C6.621 78.5002 4.14014 81.7469 4.14014 85.7518C4.14014 89.7564 6.621 93.0034 9.68129 93.0034Z" fill="#3B5B46"/>
<path opacity="0.1" d="M-11.0508 25.0745C-11.8089 24.1121 -12.4987 23.0975 -13.115 22.0384L1.43793 19.6473L-14.2999 19.7646C-15.8097 16.4767 -16.6334 12.9152 -16.7208 9.29788C-16.8081 5.68061 -16.1572 2.08352 -14.8078 -1.27349L6.30841 9.6918L-13.167 -4.64192C-11.3456 -7.80304 -8.89267 -10.5546 -5.96113 -12.7248C-3.02962 -14.8949 0.317495 -16.4373 3.87128 -17.2553C7.42506 -18.0734 11.1092 -18.1496 14.6937 -17.4794C18.2784 -16.8092 21.6864 -15.4068 24.7051 -13.3599C27.7239 -11.313 30.2885 -8.66532 32.2391 -5.58231C34.1896 -2.49931 35.4841 0.95289 36.0417 4.55883C36.5994 8.16475 36.4082 11.847 35.4801 15.3757C34.5521 18.9044 32.9071 22.2038 30.6478 25.068C31.8307 26.5661 32.8461 28.1895 33.6756 29.9089L14.7927 39.7275L34.9323 32.9646C36.3469 37.1479 36.6965 41.6181 35.9495 45.9708C35.2025 50.3233 33.3826 54.4208 30.6543 57.8923C33.7366 61.8064 35.6553 66.5097 36.1912 71.464C36.7271 76.4182 35.8584 81.4234 33.6844 85.9068C31.5104 90.3904 28.1191 94.1703 23.8985 96.8156C19.6777 99.4609 14.7981 100.864 9.81806 100.864C4.83787 100.864 -0.0417118 99.4609 -4.26241 96.8156C-8.4831 94.1703 -11.8744 90.3904 -14.0484 85.9068C-16.2223 81.4234 -17.091 76.4182 -16.5551 71.464C-16.0193 66.5097 -14.1005 61.8064 -11.0183 57.8923C-14.6969 53.2135 -16.6968 47.4332 -16.6968 41.4801C-16.6968 35.5271 -14.6969 29.7468 -11.0183 25.068L-11.0508 25.0745Z" fill="#8BA996"/>
<path opacity="0.1" d="M36.3256 41.4867C36.3344 47.4411 34.3338 53.2241 30.6477 57.8987C33.7299 61.8129 35.6488 66.5162 36.1846 71.4704C36.7205 76.4248 35.8517 81.4299 33.6778 85.9133C31.5038 90.3963 28.1125 94.1771 23.8918 96.8224C19.6711 99.4668 14.7916 100.87 9.8114 100.87C4.83124 100.87 -0.0483284 99.4668 -4.26902 96.8224C-8.48971 94.1771 -11.8811 90.3963 -14.055 85.9133C-16.2289 81.4299 -17.0977 76.4248 -16.5618 71.4704C-16.026 66.5162 -14.1071 61.8129 -11.0249 57.8987C-14.6061 53.3836 36.3256 38.5091 36.3256 41.4867Z" fill="black"/>
</g>
<path d="M330.605 247.104C332.305 243.951 330.378 240.093 328.164 237.285C325.951 234.477 323.242 231.552 323.3 227.975C323.384 222.834 328.841 219.792 333.198 217.068C336.432 215.039 339.416 212.633 342.085 209.901C343.202 208.85 344.125 207.61 344.813 206.24C345.719 204.233 345.693 201.939 345.633 199.724C345.447 192.388 345.085 185.057 344.547 177.729" stroke="#3B5B46" stroke-width="3.48294" stroke-miterlimit="10"/>
<path d="M352.835 177.364C352.773 176.021 352.373 174.714 351.673 173.565C350.973 172.417 349.996 171.462 348.831 170.79L347.034 174.341L347.093 170.041C345.463 169.561 343.722 169.611 342.123 170.185C340.524 170.759 339.148 171.826 338.195 173.233C337.241 174.64 336.759 176.314 336.818 178.014C336.876 179.712 337.474 181.349 338.523 182.686C339.571 184.023 341.018 184.993 342.653 185.454C344.288 185.916 346.028 185.845 347.62 185.253C349.213 184.661 350.577 183.578 351.513 182.159C352.451 180.742 352.914 179.062 352.835 177.364Z" fill="#8BA996"/>
<path d="M338.537 231.65C337.731 233.218 336.43 234.476 334.837 235.23C333.244 235.984 331.447 236.193 329.723 235.822C328 235.451 326.448 234.522 325.305 233.179C324.163 231.835 323.495 230.153 323.404 228.392C323.344 227.281 323.522 226.171 323.925 225.134C324.516 223.623 325.55 222.326 326.892 221.414C328.234 220.503 329.821 220.019 331.442 220.029C333.064 220.039 334.646 220.539 335.977 221.466C337.308 222.392 338.328 223.701 338.902 225.219L333.894 229.298L339.403 227.995C339.409 229.265 339.113 230.518 338.537 231.65Z" fill="#8BA996"/>
<path d="M334.578 216.078C332.611 216.171 330.679 215.536 329.15 214.293C327.621 213.052 326.602 211.29 326.288 209.345C325.974 207.4 326.387 205.407 327.447 203.747C328.508 202.087 330.142 200.875 332.039 200.343L331.993 203.647L333.81 200.05C335.934 199.951 338.01 200.699 339.582 202.133C341.155 203.565 342.093 205.564 342.192 207.69C342.292 209.815 341.544 211.893 340.111 213.466C338.68 215.039 336.682 215.978 334.558 216.078H334.578Z" fill="#8BA996"/>
<path d="M354.04 203.119C352.798 203.183 351.557 202.957 350.416 202.458C349.277 201.96 348.267 201.202 347.471 200.246C346.674 199.29 346.111 198.16 345.825 196.948C345.539 195.736 345.54 194.475 345.827 193.263C346.112 192.051 346.677 190.923 347.475 189.968C348.273 189.012 349.282 188.255 350.422 187.758C351.563 187.26 352.804 187.034 354.047 187.1C355.29 187.165 356.5 187.519 357.583 188.134L356.169 192.043L359.054 189.189C360.221 190.259 361.045 191.652 361.422 193.189C361.799 194.728 361.712 196.343 361.173 197.832C360.634 199.321 359.667 200.618 358.393 201.557C357.118 202.497 355.596 203.037 354.014 203.112L354.04 203.119Z" fill="#8BA996"/>
<path opacity="0.1" d="M351.755 179.502C349.905 179.703 348.108 180.276 346.246 180.394C344.384 180.511 342.34 180.061 341.18 178.621C340.635 177.783 340.139 176.912 339.695 176.015C339.189 175.224 338.496 174.571 337.677 174.113C337.159 175.13 336.863 176.245 336.81 177.385C336.756 178.525 336.946 179.663 337.369 180.724C337.79 181.784 338.433 182.742 339.254 183.534C340.075 184.326 341.055 184.934 342.131 185.316C343.205 185.699 344.348 185.847 345.486 185.752C346.622 185.657 347.725 185.32 348.721 184.763C349.717 184.208 350.583 183.445 351.261 182.528C351.939 181.61 352.414 180.559 352.653 179.442C352.36 179.449 352.054 179.468 351.755 179.502Z" fill="black"/>
<path opacity="0.1" d="M354.04 203.119C352.659 203.185 351.283 202.891 350.048 202.267C348.813 201.642 347.76 200.709 346.993 199.557C346.225 198.405 345.768 197.075 345.667 195.694C345.566 194.313 345.824 192.93 346.415 191.678C347.051 192.108 347.597 192.656 348.024 193.294C348.503 194.207 349.033 195.093 349.613 195.945C350.863 197.412 352.998 197.9 354.932 197.803C356.866 197.705 358.735 197.151 360.662 196.988C360.93 196.988 361.196 196.949 361.47 196.942C361.071 198.64 360.129 200.161 358.789 201.276C357.448 202.39 355.781 203.037 354.04 203.119Z" fill="black"/>
<path opacity="0.1" d="M334.578 216.078C333.21 216.142 331.849 215.855 330.624 215.243C329.398 214.631 328.35 213.715 327.579 212.583C326.808 211.451 326.34 210.14 326.219 208.775C326.098 207.41 326.328 206.037 326.887 204.787C327.548 205.222 328.125 205.774 328.587 206.416C329.112 207.351 329.693 208.254 330.326 209.12C331.674 210.624 333.953 211.159 335.997 211.074C338.042 210.989 339.904 210.547 341.857 210.422C341.371 211.999 340.412 213.388 339.109 214.4C337.806 215.412 336.224 215.998 334.578 216.078Z" fill="black"/>
<path opacity="0.1" d="M338.537 231.65C337.731 233.218 336.43 234.476 334.837 235.23C333.244 235.985 331.447 236.193 329.723 235.822C328 235.451 326.448 234.522 325.305 233.179C324.163 231.835 323.495 230.153 323.404 228.392C323.344 227.282 323.522 226.17 323.925 225.134C324.586 225.568 325.178 226.097 325.683 226.704C326.445 227.63 326.947 228.659 327.832 229.552C329.467 231.162 332.117 231.826 334.467 231.884C335.827 231.889 337.186 231.81 338.537 231.65Z" fill="black"/>
<path d="M197.911 146.527C196.212 143.38 198.14 139.523 200.36 136.715C202.58 133.907 205.275 130.982 205.217 127.405C205.139 122.258 199.683 119.221 195.32 116.498C192.086 114.47 189.105 112.064 186.439 109.332C185.316 108.285 184.391 107.048 183.704 105.676C182.805 103.663 182.831 101.376 182.883 99.1605C183.078 91.8245 183.441 84.4925 183.97 77.1649" stroke="#3B5B46" stroke-width="3.48294" stroke-miterlimit="10"/>
<path d="M175.688 76.7935C175.749 75.4501 176.148 74.1438 176.847 72.995C177.546 71.8461 178.522 70.8916 179.686 70.2195L181.483 73.7704L181.431 69.4702C182.287 69.2215 183.178 69.1137 184.068 69.151C185.651 69.2249 187.178 69.7668 188.453 70.7083C189.729 71.6499 190.696 72.9487 191.235 74.4407C191.773 75.9327 191.856 77.5507 191.476 79.0904C191.094 80.63 190.266 82.022 189.094 83.0905C187.923 84.1589 186.461 84.8557 184.894 85.0929C183.327 85.3301 181.724 85.097 180.289 84.423C178.854 83.749 177.651 82.6645 176.833 81.3065C176.013 79.9484 175.615 78.3779 175.688 76.7935Z" fill="#8BA996"/>
<path d="M189.981 131.079C190.821 132.716 192.198 134.014 193.881 134.755C195.564 135.497 197.451 135.637 199.225 135.151C200.999 134.666 202.552 133.584 203.624 132.089C204.695 130.594 205.221 128.775 205.112 126.938C205.002 125.101 204.265 123.357 203.024 122C201.782 120.642 200.112 119.753 198.293 119.482C196.474 119.211 194.617 119.573 193.034 120.509C191.45 121.445 190.237 122.898 189.596 124.623L194.604 128.701L189.095 127.398C189.09 128.678 189.394 129.941 189.981 131.079Z" fill="#8BA996"/>
<path d="M193.939 115.508C195.907 115.602 197.841 114.968 199.371 113.727C200.901 112.485 201.922 110.724 202.237 108.778C202.551 106.832 202.14 104.839 201.078 103.177C200.018 101.516 198.382 100.305 196.485 99.7726L196.524 103.076L194.708 99.4792C192.584 99.3747 190.507 100.119 188.931 101.547C187.356 102.975 186.412 104.972 186.308 107.096C186.263 108.021 186.379 108.948 186.654 109.832C187.134 111.415 188.092 112.81 189.396 113.826C190.702 114.842 192.288 115.429 193.939 115.508Z" fill="#8BA996"/>
<path d="M174.483 102.535C175.726 102.599 176.967 102.372 178.106 101.872C179.246 101.373 180.254 100.615 181.05 99.6585C181.846 98.7016 182.409 97.5731 182.694 96.3611C182.979 95.149 182.977 93.8873 182.691 92.6761C182.404 91.4649 181.839 90.3364 181.041 89.3812C180.243 88.426 179.234 87.6702 178.093 87.173C176.953 86.6753 175.712 86.4505 174.469 86.516C173.227 86.5815 172.017 86.9355 170.935 87.5501L172.354 91.4588L169.437 88.6637C168.659 89.369 168.029 90.2224 167.581 91.1723C167.134 92.1232 166.88 93.1524 166.833 94.2025C166.794 94.9444 166.862 95.688 167.034 96.4107C167.443 98.1025 168.391 99.615 169.735 100.72C171.079 101.825 172.745 102.462 174.483 102.535Z" fill="#8BA996"/>
<path opacity="0.1" d="M176.769 78.9303C178.618 79.1322 180.416 79.7056 182.271 79.8229C184.127 79.9402 186.178 79.4906 187.343 78.0507C187.887 77.2116 188.38 76.3414 188.822 75.4446C189.33 74.6537 190.026 74.0002 190.846 73.5421C191.366 74.5589 191.663 75.6749 191.716 76.8156C191.77 77.9563 191.58 79.0953 191.158 80.1565C190.736 81.2177 190.093 82.1765 189.272 82.9689C188.45 83.7612 187.469 84.3688 186.393 84.7511C185.318 85.1333 184.173 85.2814 183.036 85.1853C181.898 85.0893 180.794 84.7514 179.798 84.1941C178.802 83.6368 177.937 82.8732 177.259 81.9542C176.582 81.0351 176.108 79.982 175.87 78.8651C176.164 78.8716 176.463 78.8977 176.769 78.9303Z" fill="black"/>
<path opacity="0.1" d="M174.483 102.536C175.865 102.599 177.239 102.304 178.473 101.68C179.708 101.055 180.759 100.122 181.527 98.9708C182.294 97.8197 182.75 96.4892 182.852 95.1091C182.955 93.7289 182.698 92.3462 182.108 91.095C181.471 91.5242 180.922 92.0728 180.494 92.7102C180.015 93.6236 179.484 94.5091 178.905 95.3624C177.662 96.8279 175.526 97.3173 173.592 97.2189C171.658 97.1213 169.789 96.5676 167.861 96.4047C167.595 96.4047 167.322 96.3655 167.054 96.3594C167.452 98.0574 168.393 99.5794 169.733 100.694C171.074 101.809 172.742 102.455 174.483 102.536Z" fill="black"/>
<path opacity="0.1" d="M193.939 115.508C195.308 115.574 196.671 115.287 197.897 114.676C199.123 114.065 200.172 113.149 200.943 112.016C201.715 110.883 202.182 109.571 202.302 108.206C202.423 106.84 202.191 105.466 201.629 104.217C200.969 104.65 200.396 105.202 199.937 105.845C199.412 106.78 198.831 107.683 198.198 108.549C196.844 110.054 194.571 110.588 192.52 110.504C190.469 110.419 188.613 109.976 186.66 109.852C187.143 111.43 188.102 112.821 189.405 113.832C190.708 114.845 192.292 115.429 193.939 115.508Z" fill="black"/>
<path opacity="0.1" d="M189.981 131.079C190.921 132.895 192.52 134.281 194.448 134.957C196.377 135.631 198.49 135.544 200.357 134.713C202.223 133.88 203.702 132.367 204.491 130.48C205.279 128.594 205.318 126.478 204.599 124.564C203.935 124.994 203.342 125.524 202.841 126.134C202.079 127.059 201.538 128.089 200.692 128.982C199.051 130.591 196.408 131.255 194.05 131.314C192.69 131.314 191.331 131.236 189.981 131.079Z" fill="black"/>
<path d="M405.76 147.993C441.706 147.993 470.847 118.835 470.847 82.8656C470.847 46.8968 441.706 17.7384 405.76 17.7384C369.813 17.7384 340.672 46.8968 340.672 82.8656C340.672 118.835 369.813 147.993 405.76 147.993Z" fill="#3B5B46"/>
<path d="M433.7 99.662C431.434 97.3946 425.984 93.9743 423.281 92.697C420.162 91.1984 419.017 91.2246 416.809 92.8206C414.973 94.1241 413.782 95.3815 411.672 94.9191C409.562 94.4559 405.382 91.3029 401.339 87.2697C397.295 83.2369 394.156 79.0801 393.707 76.9365C393.258 74.793 394.495 73.6267 395.811 71.7894C397.399 69.5807 397.445 68.434 395.934 65.3132C394.632 62.6093 391.252 57.169 388.967 54.8887C386.682 52.6083 386.186 53.1099 384.937 53.5856C383.65 54.1252 382.414 54.7794 381.245 55.5401C378.978 57.0583 377.709 58.3222 376.816 60.2247C375.925 62.1272 374.915 65.6584 380.105 74.9037C383.933 81.9764 388.782 88.446 394.495 94.1041C400.169 99.8335 406.657 104.695 413.749 108.53C422.982 113.742 426.518 112.706 428.419 111.819C430.32 110.934 431.584 109.676 433.095 107.389C433.856 106.22 434.51 104.983 435.048 103.695C435.478 102.444 435.985 101.935 433.7 99.662Z" fill="#FCFCFC"/>
<path opacity="0.1" d="M405.76 17.7449C392.879 17.7384 380.285 21.555 369.573 28.7116C358.86 35.8683 350.509 46.0435 345.577 57.9501C340.644 69.8566 339.352 82.9594 341.863 95.601C344.374 108.242 350.577 119.854 359.685 128.968C368.793 138.082 380.399 144.288 393.032 146.801C405.666 149.314 418.761 148.021 430.66 143.086C442.559 138.15 452.728 129.795 459.881 119.075C467.033 108.356 470.847 95.7542 470.841 82.8657C470.832 65.5972 463.973 49.0385 451.769 36.8278C439.566 24.6173 423.018 17.7535 405.76 17.7449ZM405.76 139.334C394.598 139.334 383.687 136.022 374.407 129.817C365.127 123.613 357.893 114.794 353.622 104.476C349.351 94.1573 348.233 82.8031 350.41 71.8492C352.588 60.8954 357.962 50.8337 365.855 42.9365C373.748 35.0393 383.803 29.6612 394.75 27.4823C405.697 25.3035 417.044 26.4217 427.356 30.6957C437.668 34.9696 446.482 42.2073 452.683 51.4935C458.884 60.7797 462.194 71.6973 462.194 82.8657C462.194 90.2808 460.734 97.6246 457.898 104.476C455.062 111.326 450.905 117.551 445.665 122.795C440.424 128.039 434.203 132.198 427.356 135.036C420.509 137.873 413.17 139.334 405.76 139.334Z" fill="black"/>
<path d="M256.227 246.915C292.174 246.915 321.314 217.756 321.314 181.788C321.314 145.819 292.174 116.661 256.227 116.661C220.28 116.661 191.14 145.819 191.14 181.788C191.14 217.756 220.28 246.915 256.227 246.915Z" fill="#3B5B46"/>
<path d="M293.244 162.111L273.755 181.951C273.721 181.983 273.694 182.023 273.675 182.067C273.657 182.11 273.647 182.157 273.647 182.205C273.647 182.252 273.657 182.299 273.675 182.343C273.694 182.386 273.721 182.426 273.755 182.459L287.429 197.008C287.756 197.338 287.979 197.757 288.068 198.212C288.159 198.668 288.112 199.14 287.934 199.57C287.757 200 287.457 200.367 287.071 200.626C286.686 200.885 286.233 201.025 285.769 201.028C285.143 201.026 284.544 200.778 284.102 200.337L270.499 185.841C270.43 185.772 270.337 185.733 270.239 185.733C270.141 185.733 270.048 185.772 269.979 185.841L266.665 189.189C265.307 190.577 263.687 191.681 261.897 192.434C260.109 193.187 258.187 193.574 256.246 193.574C254.269 193.565 252.312 193.162 250.492 192.388C248.673 191.614 247.024 190.484 245.646 189.066L242.462 185.807C242.392 185.74 242.299 185.701 242.201 185.701C242.104 185.701 242.011 185.74 241.941 185.807L228.371 200.272C228.153 200.491 227.893 200.664 227.608 200.782C227.322 200.901 227.017 200.963 226.707 200.963C226.398 200.963 226.093 200.901 225.807 200.782C225.522 200.664 225.262 200.491 225.043 200.272C224.824 200.054 224.65 199.794 224.531 199.508C224.412 199.223 224.351 198.916 224.351 198.607C224.351 198.297 224.412 197.991 224.531 197.705C224.65 197.42 224.824 197.16 225.043 196.942L238.665 182.426C238.726 182.356 238.759 182.265 238.759 182.172C238.759 182.079 238.726 181.989 238.665 181.918L219.177 162.079C219.127 162.029 219.063 161.995 218.994 161.981C218.924 161.967 218.852 161.974 218.786 162.001C218.72 162.028 218.664 162.074 218.625 162.133C218.585 162.192 218.565 162.262 218.565 162.333V202.031C218.57 203.565 219.182 205.036 220.267 206.121C221.351 207.206 222.82 207.818 224.354 207.823H288.08C289.614 207.818 291.084 207.206 292.168 206.121C293.252 205.036 293.864 203.565 293.869 202.031V162.365C293.872 162.291 293.853 162.218 293.812 162.157C293.772 162.094 293.714 162.046 293.646 162.018C293.577 161.99 293.502 161.984 293.43 162.001C293.358 162.018 293.293 162.056 293.244 162.111Z" fill="#FCFCFC"/>
<path d="M256.227 188.864C257.548 188.877 258.859 188.623 260.08 188.12C261.301 187.616 262.409 186.872 263.338 185.932L291.72 157.023C290.713 156.188 289.448 155.728 288.14 155.72H224.367C223.058 155.724 221.792 156.185 220.786 157.023L249.175 185.932C250.095 186.867 251.193 187.608 252.405 188.111C253.616 188.615 254.916 188.871 256.227 188.864Z" fill="#FCFCFC"/>
<path opacity="0.1" d="M255.406 116.667C242.525 116.66 229.932 120.477 219.219 127.633C208.506 134.79 200.155 144.965 195.223 156.872C190.291 168.778 188.999 181.881 191.51 194.523C194.022 207.165 200.223 218.777 209.332 227.891C218.44 237.004 230.045 243.211 242.678 245.724C255.313 248.236 268.408 246.943 280.307 242.008C292.206 237.073 302.375 228.716 309.528 217.997C316.68 207.278 320.494 194.677 320.487 181.788C320.479 164.52 313.619 147.961 301.416 135.75C289.213 123.539 272.664 116.675 255.406 116.667ZM255.406 238.256C244.245 238.256 233.334 234.944 224.053 228.739C214.773 222.534 207.54 213.715 203.268 203.397C198.997 193.079 197.88 181.725 200.057 170.771C202.235 159.818 207.61 149.755 215.502 141.859C223.394 133.961 233.45 128.583 244.396 126.404C255.344 124.225 266.691 125.343 277.003 129.618C287.315 133.891 296.129 141.129 302.329 150.415C308.531 159.702 311.84 170.619 311.84 181.788C311.84 196.764 305.895 211.127 295.311 221.716C284.728 232.306 270.374 238.256 255.406 238.256Z" fill="black"/>
<path d="M101.758 198.278C137.705 198.278 166.846 169.12 166.846 133.151C166.846 97.1822 137.705 68.0239 101.758 68.0239C65.8115 68.0239 36.6709 97.1822 36.6709 133.151C36.6709 169.12 65.8115 198.278 101.758 198.278Z" fill="#3B5B46"/>
<path opacity="0.1" d="M101.758 68.0039C88.8786 67.9975 76.2865 71.8132 65.5744 78.9684C54.8622 86.1237 46.5114 96.2967 41.5781 108.201C36.6449 120.106 35.3508 133.207 37.8595 145.848C40.3682 158.489 46.5672 170.101 55.6721 179.216C64.777 188.331 76.3791 194.54 89.0109 197.057C101.643 199.573 114.736 198.284 126.636 193.354C138.536 188.424 148.707 180.073 155.863 169.358C163.019 158.643 166.839 146.044 166.839 133.158C166.839 115.883 159.984 99.3164 147.78 87.0982C135.575 74.8807 119.022 68.0125 101.758 68.0039ZM101.758 189.593C90.5957 189.593 79.6832 186.28 70.402 180.075C61.1208 173.868 53.8875 165.046 49.6172 154.727C45.3467 144.407 44.2311 133.051 46.4113 122.097C48.5914 111.142 53.9695 101.08 61.8651 93.1838C69.7608 85.288 79.8194 79.9125 90.7689 77.7373C101.718 75.5622 113.066 76.6851 123.377 80.964C133.688 85.243 142.5 92.4854 148.697 101.776C154.894 111.067 158.199 121.988 158.192 133.158C158.19 148.132 152.244 162.493 141.661 173.083C131.077 183.671 116.725 189.62 101.758 189.62V189.593Z" fill="black"/>
<path d="M411.75 188.179C411.16 186.737 410.554 185.3 409.933 183.866C409.422 182.467 408.67 181.169 407.713 180.029C407.35 179.618 406.906 179.286 406.411 179.051C405.866 178.85 405.292 178.736 404.711 178.713C403.826 178.601 402.931 178.577 402.042 178.641C401.697 178.537 401.306 178.4 400.922 178.243C402.849 177.737 404.561 176.625 405.808 175.07C407.056 173.516 407.772 171.602 407.849 169.611C407.849 169.48 407.849 169.343 407.849 169.214C407.855 167.994 407.62 166.786 407.158 165.658C406.696 164.529 406.017 163.503 405.16 162.637C404.302 161.771 403.281 161.083 402.158 160.612C401.034 160.14 399.829 159.895 398.61 159.89C396.895 159.886 395.213 160.368 393.759 161.278C391.839 160.842 389.828 161.071 388.053 161.926C386.279 162.782 384.848 164.213 383.992 165.989C382.914 167.02 382.062 168.266 381.49 169.646C380.918 171.026 380.64 172.509 380.672 174.002C380.672 174.139 380.672 174.282 380.672 174.413C380.841 179.475 384.11 183.534 388.238 183.945C387.796 184.143 387.391 184.413 387.04 184.746C385.776 185.964 385.568 187.899 385.431 189.659L385.334 190.961L383.146 191.743C383.076 191.768 383.015 191.812 382.968 191.869C382.922 191.926 382.891 191.996 382.882 192.069C382.871 192.142 382.882 192.217 382.911 192.285C382.94 192.353 382.988 192.411 383.048 192.454L385.138 193.945C385.138 194.069 385.138 194.193 385.138 194.317C385.138 194.441 385.138 194.597 385.177 194.74C384.82 195.055 384.543 195.451 384.37 195.894C384.166 196.578 384.102 197.295 384.181 198.005L384.259 199.823C384.249 201.191 384.435 202.553 384.812 203.868C385.087 204.676 386.272 206.624 387.124 206.637C386.336 210.221 386.128 217.778 386.128 217.778C386.03 217.877 386.304 217.967 386.779 218.045C387.248 221.643 388.779 231.728 391.493 236.165C391.921 237.612 392.262 239.082 392.516 240.569C392.516 240.569 393.291 250.153 394.313 253C395.185 255.424 395.876 261.406 396.064 263.138C395.887 263.184 395.726 263.278 395.599 263.408C395.471 263.539 395.382 263.703 395.341 263.881C394.828 265.432 391.493 267.791 391.493 267.791C390.471 268.301 389.506 268.919 388.616 269.634C387.567 270.579 387.606 271.432 392.261 270.898C401.247 269.862 402.784 266.989 402.784 266.989C402.784 266.989 402.641 266.506 402.426 265.881C402.151 264.908 401.755 263.973 401.247 263.099C401.117 262.975 400.987 263.184 400.83 263.51C400.153 259.352 399.947 255.132 400.218 250.929C400.218 250.929 400.472 246.524 399.19 243.416C398.904 241.789 398.904 240.125 399.19 238.497C399.704 236.426 397.138 226.32 397.138 226.32L395.667 218.88C395.868 219.134 396.008 219.43 396.077 219.746L396.116 219.896L396.155 220.111C396.17 220.187 396.206 220.257 396.26 220.313C397.262 224.483 400.01 236.035 400.01 237.728C400.01 239.8 402.575 244.98 402.575 244.98C402.575 244.98 403.598 253.528 405.395 256.89C406.763 259.451 406.795 263.204 406.73 264.858C406.73 264.858 406.424 266.989 405.909 267.503C405.5 268.013 405.173 268.581 404.939 269.191L404.88 269.314C404.88 269.314 404.112 270.872 404.627 271.133C406.583 271.901 408.701 272.167 410.786 271.908C410.786 271.908 411.816 270.605 411.816 270.096C411.794 269.786 411.755 269.477 411.698 269.172C411.509 267.947 411.157 266.018 411.151 265.999C411.366 265.165 410.5 262.845 410.5 262.845L410.24 255.593C410.716 250.683 410.103 245.729 408.442 241.084C408.442 241.084 407.14 236.426 407.42 235.128C407.7 233.832 406.905 220.105 406.905 220.105L406.827 219.909C406.758 218.938 406.784 217.963 406.905 216.997C407.16 213.889 406.138 207.413 405.877 207.159C405.665 206.463 405.542 205.742 405.512 205.015C405.571 204.474 405.747 202.891 405.988 200.923C408.519 200.837 411.044 200.619 413.554 200.272C413.796 200.272 414.029 200.179 414.205 200.012C414.308 199.855 414.36 199.67 414.355 199.483C414.654 195.581 413.228 191.789 411.75 188.179ZM406.587 196.396C406.853 194.538 407.14 192.74 407.426 191.404L407.465 191.522C407.958 192.865 408.372 194.235 408.703 195.627C408.019 195.939 407.311 196.196 406.587 196.396Z" fill="url(#paint0_linear_234_149)"/>
<path d="M386.643 217.368C386.643 217.368 388.179 231.201 391.507 236.576C391.934 238.005 392.275 239.458 392.529 240.928C392.529 240.928 393.297 250.401 394.319 253.216C395.341 256.031 396.11 263.718 396.11 263.718C396.11 263.718 399.691 267.81 400.974 264.487C400.169 260.097 399.91 255.624 400.205 251.17C400.205 251.17 400.459 246.817 399.183 243.743C398.897 242.135 398.897 240.49 399.183 238.882C399.691 236.83 397.132 226.848 397.132 226.848L395.088 216.861L386.643 217.368Z" fill="#BE6F72"/>
<path d="M402.764 267.047C402.764 267.047 401.228 269.862 392.275 270.885C387.626 271.413 387.594 270.572 388.642 269.634C389.53 268.927 390.49 268.315 391.507 267.81C391.507 267.81 394.834 265.51 395.341 263.972C395.85 262.435 397.647 263.718 397.647 263.718C400.206 267.555 400.72 262.689 401.228 263.203C401.738 264.063 402.134 264.985 402.406 265.946C402.622 266.565 402.764 267.047 402.764 267.047Z" fill="#FF6F61"/>
<path opacity="0.1" d="M402.764 267.048C402.764 267.048 401.228 269.862 392.275 270.885C387.626 271.413 387.594 270.572 388.642 269.634C389.371 270.097 390.842 270.286 393.805 269.093C398.07 267.347 401.163 266.337 402.406 265.946C402.622 266.565 402.764 267.048 402.764 267.048Z" fill="black"/>
<path opacity="0.1" d="M400.205 251.17C400.205 251.17 400.46 246.817 399.183 243.743C398.898 242.135 398.898 240.49 399.183 238.882C399.692 236.83 397.132 226.848 397.132 226.848L395.088 216.861L393.317 216.964L395.341 226.848C395.341 226.848 397.9 236.83 397.393 238.882C397.107 240.49 397.107 242.135 397.393 243.743C398.695 246.817 398.415 251.17 398.415 251.17C398.12 255.624 398.378 260.097 399.183 264.487C399.045 264.904 398.787 265.272 398.441 265.543C399.392 265.973 400.394 265.954 400.974 264.487C400.169 260.097 399.91 255.624 400.205 251.17Z" fill="black"/>
<path d="M398.539 161.167C396.831 161.164 395.158 161.64 393.708 162.542C391.793 162.1 389.785 162.319 388.011 163.165C386.238 164.011 384.803 165.434 383.941 167.2C382.866 168.217 382.017 169.446 381.446 170.811C380.876 172.175 380.596 173.644 380.626 175.122C380.626 180.57 384.293 184.981 388.811 184.981C392.067 184.981 394.919 182.661 396.228 179.305C396.979 179.505 397.754 179.606 398.533 179.605C400.976 179.605 403.32 178.634 405.047 176.905C406.775 175.176 407.746 172.832 407.746 170.386C407.746 167.941 406.775 165.597 405.047 163.867C403.32 162.138 400.976 161.167 398.533 161.167H398.539Z" fill="#3B5B46"/>
<path d="M406.092 218.651L406.86 220.698C406.86 220.698 407.628 234.269 407.368 235.552C407.107 236.836 408.397 241.416 408.397 241.416C410.051 246.001 410.663 250.898 410.187 255.75L410.441 262.917C410.441 262.917 411.464 265.731 410.956 266.246C410.447 266.761 406.587 265.79 406.587 265.79C406.587 265.79 407.101 260.415 405.284 257.086C403.468 253.756 402.471 245.305 402.471 245.305C402.471 245.305 399.912 240.185 399.912 238.139C399.912 236.093 395.816 219.446 395.816 219.446L406.092 218.651Z" fill="#BE6F72"/>
<path d="M386.128 218.397C386.128 218.397 386.388 209.179 387.431 206.364C387.961 205.049 388.342 203.678 388.57 202.279C388.57 202.279 404.06 205.08 405.343 204.057C405.343 204.057 405.597 207.641 405.857 207.895C406.118 208.149 407.16 214.554 406.879 217.629C406.6 220.704 406.879 220.698 406.879 220.698C406.879 220.698 396.384 222.236 396.129 220.698C395.876 219.16 395.107 219.166 395.107 219.166C395.107 219.166 385.62 218.88 386.128 218.397Z" fill="#3B5B46"/>
<g opacity="0.1">
<path opacity="0.1" d="M394.573 218.398C394.573 218.398 388.101 218.222 386.148 217.87C386.148 218.202 386.148 218.398 386.148 218.398C385.639 218.906 395.107 219.167 395.107 219.167C395.236 219.178 395.359 219.229 395.459 219.31C395.114 218.398 394.573 218.398 394.573 218.398Z" fill="black"/>
<path opacity="0.1" d="M405.838 207.895C405.578 207.641 405.323 204.058 405.323 204.058C405.191 204.14 405.042 204.194 404.887 204.214C404.979 205.295 405.154 206.957 405.323 207.126C405.493 207.295 406.626 213.785 406.346 216.86C406.066 219.936 406.346 219.929 406.346 219.929C406.346 219.929 398.044 221.147 396.032 220.333C396.032 220.444 396.091 220.567 396.11 220.698C396.364 222.235 406.86 220.698 406.86 220.698C406.86 220.698 406.6 220.698 406.86 217.629C407.121 214.56 406.092 208.156 405.838 207.895Z" fill="black"/>
</g>
<path d="M397.406 177.298C397.626 177.792 397.961 178.225 398.383 178.563C398.654 178.764 398.968 178.901 399.3 178.96C398.728 179.292 398.102 179.54 397.529 179.872C396.628 180.478 395.759 181.131 394.925 181.827C394.073 182.513 393.029 182.918 391.937 182.987C392.32 182.47 392.56 181.861 392.633 181.221C392.706 180.582 392.61 179.935 392.353 179.345C392.119 178.958 391.964 178.528 391.897 178.08C391.897 177.345 392.548 176.778 393.154 176.387C393.642 176.054 394.144 175.735 394.652 175.416C395.049 175.168 395.648 174.647 396.149 174.666C396.651 174.686 396.709 175.129 396.801 175.585C396.929 176.18 397.132 176.755 397.406 177.298Z" fill="#BE6F72"/>
<path opacity="0.1" d="M397.406 177.298C397.626 177.792 397.961 178.225 398.383 178.563C398.654 178.764 398.968 178.901 399.3 178.96C398.728 179.292 398.102 179.54 397.529 179.872C396.628 180.478 395.759 181.131 394.925 181.827C394.073 182.513 393.029 182.918 391.937 182.987C392.32 182.47 392.56 181.861 392.633 181.221C392.706 180.582 392.61 179.935 392.353 179.345C392.119 178.958 391.964 178.528 391.897 178.08C391.897 177.345 392.548 176.778 393.154 176.387C393.642 176.054 394.144 175.735 394.652 175.416C395.049 175.168 395.648 174.647 396.149 174.666C396.651 174.686 396.709 175.129 396.801 175.585C396.929 176.18 397.132 176.755 397.406 177.298Z" fill="black"/>
<path d="M403.403 192.408C406.654 192.408 409.289 189.771 409.289 186.519C409.289 183.266 406.654 180.628 403.403 180.628C400.152 180.628 397.516 183.266 397.516 186.519C397.516 189.771 400.152 192.408 403.403 192.408Z" fill="#BE6F72"/>
<path d="M411.718 270.116C411.718 270.631 410.696 271.908 410.696 271.908C408.617 272.164 406.507 271.9 404.555 271.14C404.041 270.885 404.809 269.348 404.809 269.348L404.868 269.224C405.102 268.621 405.43 268.058 405.838 267.556C406.346 267.048 406.652 264.95 406.652 264.95C408.24 262.343 411.06 266.077 411.06 266.077C411.06 266.077 411.419 268.031 411.608 269.217C411.672 269.641 411.718 269.986 411.718 270.116Z" fill="#FF6F61"/>
<path opacity="0.1" d="M411.718 270.116C411.718 270.631 410.696 271.908 410.696 271.908C408.617 272.163 406.507 271.9 404.555 271.139C404.041 270.885 404.809 269.348 404.809 269.348L404.868 269.224C406.611 270.035 408.52 270.426 410.442 270.371L411.608 269.204C411.672 269.641 411.718 269.986 411.718 270.116Z" fill="black"/>
<path d="M391.63 179.983C394.809 179.983 397.386 177.405 397.386 174.224C397.386 171.043 394.809 168.464 391.63 168.464C388.451 168.464 385.874 171.043 385.874 174.224C385.874 177.405 388.451 179.983 391.63 179.983Z" fill="#BE6F72"/>
<path d="M386.987 185.743C385.725 186.949 385.516 188.857 385.386 190.597L385.19 193.144C385.12 193.83 385.105 194.522 385.145 195.209C385.145 195.634 385.249 196.064 385.289 196.513C385.327 196.962 385.34 197.529 385.347 198.044V201.81C385.285 202.587 385.429 203.367 385.763 204.071C385.943 204.411 386.242 204.673 386.603 204.802C386.965 204.933 387.363 204.923 387.717 204.775C388.121 204.463 388.407 204.02 388.524 203.523C389.159 201.996 389.597 200.393 389.827 198.754C389.878 198.187 389.885 197.621 389.937 197.054C389.99 196.487 390.087 195.894 390.172 195.321C390.537 192.923 390.699 190.5 390.862 188.083C390.907 187.365 391.552 184.544 390.614 184.231C390.159 184.081 389.215 184.551 388.779 184.708C388.118 184.928 387.509 185.28 386.987 185.743Z" fill="#BE6F72"/>
<path opacity="0.1" d="M386.987 185.743C385.725 186.949 385.516 188.857 385.386 190.597L385.19 193.144C385.12 193.83 385.105 194.522 385.145 195.209C385.145 195.634 385.249 196.064 385.289 196.513C385.327 196.962 385.34 197.529 385.347 198.044V201.81C385.285 202.587 385.429 203.367 385.763 204.071C385.943 204.411 386.242 204.673 386.603 204.802C386.965 204.933 387.363 204.923 387.717 204.775C388.121 204.463 388.407 204.02 388.524 203.523C389.159 201.996 389.597 200.393 389.827 198.754C389.878 198.187 389.885 197.621 389.937 197.054C389.99 196.487 390.087 195.894 390.172 195.321C390.537 192.923 390.699 190.5 390.862 188.083C390.907 187.365 391.552 184.544 390.614 184.231C390.159 184.081 389.215 184.551 388.779 184.708C388.118 184.928 387.509 185.28 386.987 185.743Z" fill="black"/>
<path d="M398.922 177.938C398.922 177.938 394.573 181.267 392.014 182.035C392.014 182.035 390.497 183.768 390.237 184.185C389.977 184.602 389.455 189.202 388.934 190.232C388.414 191.261 387.144 193.561 388.934 195.861C388.934 195.861 389.442 198.168 389.188 198.936C388.934 199.705 388.003 202.519 388.85 202.65C389.696 202.781 392.261 204.566 394.56 204.057C396.859 203.549 405.441 206.012 405.441 206.012C405.441 206.012 406.86 192.819 407.888 190.486L405.584 189.717C405.584 189.717 399.19 185.88 403.024 179.99C403.018 179.99 399.424 179.221 398.922 177.938Z" fill="#312E2D"/>
<path d="M383.041 193.359L388.328 197.106C388.395 197.155 388.476 197.182 388.56 197.182C388.643 197.182 388.724 197.155 388.791 197.106L390.224 196.031C390.268 195.993 390.303 195.946 390.328 195.893C390.351 195.84 390.364 195.783 390.364 195.724C390.364 195.667 390.351 195.609 390.328 195.556C390.303 195.503 390.268 195.456 390.224 195.419L386.154 191.803C386.101 191.755 386.037 191.722 385.966 191.708C385.896 191.694 385.824 191.7 385.757 191.724L383.146 192.662C383.077 192.686 383.016 192.728 382.97 192.784C382.924 192.84 382.893 192.908 382.883 192.979C382.872 193.051 382.881 193.124 382.909 193.191C382.937 193.258 382.983 193.317 383.041 193.359Z" fill="#3B5B46"/>
<path d="M384.819 204.644C384.446 203.346 384.259 202.001 384.266 200.65L384.188 198.845C384.109 198.145 384.173 197.435 384.377 196.761C384.577 196.297 384.878 195.885 385.258 195.553C385.638 195.22 386.086 194.976 386.571 194.839C387.543 194.569 388.559 194.496 389.559 194.624C389.694 194.624 389.827 194.659 389.943 194.727C390.046 194.822 390.118 194.944 390.152 195.079C390.3 195.368 390.387 195.685 390.407 196.009C390.427 196.333 390.38 196.658 390.269 196.963C390.118 197.211 389.914 197.422 389.67 197.582C388.96 198.089 388.133 198.429 387.463 198.983C387.327 199.074 387.222 199.206 387.163 199.36C387.131 199.495 387.131 199.636 387.163 199.771C387.247 200.129 387.36 200.48 387.502 200.82C387.559 200.991 387.66 201.143 387.795 201.262C387.919 201.367 388.082 201.406 388.211 201.503C388.492 201.732 389.078 202.031 389.045 202.39C388.947 203.692 388.166 205.152 387.86 206.442C387.274 208.964 385.197 205.745 384.819 204.644Z" fill="#BE6F72"/>
<g opacity="0.1">
<path opacity="0.1" d="M393.043 204.058H392.9C393.453 204.165 394.02 204.165 394.573 204.058H394.736C394.174 203.976 393.604 203.976 393.043 204.058Z" fill="black"/>
<path opacity="0.1" d="M406.476 190.102C405.558 192.167 404.204 203.355 403.962 205.576C404.861 205.811 405.454 205.98 405.454 205.98C405.454 205.98 406.86 192.819 407.889 190.487L406.476 190.102Z" fill="black"/>
</g>
<path d="M403.605 186.701C403.652 186.959 403.752 187.203 403.895 187.422C404.04 187.64 404.226 187.827 404.445 187.971C404.988 188.428 405.487 188.933 405.936 189.483C406.579 190.388 407.078 191.389 407.414 192.448C407.903 193.773 408.313 195.126 408.644 196.5C405.389 198.012 401.69 197.939 398.226 198.936C396.734 199.33 395.382 200.131 394.319 201.25C393.79 201.812 393.386 202.482 393.138 203.214C392.89 203.946 392.802 204.723 392.881 205.491C392.885 205.581 392.912 205.668 392.958 205.746C393.015 205.809 393.085 205.859 393.164 205.89C393.244 205.922 393.329 205.935 393.414 205.928C394.28 205.927 395.12 205.638 395.804 205.107C396.479 204.578 397.093 203.975 397.634 203.308C397.969 202.871 398.42 202.538 398.936 202.345C400.817 201.771 402.843 201.804 404.796 201.771C407.718 201.714 410.633 201.483 413.527 201.08C413.634 201.093 413.741 201.081 413.841 201.046C413.942 201.011 414.033 200.954 414.108 200.879C414.183 200.804 414.241 200.713 414.275 200.612C414.31 200.512 414.322 200.405 414.309 200.298C414.596 196.454 413.17 192.701 411.705 189.138C411.118 187.708 410.516 186.286 409.895 184.87C409.384 183.487 408.634 182.204 407.68 181.079C407.318 180.669 406.875 180.341 406.379 180.114C405.818 179.912 405.228 179.802 404.633 179.788C403.686 179.66 402.726 179.643 401.775 179.736C401.623 180.216 401.531 180.713 401.501 181.215C401.553 182.974 402.322 184.622 403.077 186.212C403.174 186.454 403.455 186.467 403.605 186.701Z" fill="#BE6F72"/>
<path opacity="0.1" d="M393.18 189.998C392.739 190.752 392.514 191.613 392.529 192.486C392.531 192.832 392.585 193.175 392.692 193.503C392.869 193.964 393.149 194.378 393.507 194.717C393.867 195.055 394.298 195.308 394.768 195.457" stroke="black" stroke-width="0.870736" stroke-miterlimit="10"/>
<path d="M396.494 168.595C396.174 168.593 395.855 168.644 395.55 168.745C394.697 167.441 392.692 166.542 390.342 166.542C387.229 166.542 384.709 168.152 384.709 170.133C384.709 172.113 387.229 173.716 390.342 173.716C391.507 173.728 392.66 173.483 393.721 172.999C393.959 173.493 394.325 173.913 394.781 174.217C395.237 174.521 395.766 174.697 396.313 174.727C396.861 174.757 397.406 174.64 397.892 174.388C398.378 174.136 398.789 173.758 399.079 173.294C399.371 172.829 399.532 172.295 399.547 171.748C399.563 171.199 399.43 170.658 399.166 170.178C398.9 169.698 398.511 169.298 398.039 169.02C397.567 168.741 397.03 168.595 396.481 168.595H396.494Z" fill="#3B5B46"/>
<path opacity="0.1" d="M396.748 173.969C396.171 173.97 395.605 173.806 395.117 173.499C394.628 173.19 394.237 172.751 393.987 172.23C392.928 172.714 391.774 172.959 390.608 172.946C387.502 172.946 384.982 171.343 384.982 169.363C384.972 169.243 384.972 169.124 384.982 169.005C384.797 169.351 384.699 169.738 384.696 170.131C384.696 172.086 387.215 173.715 390.328 173.715C391.493 173.728 392.647 173.483 393.708 172.999C393.988 173.58 394.444 174.058 395.013 174.366C395.581 174.672 396.231 174.792 396.871 174.707C397.511 174.623 398.108 174.339 398.577 173.895C399.045 173.451 399.363 172.871 399.483 172.236C399.235 172.752 398.848 173.189 398.364 173.495C397.88 173.802 397.32 173.966 396.748 173.969Z" fill="black"/>
<path opacity="0.1" d="M383.947 168.711C384.809 166.945 386.244 165.523 388.018 164.676C389.791 163.83 391.799 163.611 393.714 164.053C395.053 163.226 396.583 162.756 398.156 162.688C399.729 162.621 401.293 162.958 402.699 163.667C404.104 164.377 405.304 165.436 406.185 166.742C407.065 168.048 407.596 169.559 407.726 171.129C407.726 170.874 407.726 170.621 407.726 170.36C407.722 168.721 407.283 167.114 406.451 165.701C405.62 164.29 404.427 163.126 402.995 162.329C401.565 161.532 399.947 161.132 398.31 161.17C396.672 161.206 395.075 161.68 393.681 162.541C391.767 162.099 389.759 162.319 387.985 163.165C386.212 164.011 384.777 165.433 383.914 167.2C382.84 168.216 381.99 169.446 381.42 170.811C380.849 172.175 380.57 173.644 380.6 175.123C380.6 175.383 380.6 175.637 380.6 175.891C380.728 173.15 381.93 170.571 383.947 168.711Z" fill="black"/>
<path d="M442.653 197.659C444.352 194.512 442.425 190.649 440.205 187.841C437.985 185.032 435.289 182.114 435.347 178.53C435.425 173.39 440.881 170.354 445.245 167.624C448.479 165.596 451.46 163.19 454.126 160.457C455.246 159.409 456.172 158.172 456.86 156.801C457.759 154.788 457.733 152.502 457.681 150.287C457.49 142.945 457.128 135.614 456.594 128.29" stroke="#3B5B46" stroke-width="3.48294" stroke-miterlimit="10"/>
<path d="M464.876 127.899C464.814 126.557 464.415 125.252 463.716 124.105C463.018 122.957 462.042 122.003 460.878 121.332L459.081 124.883L459.133 120.583C458.279 120.327 457.387 120.219 456.496 120.264C454.912 120.338 453.386 120.879 452.11 121.821C450.835 122.764 449.867 124.063 449.329 125.555C448.791 127.048 448.708 128.665 449.09 130.206C449.471 131.745 450.3 133.138 451.472 134.205C452.645 135.273 454.107 135.97 455.675 136.206C457.243 136.443 458.845 136.209 460.28 135.534C461.715 134.858 462.917 133.773 463.735 132.414C464.553 131.056 464.95 129.484 464.876 127.899Z" fill="#8BA996"/>
<path d="M450.584 182.192C449.743 183.828 448.366 185.126 446.682 185.866C444.999 186.607 443.112 186.746 441.34 186.26C439.566 185.774 438.013 184.694 436.941 183.199C435.87 181.704 435.345 179.885 435.454 178.048C435.563 176.212 436.3 174.469 437.541 173.111C438.782 171.754 440.452 170.864 442.27 170.592C444.089 170.32 445.946 170.683 447.53 171.617C449.113 172.552 450.327 174.004 450.968 175.729L445.961 179.807L451.47 178.504C451.475 179.786 451.171 181.051 450.584 182.192Z" fill="#8BA996"/>
<path d="M446.625 166.614C444.657 166.708 442.723 166.075 441.193 164.833C439.663 163.593 438.642 161.83 438.328 159.884C438.013 157.939 438.425 155.945 439.486 154.283C440.547 152.623 442.182 151.411 444.079 150.879L444.04 154.182L445.857 150.592C447.981 150.495 450.056 151.245 451.627 152.679C453.199 154.111 454.137 156.11 454.237 158.235C454.287 159.287 454.129 160.339 453.772 161.329C453.416 162.321 452.867 163.232 452.159 164.01C451.45 164.79 450.595 165.421 449.641 165.869C448.689 166.316 447.657 166.571 446.606 166.62L446.625 166.614Z" fill="#8BA996"/>
<path d="M466.081 153.662C464.838 153.724 463.598 153.498 462.458 152.998C461.319 152.499 460.31 151.741 459.514 150.785C458.718 149.828 458.155 148.699 457.871 147.487C457.586 146.275 457.587 145.014 457.874 143.802C458.16 142.59 458.726 141.463 459.523 140.508C460.322 139.552 461.331 138.797 462.471 138.298C463.611 137.801 464.852 137.577 466.095 137.642C467.337 137.707 468.547 138.062 469.63 138.676L468.211 142.585L471.127 139.784C471.904 140.49 472.535 141.343 472.981 142.293C473.429 143.243 473.683 144.273 473.732 145.322C473.771 146.064 473.703 146.808 473.53 147.531C473.121 149.223 472.174 150.736 470.83 151.843C469.486 152.949 467.82 153.587 466.081 153.662Z" fill="#8BA996"/>
<path opacity="0.1" d="M463.802 130.036C461.952 130.245 460.149 130.818 458.293 130.935C456.437 131.053 454.387 130.603 453.221 129.156C452.676 128.319 452.183 127.448 451.742 126.55C451.235 125.761 450.541 125.108 449.724 124.648C449.205 125.665 448.908 126.781 448.854 127.922C448.801 129.062 448.991 130.201 449.412 131.263C449.834 132.323 450.477 133.283 451.299 134.075C452.121 134.868 453.102 135.474 454.178 135.857C455.253 136.239 456.398 136.387 457.535 136.291C458.672 136.195 459.776 135.858 460.772 135.3C461.768 134.743 462.634 133.979 463.312 133.06C463.989 132.141 464.463 131.088 464.7 129.971C464.401 129.984 464.101 130.004 463.802 130.036Z" fill="black"/>
<path opacity="0.1" d="M466.081 153.661C464.7 153.724 463.325 153.43 462.091 152.805C460.857 152.18 459.805 151.247 459.038 150.096C458.271 148.945 457.814 147.614 457.712 146.235C457.61 144.855 457.866 143.471 458.456 142.22C459.093 142.647 459.642 143.194 460.071 143.829C460.547 144.744 461.077 145.63 461.66 146.481C462.903 147.954 465.039 148.435 466.973 148.345C468.907 148.253 470.776 147.693 472.703 147.53C472.97 147.53 473.243 147.485 473.511 147.478C473.113 149.177 472.172 150.7 470.831 151.816C469.49 152.932 467.823 153.58 466.081 153.661Z" fill="black"/>
<path opacity="0.1" d="M446.625 166.614C445.254 166.681 443.891 166.395 442.662 165.783C441.434 165.171 440.384 164.253 439.613 163.119C438.841 161.984 438.373 160.67 438.255 159.303C438.136 157.935 438.37 156.56 438.935 155.31C439.592 155.747 440.165 156.299 440.628 156.938C441.279 157.819 441.637 158.835 442.366 159.643C443.721 161.154 445.994 161.682 448.044 161.636C450.096 161.591 451.951 161.102 453.904 160.952C453.421 162.531 452.462 163.922 451.16 164.935C449.857 165.949 448.273 166.535 446.625 166.614Z" fill="black"/>
<path opacity="0.1" d="M450.583 182.192C449.627 183.981 448.029 185.342 446.111 186.001C444.194 186.659 442.097 186.566 440.245 185.74C438.392 184.915 436.921 183.418 436.127 181.55C435.333 179.683 435.276 177.585 435.965 175.676C436.627 176.108 437.22 176.638 437.723 177.247C438.492 178.179 438.994 179.201 439.872 180.1C441.514 181.71 444.157 182.368 446.514 182.433C447.874 182.431 449.233 182.351 450.583 182.192Z" fill="black"/>
<path d="M209.293 204.767C209.302 203.768 209.075 202.78 208.634 201.884C208.191 200.988 207.545 200.208 206.747 199.607C206.737 197.841 206.104 196.134 204.959 194.79C203.814 193.444 202.231 192.548 200.49 192.258C200.221 190.974 199.619 189.783 198.745 188.805C197.87 187.827 196.754 187.097 195.508 186.687C195.206 186.593 194.897 186.52 194.584 186.472H194.493H194.33H194.199H194.057H193.881H193.484C191.754 186.512 190.093 187.164 188.797 188.311C187.5 189.457 186.651 191.026 186.399 192.74C184.114 192.212 182.024 192.897 181.639 194.343C181.543 194.727 181.566 195.131 181.704 195.503C182.095 196.623 183.365 197.698 185.065 198.226L185.286 198.291L185.617 198.375H185.69C185.327 199.148 185.139 199.991 185.142 200.845C185.137 201.892 185.421 202.921 185.961 203.817C186.503 204.714 187.281 205.444 188.21 205.927L188.06 206.018C187.847 206.211 187.679 206.446 187.564 206.709C187.153 207.436 186.832 208.21 186.608 209.015C186.445 209.706 186.419 210.423 186.217 211.106C185.84 212.364 184.876 213.426 184.765 214.736C184.713 215.323 184.81 216.039 184.394 216.417C184.291 216.506 184.18 216.584 184.061 216.651C183.773 216.855 183.528 217.114 183.339 217.413C183.214 217.685 183.042 217.932 182.831 218.143C182.453 218.423 181.835 218.397 181.652 218.834C181.47 219.27 181.946 219.785 181.835 220.26C181.724 220.737 181.32 220.827 181.027 221.095C180.687 221.461 180.446 221.91 180.33 222.398C179.715 222.516 179.08 222.496 178.472 222.341C177.864 222.185 177.298 221.897 176.814 221.499C176.981 221.919 177.103 222.356 177.179 222.802C176.612 222.369 175.97 222.046 175.284 221.85C174.513 221.5 173.825 220.988 173.266 220.352L174.347 220.202L169.574 212.911L168.161 212.618L169.424 215.048C169.318 215.097 169.225 215.168 169.151 215.257C169.076 215.346 169.023 215.451 168.994 215.563C168.927 215.834 168.912 216.114 168.949 216.391C169.013 217.048 169.122 217.701 169.275 218.345L169.639 220.052C169.672 220.208 169.711 220.372 169.756 220.528C169.28 220.504 168.803 220.557 168.343 220.685C167.396 220.332 166.411 220.098 165.407 219.987C165.192 219.944 164.971 219.944 164.756 219.987C164.513 220.103 164.3 220.274 164.137 220.489C163.314 221.443 162.585 222.473 161.955 223.564C159.351 228.034 155.958 231.936 152.749 235.975C150.535 236.875 148.301 237.728 146.068 238.582L141.262 240.419C140.325 240.845 139.309 241.067 138.281 241.071C137.825 241.071 137.259 240.973 136.978 241.364C136.853 241.567 136.754 241.787 136.685 242.016L136.19 242.067C135.962 241.285 135.569 240.561 135.038 239.943C134.921 239.963 134.81 240.012 134.716 240.085C134.622 240.158 134.546 240.253 134.497 240.361C134.38 240.576 134.308 240.81 134.172 241.012C133.918 241.39 133.468 241.573 133.15 241.891C132.83 242.211 132.629 242.706 132.277 243.032C131.797 243.386 131.235 243.611 130.643 243.683C129.75 243.891 128.89 244.218 128.084 244.654C127.788 244.839 127.471 244.986 127.14 245.09C126.773 245.163 126.397 245.176 126.026 245.13L123.487 244.941C123.259 244.913 123.027 244.923 122.803 244.974C122.548 245.077 122.332 245.259 122.188 245.494C122.042 245.728 121.975 246.002 121.995 246.276C122.028 246.552 122.116 246.819 122.256 247.06C122.394 247.3 122.581 247.511 122.803 247.677C123.242 248.002 123.73 248.255 124.249 248.426C126.446 249.283 128.711 249.953 131.021 250.433V250.948C132.636 251.763 134.42 252.187 136.229 252.186C136.363 252.195 136.498 252.17 136.62 252.115C136.787 251.99 136.902 251.809 136.946 251.606C137.486 249.99 137.827 248.314 137.961 246.615C138.279 246.594 138.59 246.514 138.88 246.381C139.752 246.14 140.625 246.739 141.529 246.837C142.643 246.961 143.672 246.309 144.727 245.911L145.182 245.762C144.882 246.148 144.527 246.489 144.128 246.772C143.692 247.084 143.203 247.319 142.78 247.644C142.421 247.969 142.038 248.266 141.634 248.531C141.348 248.663 141.055 248.776 140.755 248.869C140.31 249.035 139.889 249.253 139.498 249.521C139.152 249.728 138.859 250.014 138.645 250.355C138.538 250.53 138.476 250.728 138.463 250.932C138.451 251.137 138.489 251.341 138.573 251.528C138.663 251.68 138.785 251.811 138.929 251.912C139.075 252.014 139.239 252.082 139.414 252.115C139.757 252.166 140.106 252.166 140.449 252.115C141.829 252.01 143.203 251.886 144.577 251.762C145.158 251.725 145.734 251.643 146.302 251.515C146.602 251.443 146.901 251.346 147.201 251.26C147.715 251.131 148.24 251.052 148.771 251.026C148.924 251.014 149.078 251.03 149.226 251.071C149.545 251.176 149.773 251.502 150.098 251.567C150.32 251.595 150.543 251.566 150.75 251.482C151.753 251.266 152.777 251.157 153.803 251.157C154.253 251.157 154.78 251.045 154.988 250.629C155.197 250.212 154.82 249.541 154.65 248.987C154.563 248.633 154.515 248.27 154.507 247.905C154.428 247.008 154.172 246.135 153.751 245.339C153.525 244.967 153.335 244.574 153.185 244.166C155.154 243.417 157.038 242.461 158.804 241.311C159.771 240.61 160.856 240.088 162.007 239.768C163.368 239.606 164.746 239.766 166.032 240.237C169.162 241.144 172.242 242.219 175.258 243.455C176.698 244.048 178.13 244.673 179.615 245.123C180.047 245.704 180.571 246.213 181.164 246.628C182.189 247.205 183.341 247.521 184.518 247.547C186.087 247.69 187.663 247.749 189.238 247.723C190.444 247.775 191.646 247.553 192.754 247.071C193.019 246.939 193.266 246.775 193.49 246.583C193.916 246.619 194.343 246.561 194.744 246.414C195.144 246.266 195.507 246.033 195.808 245.729C196.662 244.997 197.277 244.025 197.573 242.941C197.957 241.455 197.664 239.683 198.576 238.497C198.816 238.172 199.136 237.911 199.376 237.585C199.668 237.139 199.814 236.613 199.793 236.08C199.804 236.059 199.817 236.039 199.832 236.022C200.032 235.543 200.163 235.039 200.222 234.523C200.335 234.117 200.476 233.721 200.646 233.337C201.109 232.188 201.513 231.016 201.857 229.825C202.092 229.034 202.279 228.229 202.417 227.414C202.515 226.763 202.573 226.112 202.626 225.46C202.694 224.433 202.894 223.419 203.218 222.443C204.033 220.119 204.494 217.686 204.586 215.224V215.081C205.785 214.943 206.89 214.361 207.683 213.45C208.475 212.539 208.898 211.363 208.87 210.156C208.87 209.43 208.717 208.713 208.42 208.051C208.997 207.053 209.297 205.919 209.293 204.767ZM185.995 233.089C186.067 233.343 186.152 233.591 186.237 233.839C185.853 233.467 185.481 233.083 185.097 232.705C185.247 232.757 185.403 232.803 185.546 232.862C185.697 232.923 185.84 232.999 185.976 233.089H185.995ZM184.153 231.839C181.899 229.884 179.295 228.366 176.99 226.47C178.247 227.089 179.471 227.812 180.682 228.503C182.119 229.324 183.576 230.112 185.051 230.868C184.809 231.247 184.498 231.576 184.133 231.839H184.153ZM185.11 226.913L185.22 226.802C185.22 227.083 185.22 227.336 185.22 227.577L184.615 227.369C184.782 227.226 184.942 227.075 185.091 226.913H185.11ZM165.296 232.19C166.22 231.144 167.024 229.996 167.693 228.77C168.584 230.327 170.037 231.454 171.267 232.763C169.281 232.51 167.288 232.295 165.296 232.19Z" fill="url(#paint1_linear_234_149)"/>
<path d="M168.5 213.218L169.919 213.505L174.757 220.665L172.628 220.951L168.5 213.218Z" fill="#2F2E41"/>
<path d="M134.08 242.263C134.466 243.527 134.94 244.761 135.5 245.957C137.104 245.618 138.68 245.167 140.221 244.608C139.917 244.156 139.589 243.722 139.238 243.305C138.855 242.889 138.404 242.544 137.903 242.282C137.369 242.161 136.815 242.161 136.282 242.282C135.552 242.263 134.816 242.276 134.08 242.263Z" fill="#FBBEBE"/>
<path d="M137.909 244.172C137.524 244 137.181 243.746 136.902 243.429C136.624 243.112 136.417 242.739 136.295 242.335C136.047 241.523 135.627 240.774 135.064 240.14C134.945 240.155 134.833 240.201 134.737 240.274C134.641 240.345 134.565 240.44 134.517 240.55C134.4 240.758 134.329 240.993 134.198 241.201C133.938 241.573 133.481 241.755 133.157 242.067C132.831 242.381 132.635 242.869 132.283 243.188C131.8 243.545 131.232 243.77 130.637 243.84C129.73 244.045 128.854 244.366 128.031 244.798C127.73 244.978 127.41 245.122 127.074 245.227C126.704 245.283 126.326 245.283 125.955 245.227L123.39 245.045C123.174 245.01 122.953 245.01 122.738 245.045C122.476 245.14 122.253 245.32 122.106 245.557C121.958 245.792 121.894 246.071 121.924 246.348C121.955 246.623 122.043 246.889 122.183 247.126C122.323 247.364 122.513 247.571 122.738 247.73C123.184 248.05 123.675 248.3 124.197 248.473C126.43 249.315 128.73 249.968 131.073 250.427V250.935C132.704 251.736 134.497 252.153 136.314 252.153C136.448 252.162 136.581 252.139 136.705 252.089C136.871 251.964 136.987 251.783 137.03 251.58C137.648 249.78 138.009 247.903 138.105 246.003C138.147 245.52 138.109 245.034 137.994 244.563C137.851 244.101 138.332 244.296 137.89 244.114" fill="#2F2E41"/>
<path d="M187.109 234.497C179.504 234.953 171.989 232.724 164.371 232.49C163.426 232.428 162.476 232.487 161.545 232.666C160.576 232.929 159.638 233.294 158.746 233.754C154.663 235.657 150.437 237.233 146.217 238.804L141.367 240.608C140.424 241.035 139.4 241.257 138.365 241.26C137.903 241.26 137.336 241.162 137.062 241.547C136.274 242.72 136.646 244.433 137.167 245.749C137.336 246.173 137.622 246.635 138.079 246.681C138.398 246.659 138.712 246.58 139.003 246.446C139.882 246.211 140.761 246.804 141.673 246.903C142.793 247.019 143.834 246.381 144.896 245.99C146.654 245.339 148.568 245.339 150.417 245.052C153.511 244.537 156.381 243.097 159.064 241.462C160.039 240.767 161.131 240.25 162.288 239.938C163.657 239.776 165.046 239.934 166.344 240.4C169.499 241.291 172.605 242.348 175.649 243.567C177.231 244.256 178.853 244.849 180.506 245.345C184.114 246.29 187.93 246.061 191.4 244.694C192.617 244.211 193.939 243.39 194.004 242.048C194.05 241.299 193.464 240.641 193.08 239.996C192.832 239.586 192.578 239.175 192.312 238.778C191.009 236.888 189.421 234.36 187.109 234.497Z" fill="#2F2E41"/>
<path opacity="0.1" d="M187.109 234.497C179.504 234.953 171.989 232.724 164.371 232.49C163.426 232.428 162.476 232.487 161.545 232.666C160.576 232.929 159.638 233.294 158.746 233.754C154.663 235.657 150.437 237.233 146.217 238.804L141.367 240.608C140.424 241.035 139.4 241.257 138.365 241.26C137.903 241.26 137.336 241.162 137.062 241.547C136.274 242.72 136.646 244.433 137.167 245.749C137.336 246.173 137.622 246.635 138.079 246.681C138.398 246.659 138.712 246.58 139.003 246.446C139.882 246.211 140.761 246.804 141.673 246.903C142.793 247.019 143.834 246.381 144.896 245.99C146.654 245.339 148.568 245.339 150.417 245.052C153.511 244.537 156.381 243.097 159.064 241.462C160.039 240.767 161.131 240.25 162.288 239.938C163.657 239.776 165.046 239.934 166.344 240.4C169.499 241.291 172.605 242.348 175.649 243.567C177.231 244.256 178.853 244.849 180.506 245.345C184.114 246.29 187.93 246.061 191.4 244.694C192.617 244.211 193.939 243.39 194.004 242.048C194.05 241.299 193.464 240.641 193.08 239.996C192.832 239.586 192.578 239.175 192.312 238.778C191.009 236.888 189.421 234.36 187.109 234.497Z" fill="black"/>
<path d="M148.686 242.615C149.875 243.019 151.075 243.393 152.287 243.736C152.938 242.621 154.24 241.846 154.52 240.569C154.536 240.514 154.536 240.455 154.52 240.4C154.488 240.346 154.44 240.303 154.383 240.277C153.513 239.798 152.548 239.516 151.557 239.448C150.776 239.403 150.418 240.217 150.066 240.791C149.929 241.045 149.005 242.739 148.686 242.615Z" fill="#FBBEBE"/>
<path d="M150.353 241.82C149.996 241.76 149.657 241.626 149.356 241.428C149.054 241.229 148.797 240.97 148.601 240.667C148.438 240.374 148.256 239.976 147.917 240.015C147.578 240.054 147.468 240.406 147.396 240.713C147.171 241.867 146.842 242.998 146.413 244.094C145.983 245.195 145.255 246.154 144.31 246.863C143.867 247.169 143.379 247.397 142.943 247.723C142.581 248.043 142.196 248.335 141.79 248.596C141.502 248.725 141.207 248.834 140.904 248.922C140.459 249.089 140.036 249.308 139.642 249.573C139.29 249.775 138.993 250.059 138.775 250.401C138.667 250.572 138.605 250.767 138.594 250.969C138.583 251.17 138.623 251.372 138.71 251.554C138.801 251.704 138.923 251.833 139.068 251.931C139.213 252.031 139.378 252.097 139.55 252.127C139.898 252.179 140.251 252.179 140.599 252.127C141.986 252.03 143.373 251.906 144.759 251.782C145.344 251.744 145.925 251.664 146.498 251.541L147.403 251.293C147.92 251.156 148.451 251.078 148.986 251.059C149.141 251.045 149.297 251.06 149.447 251.104C149.767 251.209 149.995 251.528 150.326 251.593C150.547 251.614 150.77 251.586 150.978 251.508C151.99 251.291 153.022 251.184 154.058 251.189C154.513 251.189 155.047 251.072 155.256 250.668C155.516 250.159 155.086 249.592 154.91 249.046C154.826 248.697 154.779 248.341 154.767 247.983C154.69 247.098 154.43 246.237 154.005 245.456C153.654 244.804 153.172 244.088 153.419 243.397C153.542 243.178 153.622 242.937 153.654 242.687C153.556 241.566 150.991 241.963 150.353 241.82Z" fill="#2F2E41"/>
<path d="M175.708 222.288C174.358 221.696 173.276 220.623 172.673 219.278C172.549 218.99 172.446 218.685 172.322 218.398C171.924 217.426 171.304 216.563 170.512 215.877C170.428 215.788 170.327 215.717 170.215 215.668C170.103 215.621 169.982 215.596 169.861 215.596C169.739 215.633 169.631 215.701 169.544 215.794C169.458 215.886 169.399 216 169.372 216.124C169.299 216.389 169.281 216.666 169.32 216.938C169.386 217.579 169.495 218.214 169.645 218.841L170.016 220.522C170.066 220.779 170.142 221.03 170.245 221.271C170.403 221.553 170.613 221.803 170.863 222.007C171.201 222.32 171.547 222.62 171.892 222.919C172.091 223.093 172.31 223.244 172.543 223.369C172.906 223.543 173.296 223.657 173.695 223.708C175.25 223.91 176.732 224.482 178.019 225.375C178.019 225.375 178.019 224.249 178.019 224.125C178.003 223.798 177.89 223.482 177.694 223.219C177.097 222.784 176.423 222.468 175.708 222.288Z" fill="#FBBEBE"/>
<path opacity="0.1" d="M175.708 222.288C174.358 221.696 173.276 220.623 172.673 219.278C172.549 218.99 172.446 218.685 172.322 218.398C171.924 217.426 171.304 216.563 170.512 215.877C170.428 215.788 170.327 215.717 170.215 215.668C170.103 215.621 169.982 215.596 169.861 215.596C169.739 215.633 169.631 215.701 169.544 215.794C169.458 215.886 169.399 216 169.372 216.124C169.299 216.389 169.281 216.666 169.32 216.938C169.386 217.579 169.495 218.214 169.645 218.841L170.016 220.522C170.066 220.779 170.142 221.03 170.245 221.271C170.403 221.553 170.613 221.803 170.863 222.007C171.201 222.32 171.547 222.62 171.892 222.919C172.091 223.093 172.31 223.244 172.543 223.369C172.906 223.543 173.296 223.657 173.695 223.708C175.25 223.91 176.732 224.482 178.019 225.375C178.019 225.375 178.019 224.249 178.019 224.125C178.003 223.798 177.89 223.482 177.694 223.219C177.097 222.784 176.423 222.468 175.708 222.288Z" fill="black"/>
<path d="M191.192 209.426C192.213 209.426 193.041 208.592 193.041 207.563C193.041 206.533 192.213 205.699 191.192 205.699C190.17 205.699 189.342 206.533 189.342 207.563C189.342 208.592 190.17 209.426 191.192 209.426Z" fill="#2F2E41"/>
<path d="M190.046 206.442C189.551 206.323 189.029 206.398 188.587 206.65C188.373 206.841 188.203 207.073 188.086 207.335C187.671 208.048 187.348 208.809 187.122 209.602C186.959 210.253 186.933 210.99 186.725 211.66C186.347 212.899 185.377 213.948 185.266 215.237C185.214 215.817 185.312 216.495 184.889 216.886C184.785 216.975 184.674 217.056 184.557 217.127C184.263 217.323 184.015 217.578 183.827 217.877C183.7 218.142 183.526 218.383 183.313 218.586C182.936 218.867 182.31 218.841 182.127 219.239C181.945 219.636 182.421 220.176 182.31 220.646C182.2 221.115 181.789 221.205 181.496 221.467C181.151 221.831 180.908 222.281 180.793 222.769C180.174 222.889 179.537 222.872 178.925 222.72C178.314 222.568 177.742 222.285 177.25 221.89C177.681 223.196 177.868 224.569 177.804 225.942C177.836 226.162 177.824 226.386 177.769 226.601C177.713 226.816 177.614 227.018 177.479 227.194C178.948 227.303 180.403 227.556 181.822 227.949C182.437 228.154 183.102 228.154 183.717 227.949C184.046 227.773 184.341 227.538 184.589 227.259C185.37 226.464 186.191 225.597 186.379 224.496C186.426 223.874 186.438 223.25 186.412 222.627C186.486 221.853 186.646 221.091 186.888 220.352C187.3 218.821 187.577 217.255 187.714 215.675C187.799 214.697 188.646 213.915 189.088 213.068C189.922 211.42 190.782 209.707 190.84 207.856C190.866 207.256 190.658 206.507 190.046 206.442Z" fill="#2F2E41"/>
<path opacity="0.1" d="M190.046 206.442C189.551 206.323 189.029 206.398 188.587 206.65C188.373 206.841 188.203 207.073 188.086 207.335C187.671 208.048 187.348 208.809 187.122 209.602C186.959 210.253 186.933 210.99 186.725 211.66C186.347 212.899 185.377 213.948 185.266 215.237C185.214 215.817 185.312 216.495 184.889 216.886C184.785 216.975 184.674 217.056 184.557 217.127C184.263 217.323 184.015 217.578 183.827 217.877C183.7 218.142 183.526 218.383 183.313 218.586C182.936 218.867 182.31 218.841 182.127 219.239C181.945 219.636 182.421 220.176 182.31 220.646C182.2 221.115 181.789 221.205 181.496 221.467C181.151 221.831 180.908 222.281 180.793 222.769C180.174 222.889 179.537 222.872 178.925 222.72C178.314 222.568 177.742 222.285 177.25 221.89C177.681 223.196 177.868 224.569 177.804 225.942C177.836 226.162 177.824 226.386 177.769 226.601C177.713 226.816 177.614 227.018 177.479 227.194C178.948 227.303 180.403 227.556 181.822 227.949C182.437 228.154 183.102 228.154 183.717 227.949C184.046 227.773 184.341 227.538 184.589 227.259C185.37 226.464 186.191 225.597 186.379 224.496C186.426 223.874 186.438 223.25 186.412 222.627C186.486 221.853 186.646 221.091 186.888 220.352C187.3 218.821 187.577 217.255 187.714 215.675C187.799 214.697 188.646 213.915 189.088 213.068C189.922 211.42 190.782 209.707 190.84 207.856C190.866 207.256 190.658 206.507 190.046 206.442Z" fill="black"/>
<path d="M188.313 236.1C186.731 235.344 185.572 233.943 184.289 232.738C181.848 230.438 178.859 228.829 176.287 226.659C174.581 225.232 173.031 223.571 171.188 222.372C169.538 221.325 167.669 220.672 165.725 220.463C165.511 220.414 165.288 220.414 165.074 220.463C164.829 220.568 164.614 220.736 164.456 220.952C163.625 221.889 162.886 222.903 162.249 223.981C158.993 229.519 154.363 234.171 150.528 239.318C150.44 239.425 150.376 239.55 150.34 239.683C150.323 239.883 150.373 240.082 150.482 240.25L151.264 241.775C151.7 242.635 152.403 243.631 153.341 243.462C153.763 243.34 154.141 243.097 154.428 242.765L157.931 239.41L161.604 235.898C163.752 233.846 165.94 231.741 167.347 229.109C168.44 231.012 170.387 232.256 171.716 233.996C172.224 234.647 172.641 235.384 173.096 236.087C173.819 237.208 174.646 238.263 175.466 239.345L179.679 244.72C180.214 245.479 180.874 246.14 181.633 246.674C182.672 247.24 183.83 247.55 185.012 247.58C186.594 247.721 188.183 247.778 189.772 247.749C190.988 247.799 192.201 247.576 193.321 247.098C193.879 246.852 194.356 246.453 194.696 245.946C195.036 245.44 195.225 244.848 195.242 244.237C195.176 243.607 194.97 242.998 194.636 242.459C193.113 239.742 191.146 237.449 188.313 236.1Z" fill="#2F2E41"/>
<path d="M192.331 210.286C193.119 210.286 193.757 209.644 193.757 208.852C193.757 208.061 193.119 207.419 192.331 207.419C191.544 207.419 190.906 208.061 190.906 208.852C190.906 209.644 191.544 210.286 192.331 210.286Z" fill="#E8E8F0"/>
<path d="M192.019 207.777C192.337 208.417 192.393 209.155 192.175 209.836C191.95 210.504 191.641 211.141 191.257 211.732C190.926 212.34 190.526 212.909 190.065 213.426C192.266 213.531 194.395 212.67 196.329 211.628C197.892 210.787 199.448 209.752 200.282 208.181C200.033 208.24 199.775 208.247 199.523 208.199C199.271 208.152 199.033 208.053 198.823 207.907C198.403 207.618 198.028 207.269 197.709 206.871L196.609 205.634C196.36 205.361 196.141 205.062 195.958 204.741C195.716 204.302 195.614 203.8 195.665 203.301C195.226 203.759 194.737 204.166 194.206 204.513C193.418 205.028 192.553 205.399 191.758 205.907C191.484 206.089 190.859 206.377 191.022 206.742C191.185 207.106 191.797 207.387 192.019 207.777Z" fill="#FBBEBE"/>
<path opacity="0.1" d="M192.019 207.777C192.337 208.417 192.393 209.155 192.175 209.836C191.95 210.504 191.641 211.141 191.257 211.732C190.926 212.34 190.526 212.909 190.065 213.426C192.266 213.531 194.395 212.67 196.329 211.628C197.892 210.787 199.448 209.752 200.282 208.181C200.033 208.24 199.775 208.247 199.523 208.199C199.271 208.152 199.033 208.053 198.823 207.907C198.403 207.618 198.028 207.269 197.709 206.871L196.609 205.634C196.36 205.361 196.141 205.062 195.958 204.741C195.716 204.302 195.614 203.8 195.665 203.301C195.226 203.759 194.737 204.166 194.206 204.513C193.418 205.028 192.553 205.399 191.758 205.907C191.484 206.089 190.859 206.377 191.022 206.742C191.185 207.106 191.797 207.387 192.019 207.777Z" fill="black"/>
<path d="M192.044 207.993C191.821 208.306 191.702 208.682 191.702 209.067C191.702 209.453 191.821 209.828 192.044 210.143C192.11 210.221 192.344 210.709 192.442 210.715C192.49 210.712 192.536 210.698 192.579 210.675C192.622 210.654 192.659 210.622 192.69 210.586C193.19 210.063 193.655 209.508 194.083 208.924C194.519 208.342 195.146 207.931 195.854 207.765C196.731 207.731 197.593 208 198.295 208.526C198.622 208.675 198.91 208.899 199.136 209.178C199.292 209.465 199.386 209.783 199.409 210.109C199.622 212.076 199.704 214.055 199.656 216.032C199.694 217.46 199.6 218.889 199.377 220.3C199.233 221.023 199.025 221.733 198.928 222.47C198.851 223.118 198.82 223.771 198.836 224.424V227.147C198.819 227.647 198.854 228.147 198.941 228.64C199.07 229.233 199.351 229.786 199.54 230.366C199.734 231.032 199.867 231.715 199.937 232.406L200.308 235.22C200.425 236.106 200.516 237.077 199.976 237.826C199.735 238.145 199.415 238.406 199.168 238.725C198.25 239.924 198.517 241.637 198.159 243.103C197.857 244.176 197.235 245.131 196.375 245.84C196.068 246.143 195.699 246.376 195.293 246.521C194.886 246.666 194.454 246.72 194.024 246.68C192.879 246.465 192.194 245.273 191.882 244.146C191.569 243.019 191.458 241.794 190.782 240.843C190.16 240.123 189.425 239.509 188.607 239.025C187.779 238.534 187.17 237.743 186.907 236.816C186.836 236.406 186.907 235.983 186.836 235.565C186.775 235.04 186.574 234.541 186.254 234.121C185.934 233.7 185.508 233.374 185.019 233.174C184.433 232.946 183.717 232.862 183.378 232.327C184.216 231.802 184.828 230.981 185.091 230.028C185.349 229.079 185.489 228.103 185.507 227.121L185.703 223.864C185.794 222.397 185.833 220.951 186.478 219.635C186.764 219.048 187.129 218.495 187.422 217.916C187.819 217.101 188.156 216.258 188.431 215.394C188.9 214.051 189.369 212.709 189.786 211.355C189.948 210.696 190.198 210.063 190.528 209.471C190.879 208.859 191.387 208.122 192.044 207.993Z" fill="#E8E8F0"/>
<path d="M184.785 229.259H185.65L185.833 227.955C185.857 227.694 185.918 227.437 186.015 227.194C186.158 226.934 186.326 226.69 186.517 226.464C187.363 225.258 187.305 223.662 187.513 222.196C187.89 220.259 188.53 218.383 189.414 216.619L191.094 212.873C191.247 212.566 191.369 212.246 191.458 211.915C191.529 211.55 191.564 211.179 191.563 210.807C191.563 210.227 191.745 208.117 191.765 207.55C191.765 207.335 191.289 207.452 191.192 207.263C190.984 206.846 190.697 207.973 190.299 208.22C189.927 208.506 189.655 208.903 189.525 209.354C189.16 210.293 188.939 211.309 188.6 212.24C188.306 213.213 187.765 214.093 187.03 214.794C186.686 215.095 186.289 215.335 185.963 215.662C184.922 216.691 184.817 218.326 184.785 219.798C184.759 220.698 184.589 229.259 184.785 229.259Z" fill="#2F2E41"/>
<path d="M197.247 206.435C196.845 206.646 196.497 206.946 196.228 207.314C195.961 207.681 195.782 208.105 195.704 208.553C195.555 209.452 195.293 210.327 194.923 211.159C193.868 212.996 191.179 213.531 190.43 215.518C190.241 216.186 190.141 216.875 190.131 217.57C190 218.997 189.532 220.371 189.388 221.792C189.316 222.897 189.343 224.008 189.466 225.108L190.41 236.328C190.591 237.978 190.496 239.647 190.131 241.266C191.098 241.404 192.085 241.24 192.956 240.797C193.836 240.393 194.643 239.839 195.496 239.37C196.955 238.563 198.569 237.996 199.851 236.921C200.081 236.737 200.28 236.517 200.437 236.269C200.634 235.798 200.766 235.303 200.828 234.797C200.939 234.4 201.081 234.012 201.252 233.637C201.722 232.504 202.13 231.347 202.476 230.171C202.711 229.392 202.898 228.601 203.036 227.799C203.14 227.147 203.199 226.496 203.251 225.845C203.319 224.834 203.52 223.838 203.85 222.88C204.667 220.593 205.13 218.193 205.224 215.765C205.249 215.416 205.225 215.065 205.152 214.723C205.009 214.304 204.816 213.904 204.579 213.531C204.189 212.794 203.928 211.986 203.59 211.237C202.666 209.587 201.343 208.196 199.741 207.191C198.986 206.676 198.1 206.129 197.247 206.435Z" fill="#2F2E41"/>
<path d="M177.576 224.743C176.907 224.392 176.302 223.931 175.786 223.381C175.551 223.108 175.356 222.801 175.135 222.528C174.53 221.878 173.746 221.424 172.881 221.225C172.026 221.037 171.152 220.952 170.277 220.971C169.69 220.932 169.099 221.002 168.539 221.179C168.258 221.273 168.006 221.436 167.805 221.652C167.604 221.868 167.46 222.131 167.386 222.417C167.362 222.772 167.431 223.126 167.584 223.446C167.739 223.765 167.974 224.039 168.264 224.241C168.773 224.659 169.374 224.949 170.016 225.089C170.54 225.182 171.068 225.245 171.598 225.278C174.711 225.603 177.492 227.297 180.22 228.842C182.616 230.205 185.06 231.474 187.551 232.647C187.648 231.901 187.69 231.15 187.675 230.398C187.675 229.839 187.63 228.978 187.102 228.646C186.352 228.332 185.57 228.098 184.771 227.949C183.164 227.424 181.595 226.788 180.077 226.046C179.217 225.675 178.39 225.219 177.576 224.743Z" fill="#FBBEBE"/>
<path d="M191.191 207.139C194.255 207.139 196.739 204.639 196.739 201.555C196.739 198.471 194.255 195.971 191.191 195.971C188.128 195.971 185.644 198.471 185.644 201.555C185.644 204.639 188.128 207.139 191.191 207.139Z" fill="#FBBEBE"/>
<path d="M198.829 212.762C198.386 213.384 198.025 214.061 197.755 214.775C197.104 216.182 195.997 217.381 195.457 218.874C194.916 220.365 194.909 222.281 193.796 223.499C193.573 223.685 193.404 223.929 193.308 224.202C193.303 224.373 193.286 224.543 193.255 224.711C193.093 225.154 192.37 225.173 192.233 225.63C192.194 225.76 192.233 225.903 192.168 226.034C192.057 226.327 191.666 226.372 191.413 226.548C190.872 226.913 190.983 227.76 190.599 228.288C190.432 228.485 190.215 228.633 189.971 228.719C189.727 228.804 189.466 228.824 189.212 228.776C188.707 228.674 188.221 228.491 187.773 228.236C187.612 228.148 187.435 228.092 187.252 228.073C187.036 228.081 186.827 228.153 186.653 228.281C186.162 228.643 185.768 229.121 185.507 229.672C185.246 230.224 185.125 230.831 185.155 231.441C185.23 232.663 185.521 233.86 186.015 234.98C186.07 235.173 186.165 235.353 186.295 235.507C186.489 235.66 186.723 235.75 186.97 235.769C187.215 235.788 187.461 235.733 187.675 235.611C188.1 235.358 188.553 235.155 189.023 235.005C189.882 234.849 190.722 235.442 191.595 235.39C192.231 235.296 192.829 235.033 193.327 234.627C194.204 234.104 194.99 233.444 195.658 232.673C196.036 232.171 196.309 231.605 196.648 231.07C197.079 230.42 197.546 229.796 198.048 229.2L201.251 225.291C201.569 224.92 201.857 224.523 202.111 224.105C202.396 223.535 202.614 222.934 202.762 222.313C203.104 221.281 203.323 220.211 203.413 219.127C203.433 218.231 203.354 217.335 203.178 216.456C203.082 215.58 202.862 214.723 202.528 213.909C201.831 212.436 200.138 211.237 198.829 212.762Z" fill="#2F2E41"/>
<path d="M209.977 205.477C209.981 204.488 209.751 203.511 209.306 202.627C208.859 201.744 208.21 200.979 207.411 200.396C207.385 198.637 206.737 196.945 205.581 195.62C204.426 194.294 202.839 193.422 201.102 193.157C200.768 191.49 199.856 189.994 198.527 188.934C197.198 187.874 195.538 187.318 193.84 187.364C192.141 187.41 190.513 188.055 189.243 189.186C187.973 190.316 187.144 191.858 186.901 193.541C184.595 193.02 182.486 193.698 182.101 195.118C181.717 196.538 183.346 198.375 185.774 199.027C186.54 199.242 187.338 199.321 188.131 199.262C188.696 200.095 189.43 200.801 190.284 201.334C191.139 201.868 192.096 202.215 193.093 202.356C193.388 203.7 194.051 204.934 195.008 205.921C195.965 206.909 197.177 207.61 198.51 207.947C198.881 208.837 199.454 209.629 200.184 210.259C200.184 210.435 200.184 210.618 200.184 210.8C200.184 211.417 200.305 212.028 200.541 212.598C200.777 213.168 201.122 213.686 201.559 214.122C201.995 214.558 202.512 214.905 203.082 215.141C203.651 215.377 204.261 215.498 204.878 215.498C205.494 215.498 206.105 215.377 206.675 215.141C207.245 214.905 207.762 214.558 208.198 214.122C208.633 213.686 208.98 213.168 209.216 212.598C209.451 212.028 209.573 211.417 209.573 210.8C209.573 210.083 209.42 209.375 209.124 208.722C209.697 207.738 209.992 206.616 209.977 205.477Z" fill="#F86D70"/>
<path opacity="0.1" d="M183.664 195.418C184.049 193.997 186.158 193.32 188.464 193.841C188.737 192.131 189.606 190.574 190.917 189.443C192.227 188.313 193.895 187.683 195.626 187.665H196.101C195.438 187.463 194.75 187.36 194.056 187.358C192.326 187.376 190.658 188.007 189.347 189.137C188.036 190.267 187.167 191.825 186.894 193.535C184.589 193.013 182.479 193.691 182.095 195.112C181.711 196.532 183.339 198.369 185.768 199.021C186.223 199.147 186.69 199.228 187.161 199.262C184.836 198.564 183.28 196.871 183.664 195.418Z" fill="black"/>
<path opacity="0.1" d="M201.72 211.075C201.71 210.896 201.71 210.718 201.72 210.54C200.987 209.913 200.414 209.12 200.047 208.227C198.713 207.892 197.498 207.19 196.541 206.201C195.584 205.213 194.921 203.975 194.63 202.63C193.632 202.493 192.673 202.146 191.818 201.614C190.962 201.082 190.227 200.376 189.661 199.542C189.199 199.581 188.734 199.568 188.274 199.503C188.845 200.27 189.561 200.917 190.383 201.406C191.204 201.894 192.114 202.216 193.061 202.35C193.356 203.693 194.019 204.928 194.975 205.915C195.932 206.902 197.145 207.604 198.477 207.941C198.849 208.831 199.421 209.622 200.151 210.253C200.151 210.429 200.151 210.611 200.151 210.794C200.13 212.057 200.609 213.277 201.484 214.187C202.358 215.098 203.558 215.625 204.82 215.655C203.899 215.297 203.109 214.667 202.555 213.849C202.001 213.03 201.71 212.063 201.72 211.075Z" fill="black"/>
<path d="M193.736 203.605C194.11 203.321 194.106 202.682 193.726 202.181C193.345 201.679 192.732 201.504 192.357 201.789C191.982 202.075 191.987 202.712 192.367 203.214C192.748 203.715 193.361 203.89 193.736 203.605Z" fill="#FBBEBE"/>
<path d="M72.271 122.193L101.658 101.876L131.046 122.193V154.12C131.046 155.66 130.358 157.137 129.133 158.225C127.908 159.313 126.247 159.926 124.515 159.926H78.8015C77.0695 159.926 75.4084 159.313 74.1837 158.225C72.9591 157.137 72.271 155.66 72.271 154.12V122.193Z" fill="#FCFCFC" stroke="#3B5B46" stroke-width="3.62807" stroke-linecap="round" stroke-linejoin="round"/>
<path d="M91.8625 159.926V130.901H111.454V159.926" stroke="#3B5B46" stroke-width="3.62807" stroke-linecap="round" stroke-linejoin="round"/>
</g>
<defs>
<linearGradient id="paint0_linear_234_149" x1="397.516" y1="272.032" x2="397.516" y2="159.89" gradientUnits="userSpaceOnUse">
<stop stop-color="#808080" stop-opacity="0.25"/>
<stop offset="0.54" stop-color="#808080" stop-opacity="0.12"/>
<stop offset="1" stop-color="#808080" stop-opacity="0.1"/>
</linearGradient>
<linearGradient id="paint1_linear_234_149" x1="40534.6" y1="43603.3" x2="40534.6" y2="36966.7" gradientUnits="userSpaceOnUse">
<stop stop-color="#808080" stop-opacity="0.25"/>
<stop offset="0.54" stop-color="#808080" stop-opacity="0.12"/>
<stop offset="1" stop-color="#808080" stop-opacity="0.1"/>
</linearGradient>
<clipPath id="clip0_234_149">
<rect width="485" height="302.145" fill="white"/>
</clipPath>
</defs>
</svg>
