<svg width="426" height="284" viewBox="0 0 426 284" fill="none" xmlns="http://www.w3.org/2000/svg">
<path d="M187.672 163.301L123.943 205.929L61.1504 112.096L124.908 69.4671L187.672 163.301Z" fill="#F5F5F5"/>
<path d="M154.725 158.841L154.015 163.328L122.32 158.756L123.059 154.268L154.725 158.841Z" fill="#E0E0E0"/>
<path d="M138.792 142.88L143.336 143.533L138.28 174.716L133.736 174.063L138.792 142.88Z" fill="#E0E0E0"/>
<path d="M109.602 103.234C109.659 103.291 103.269 107.665 95.3456 112.947C87.422 118.258 80.9467 122.49 80.9183 122.433C80.8615 122.348 87.2515 118.002 95.1751 112.692C103.099 107.409 109.546 103.178 109.602 103.234Z" fill="#E0E0E0"/>
<path d="M133.036 97.3546C133.093 97.4114 122.471 104.597 109.322 113.401C96.1729 122.176 85.4945 129.248 85.4377 129.191C85.3809 129.134 96.0025 121.949 109.152 113.145C122.301 104.341 133.008 97.2694 133.036 97.3546Z" fill="#E0E0E0"/>
<path d="M137.742 104.371C137.77 104.428 127.149 111.613 114.028 120.417C100.879 129.221 90.1721 136.293 90.1153 136.208C90.0869 136.151 100.708 128.966 113.858 120.162C127.007 111.386 137.685 104.315 137.742 104.371Z" fill="#E0E0E0"/>
<path d="M142.435 111.384C142.491 111.469 131.87 118.654 118.721 127.43C105.571 136.234 94.893 143.305 94.8362 143.249C94.7794 143.163 105.401 135.978 118.55 127.203C131.699 118.399 142.406 111.327 142.435 111.384Z" fill="#E0E0E0"/>
<path d="M147.141 118.429C147.169 118.486 136.547 125.671 123.398 134.475C110.249 143.251 99.5705 150.323 99.5137 150.266C99.4853 150.181 110.107 143.024 123.256 134.22C136.377 125.416 147.084 118.344 147.141 118.429Z" fill="#E0E0E0"/>
<path d="M390.721 211.155L337.187 246.967L284.477 168.157L337.982 132.345L390.721 211.155Z" fill="#F5F5F5"/>
<path d="M363.057 207.435L362.46 211.183L335.85 207.349L336.446 203.601L363.057 207.435Z" fill="#E0E0E0"/>
<path d="M349.651 194.002L353.485 194.57L349.254 220.755L345.42 220.215L349.651 194.002Z" fill="#E0E0E0"/>
<path d="M325.152 160.715C325.209 160.772 319.841 164.436 313.196 168.894C306.55 173.353 301.097 176.903 301.069 176.818C301.012 176.761 306.38 173.098 313.025 168.639C319.671 164.208 325.124 160.658 325.152 160.715Z" fill="#E0E0E0"/>
<path d="M344.828 155.774C344.885 155.831 335.967 161.88 324.92 169.264C313.901 176.648 304.898 182.584 304.869 182.527C304.813 182.442 313.73 176.392 324.778 169.008C335.797 161.624 344.8 155.717 344.828 155.774Z" fill="#E0E0E0"/>
<path d="M348.78 161.681C348.837 161.738 339.919 167.787 328.872 175.171C317.824 182.555 308.85 188.49 308.793 188.405C308.765 188.348 317.682 182.299 328.701 174.915C339.749 167.531 348.752 161.596 348.78 161.681Z" fill="#E0E0E0"/>
<path d="M352.718 167.56C352.775 167.645 343.857 173.695 332.809 181.079C321.762 188.463 312.787 194.37 312.731 194.313C312.702 194.256 321.62 188.207 332.639 180.823C343.687 173.439 352.689 167.503 352.718 167.56Z" fill="#E0E0E0"/>
<path d="M356.671 173.469C356.728 173.554 347.81 179.575 336.762 186.959C325.715 194.343 316.74 200.278 316.684 200.221C316.655 200.136 325.573 194.115 336.592 186.731C347.64 179.347 356.614 173.412 356.671 173.469Z" fill="#E0E0E0"/>
<path d="M207.322 158.897L148.932 127.657L194.911 41.6621L253.33 72.9021L207.322 158.897Z" fill="#F5F5F5"/>
<path d="M197.329 131.973L193.637 133.251L184.236 107.265L187.928 105.987L197.329 131.973Z" fill="#E0E0E0"/>
<path d="M203.007 113.343L204.37 117.063L178.555 125.896L177.191 122.175L203.007 113.343Z" fill="#E0E0E0"/>
<path d="M221.358 74.9761C221.33 75.0613 215.394 71.9657 208.152 68.1033C200.882 64.2125 195.032 61.0033 195.088 60.9181C195.117 60.8329 201.052 63.9001 208.323 67.7909C215.565 71.6817 221.415 74.8909 221.358 74.9761Z" fill="#E0E0E0"/>
<path d="M235.382 90.4528C235.326 90.538 225.528 85.3692 213.486 78.9224C201.444 72.4756 191.703 67.1932 191.76 67.108C191.817 67.0228 201.615 72.1632 213.656 78.61C225.698 85.0568 235.439 90.3676 235.382 90.4528Z" fill="#E0E0E0"/>
<path d="M231.949 96.8727C231.892 96.9579 222.094 91.8175 210.052 85.3707C198.011 78.9239 188.27 73.6415 188.326 73.5563C188.355 73.4711 198.153 78.6115 210.223 85.0583C222.264 91.5051 231.977 96.7875 231.949 96.8727Z" fill="#E0E0E0"/>
<path d="M228.507 103.321C228.451 103.406 218.653 98.2371 206.611 91.8187C194.541 85.3719 184.828 80.0612 184.885 79.976C184.913 79.8908 194.711 85.0596 206.753 91.5064C218.823 97.9248 228.536 103.236 228.507 103.321Z" fill="#E0E0E0"/>
<path d="M225.044 109.738C225.016 109.823 215.218 104.683 203.148 98.2359C191.106 91.7891 181.394 86.5067 181.422 86.4215C181.479 86.3363 191.277 91.4767 203.318 97.9235C215.36 104.37 225.101 109.653 225.044 109.738Z" fill="#E0E0E0"/>
<path opacity="0.2" d="M225.354 24.992H223.877V0H225.354V24.992Z" fill="black"/>
<path d="M224.104 24.9636C252.504 24.9636 258.837 55.2096 258.837 55.2096H190.422C190.422 55.2096 198.828 24.9636 224.104 24.9636Z" fill="#378742"/>
<path d="M225.354 24.992H223.877V0H225.354V24.992Z" fill="#378742"/>
<path d="M376.955 249.836C376.955 249.893 303.541 249.978 213.002 249.978C122.434 249.978 49.0488 249.893 49.0488 249.836C49.0488 249.751 122.434 249.665 213.002 249.665C303.541 249.665 376.955 249.751 376.955 249.836Z" fill="#263238"/>
<path d="M67.1982 214.248C69.101 214.305 70.9186 215.356 72.1682 216.804C73.4462 218.252 74.213 220.07 74.7242 221.916C75.6898 225.523 75.0933 229.754 74.0709 233.333C70.1801 231.941 67.7661 227.795 66.687 225.608C64.983 222.172 63.989 214.901 67.1982 214.248Z" fill="#FDC83B"/>
<path d="M79.6713 237.678C78.4501 235.917 78.4217 233.475 79.3873 231.544C80.3529 229.641 82.2273 228.249 84.2721 227.625C85.2093 227.341 86.3169 227.227 87.1405 227.767C87.9073 228.278 88.2481 229.3 88.1345 230.209C88.0493 231.146 87.5665 231.97 87.0269 232.737C85.1241 235.293 82.8521 237.423 79.6713 237.678Z" fill="#FDC83B"/>
<path d="M80.0979 249.693C80.0695 249.693 80.0127 249.409 79.9275 248.926C79.8139 248.396 79.6814 247.715 79.5299 246.882C79.2175 245.178 78.7347 242.735 79.1039 240.009C79.4447 237.311 80.5239 235.01 81.6599 233.647C82.1995 232.937 82.7391 232.454 83.1083 232.142C83.3071 232 83.4775 231.886 83.5911 231.83C83.7047 231.754 83.7615 231.716 83.7615 231.716C83.7899 231.773 82.8527 232.369 81.8019 233.761C80.7227 235.152 79.7003 237.396 79.3595 240.066C78.9903 242.707 79.4447 245.121 79.7003 246.853C79.8423 247.734 79.9559 248.444 80.0127 248.926C80.0979 249.409 80.1263 249.693 80.0979 249.693Z" fill="#263238"/>
<path d="M68.4579 219.729C68.4579 219.71 68.5052 219.805 68.5999 220.013C68.7135 220.24 68.846 220.524 68.9975 220.865C69.3667 221.632 69.8495 222.74 70.4175 224.074C71.5819 226.801 73.1723 230.578 74.7911 234.81C76.4383 239.013 77.8299 242.875 78.7955 245.658C79.2783 247.05 79.6475 248.186 79.9031 248.981C80.0356 249.36 80.1303 249.663 80.1871 249.89C80.2628 250.098 80.2912 250.212 80.2723 250.231C80.2723 250.231 80.2344 250.127 80.1587 249.918C80.064 249.691 79.9504 249.388 79.8179 249.01C79.5055 248.214 79.1079 247.107 78.6251 245.715C77.6027 242.96 76.1827 239.098 74.5355 234.895C72.9167 230.692 71.3831 226.886 70.2471 224.16C69.7075 222.825 69.2531 221.717 68.9123 220.922C68.7608 220.562 68.6472 220.269 68.5715 220.042C68.4768 219.833 68.4389 219.729 68.4579 219.729Z" fill="#263238"/>
<path d="M75.5246 242.052C71.0658 243.869 65.5562 242.62 62.2902 239.098C61.5234 238.246 60.8418 237.025 61.353 236.002C61.8642 234.952 63.2274 234.781 64.3918 234.838C68.9074 235.179 73.1958 237.848 75.4678 241.739" fill="#FDC83B"/>
<path d="M66.149 237.933C66.149 237.905 66.4046 237.933 66.859 237.962C67.0862 237.962 67.3702 237.99 67.6826 238.047C68.0234 238.104 68.3926 238.161 68.7902 238.274C69.1878 238.359 69.6422 238.445 70.0966 238.615C70.5794 238.757 71.0622 238.956 71.5734 239.183C72.5674 239.637 73.6466 240.234 74.6406 241C75.663 241.796 76.4866 242.648 77.1966 243.528C77.509 243.954 77.8498 244.38 78.077 244.806C78.361 245.204 78.5598 245.63 78.7586 245.999C78.9574 246.34 79.071 246.709 79.213 247.021C79.355 247.305 79.4402 247.589 79.497 247.816C79.639 248.242 79.6958 248.498 79.6958 248.498C79.6106 248.527 79.355 247.533 78.5882 246.084C78.3894 245.715 78.1622 245.317 77.9066 244.92C77.651 244.522 77.3386 244.096 76.9978 243.67C76.3162 242.847 75.4642 241.995 74.4702 241.228C73.4762 240.461 72.4538 239.865 71.4598 239.41C70.977 239.183 70.4942 238.984 70.0398 238.842C69.5854 238.672 69.1594 238.558 68.7618 238.444C67.1714 238.047 66.1206 237.99 66.149 237.933Z" fill="#263238"/>
<path d="M329.275 58.731C329.616 66.9859 330.128 75.2408 330.809 83.4958C331.036 86.137 331.264 88.8918 330.241 91.3342C329.332 93.5778 327.401 95.3386 325.101 96.077C322.8 96.8153 320.216 96.4746 318.171 95.1966C316.354 94.0606 314.933 91.817 315.643 89.7722C315.984 88.7498 316.836 87.8978 317.007 86.8186C317.234 85.4554 316.297 84.1206 316.382 82.729C316.467 80.7978 318.455 79.3494 318.512 77.4182C318.54 76.2538 317.83 75.1462 317.887 73.9534C317.944 72.0222 319.875 70.7442 320.67 68.9834C321.38 67.4214 321.181 65.6322 321.323 63.9282C321.494 62.2242 322.289 60.293 323.965 59.8954" fill="#263238"/>
<path d="M319.105 88.9756C319.076 88.9472 319.587 88.8052 319.871 88.0668C320.042 87.726 320.099 87.2432 320.07 86.6752C320.07 86.1356 319.871 85.5392 319.673 84.8576C319.474 84.176 319.218 83.3808 319.36 82.5288C319.502 81.6484 320.155 80.91 320.723 80.2C321.007 79.8308 321.291 79.4616 321.49 79.0356C321.689 78.6096 321.717 78.1268 321.575 77.6724C321.291 76.7352 320.383 76.0536 319.957 74.9744C319.758 74.4632 319.758 73.8668 319.871 73.3272C319.985 72.7876 320.184 72.3048 320.411 71.8504C320.865 70.9132 321.348 70.0612 321.547 69.1808C321.945 67.3632 321.746 65.6592 322.03 64.2392C322.257 62.8192 322.882 61.7684 323.45 61.2004C323.762 60.9164 324.018 60.7744 324.217 60.6608C324.406 60.585 324.501 60.5566 324.501 60.5756C324.529 60.604 324.103 60.7176 323.535 61.2856C322.995 61.8536 322.456 62.876 322.229 64.2676C322.115 64.9492 322.087 65.7444 322.058 66.568C322.03 67.3916 322.03 68.3004 321.803 69.2376C321.604 70.1748 321.093 71.0552 320.667 71.964C320.241 72.8728 319.843 73.8952 320.241 74.8892C320.581 75.8548 321.519 76.5364 321.859 77.5872C322.03 78.0984 321.973 78.6664 321.746 79.1492C321.547 79.6036 321.235 80.0012 320.922 80.3704C320.326 81.0804 319.729 81.762 319.616 82.5572C319.474 83.3524 319.673 84.1192 319.871 84.8008C320.042 85.4824 320.241 86.1072 320.241 86.6752C320.269 87.2432 320.155 87.7544 319.985 88.1236C319.815 88.4928 319.587 88.72 319.417 88.8336C319.218 88.9472 319.105 88.9756 319.105 88.9756Z" fill="#455A64"/>
<path d="M324.012 106.983L318.048 123.625C316.429 128.141 311.346 130.413 306.887 128.567L284.564 126.295L288.143 118.371L309.5 117.235L314.64 102.439L324.012 106.983Z" fill="#B78876"/>
<path d="M350.608 245.888C350.608 245.888 342.003 229.444 335.982 213.341L336.947 247.109H327.206L319.141 145.323L328.143 144.812C328.143 144.718 328.143 144.67 328.143 144.67L349.33 143.875C348.563 153.133 342.571 188.946 342.883 190.423C343.224 192.041 358.872 241.798 358.872 241.798L350.608 245.888Z" fill="#B78876"/>
<path d="M332.597 203.941C332.512 204.566 336.147 214.761 336.261 214.108C336.261 214.108 336.374 225.127 336.374 225.44C336.374 225.44 332.654 203.628 332.597 203.941Z" fill="#A36957"/>
<path d="M332.254 199.709C332.282 200.107 332.311 200.675 332.368 201.385C332.406 201.745 332.453 202.133 332.51 202.549C332.566 202.947 332.652 203.373 332.737 203.827C332.936 204.765 333.22 205.73 333.56 206.753C334.242 208.797 335.009 210.615 335.492 211.95C335.747 212.603 335.946 213.143 336.088 213.512C336.202 213.909 336.287 214.108 336.258 214.108C336.23 214.137 336.145 213.938 335.974 213.569C335.785 213.133 335.558 212.622 335.293 212.035C334.725 210.729 333.958 208.911 333.248 206.866C332.907 205.844 332.623 204.821 332.453 203.884C332.339 203.43 332.282 202.975 332.254 202.578C332.197 202.161 332.159 201.773 332.14 201.413C332.112 200.703 332.112 200.107 332.14 199.709C332.14 199.312 332.169 199.113 332.197 199.113C332.226 199.113 332.226 199.312 332.254 199.709Z" fill="#A36957"/>
<path d="M327.026 247.594L326.998 246.685L336.994 246.259L337.023 250.037L336.398 250.065C333.672 250.235 322.454 250.69 320.636 250.15C318.591 249.525 327.026 247.594 327.026 247.594Z" fill="#455A64"/>
<path d="M337.153 249.808C337.153 249.808 337.096 249.808 336.982 249.808C336.831 249.827 336.661 249.837 336.471 249.837C335.979 249.875 335.383 249.903 334.682 249.922C333.148 249.979 331.047 250.036 328.718 250.064C326.389 250.064 324.288 250.036 322.754 249.979C322.053 249.96 321.457 249.941 320.965 249.922C320.775 249.903 320.605 249.894 320.454 249.894C320.34 249.875 320.283 249.865 320.283 249.865C320.283 249.865 320.34 249.865 320.454 249.865C320.605 249.865 320.775 249.865 320.965 249.865C321.457 249.865 322.053 249.875 322.754 249.894C324.288 249.922 326.389 249.95 328.718 249.922C331.047 249.922 333.148 249.894 334.682 249.837C335.383 249.818 335.979 249.808 336.471 249.808C336.661 249.789 336.831 249.78 336.982 249.78C337.096 249.78 337.153 249.789 337.153 249.808Z" fill="#263238"/>
<path d="M323.782 250.121C323.725 250.121 323.696 249.695 323.441 249.269C323.157 248.815 322.788 248.587 322.816 248.559C322.816 248.531 323.242 248.729 323.526 249.184C323.838 249.667 323.81 250.121 323.782 250.121Z" fill="#263238"/>
<path d="M326.703 248.615C326.675 248.643 326.533 248.473 326.391 248.246C326.22 248.019 326.135 247.82 326.164 247.791C326.192 247.763 326.334 247.933 326.476 248.161C326.618 248.416 326.732 248.615 326.703 248.615Z" fill="#263238"/>
<path d="M327.498 248.188C327.469 248.217 327.327 248.103 327.157 247.961C326.986 247.819 326.844 247.649 326.873 247.649C326.901 247.62 327.043 247.706 327.214 247.876C327.384 248.018 327.526 248.16 327.498 248.188Z" fill="#263238"/>
<path d="M328.012 247.253C328.012 247.281 327.785 247.31 327.472 247.31C327.188 247.338 326.961 247.31 326.961 247.281C326.961 247.225 327.188 247.196 327.472 247.196C327.785 247.196 328.012 247.225 328.012 247.253Z" fill="#263238"/>
<path d="M328.189 246.597C328.189 246.626 327.933 246.739 327.592 246.768C327.28 246.796 326.996 246.711 326.996 246.682C327.024 246.654 327.28 246.654 327.592 246.626C327.905 246.626 328.16 246.569 328.189 246.597Z" fill="#263238"/>
<path d="M326.36 247.762C326.36 247.762 326.105 247.791 325.707 247.762C325.508 247.734 325.281 247.677 325.026 247.592C324.912 247.564 324.77 247.535 324.656 247.45C324.571 247.393 324.514 247.336 324.486 247.251C324.458 247.166 324.514 247.052 324.571 246.996C325.196 246.683 325.792 247.024 326.02 247.336C326.162 247.478 326.218 247.649 326.247 247.762C326.275 247.876 326.275 247.933 326.247 247.933C326.247 247.933 326.218 247.677 325.963 247.393C325.849 247.251 325.65 247.109 325.423 247.024C325.196 246.967 324.884 246.939 324.656 247.081C324.571 247.166 324.6 247.28 324.713 247.336C324.827 247.422 324.94 247.45 325.082 247.507C325.31 247.592 325.537 247.62 325.736 247.677C326.105 247.734 326.36 247.734 326.36 247.762Z" fill="#263238"/>
<path d="M326.191 247.793C326.191 247.793 326.078 247.622 326.106 247.338C326.135 247.196 326.191 247.026 326.277 246.884C326.39 246.742 326.532 246.543 326.816 246.543C326.958 246.571 327.043 246.742 327.015 246.855C327.015 246.969 326.958 247.054 326.901 247.139C326.816 247.281 326.703 247.423 326.617 247.509C326.419 247.707 326.248 247.793 326.248 247.764C326.22 247.764 326.362 247.651 326.532 247.452C326.617 247.367 326.731 247.225 326.816 247.083C326.901 246.941 326.958 246.685 326.788 246.657C326.646 246.657 326.475 246.827 326.39 246.941C326.277 247.083 326.22 247.225 326.191 247.367C326.163 247.622 326.22 247.793 326.191 247.793Z" fill="#263238"/>
<path d="M336.932 247.081C336.932 247.11 336.648 247.053 336.193 247.11C335.767 247.167 335.143 247.337 334.603 247.763C334.063 248.189 333.751 248.757 333.609 249.183C333.467 249.609 333.439 249.893 333.439 249.893C333.42 249.893 333.41 249.827 333.41 249.694C333.439 249.581 333.467 249.382 333.524 249.155C333.666 248.729 333.978 248.132 334.518 247.678C335.086 247.223 335.739 247.053 336.193 247.025C336.421 246.996 336.619 247.025 336.733 247.025C336.865 247.043 336.932 247.062 336.932 247.081Z" fill="#263238"/>
<path d="M332.16 249.013C332.16 249.041 331.507 249.126 330.712 249.155C329.888 249.155 329.264 249.041 329.264 249.013C329.264 248.984 329.917 249.013 330.712 249.013C331.507 249.013 332.16 248.956 332.16 249.013Z" fill="#263238"/>
<path d="M334.089 248.984C334.117 249.012 334.06 249.126 333.975 249.268C333.918 249.41 333.89 249.552 333.833 249.552C333.805 249.552 333.805 249.381 333.862 249.211C333.947 249.04 334.089 248.955 334.089 248.984Z" fill="#263238"/>
<path d="M334.837 248.077C334.866 248.105 334.809 248.19 334.695 248.304C334.61 248.418 334.497 248.474 334.468 248.446C334.44 248.418 334.497 248.332 334.61 248.219C334.724 248.105 334.809 248.048 334.837 248.077Z" fill="#263238"/>
<path d="M335.884 247.649C335.884 247.678 335.742 247.678 335.6 247.734C335.458 247.791 335.344 247.848 335.316 247.848C335.287 247.82 335.373 247.678 335.571 247.621C335.742 247.564 335.884 247.621 335.884 247.649Z" fill="#263238"/>
<path d="M336.618 247.451C336.646 247.479 336.589 247.536 336.504 247.564C336.419 247.593 336.334 247.593 336.334 247.564C336.305 247.536 336.362 247.479 336.447 247.451C336.532 247.422 336.618 247.422 336.618 247.451Z" fill="#263238"/>
<path d="M350.409 246.709L350.04 245.885L358.957 241.398L360.519 244.834L359.98 245.118C357.537 246.396 347.512 251.395 345.609 251.65C343.508 251.934 350.409 246.709 350.409 246.709Z" fill="#455A64"/>
<path d="M360.541 244.551C360.541 244.57 360.494 244.608 360.399 244.664C360.267 244.721 360.125 244.797 359.973 244.892C359.538 245.1 358.998 245.365 358.354 245.687C356.991 246.368 355.088 247.277 352.987 248.243C350.857 249.208 348.925 250.032 347.505 250.628C346.843 250.893 346.284 251.121 345.83 251.31C345.659 251.367 345.508 251.424 345.375 251.48C345.262 251.518 345.205 251.537 345.205 251.537C345.205 251.537 345.262 251.509 345.375 251.452C345.508 251.395 345.65 251.329 345.801 251.253C346.256 251.064 346.814 250.827 347.477 250.543C348.869 249.947 350.8 249.095 352.93 248.129C355.031 247.192 356.934 246.283 358.326 245.63C358.97 245.308 359.509 245.043 359.945 244.835C360.115 244.759 360.267 244.693 360.399 244.636C360.494 244.579 360.541 244.551 360.541 244.551Z" fill="#263238"/>
<path d="M348.47 250.345C348.442 250.345 348.243 249.976 347.817 249.692C347.391 249.408 346.965 249.352 346.965 249.323C346.965 249.295 347.419 249.295 347.874 249.579C348.328 249.891 348.498 250.317 348.47 250.345Z" fill="#263238"/>
<path d="M350.547 247.761C350.519 247.789 350.32 247.704 350.093 247.562C349.866 247.42 349.695 247.278 349.724 247.249C349.724 247.221 349.923 247.306 350.15 247.448C350.377 247.59 350.547 247.732 350.547 247.761Z" fill="#263238"/>
<path d="M351.088 247.051C351.088 247.08 350.889 247.051 350.691 246.994C350.463 246.909 350.293 246.824 350.293 246.796C350.321 246.767 350.492 246.796 350.719 246.881C350.946 246.938 351.117 247.023 351.088 247.051Z" fill="#263238"/>
<path d="M351.166 245.999C351.166 246.027 350.968 246.141 350.712 246.255C350.456 246.397 350.229 246.453 350.229 246.425C350.201 246.397 350.4 246.283 350.655 246.141C350.939 246.027 351.138 245.971 351.166 245.999Z" fill="#263238"/>
<path d="M351.054 245.318C351.082 245.346 350.883 245.545 350.599 245.715C350.287 245.857 350.031 245.914 350.031 245.886C350.003 245.857 350.259 245.744 350.543 245.602C350.827 245.46 351.025 245.289 351.054 245.318Z" fill="#263238"/>
<path d="M349.866 247.137C349.866 247.137 349.667 247.279 349.298 247.392C349.099 247.449 348.872 247.506 348.616 247.534C348.474 247.534 348.332 247.563 348.19 247.534C348.105 247.534 348.02 247.506 347.963 247.421C347.906 247.364 347.906 247.222 347.935 247.165C348.361 246.626 349.071 246.682 349.411 246.881C349.582 246.966 349.695 247.08 349.781 247.165C349.837 247.25 349.866 247.307 349.866 247.336C349.837 247.336 349.724 247.108 349.355 246.938C349.184 246.853 348.985 246.824 348.73 246.853C348.503 246.881 348.19 246.995 348.048 247.222C347.991 247.307 348.077 247.421 348.219 247.421C348.332 247.449 348.474 247.421 348.588 247.421C348.843 247.392 349.071 247.364 349.269 247.307C349.639 247.194 349.866 247.108 349.866 247.137Z" fill="#263238"/>
<path d="M349.725 247.222C349.725 247.222 349.583 247.108 349.498 246.852C349.441 246.71 349.412 246.54 349.441 246.341C349.498 246.171 349.554 245.944 349.81 245.83C349.952 245.802 350.264 246.086 350.293 246.199C350.35 246.284 350.122 246.228 350.122 246.341C350.094 246.512 350.066 246.682 350.009 246.796C349.895 247.051 349.782 247.193 349.782 247.193C349.753 247.193 349.838 247.023 349.924 246.767C349.961 246.635 349.99 246.483 350.009 246.313C350.037 246.171 349.98 245.915 349.838 245.944C349.668 246 349.611 246.228 349.554 246.37C349.526 246.54 349.526 246.71 349.583 246.824C349.64 247.08 349.753 247.222 349.725 247.222Z" fill="#263238"/>
<path d="M359.23 242.165C359.258 242.193 358.974 242.278 358.576 242.506C358.207 242.733 357.696 243.159 357.384 243.755C357.071 244.38 357.043 245.005 357.071 245.459C357.1 245.913 357.213 246.169 357.185 246.198C357.185 246.198 357.156 246.131 357.1 245.999C357.071 245.885 357.014 245.686 356.986 245.459C356.929 245.005 356.958 244.351 357.298 243.698C357.611 243.073 358.122 242.647 358.548 242.42C358.747 242.307 358.917 242.25 359.031 242.222C359.163 242.184 359.23 242.165 359.23 242.165Z" fill="#263238"/>
<path d="M355.683 245.888C355.683 245.917 355.144 246.286 354.405 246.598C353.667 246.939 353.042 247.109 353.042 247.081C353.014 247.053 353.638 246.825 354.348 246.513C355.087 246.172 355.655 245.86 355.683 245.888Z" fill="#263238"/>
<path d="M357.451 245.063C357.48 245.092 357.451 245.205 357.451 245.376C357.451 245.546 357.48 245.688 357.451 245.688C357.423 245.716 357.338 245.574 357.338 245.376C357.338 245.205 357.423 245.063 357.451 245.063Z" fill="#263238"/>
<path d="M357.729 243.926C357.757 243.954 357.757 244.068 357.7 244.21C357.644 244.352 357.587 244.437 357.558 244.437C357.502 244.409 357.53 244.295 357.587 244.153C357.643 244.04 357.7 243.926 357.729 243.926Z" fill="#263238"/>
<path d="M358.523 243.131C358.523 243.159 358.409 243.216 358.296 243.33C358.182 243.415 358.097 243.528 358.068 243.528C358.04 243.528 358.068 243.358 358.21 243.216C358.352 243.102 358.494 243.102 358.523 243.131Z" fill="#263238"/>
<path d="M359.129 242.648C359.157 242.648 359.101 242.733 359.044 242.79C358.987 242.847 358.93 242.875 358.902 242.875C358.873 242.847 358.902 242.762 358.959 242.705C359.015 242.648 359.101 242.62 359.129 242.648Z" fill="#263238"/>
<path d="M323.434 129.394L323.604 119.369C323.604 119.369 322.354 116.046 321.928 114.995C321.162 113.064 320.906 107.015 320.906 107.015L322.099 115.365L309.518 109.315C309.518 109.315 314.8 94.2634 316.532 92.0766C320.963 86.3682 328.943 87.3622 328.943 87.3622L339.423 87.2486C339.423 87.2486 343.427 87.5042 347.261 89.2934L347.517 89.3502V89.407C350.527 90.8838 353.197 93.3262 353.964 97.359C355.213 103.919 354.816 106.901 354.816 106.901L346.296 106.759L347.943 127.037L323.434 129.394Z" fill="#80A08D"/>
<path d="M354.319 99.3163L355.284 110.421H340.602L342.164 103.804L354.319 99.3163Z" fill="#80A08D"/>
<path d="M353.324 110.478C352.131 110.45 350.455 110.421 348.638 110.45C346.792 110.45 345.145 110.507 343.923 110.535C342.731 110.563 341.992 110.592 341.992 110.535C341.992 110.507 342.731 110.393 343.923 110.308C345.116 110.194 346.792 110.137 348.638 110.109C350.455 110.109 352.131 110.166 353.324 110.251C354.545 110.308 355.283 110.393 355.283 110.421C355.283 110.478 354.517 110.478 353.324 110.478Z" fill="#263238"/>
<path d="M341.712 100.934C341.768 101.984 341.854 103.404 341.91 104.995C341.967 106.585 341.996 108.034 342.024 109.056C342.024 110.107 342.024 110.732 341.967 110.76C341.939 110.76 341.854 110.107 341.797 109.056C341.712 108.034 341.655 106.585 341.598 105.023C341.513 103.433 341.484 101.984 341.484 100.962C341.456 99.9113 341.484 99.2581 341.513 99.2581C341.57 99.2581 341.626 99.9113 341.712 100.934Z" fill="#263238"/>
<g opacity="0.3">
<path d="M346.058 124.677V125.756C344.723 128.511 340.605 128.539 340.605 128.539C331.432 129.193 328.166 104.996 328.166 104.996L346.058 124.677Z" fill="black"/>
</g>
<g opacity="0.3">
<path d="M341.993 110.534L342.788 110.562L340.913 114.623L339.777 112.55L341.51 100.707L341.993 110.534Z" fill="black"/>
</g>
<path d="M323.593 119.366C323.565 119.366 323.48 119.167 323.338 118.798C323.196 118.428 322.997 117.889 322.798 117.207C322.344 115.872 321.804 113.97 321.378 111.84C320.952 109.738 320.753 107.778 320.696 106.358C320.668 105.648 320.64 105.052 320.668 104.654C320.668 104.257 320.668 104.058 320.696 104.058C320.753 104.058 320.782 104.938 320.895 106.33C321.009 107.75 321.264 109.681 321.662 111.783C322.088 113.913 322.599 115.787 322.997 117.15C323.167 117.794 323.319 118.334 323.451 118.769C323.565 119.138 323.593 119.366 323.593 119.366Z" fill="#263238"/>
<path d="M327.284 126.325C327.199 126.353 326.972 125.814 326.773 125.16C326.574 124.479 326.489 123.939 326.574 123.911C326.631 123.882 326.858 124.394 327.057 125.075C327.256 125.728 327.369 126.296 327.284 126.325Z" fill="#263238"/>
<path d="M328.564 126.24C328.479 126.24 328.223 125.473 328.223 124.451C328.195 123.457 328.422 122.661 328.507 122.69C328.592 122.69 328.507 123.485 328.507 124.451C328.536 125.416 328.649 126.211 328.564 126.24Z" fill="#263238"/>
<path d="M322.339 115.647C322.31 115.704 319.385 114.34 315.807 112.551C312.228 110.762 309.36 109.257 309.417 109.172C309.445 109.115 312.37 110.506 315.949 112.267C319.527 114.056 322.396 115.562 322.339 115.647Z" fill="#263238"/>
<path d="M327.502 89.3255C327.559 86.4571 327.587 83.4183 327.587 83.4183C327.587 83.4183 323.895 82.7083 323.242 77.8803C322.645 73.2511 324.349 62.4023 324.349 62.4023C329.745 60.3575 335.34 62.2035 339.032 66.5771L338.095 89.8935C338.01 92.5915 335.596 94.6647 332.699 94.5227C329.745 94.3807 327.445 92.0519 327.502 89.3255Z" fill="#B78876"/>
<path d="M324.718 70.5233C325.058 70.5517 325.314 70.8357 325.314 71.1481C325.286 71.4889 325.002 71.7161 324.661 71.7161C324.32 71.6877 324.064 71.4037 324.064 71.0629C324.093 70.7221 324.377 70.4949 324.718 70.5233Z" fill="#263238"/>
<path d="M324.077 69.923C324.276 69.7526 324.616 69.6106 325.042 69.639C325.468 69.639 325.809 69.781 326.008 69.9514C326.235 70.1218 326.292 70.2638 326.264 70.2922C326.178 70.3774 325.724 70.0082 325.042 70.0082C324.389 69.9798 323.906 70.3206 323.821 70.2354C323.793 70.207 323.85 70.065 324.077 69.923Z" fill="#263238"/>
<path d="M331.481 70.9482C331.822 70.9766 332.106 71.2606 332.078 71.573C332.049 71.9138 331.765 72.141 331.425 72.1126C331.084 72.0842 330.828 71.8002 330.828 71.4878C330.857 71.147 331.141 70.9198 331.481 70.9482Z" fill="#263238"/>
<path d="M331.025 70.3176C331.252 70.1756 331.593 70.0336 332.019 70.0336C332.417 70.062 332.786 70.204 332.985 70.3744C333.183 70.5448 333.269 70.6868 333.24 70.7152C333.155 70.8004 332.672 70.4312 332.019 70.4312C331.337 70.4028 330.855 70.7436 330.798 70.6584C330.769 70.63 330.826 70.488 331.025 70.3176Z" fill="#263238"/>
<path d="M327.153 75.5208C327.068 75.5208 326.955 75.5208 326.841 75.464C326.756 75.4356 326.614 75.3503 326.585 75.2083C326.5 74.9527 326.614 74.754 326.671 74.5552C326.841 74.1386 327.021 73.7032 327.21 73.2488C327.949 71.4312 328.602 69.9828 328.687 70.0112C328.772 70.0396 328.204 71.5447 327.466 73.3623C327.276 73.8167 327.097 74.2427 326.926 74.6403C326.841 74.8391 326.756 75.038 326.813 75.1516C326.841 75.2652 326.983 75.2936 327.153 75.322C327.835 75.4356 328.233 75.5208 328.233 75.5492C328.233 75.5776 327.807 75.5776 327.153 75.5208Z" fill="#263238"/>
<path d="M327.582 83.416C327.582 83.416 330.82 83.7284 334.086 81.854C334.086 81.854 332.438 85.1484 327.61 84.5804L327.582 83.416Z" fill="#A36957"/>
<path d="M332.928 68.7273C332.786 68.9545 332.275 68.8693 331.707 68.7557C331.139 68.6421 330.656 68.5285 330.6 68.3013C330.543 68.0741 331.111 67.7333 331.878 67.8753C332.644 68.0173 333.07 68.5569 332.928 68.7273Z" fill="#263238"/>
<path d="M326.312 67.7617C326.255 68.0173 325.715 68.1025 325.09 68.1309C324.466 68.1593 323.898 68.1025 323.841 67.8753C323.756 67.6481 324.295 67.2789 325.034 67.2505C325.8 67.1937 326.34 67.5345 326.312 67.7617Z" fill="#263238"/>
<path d="M328.127 77.1333C328.269 77.0765 328.467 77.1617 328.553 77.3037C328.638 77.4741 328.581 77.6729 328.467 77.7865C328.325 77.9001 328.098 77.9001 327.985 77.7865C327.843 77.6729 327.814 77.4457 327.899 77.3037C327.956 77.1901 328.127 77.1049 328.269 77.1333" fill="#A36957"/>
<path d="M328.1 77.3035C328.015 77.3319 327.958 77.4171 327.93 77.5023C327.93 77.5875 327.958 77.7295 328.043 77.7863C328.129 77.8431 328.242 77.8431 328.327 77.7863C328.413 77.7579 328.469 77.6727 328.469 77.5875C328.498 77.4171 328.384 77.3035 328.413 77.2751C328.413 77.2183 328.64 77.2751 328.697 77.5591C328.725 77.7011 328.668 77.9283 328.498 78.0419C328.327 78.1555 328.072 78.1839 327.845 78.0419C327.646 77.8715 327.589 77.6159 327.646 77.4455C327.703 77.2183 327.873 77.1047 328.015 77.0763C328.299 77.0195 328.441 77.1899 328.413 77.2183C328.384 77.2467 328.242 77.1899 328.1 77.3035Z" fill="#263238"/>
<path d="M334.378 69.3525C332.788 67.6485 333.214 65.8309 333.214 65.8309C332.788 64.2973 330.999 65.0073 327.165 64.3825C323.331 63.7577 324.154 60.0089 324.154 60.0089C327.051 57.7937 331.112 57.1689 334.549 58.4469C337.985 59.6965 340.683 62.8205 341.45 66.3989C341.762 67.8757 341.791 69.4661 342.614 70.7157C343.324 71.8233 344.574 72.5049 345.426 73.5273C346.477 74.7769 346.874 76.5377 346.448 78.0997C346.108 79.3209 345.341 80.4001 345.256 81.6497C345.028 84.5465 348.493 86.9037 347.925 89.7721C347.613 91.3341 346.164 92.4417 345.682 93.9753C345.341 94.9977 345.454 96.1621 344.915 97.0709C344.233 98.2069 342.756 98.5761 341.478 98.4909C338.269 98.2069 335.543 95.2249 335.571 91.9873C335.6 89.8857 336.622 87.7273 335.827 85.7677C335.259 84.4329 333.867 83.3253 334.094 81.9053C334.265 80.7409 335.458 79.9457 335.628 78.7813C335.742 77.8441 335.145 76.9637 335.003 76.0549C334.804 74.6065 336.224 73.5841 336.792 72.2493C337.446 70.7157 335.969 71.0849 334.378 69.3525Z" fill="#263238"/>
<path d="M342.932 98.2075C342.932 98.2264 342.819 98.217 342.592 98.1791C342.364 98.1507 342.024 98.0655 341.598 97.9235C340.774 97.6111 339.61 96.9579 338.616 95.7083C338.133 95.1119 337.678 94.3451 337.366 93.4647C337.054 92.5843 336.855 91.5903 336.855 90.5395C336.826 89.5171 336.968 88.4095 337.252 87.3019C337.404 86.7528 337.584 86.2038 337.792 85.6547C338.019 85.1151 338.275 84.6039 338.417 84.0359C338.587 83.4679 338.559 82.8999 338.417 82.3603C338.275 81.8207 338.019 81.3095 337.764 80.7983C337.536 80.3155 337.281 79.8043 337.11 79.2647C336.94 78.7535 336.883 78.1855 336.997 77.6459C337.224 76.5667 337.877 75.7715 338.246 74.9763C338.644 74.1527 338.786 73.3007 338.758 72.5339C338.701 71.0003 338.048 69.8643 337.508 69.1827C336.94 68.5295 336.514 68.2739 336.542 68.2455C336.542 68.2455 336.997 68.4727 337.593 69.1259C338.161 69.7791 338.871 70.9435 338.985 72.5339C339.013 73.3291 338.9 74.2379 338.474 75.0615C338.076 75.9135 337.451 76.7087 337.252 77.7027C337.054 78.6683 337.536 79.6907 338.019 80.6847C338.275 81.1959 338.53 81.7071 338.701 82.3035C338.871 82.8715 338.9 83.5247 338.701 84.1211C338.559 84.7175 338.275 85.2287 338.076 85.7683C337.868 86.2984 337.688 86.838 337.536 87.3871C337.252 88.4663 337.11 89.5171 337.11 90.5395C337.139 92.5843 337.82 94.3735 338.786 95.5947C339.723 96.8159 340.859 97.4975 341.654 97.8099C342.45 98.1223 342.932 98.1791 342.932 98.2075Z" fill="#455A64"/>
<path d="M342.364 69.5512C342.364 69.5796 342.08 69.6364 341.512 69.6932C340.972 69.7216 340.177 69.7784 339.183 69.608C338.218 69.4376 336.996 68.9832 336.23 67.8188C335.86 67.2508 335.69 66.5692 335.463 65.916C335.207 65.2628 334.781 64.7232 334.156 64.3256C332.907 63.5304 331.458 63.4452 330.18 63.2748C328.874 63.1328 327.681 62.8772 326.858 62.2524C326.034 61.656 325.608 60.9176 325.494 60.3496C325.438 60.094 325.438 59.8668 325.466 59.7248C325.485 59.5734 325.504 59.4976 325.523 59.4976C325.551 59.4976 325.466 59.81 325.608 60.3212C325.75 60.8324 326.176 61.5424 326.971 62.082C327.766 62.65 328.931 62.8772 330.209 63.0192C331.487 63.1612 332.992 63.2464 334.327 64.07C334.98 64.496 335.491 65.1208 335.718 65.8308C335.974 66.484 336.116 67.1656 336.457 67.6768C337.138 68.7276 338.303 69.2104 339.212 69.4092C340.177 69.608 340.972 69.5796 341.512 69.5796C342.052 69.5512 342.364 69.5228 342.364 69.5512Z" fill="#455A64"/>
<path d="M340.942 64.9219C340.942 64.9503 340.715 65.0071 340.289 65.0355C339.863 65.0355 339.21 64.9503 338.5 64.6379C338.13 64.4675 337.761 64.2119 337.449 63.8995C337.108 63.5587 336.824 63.1611 336.568 62.7067C336.057 61.8547 335.546 60.7755 334.495 60.3495C333.444 59.8951 332.308 60.0087 331.314 60.0655C330.292 60.1507 329.355 60.2075 328.588 60.0371C327.821 59.8951 327.225 59.5827 326.912 59.2987C326.742 59.1567 326.628 59.0147 326.572 58.9295C326.515 58.8159 326.486 58.7591 326.486 58.7591C326.515 58.7307 326.657 58.9579 326.998 59.2135C327.31 59.4691 327.878 59.7247 328.616 59.8383C329.383 59.9519 330.264 59.8951 331.286 59.7815C332.28 59.7247 333.473 59.5827 334.609 60.0655C335.177 60.3211 335.631 60.7471 335.972 61.2015C336.313 61.6559 336.54 62.1387 336.796 62.5647C337.051 63.0191 337.307 63.4167 337.619 63.7291C337.932 64.0131 338.244 64.2687 338.585 64.4391C339.266 64.7799 339.863 64.8935 340.289 64.9219C340.715 64.9503 340.942 64.8935 340.942 64.9219Z" fill="#455A64"/>
<path d="M344.63 96.9852C344.602 96.9852 344.772 96.616 344.971 95.906C345.198 95.2244 345.397 94.1736 345.368 92.8672C345.312 91.5892 344.999 90.0272 344.147 88.522C343.721 87.7836 343.096 87.1304 342.585 86.3068C342.33 85.9092 342.102 85.4548 342.017 84.9436C341.932 84.4324 341.989 83.8928 342.131 83.41C342.472 82.416 343.04 81.5924 343.153 80.6836C343.295 79.8032 342.841 78.9796 342.415 78.2412C342.188 77.872 341.989 77.5028 341.818 77.1052C341.648 76.7076 341.534 76.31 341.478 75.9124C341.392 75.1172 341.478 74.4072 341.563 73.754C341.705 72.4476 341.591 71.3968 341.279 70.7436C340.966 70.062 340.569 69.8632 340.597 69.8348C340.616 69.8348 340.644 69.8537 340.682 69.8916C340.711 69.8916 340.796 69.9484 340.853 70.0052C341.023 70.1188 341.222 70.346 341.392 70.6868C341.733 71.34 341.904 72.476 341.762 73.7824C341.705 74.4356 341.648 75.1456 341.733 75.884C341.818 76.6508 342.188 77.3608 342.642 78.0992C342.869 78.4684 343.096 78.866 343.267 79.292C343.437 79.7464 343.522 80.2576 343.437 80.7404C343.295 81.7344 342.727 82.558 342.415 83.4952C342.273 83.9496 342.216 84.4324 342.301 84.8868C342.386 85.3412 342.585 85.7672 342.841 86.1648C343.324 86.9316 343.948 87.6132 344.374 88.4084C345.255 89.942 345.539 91.5324 345.567 92.8672C345.567 94.202 345.34 95.2528 345.084 95.9628C344.971 96.3036 344.867 96.5592 344.772 96.7296C344.677 96.9 344.63 96.9852 344.63 96.9852Z" fill="#455A64"/>
<path d="M321.486 202.834C321.486 202.834 317.652 166.567 317.425 153.162C317.226 139.757 323.474 126.551 323.474 126.551L347.926 125.5C347.926 125.5 352.783 139.104 352.868 144.812C353.038 155.917 349.914 166.879 350.255 175.683L351.079 202.834" fill="#263238"/>
<path d="M351.907 158.246C351.907 158.246 351.765 158.359 351.509 158.558C351.433 158.596 351.358 158.643 351.282 158.7C351.225 158.785 351.14 158.842 351.055 158.927C350.884 159.098 350.686 159.297 350.515 159.552C349.72 160.518 349.152 162.25 348.584 164.409C348.3 165.459 347.988 166.681 347.363 167.845C347.192 168.129 347.022 168.441 346.795 168.697C346.71 168.839 346.596 168.981 346.482 169.123L346.113 169.492C345.602 170.003 344.949 170.373 344.267 170.685C342.904 171.281 341.342 171.565 339.95 172.275C338.53 172.957 337.451 174.32 336.798 175.854C336.116 177.387 335.69 179.006 335.122 180.511C334.554 182.017 333.788 183.465 332.566 184.402C331.345 185.339 329.868 185.567 328.562 185.652C327.256 185.709 326.034 185.68 324.927 185.851C323.848 185.993 322.882 186.333 322.2 186.873C321.519 187.413 321.093 188.094 320.922 188.691C320.724 189.259 320.752 189.741 320.809 190.082C320.894 190.395 320.979 190.537 320.951 190.537C320.951 190.537 320.837 190.395 320.752 190.082C320.667 189.77 320.61 189.259 320.809 188.634C320.979 188.037 321.377 187.327 322.087 186.759C322.797 186.191 323.791 185.822 324.898 185.652C326.006 185.453 327.256 185.481 328.534 185.396C329.84 185.311 331.26 185.084 332.396 184.175C333.56 183.295 334.299 181.903 334.838 180.426C335.406 178.921 335.832 177.302 336.542 175.74C337.196 174.15 338.332 172.73 339.808 172.02C341.285 171.281 342.819 170.997 344.154 170.429C344.835 170.145 345.46 169.776 345.943 169.322L346.284 168.953C346.397 168.839 346.511 168.697 346.596 168.555C346.823 168.299 346.965 168.015 347.136 167.731C347.76 166.595 348.073 165.403 348.385 164.352C348.953 162.193 349.578 160.433 350.402 159.467C350.6 159.211 350.799 159.041 350.998 158.871C351.083 158.785 351.168 158.7 351.254 158.643C351.329 158.587 351.405 158.539 351.481 158.501C351.765 158.331 351.907 158.246 351.907 158.246Z" fill="#FAFAFA"/>
<path d="M352.039 141.46C352.058 141.46 352.077 141.621 352.096 141.943C352.096 142.284 352.039 142.738 351.925 143.335C351.641 144.527 350.761 146.146 349.142 147.623C348.347 148.361 347.381 149.071 346.274 149.696C345.195 150.349 343.973 150.974 342.724 151.684C341.503 152.366 340.225 153.161 339.117 154.24C337.981 155.263 337.129 156.626 336.362 158.074C335.595 159.523 334.914 160.999 333.977 162.277C333.522 162.931 333.011 163.499 332.415 164.01C331.847 164.493 331.222 164.89 330.569 165.231C329.291 165.913 327.984 166.31 326.791 166.679C325.57 167.077 324.434 167.389 323.44 167.815C322.446 168.213 321.594 168.696 320.884 169.179C320.203 169.661 319.663 170.173 319.294 170.655C318.527 171.593 318.385 172.274 318.328 172.246C318.328 172.246 318.385 172.094 318.499 171.791C318.641 171.479 318.839 171.053 319.209 170.57C319.578 170.087 320.089 169.548 320.799 169.037C321.509 168.525 322.361 168.043 323.355 167.617C324.349 167.191 325.485 166.85 326.706 166.452C327.899 166.055 329.205 165.657 330.455 165.004C331.08 164.663 331.676 164.265 332.244 163.783C332.784 163.3 333.295 162.732 333.749 162.107C334.658 160.857 335.311 159.409 336.107 157.961C336.873 156.484 337.754 155.092 338.918 154.013C340.054 152.934 341.361 152.139 342.61 151.429C343.86 150.747 345.053 150.122 346.16 149.497C347.268 148.873 348.205 148.163 349 147.453C350.619 146.033 351.499 144.471 351.812 143.306C352.096 142.142 352.011 141.46 352.039 141.46Z" fill="#FAFAFA"/>
<path d="M317.561 155.094C317.561 155.094 317.542 155.056 317.504 154.981C317.476 154.895 317.419 154.782 317.391 154.64C317.334 154.327 317.277 153.845 317.448 153.277C317.76 152.112 319.038 150.692 321.054 149.954C322.048 149.613 323.213 149.414 324.406 149.102C325.57 148.789 326.848 148.335 327.814 147.341C328.296 146.858 328.694 146.29 329.035 145.637C329.347 145.012 329.603 144.331 329.858 143.621C330.37 142.201 330.796 140.639 331.676 139.247C332.528 137.855 333.92 136.861 335.368 136.379C336.816 135.839 338.265 135.612 339.628 135.299C340.991 134.987 342.241 134.618 343.32 134.021C344.371 133.425 345.223 132.63 345.819 131.778C347.04 130.074 347.381 128.341 347.41 127.177C347.438 126.013 347.268 125.359 347.296 125.359C347.296 125.359 347.523 125.984 347.523 127.177C347.523 128.341 347.239 130.131 345.99 131.891C345.393 132.772 344.541 133.624 343.434 134.249C342.354 134.873 341.048 135.243 339.685 135.555C338.322 135.867 336.873 136.123 335.482 136.634C334.062 137.117 332.755 138.054 331.932 139.417C331.08 140.752 330.654 142.286 330.142 143.706C329.887 144.416 329.603 145.126 329.262 145.779C328.921 146.432 328.495 147.029 328.012 147.54C326.99 148.562 325.655 149.017 324.462 149.329C323.241 149.641 322.105 149.84 321.111 150.153C319.152 150.834 317.902 152.197 317.561 153.305C317.391 153.873 317.419 154.327 317.448 154.64C317.533 154.924 317.561 155.094 317.561 155.094Z" fill="#FAFAFA"/>
<path d="M349.938 185.739C349.957 185.739 349.976 185.862 349.995 186.108C349.995 186.335 349.995 186.704 349.882 187.13C349.683 188.011 349.001 189.204 347.723 190.198C347.098 190.709 346.36 191.163 345.48 191.532C344.628 191.902 343.662 192.214 342.668 192.526C341.646 192.839 340.595 193.151 339.572 193.634C338.55 194.117 337.613 194.798 336.789 195.679C335.966 196.531 335.256 197.496 334.46 198.32C333.665 199.172 332.756 199.854 331.819 200.365C329.973 201.416 328.014 201.756 326.423 201.785C324.833 201.813 323.555 201.472 322.703 201.16C322.305 201.018 321.964 200.876 321.766 200.762C321.557 200.649 321.453 200.592 321.453 200.592C321.453 200.573 321.567 200.611 321.794 200.706C322.021 200.791 322.334 200.933 322.76 201.046C323.583 201.33 324.861 201.614 326.423 201.586C327.985 201.529 329.888 201.16 331.706 200.138C332.614 199.626 333.466 198.945 334.233 198.121C335.028 197.298 335.738 196.36 336.562 195.48C337.414 194.571 338.408 193.861 339.459 193.378C340.51 192.896 341.56 192.555 342.583 192.242C343.577 191.958 344.542 191.674 345.394 191.305C346.246 190.964 346.985 190.51 347.61 190.027C348.859 189.09 349.541 187.954 349.768 187.102C349.995 186.25 349.91 185.739 349.938 185.739Z" fill="#FAFAFA"/>
<path d="M352.385 110.449C352.385 110.449 350.027 122.377 344.149 125.075C333.697 129.874 327.023 103.604 325.49 95.3966C324.581 92.9826 323.559 90.0574 323.189 88.467C322.536 85.5134 322.792 85.4566 323.161 85.4282C324.127 85.343 324.524 90.5686 325.064 89.3758C325.632 88.183 323.843 83.071 324.865 83.0426C326.171 82.9858 326.484 88.467 326.541 88.9214C326.597 89.3758 327.279 89.2906 327.194 88.893C327.08 88.2966 326.086 82.0202 327.364 81.9634C328.074 81.935 327.989 83.2414 327.989 83.2414C327.989 83.2414 328.5 89.177 329.097 89.1486C329.721 89.0918 329.523 85.5702 329.381 84.4058C329.239 83.2414 329.75 82.7018 330.318 83.0426C330.687 83.2698 331.226 86.8766 331.34 88.041C331.454 89.2054 331.851 90.6254 332.164 90.5686C332.789 90.4834 331.738 86.337 332.476 86.0814C333.016 85.911 333.271 86.1666 333.499 87.7286C333.555 88.2398 333.783 89.3474 333.925 90.171C334.01 90.7106 334.18 91.733 333.981 92.2442C333.811 92.6986 333.678 93.1151 333.584 93.4938C334.322 97.1858 337.389 106.387 341.365 113.26C341.365 113.26 342.132 112.153 342.416 110.562L347.159 110.449H352.385Z" fill="#B78876"/>
<path d="M327.106 89.2342C327.163 89.2058 327.305 89.1206 327.248 88.9502C327.22 88.6094 327.163 88.0982 327.049 87.445C326.964 86.7634 326.765 85.9682 326.737 85.0026C326.718 84.5293 326.718 84.0181 326.737 83.469C326.765 83.185 326.765 82.901 326.822 82.617C326.85 82.4466 326.907 82.3046 326.992 82.1626C327.106 82.0206 327.248 81.8786 327.504 81.9354H327.447C327.617 81.9354 327.759 81.9638 327.873 82.0774C327.986 82.191 328.072 82.333 328.1 82.4466C328.185 82.7306 328.214 83.0146 328.185 83.2986C328.327 84.7186 328.498 86.309 328.838 87.9846C328.876 88.1929 328.924 88.4012 328.98 88.6094C329.018 88.7041 329.056 88.7988 329.094 88.8934C329.122 88.9502 329.151 88.9786 329.179 89.007C329.179 89.0638 329.208 89.0354 329.179 89.0922C329.179 89.007 329.208 89.0638 329.236 89.0354C329.255 88.9976 329.274 88.9597 329.293 88.9218C329.331 88.8272 329.359 88.7325 329.378 88.6378C329.416 88.4106 329.444 88.1834 329.463 87.9562C329.52 87.0758 329.463 86.1386 329.406 85.173C329.388 84.9269 329.359 84.6902 329.321 84.463C329.293 84.2074 329.293 83.9518 329.35 83.6678C329.406 83.4122 329.492 83.1282 329.776 82.9294C329.918 82.8442 330.088 82.8158 330.258 82.8726C330.334 82.8916 330.4 82.92 330.457 82.9578C330.514 82.9862 330.628 83.0998 330.628 83.1566C330.883 83.6678 330.94 84.1506 331.054 84.6618C331.167 85.173 331.262 85.6937 331.338 86.2238C331.413 86.735 331.489 87.2652 331.565 87.8142C331.622 88.3254 331.678 88.865 331.82 89.3762C331.877 89.6318 331.962 89.8874 332.048 90.143C332.104 90.2566 332.161 90.3702 332.218 90.427C332.237 90.446 332.256 90.4649 332.275 90.4838H332.246C332.246 90.5028 332.246 90.5122 332.246 90.5122C332.246 90.5406 332.246 90.4838 332.246 90.5122V90.4838C332.218 90.4554 332.246 90.4838 332.275 90.427C332.332 90.2282 332.303 89.9158 332.303 89.6602C332.284 89.3762 332.265 89.1017 332.246 88.8366C332.218 88.3538 332.161 87.871 332.133 87.3882C332.133 87.161 332.133 86.9054 332.161 86.6498C332.19 86.5362 332.19 86.4226 332.246 86.2806C332.275 86.1954 332.332 86.1386 332.388 86.0818C332.445 86.0534 332.474 86.025 332.53 85.9966L332.616 85.9682C332.758 85.9398 332.9 85.9114 333.07 85.9966C333.24 86.0534 333.326 86.1954 333.382 86.309C333.524 86.5362 333.553 86.7918 333.61 87.019C333.695 87.4734 333.752 87.9278 333.837 88.3822C334.007 89.2626 334.178 90.143 334.291 91.0234C334.32 91.4778 334.376 91.9322 334.206 92.3866C334.074 92.7842 333.941 93.1818 333.808 93.5794V93.5226C334.49 96.533 335.427 99.2878 336.308 101.702C337.188 104.116 338.068 106.217 338.835 107.95C339.602 109.654 340.284 110.989 340.738 111.897C340.965 112.333 341.145 112.683 341.278 112.948C341.41 113.194 341.467 113.317 341.448 113.317C341.448 113.317 341.382 113.204 341.249 112.977C341.098 112.73 340.899 112.39 340.653 111.954C340.17 111.045 339.46 109.739 338.665 108.007C337.87 106.303 336.961 104.201 336.052 101.787C335.172 99.373 334.206 96.6182 333.524 93.5794V93.551V93.4942C333.657 93.0966 333.79 92.6896 333.922 92.273C334.036 91.9322 334.007 91.4778 333.979 91.0518C333.865 90.1998 333.695 89.3194 333.524 88.4106C333.439 87.9846 333.382 87.5302 333.297 87.0758C333.212 86.6498 333.07 86.1386 332.701 86.2806L332.616 86.309C332.597 86.328 332.578 86.3564 332.559 86.3942C332.502 86.4794 332.502 86.593 332.474 86.7066C332.445 86.9338 332.445 87.161 332.474 87.3882C332.474 87.8426 332.53 88.3254 332.559 88.8082C332.597 89.0922 332.616 89.3668 332.616 89.6318C332.644 89.9158 332.644 90.1998 332.559 90.5406C332.53 90.5974 332.502 90.7394 332.332 90.7962C332.161 90.8246 332.048 90.711 331.991 90.6542C331.877 90.5122 331.82 90.3986 331.764 90.2566C331.65 90.001 331.565 89.717 331.508 89.4614C331.366 88.9218 331.281 88.3538 331.252 87.8426C331.177 87.3125 331.101 86.7918 331.025 86.2806C330.95 85.7505 330.864 85.2393 330.77 84.747C330.656 84.2358 330.542 83.7246 330.372 83.2986C330.344 83.2418 330.344 83.2702 330.315 83.2134C330.258 83.1945 330.211 83.1756 330.173 83.1566C330.079 83.1377 329.993 83.1472 329.918 83.185C329.776 83.2986 329.69 83.4974 329.634 83.7246C329.548 84.179 329.69 84.6618 329.69 85.1446C329.776 86.1102 329.804 87.0758 329.747 87.9846C329.728 88.2118 329.7 88.4485 329.662 88.6946C329.624 88.8082 329.586 88.9218 329.548 89.0354C329.492 89.1206 329.435 89.3194 329.179 89.3194C329.037 89.3194 328.98 89.2342 328.952 89.1774C328.895 89.1206 328.895 89.0638 328.838 89.007C328.801 88.8934 328.763 88.7893 328.725 88.6946C328.668 88.4674 328.621 88.2497 328.583 88.0414C328.242 86.3374 328.1 84.747 327.958 83.2986C327.986 83.0146 327.958 82.759 327.901 82.5318C327.816 82.2762 327.674 82.1342 327.475 82.1342H327.447C327.248 82.1058 327.078 82.3898 327.021 82.6454C326.964 82.9294 326.964 83.185 326.936 83.469C326.917 84.0181 326.907 84.5293 326.907 85.0026C326.907 85.9398 327.106 86.735 327.163 87.4166C327.248 88.0698 327.305 88.581 327.305 88.9502C327.333 89.149 327.191 89.2626 327.106 89.2626C327.021 89.291 326.964 89.291 326.964 89.291C326.964 89.291 327.021 89.291 327.106 89.2342Z" fill="#A36957"/>
<path d="M285.389 126.039C285.389 126.039 282.265 129.22 280.703 130.271C280.107 130.668 282.152 126.295 282.152 126.295H278.488C278.687 122.489 283.771 119.422 286.696 118.655C288.4 118.201 289.99 118.286 289.99 118.286L285.389 126.039Z" fill="#B78876"/>
<path d="M340.138 52.2844C340.053 52.2844 339.741 49.2456 339.4 45.4968C339.059 41.7196 338.86 38.6808 338.945 38.6808C339.031 38.6524 339.371 41.6912 339.684 45.4684C340.025 49.2172 340.223 52.2844 340.138 52.2844Z" fill="#263238"/>
<path d="M356.276 38.8508C356.361 38.9076 353.862 42.5144 350.738 46.9164C347.614 51.3184 345.001 54.84 344.944 54.7832C344.888 54.7548 347.358 51.148 350.482 46.746C353.635 42.344 356.219 38.8224 356.276 38.8508Z" fill="#263238"/>
<path d="M362.984 55.209C363.012 55.2942 360.115 55.9475 356.509 56.6859C352.93 57.4243 350.005 57.9639 349.977 57.8787C349.977 57.7935 352.873 57.1403 356.452 56.4019C360.059 55.6635 362.984 55.1238 362.984 55.209Z" fill="#263238"/>
<path d="M176.217 126.38L311.912 126.238C316.484 126.238 319.693 132.514 318.245 138.535L294.446 236.032C292.515 243.956 287.204 249.324 281.183 249.352L147.078 250.005L149.719 236.487L169.798 133.224C170.593 129.192 173.206 126.408 176.217 126.38Z" fill="#FDC83B"/>
<g opacity="0.5">
<path d="M176.217 126.38L311.912 126.238C316.484 126.238 319.693 132.514 318.245 138.535L294.446 236.032C292.515 243.956 287.204 249.324 281.183 249.352L147.078 250.005L149.719 236.487L169.798 133.224C170.593 129.192 173.206 126.408 176.217 126.38Z" fill="black"/>
</g>
<path d="M289.283 245.545C289.283 245.545 287.693 250.515 270.88 250.175L119.991 250.459C115.589 250.487 111.868 246.994 111.272 242.308L98.0944 136.575C97.4128 130.951 101.474 125.925 106.756 125.896L193.348 125.47L208.116 109.737C209.763 108.004 211.95 107.039 214.279 107.01L245.405 106.925C249.807 106.897 253.528 110.39 254.124 115.076L268.324 229.499C268.324 229.499 270.028 249.834 289.283 245.545Z" fill="#FDC83B"/>
<g opacity="0.5">
<path d="M203.26 206.581L198.176 212.062L158.984 176.79L164.068 171.337L203.26 206.581Z" fill="#52695B"/>
<path d="M196.046 170.115L201.669 175.17L166.197 213.255L160.574 208.2L196.046 170.115Z" fill="#52695B"/>
</g>
<path d="M289.843 58.9577C289.502 58.7873 289.218 58.4465 289.218 58.0205L288.991 52.7381C288.962 52.4257 289.104 52.0849 289.36 51.8861C289.616 51.6589 289.956 51.6021 290.297 51.6589C291.121 51.8577 292.058 51.6873 292.853 51.1761C293.563 50.6933 294.046 49.9833 294.188 49.2165C294.302 48.4781 294.074 47.6261 293.535 46.9445C292.967 46.2061 292.143 45.6949 291.291 45.5813C289.587 45.3825 287.741 46.7173 287.258 48.4497C287.116 49.0177 286.548 49.3585 285.98 49.1881C285.384 49.0461 285.072 48.4497 285.214 47.9101C285.98 45.1553 288.82 43.1673 291.547 43.4797C292.967 43.6501 294.302 44.4453 295.239 45.6665C296.119 46.8309 296.488 48.2509 296.261 49.5573C296.062 50.8921 295.239 52.1133 294.018 52.9369C293.166 53.5049 292.143 53.8173 291.149 53.8741L291.32 57.9353C291.348 58.5033 290.894 59.0145 290.326 59.0429C290.155 59.0429 289.994 59.0145 289.843 58.9577Z" fill="#378742"/>
<path d="M291.4 61.116C291.428 61.5704 291.088 61.9964 290.605 62.0248C290.122 62.0532 289.696 61.7124 289.668 61.2296C289.639 60.7468 290.008 60.3208 290.491 60.2924C290.946 60.264 291.372 60.6332 291.4 61.116Z" fill="#378742"/>
<path d="M271.612 51.1755C271.631 50.9294 271.66 50.5886 271.698 50.1531C271.698 49.6987 271.811 49.1307 271.925 48.5059C272.01 48.1651 272.038 47.8243 272.152 47.4551C272.247 47.0954 272.36 46.7073 272.493 46.2907C273.004 44.6719 273.856 42.7407 275.276 40.7811C276.696 38.8499 278.712 36.9471 281.297 35.4703C282.546 34.7035 284.023 34.1639 285.557 33.7095C287.09 33.3119 288.766 32.9995 290.47 33.0279C291.35 32.9711 292.202 33.1131 293.111 33.1699C293.537 33.2267 293.992 33.3403 294.418 33.3971C294.872 33.4823 295.326 33.5675 295.752 33.7095C297.542 34.1639 299.274 35.0159 300.921 36.0383C304.244 38.1399 307.056 41.5195 308.618 45.6659C309.384 47.7107 309.754 49.9827 309.754 52.2831C309.81 54.5835 309.356 56.9123 308.532 59.0991L308.277 59.7523V59.5819C309.697 62.8763 311.088 66.0855 312.452 69.2095L312.622 69.6355L312.196 69.4935C309.271 68.3575 306.431 67.2499 303.704 66.1991L303.903 66.1707C301.489 68.4995 298.592 70.0615 295.696 70.8567C292.77 71.6803 289.845 71.7087 287.176 71.2259C284.534 70.7431 282.12 69.6923 280.132 68.3859C278.116 67.0511 276.526 65.4607 275.304 63.8135C274.083 62.1663 273.288 60.4907 272.692 58.9855C272.18 57.4519 271.868 56.1171 271.726 54.9811C271.669 54.4321 271.622 53.9398 271.584 53.5043C271.584 53.0689 271.584 52.6997 271.584 52.3967C271.584 52.1317 271.584 51.9139 271.584 51.7435C271.584 51.5921 271.593 51.5163 271.612 51.5163C271.612 51.5163 271.612 51.5921 271.612 51.7435C271.631 51.9139 271.641 52.1317 271.641 52.3967C271.66 52.6997 271.669 53.0594 271.669 53.4759C271.726 53.9114 271.783 54.4037 271.84 54.9527C272.01 56.0887 272.322 57.4235 272.862 58.9287C273.458 60.4055 274.282 62.0527 275.475 63.6715C276.696 65.2619 278.286 66.8523 280.274 68.1303C282.262 69.4367 284.62 70.4307 287.232 70.8851C289.874 71.3679 292.742 71.3111 295.61 70.5159C298.479 69.7207 301.29 68.1587 303.648 65.8867L303.733 65.8015L303.818 65.8299C306.573 66.8807 309.413 67.9883 312.338 69.0959L312.111 69.3799C310.748 66.2559 309.356 63.0467 307.936 59.7523L307.879 59.6671L307.936 59.5819L308.192 58.9571C308.987 56.7987 309.413 54.5267 309.356 52.2831C309.356 50.0395 309.015 47.8243 308.248 45.8079C306.743 41.7467 304.017 38.4239 300.751 36.3791C299.132 35.3567 297.428 34.5047 295.667 34.0787C295.241 33.9083 294.787 33.8231 294.361 33.7379C293.935 33.6811 293.48 33.5675 293.054 33.5107C292.174 33.4539 291.322 33.3119 290.47 33.3687C288.794 33.3119 287.147 33.6243 285.614 33.9935C284.108 34.4479 282.66 34.9875 281.41 35.7259C278.854 37.1459 276.866 39.0203 275.446 40.9231C274.026 42.8259 273.174 44.7571 272.635 46.3475C272.502 46.7451 272.379 47.1238 272.266 47.4835C272.152 47.8527 272.124 48.1935 272.038 48.5059C271.896 49.1591 271.783 49.6987 271.754 50.1531C271.717 50.5886 271.688 50.9294 271.669 51.1755C271.631 51.4027 271.612 51.5163 271.612 51.5163C271.593 51.5163 271.593 51.4027 271.612 51.1755Z" fill="#263238"/>
</svg>
